<svg width="573" height="526" xmlns="http://www.w3.org/2000/svg" xmlns:xlink="http://www.w3.org/1999/xlink"><defs><path id="a" d="M0 .825h14.693V195H0z"/><path id="c" d="M.693.825h14.693V195H.693z"/><path id="e" d="M.386.825H15.08V195H.386z"/><path id="g" d="M.158.611h14.694V84H.158z"/><path id="i" d="M.852.611h14.693V84H.852z"/><path id="k" d="M.545.611h14.693V84H.545z"/><path id="m" d="M.318.825h14.693V195H.318z"/><path id="o" d="M.01.825h14.694V195H.01z"/><path id="q" d="M.704.825h14.693V195H.704z"/><path id="s" d="M.636.41h14.693V127H.636z"/><path id="u" d="M.328.41h14.694V127H.328z"/><path id="w" d="M.022.41h14.694V127H.022z"/><path id="y" d="M.795.825H15.49V195H.795z"/><path id="A" d="M.488.825h14.694V195H.487z"/><path id="C" d="M.18.825h14.695V195H.18z"/></defs><g fill="none" fill-rule="evenodd"><path fill="#FEE4BF" d="M0 339.526h14.693l7.346-117.405z"/><path d="M18.993 270.802l3.046-48.68-8.83 47.036c1.991.79 3.917 1.332 5.784 1.644" fill="#B3B3B3"/><path fill="#E5CAAC" d="M22.04 222.121l7.346 117.405H14.693z"/><path d="M22.04 222.121l3.058 48.88a22.266 22.266 0 01-6.105-.199l3.046-48.68z" fill="#666"/><path fill="#CAB596" d="M22.04 222.121l22.04 117.405H29.386z"/><path d="M22.04 222.121l8.895 47.383A21.332 21.332 0 0125.098 271l-3.059-48.879z" fill="#333"/><g transform="translate(0 331.354)"><mask id="b" fill="#fff"><use xlink:href="#a"/></mask><path d="M7.346.825c4.042 0 7.347 3.307 7.347 7.347V195H0V8.172C0 4.132 3.305.825 7.346.825" fill="#FC0" mask="url(#b)"/></g><g transform="translate(14 331.354)"><mask id="d" fill="#fff"><use xlink:href="#c"/></mask><path d="M8.04.825c4.041 0 7.346 3.307 7.346 7.347V195H.693V8.172C.693 4.132 3.998.825 8.04.825" fill="#FEA500" mask="url(#d)"/></g><g transform="translate(29 331.354)"><mask id="f" fill="#fff"><use xlink:href="#e"/></mask><path d="M7.732.825c4.042 0 7.348 3.307 7.348 7.347V195H.386V8.172c0-4.04 3.306-7.347 7.346-7.347" fill="#CC8502" mask="url(#f)"/></g><path fill="#FEE4BF" d="M58.773 399.797l7.346-117.404-22.04 117.404z"/><path d="M63.073 331.074l3.046-48.681-8.83 47.038c1.99.789 3.917 1.33 5.784 1.643" fill="#B3B3B3"/><path fill="#E5CAAC" d="M66.12 282.393l7.346 117.404H58.773z"/><path d="M66.12 282.393l3.057 48.88a22.22 22.22 0 01-6.104-.199l3.046-48.68z" fill="#666"/><path fill="#CAB596" d="M66.12 282.393l22.04 117.404H73.465z"/><path d="M66.12 282.393l8.894 47.383a21.368 21.368 0 01-5.837 1.496l-3.058-48.879z" fill="#333"/><path d="M51.425 392.452h.001c4.041 0 7.347 3.306 7.347 7.346v126.556H44.08V399.798c0-4.04 3.306-7.346 7.346-7.346" fill="#FC0"/><path d="M66.12 392.452c4.04 0 7.346 3.306 7.346 7.346v126.556H58.773V399.798c0-4.04 3.305-7.346 7.346-7.346" fill="#FEA500"/><path d="M80.812 392.452h.001c4.041 0 7.346 3.307 7.346 7.346v126.556H73.466V399.798c0-4.04 3.305-7.346 7.346-7.346" fill="#CC8502"/><path fill="#FEE4BF" d="M102.852 450.312l7.346-117.404L88.16 450.312z"/><path d="M107.152 381.588l3.046-48.68-8.83 47.036c1.991.79 3.917 1.332 5.784 1.644" fill="#B3B3B3"/><path fill="#E5CAAC" d="M110.198 332.908l7.347 117.404h-14.693z"/><path d="M110.198 332.908l3.06 48.879a22.306 22.306 0 01-6.106-.198l3.046-48.681z" fill="#666"/><path fill="#CAB596" d="M110.198 332.908l22.04 117.404h-14.693z"/><path d="M110.198 332.908l8.895 47.383a21.424 21.424 0 01-5.836 1.496l-3.059-48.88z" fill="#333"/><g transform="translate(88 442.354)"><mask id="h" fill="#fff"><use xlink:href="#g"/></mask><path d="M7.505.611c4.042 0 7.347 3.306 7.347 7.347V84H.158V7.958c0-4.04 3.306-7.347 7.347-7.347" fill="#FC0" mask="url(#h)"/></g><g transform="translate(102 442.354)"><mask id="j" fill="#fff"><use xlink:href="#i"/></mask><path d="M8.198.611H8.2c4.041 0 7.346 3.306 7.346 7.347V84H.852V7.958c0-4.04 3.305-7.347 7.346-7.347" fill="#FEA500" mask="url(#j)"/></g><g transform="translate(117 442.354)"><mask id="l" fill="#fff"><use xlink:href="#k"/></mask><path d="M7.891.611h.001c4.041 0 7.346 3.307 7.346 7.347V84H.545V7.958C.545 3.918 3.85.611 7.891.611" fill="#CC8502" mask="url(#l)"/></g><path fill="#FEE4BF" d="M146.932 395.423l7.346-117.404-22.04 117.404z"/><path d="M151.232 326.7l3.046-48.681-8.83 47.038c1.99.789 3.917 1.33 5.784 1.643" fill="#B3B3B3"/><path fill="#E5CAAC" d="M154.278 278.019l7.347 117.404h-14.693z"/><path d="M154.278 278.019l3.058 48.879a22.22 22.22 0 01-6.104-.198l3.046-48.681z" fill="#666"/><path fill="#CAB596" d="M154.278 278.019l22.04 117.404h-14.693z"/><path d="M154.278 278.019l8.895 47.383a21.368 21.368 0 01-5.837 1.496l-3.058-48.879z" fill="#333"/><path d="M139.584 388.078h.001c4.041 0 7.347 3.306 7.347 7.346v130.93h-14.694v-130.93c0-4.041 3.305-7.346 7.346-7.346" fill="#FC0"/><path d="M154.278 388.078c4.041 0 7.347 3.306 7.347 7.346v130.93h-14.693v-130.93c0-4.041 3.304-7.346 7.346-7.346" fill="#FEA500"/><path d="M168.971 388.078c4.042 0 7.347 3.306 7.347 7.346v130.93h-14.693v-130.93c0-4.041 3.305-7.346 7.346-7.346" fill="#CC8502"/><path fill="#FEE4BF" d="M191.011 339.526l7.346-117.405-22.039 117.405z"/><path d="M195.311 270.802l3.046-48.68-8.83 47.036c1.99.79 3.918 1.332 5.785 1.644" fill="#B3B3B3"/><path fill="#E5CAAC" d="M198.357 222.121l7.347 117.405H191.01z"/><path d="M198.357 222.121l3.059 48.88a22.26 22.26 0 01-6.104-.199l3.045-48.68z" fill="#666"/><path fill="#CAB596" d="M198.357 222.121l22.04 117.405h-14.693z"/><path d="M198.357 222.121l8.896 47.383a21.332 21.332 0 01-5.837 1.496l-3.06-48.879z" fill="#333"/><g transform="translate(176 331.354)"><mask id="n" fill="#fff"><use xlink:href="#m"/></mask><path d="M7.664.825h.001c4.041 0 7.346 3.307 7.346 7.347V195H.318V8.172c0-4.04 3.305-7.347 7.346-7.347" fill="#FC0" mask="url(#n)"/></g><g transform="translate(191 331.354)"><mask id="p" fill="#fff"><use xlink:href="#o"/></mask><path d="M7.357.825c4.042 0 7.347 3.307 7.347 7.347V195H.01V8.172C.01 4.132 3.317.825 7.357.825" fill="#FEA500" mask="url(#p)"/></g><g transform="translate(205 331.354)"><mask id="r" fill="#fff"><use xlink:href="#q"/></mask><path d="M8.05.825h.001c4.041 0 7.346 3.307 7.346 7.347V195H.704V8.172C.704 4.132 4.01.825 8.05.825" fill="#CC8502" mask="url(#r)"/></g><path fill="#FEE4BF" d="M235.09 374.329l7.347-117.404-22.04 117.404z"/><path d="M239.39 305.606l3.047-48.681-8.83 47.037c1.99.789 3.917 1.332 5.784 1.644" fill="#B3B3B3"/><path fill="#E5CAAC" d="M242.437 256.925l7.347 117.404H235.09z"/><path d="M242.437 256.925l3.059 48.879a22.266 22.266 0 01-6.105-.198l3.046-48.681z" fill="#666"/><path fill="#CAB596" d="M242.437 256.925l22.04 117.404h-14.693z"/><path d="M242.437 256.925l8.895 47.383a21.37 21.37 0 01-5.836 1.496l-3.059-48.88z" fill="#333"/><path d="M227.743 366.983h.001c4.041 0 7.346 3.306 7.346 7.346v152.025h-14.693V374.329c0-4.04 3.306-7.346 7.346-7.346" fill="#FC0"/><path d="M242.437 366.983h.001c4.041 0 7.346 3.306 7.346 7.346v152.025H235.09V374.329c0-4.04 3.306-7.346 7.347-7.346" fill="#FEA500"/><path d="M257.13 366.983c4.042 0 7.347 3.307 7.347 7.346v152.025h-14.694V374.329c0-4.04 3.306-7.346 7.347-7.346" fill="#CC8502"/><path fill="#FEE4BF" d="M279.17 353.135l7.346-117.404-22.04 117.404z"/><path d="M283.47 284.412l3.046-48.681-8.83 47.038c1.992.789 3.917 1.33 5.785 1.643" fill="#B3B3B3"/><path fill="#E5CAAC" d="M286.516 235.731l7.348 117.404H279.17z"/><path d="M286.516 235.731l3.06 48.88a22.265 22.265 0 01-6.105-.199l3.045-48.681z" fill="#666"/><path fill="#CAB596" d="M286.516 235.731l22.04 117.404h-14.692z"/><path d="M286.516 235.731l8.896 47.383a21.408 21.408 0 01-5.836 1.497l-3.06-48.88z" fill="#333"/><path d="M271.823 345.79h.001c4.041 0 7.346 3.306 7.346 7.346v173.218h-14.693V353.135c0-4.04 3.305-7.345 7.346-7.345" fill="#FC0"/><path d="M286.516 345.79h.001c4.041 0 7.347 3.306 7.347 7.346v173.218H279.17V353.135c0-4.04 3.305-7.345 7.346-7.345" fill="#FEA500"/><path d="M301.21 345.79c4.042 0 7.347 3.307 7.347 7.346v173.218h-14.694V353.135c0-4.04 3.305-7.345 7.346-7.345" fill="#CC8502"/><path fill="#FEE4BF" d="M323.25 439.585l7.346-117.405-22.04 117.405z"/><path d="M327.55 370.862l3.045-48.682-8.829 47.038c1.99.789 3.917 1.332 5.783 1.644" fill="#B3B3B3"/><path fill="#E5CAAC" d="M330.595 322.18l7.348 117.405H323.25z"/><path d="M330.595 322.18l3.06 48.88a22.267 22.267 0 01-6.106-.198l3.046-48.682z" fill="#666"/><path fill="#CAB596" d="M330.595 322.18l22.041 117.405h-14.693z"/><path d="M330.595 322.18l8.896 47.384a21.404 21.404 0 01-5.837 1.496l-3.059-48.88z" fill="#333"/><path d="M315.903 432.239c4.04 0 7.347 3.306 7.347 7.347v86.768h-14.694v-86.768c0-4.041 3.306-7.347 7.347-7.347" fill="#FC0"/><path d="M330.595 432.239h.002c4.04 0 7.346 3.306 7.346 7.347v86.768H323.25v-86.768c0-4.041 3.306-7.347 7.346-7.347" fill="#FEA500"/><path d="M345.289 432.239c4.042 0 7.348 3.307 7.348 7.347v86.768h-14.694v-86.768c0-4.041 3.306-7.347 7.346-7.347" fill="#CC8502"/><path fill="#FEE4BF" d="M367.329 407.11l7.347-117.404-22.04 117.404z"/><path d="M371.63 338.386l3.045-48.68-8.83 47.036c1.991.79 3.917 1.332 5.784 1.644" fill="#B3B3B3"/><path fill="#E5CAAC" d="M374.675 289.706l7.347 117.404h-14.694z"/><path d="M374.675 289.706l3.06 48.879a22.306 22.306 0 01-6.106-.198l3.046-48.681z" fill="#666"/><path fill="#CAB596" d="M374.675 289.706l22.04 117.404h-14.693z"/><path d="M374.675 289.706l8.896 47.383a21.404 21.404 0 01-5.837 1.496l-3.059-48.88z" fill="#333"/><g transform="translate(352 399.354)"><mask id="t" fill="#fff"><use xlink:href="#s"/></mask><path d="M7.982.41c4.042 0 7.347 3.306 7.347 7.346V127H.636V7.756C.636 3.716 3.94.41 7.982.41" fill="#FC0" mask="url(#t)"/></g><g transform="translate(367 399.354)"><mask id="v" fill="#fff"><use xlink:href="#u"/></mask><path d="M7.675.41h.001c4.041 0 7.346 3.306 7.346 7.346V127H.328V7.756C.328 3.716 3.634.41 7.675.41" fill="#FEA500" mask="url(#v)"/></g><g transform="translate(382 399.354)"><mask id="x" fill="#fff"><use xlink:href="#w"/></mask><path d="M7.369.41c4.042 0 7.347 3.306 7.347 7.346V127H.022V7.756C.022 3.716 3.328.41 7.369.41" fill="#CC8502" mask="url(#x)"/></g><path fill="#FEE4BF" d="M411.409 373.493l7.347-117.405-22.04 117.405z"/><path d="M415.709 304.768l3.046-48.68-8.83 47.037c1.99.79 3.917 1.331 5.784 1.643" fill="#B3B3B3"/><path fill="#E5CAAC" d="M418.755 256.087l7.347 117.405h-14.694z"/><path d="M418.755 256.087l3.06 48.88a22.275 22.275 0 01-6.107-.199l3.047-48.68z" fill="#666"/><path fill="#CAB596" d="M418.755 256.087l22.04 117.405h-14.693z"/><path d="M418.755 256.087l8.895 47.384a21.442 21.442 0 01-5.836 1.496l-3.059-48.88z" fill="#333"/><path d="M404.062 366.146h.001c4.04 0 7.346 3.306 7.346 7.347v152.861h-14.694V373.493c0-4.041 3.306-7.347 7.347-7.347" fill="#FC0"/><path d="M418.755 366.146c4.041 0 7.347 3.306 7.347 7.347v152.861h-14.694V373.493c0-4.041 3.306-7.347 7.347-7.347" fill="#FEA500"/><path d="M433.449 366.146c4.04 0 7.347 3.307 7.347 7.347v152.861h-14.694V373.493c0-4.041 3.305-7.347 7.347-7.347" fill="#CC8502"/><path fill="#FEE4BF" d="M455.489 339.526l7.346-117.405-22.04 117.405z"/><path d="M459.789 270.802l3.046-48.68-8.83 47.036c1.99.79 3.917 1.332 5.784 1.644" fill="#B3B3B3"/><path fill="#E5CAAC" d="M462.834 222.121l7.348 117.405h-14.694z"/><path d="M462.834 222.121l3.06 48.88a22.266 22.266 0 01-6.106-.199l3.046-48.68z" fill="#666"/><path fill="#CAB596" d="M462.834 222.121l22.04 117.405h-14.692z"/><path d="M462.834 222.121l8.897 47.383a21.332 21.332 0 01-5.837 1.496l-3.06-48.879z" fill="#333"/><g transform="translate(440 331.354)"><mask id="z" fill="#fff"><use xlink:href="#y"/></mask><path d="M8.141.825h.001c4.041 0 7.347 3.307 7.347 7.347V195H.795V8.172c0-4.04 3.306-7.347 7.346-7.347" fill="#FC0" mask="url(#z)"/></g><g transform="translate(455 331.354)"><mask id="B" fill="#fff"><use xlink:href="#A"/></mask><path d="M7.835.825c4.042 0 7.346 3.307 7.346 7.347V195H.49V8.172c0-4.04 3.304-7.347 7.346-7.347" fill="#FEA500" mask="url(#B)"/></g><g transform="translate(470 331.354)"><mask id="D" fill="#fff"><use xlink:href="#C"/></mask><path d="M7.527.825h.002c4.04 0 7.346 3.307 7.346 7.347V195H.18V8.172C.18 4.132 3.487.825 7.527.825" fill="#CC8502" mask="url(#D)"/></g><path fill="#FEE4BF" d="M499.568 379.618l7.346-117.404-22.04 117.404z"/><path d="M503.868 310.894l3.046-48.68-8.83 47.037c1.99.789 3.918 1.331 5.784 1.643" fill="#B3B3B3"/><path fill="#E5CAAC" d="M506.914 262.214l7.348 117.404h-14.694z"/><path d="M506.914 262.214l3.059 48.879a22.228 22.228 0 01-6.105-.2l3.046-48.68z" fill="#666"/><path fill="#CAB596" d="M506.914 262.214l22.04 117.404h-14.692z"/><path d="M506.914 262.214l8.896 47.382a21.37 21.37 0 01-5.837 1.497l-3.06-48.88z" fill="#333"/><path d="M492.22 372.272h.001c4.041 0 7.347 3.306 7.347 7.346v146.736h-14.694V379.618c0-4.041 3.306-7.346 7.346-7.346" fill="#FC0"/><path d="M506.914 372.272c4.042 0 7.348 3.306 7.348 7.346v146.736h-14.694V379.618c0-4.041 3.306-7.346 7.346-7.346" fill="#FEA500"/><path d="M521.607 372.272c4.04 0 7.347 3.307 7.347 7.346v146.736H514.26V379.618c0-4.041 3.305-7.346 7.346-7.346" fill="#CC8502"/><path fill="#FEE4BF" d="M543.647 393.784l7.347-117.404-22.04 117.404z"/><path d="M547.948 325.061l3.046-48.682-8.83 47.038c1.99.789 3.917 1.332 5.784 1.644" fill="#B3B3B3"/><path fill="#E5CAAC" d="M550.994 276.38l7.347 117.403h-14.694z"/><path d="M550.994 276.38l3.059 48.88a22.306 22.306 0 01-6.105-.199l3.046-48.682z" fill="#666"/><path fill="#CAB596" d="M550.994 276.38l22.04 117.403H558.34z"/><path d="M550.994 276.38l8.896 47.383a21.422 21.422 0 01-5.837 1.496l-3.06-48.88z" fill="#333"/><path d="M536.3 386.438h.001c4.041 0 7.346 3.306 7.346 7.346v132.57h-14.694v-132.57c0-4.04 3.306-7.346 7.347-7.346" fill="#FC0"/><path d="M550.994 386.438c4.042 0 7.347 3.306 7.347 7.346v132.57h-14.694v-132.57c0-4.04 3.306-7.346 7.347-7.346" fill="#FEA500"/><path d="M565.687 386.438c4.041 0 7.347 3.307 7.347 7.346v132.57H558.34v-132.57c0-4.04 3.306-7.346 7.347-7.346" fill="#CC8502"/></g></svg>