<svg xmlns="http://www.w3.org/2000/svg" viewBox="0 0 500 300"><path fill="none" stroke="#111113" stroke-miterlimit="10" d="M34.5 34.4V271m0 1v7.6m66-245.2V271m0 1v7.6m67-245.2V271m0 1v7.6m66-245.2V271m0 1v7.6m67-245.2V271m0 1v7.6m66-245.2V271m0 1v7.6m67-245.2V271m0 1v7.6m67-245.2V271m0 1v7.6M35 271.5h465m-473.98 0H34m1-34h465m-473.98 0H34m1-34h465m-473.98 0H34m1-34h465m-473.98 0H34m1-33h465m-473.98 0H34m1-34h465m-473.98 0H34m1-34h465m-473.98 0H34m1-34h465m-473.98 0H34"/><path fill="#111112" d="m166.894 21.874 2.304-8.568h-1.848l-1.404 5.904h-.024l-1.464-5.904h-1.764l-1.488 5.832h-.024l-1.356-5.832h-1.884l2.268 8.568h1.908l1.428-5.832h.024l1.452 5.832zm2.472-4.296q.036-.6.3-.996t.672-.636.918-.342 1.026-.102q.468 0 .948.066t.876.258.648.534.252.906v3.228q0 .42.048.804t.168.576h-1.728q-.048-.144-.078-.294t-.042-.306q-.408.42-.96.588t-1.128.168q-.444 0-.828-.108t-.672-.336-.45-.576-.162-.828q0-.528.186-.87t.48-.546.672-.306.762-.162.756-.096.66-.108.456-.21.156-.402q0-.276-.09-.438t-.24-.252-.348-.12-.426-.03q-.504 0-.792.216t-.336.72zm3.936 1.26q-.108.096-.27.15t-.348.09-.39.06-.408.06q-.192.036-.378.096t-.324.162-.222.258-.084.396q0 .228.084.384t.228.246.336.126.396.036q.504 0 .78-.168t.408-.402.162-.474.03-.384zm5.184-3.168v-1.86h-1.704v1.86h-1.032v1.14h1.032v3.66q0 .468.156.756t.426.444.624.21.75.054q.252 0 .516-.012t.48-.048v-1.32q-.12.024-.252.036t-.276.012q-.432 0-.576-.144t-.144-.576V16.81h1.248v-1.14zm6.288 2.184h1.668q-.036-.6-.288-1.038t-.654-.732-.912-.438-1.062-.144q-.756 0-1.344.252t-.996.702-.618 1.068-.21 1.338q0 .696.228 1.278t.636 1.002.99.654 1.278.234q1.236 0 2.028-.648t.96-1.884h-1.644q-.084.576-.414.918t-.942.342q-.396 0-.672-.18t-.438-.462-.234-.63-.072-.684q0-.348.072-.702t.246-.648.45-.48.684-.186q1.092 0 1.26 1.068m2.664-4.548v8.568h1.704v-3.252q0-.948.312-1.362t1.008-.414q.612 0 .852.378t.24 1.146v3.504h1.704v-3.816q0-.576-.102-1.05t-.354-.804-.69-.516-1.122-.186q-.48 0-.984.246t-.828.786h-.036v-3.228zm11.292 4.8h-2.772q.012-.18.078-.408t.228-.432.432-.342.678-.138q.624 0 .93.336t.426.984m-2.772 1.08h4.476q.048-.72-.12-1.38t-.546-1.176-.966-.822-1.38-.306q-.708 0-1.29.252t-1.002.69-.648 1.038-.228 1.296q0 .72.222 1.32t.63 1.032.996.666 1.32.234q1.056 0 1.8-.48t1.104-1.596h-1.5q-.084.288-.456.546t-.888.258q-.72 0-1.104-.372t-.42-1.2m9.888-.432q0 .384-.072.744t-.24.642-.45.45-.702.168q-.396 0-.678-.174t-.468-.456-.27-.642-.084-.72q0-.384.078-.738t.252-.63.462-.444.708-.168.696.168.45.438.246.624.072.738m.024 2.328v.792h1.62v-8.568h-1.704v3.12h-.024q-.288-.456-.786-.69t-1.05-.234q-.684 0-1.2.27t-.858.714-.516 1.026-.174 1.206q0 .648.174 1.248t.516 1.062.87.732 1.224.27q.612 0 1.098-.222t.786-.726zm6.42-7.776v8.568h6.504V20.29h-4.62v-2.1h4.152v-1.464h-4.152V14.89h4.524v-1.584zm10.728 7.452q-.408 0-.696-.168t-.462-.438-.252-.63-.078-.732q0-.384.072-.744t.246-.636.456-.45.702-.174q.408 0 .69.174t.462.456.258.642.078.732-.072.732-.246.63-.456.438-.702.168m-3.132-5.088v8.376h1.704v-2.94h.024q.312.456.798.69t1.062.234q.684 0 1.194-.264t.852-.708.51-1.02.168-1.2q0-.66-.168-1.266t-.516-1.062-.876-.732-1.26-.276q-.576 0-1.056.228t-.792.732h-.024v-.792zm9.084-.96v-1.404h-1.704v1.404zm-1.704.96v6.204h1.704V15.67zm4.368 4.188h-1.62q.024.624.282 1.038t.66.666.918.36 1.056.108q.528 0 1.038-.102t.906-.354.642-.666.246-1.026q0-.432-.168-.726t-.444-.492-.63-.318-.726-.204q-.36-.084-.708-.156t-.618-.162-.438-.234-.168-.372q0-.192.096-.306t.234-.174.306-.078.312-.018q.456 0 .792.174t.372.666h1.62q-.048-.576-.294-.954t-.618-.606-.846-.324-.978-.096-.984.09-.864.312-.618.606-.234.984q0 .408.168.69t.444.468.63.3.726.198q.912.192 1.422.384t.51.576q0 .228-.108.378t-.27.24-.36.132-.378.042q-.252 0-.486-.06t-.414-.186-.294-.324-.114-.474m6.636-1.08q0-.372.072-.732t.246-.636.462-.45.72-.174.726.174.468.45.246.636.072.732-.072.726-.246.636-.468.45-.726.168-.72-.168-.462-.45-.246-.636-.072-.726m-1.704 0q0 .744.228 1.344t.648 1.026 1.008.654 1.32.228 1.326-.228 1.014-.654.648-1.026.228-1.344-.228-1.35-.648-1.032-1.014-.66-1.326-.234-1.32.234-1.008.66-.648 1.032-.228 1.35m11.928-.024q0 .384-.072.744t-.24.642-.45.45-.702.168q-.396 0-.678-.174t-.468-.456-.27-.642-.084-.72q0-.384.078-.738t.252-.63.462-.444.708-.168.696.168.45.438.246.624.072.738m.024 2.328v.792h1.62v-8.568h-1.704v3.12h-.024q-.288-.456-.786-.69t-1.05-.234q-.684 0-1.2.27t-.858.714-.516 1.026-.174 1.206q0 .648.174 1.248t.516 1.062.87.732 1.224.27q.612 0 1.098-.222t.786-.726zm7.08-2.976h-2.772q.012-.18.078-.408t.228-.432.432-.342.678-.138q.624 0 .93.336t.426.984m-2.772 1.08h4.476q.048-.72-.12-1.38t-.546-1.176-.966-.822-1.38-.306q-.708 0-1.29.252t-1.002.69-.648 1.038-.228 1.296q0 .72.222 1.32t.63 1.032.996.666 1.32.234q1.056 0 1.8-.48t1.104-1.596h-1.5q-.084.288-.456.546t-.888.258q-.72 0-1.104-.372t-.42-1.2m6.804.672h-1.62q.024.624.282 1.038t.66.666.918.36 1.056.108q.528 0 1.038-.102t.906-.354.642-.666.246-1.026q0-.432-.168-.726t-.444-.492-.63-.318-.726-.204q-.36-.084-.708-.156t-.618-.162-.438-.234-.168-.372q0-.192.096-.306t.234-.174.306-.078.312-.018q.456 0 .792.174t.372.666h1.62q-.048-.576-.294-.954t-.618-.606-.846-.324-.978-.096-.984.09-.864.312-.618.606-.234.984q0 .408.168.69t.444.468.63.3.726.198q.912.192 1.422.384t.51.576q0 .228-.108.378t-.27.24-.36.132-.378.042q-.252 0-.486-.06t-.414-.186-.294-.324-.114-.474m10.524-2.52V14.77h1.464q.324 0 .624.048t.528.186.366.39.138.66-.138.66-.366.39-.528.186-.624.048zm-1.884-4.032v8.568h1.884v-3.072h1.98q.804 0 1.368-.234t.918-.618.516-.882.162-1.014q0-.528-.162-1.02t-.516-.876-.918-.618-1.368-.234zm12 4.8h-2.772q.012-.18.078-.408t.228-.432.432-.342.678-.138q.624 0 .93.336t.426.984m-2.772 1.08h4.476q.048-.72-.12-1.38t-.546-1.176-.966-.822-1.38-.306q-.708 0-1.29.252t-1.002.69-.648 1.038-.228 1.296q0 .72.222 1.32t.63 1.032.996.666 1.32.234q1.056 0 1.8-.48t1.104-1.596h-1.5q-.084.288-.456.546t-.888.258q-.72 0-1.104-.372t-.42-1.2m5.484-3.516v6.204h1.704v-2.796q0-.42.084-.78t.282-.63.522-.426.792-.156q.156 0 .324.018t.288.042v-1.584q-.204-.06-.372-.06-.324 0-.624.096t-.564.27-.468.42-.324.534h-.024V15.67zm16.344 6.204 2.304-8.568h-1.848l-1.404 5.904h-.024l-1.464-5.904h-1.764l-1.488 5.832h-.024l-1.356-5.832h-1.884l2.268 8.568h1.908l1.428-5.832h.024l1.452 5.832zm6.48-3.768h-2.772q.012-.18.078-.408t.228-.432.432-.342.678-.138q.624 0 .93.336t.426.984m-2.772 1.08h4.476q.048-.72-.12-1.38t-.546-1.176-.966-.822-1.38-.306q-.708 0-1.29.252t-1.002.69-.648 1.038-.228 1.296q0 .72.222 1.32t.63 1.032.996.666 1.32.234q1.056 0 1.8-.48t1.104-1.596h-1.5q-.084.288-.456.546t-.888.258q-.72 0-1.104-.372t-.42-1.2m9.66-1.08h-2.772q.012-.18.078-.408t.228-.432.432-.342.678-.138q.624 0 .93.336t.426.984m-2.772 1.08h4.476q.048-.72-.12-1.38t-.546-1.176-.966-.822-1.38-.306q-.708 0-1.29.252t-1.002.69-.648 1.038-.228 1.296q0 .72.222 1.32t.63 1.032.996.666 1.32.234q1.056 0 1.8-.48t1.104-1.596h-1.5q-.084.288-.456.546t-.888.258q-.72 0-1.104-.372t-.42-1.2m5.64-5.88v8.568h1.704v-2.136l.66-.636 1.704 2.772h2.064l-2.604-3.924 2.34-2.28h-2.016l-2.148 2.232v-4.596zm11.136 5.448q0 .384-.072.744t-.24.642-.45.45-.702.168q-.396 0-.678-.174t-.468-.456-.27-.642-.084-.72q0-.384.078-.738t.252-.63.462-.444.708-.168.696.168.45.438.246.624.072.738m.024 2.328v.792h1.62v-8.568h-1.704v3.12h-.024q-.288-.456-.786-.69t-1.05-.234q-.684 0-1.2.27t-.858.714-.516 1.026-.174 1.206q0 .648.174 1.248t.516 1.062.87.732 1.224.27q.612 0 1.098-.222t.786-.726zm2.832-3.504q.036-.6.3-.996t.672-.636.918-.342 1.026-.102q.468 0 .948.066t.876.258.648.534.252.906v3.228q0 .42.048.804t.168.576h-1.728q-.048-.144-.078-.294t-.042-.306q-.408.42-.96.588t-1.128.168q-.444 0-.828-.108t-.672-.336-.45-.576-.162-.828q0-.528.186-.87t.48-.546.672-.306.762-.162.756-.096.66-.108.456-.21.156-.402q0-.276-.09-.438t-.24-.252-.348-.12-.426-.03q-.504 0-.792.216t-.336.72zm3.936 1.26q-.108.096-.27.15t-.348.09-.39.06-.408.06q-.192.036-.378.096t-.324.162-.222.258-.084.396q0 .228.084.384t.228.246.336.126.396.036q.504 0 .78-.168t.408-.402.162-.474.03-.384zm6.084 3.804 2.592-6.972h-1.764l-1.356 4.248h-.024l-1.404-4.248h-1.812l2.172 5.82q.072.18.072.384 0 .276-.162.504t-.498.264q-.252.012-.504-.012l-.492-.048v1.404q.264.024.522.042t.522.018q.876 0 1.368-.324t.768-1.08"/><path fill="none" stroke="#000" stroke-miterlimit="10" stroke-opacity=".102" d="M34 271.5h467"/><clipPath id="episodes-weekday__a"><path d="M0 271.6h500V300H0z"/></clipPath><g clip-path="url(#episodes-weekday__a)"><path fill="#111112" d="M56.256 286.074v8.568h1.08v-7.128h.024l2.676 7.128h.972l2.676-7.128h.024v7.128h1.08v-8.568h-1.56l-2.712 7.2-2.7-7.2zm11.004 5.472q0-.564.15-1.002t.414-.738.618-.456.75-.156.75.156.618.456.414.738.15 1.002-.15 1.002-.414.732-.618.45-.75.156-.75-.156-.618-.45-.414-.732-.15-1.002m-1.08 0q0 .684.192 1.272t.576 1.026.948.684 1.296.246q.744 0 1.302-.246t.942-.684.576-1.026.192-1.272-.192-1.278-.576-1.032-.942-.69-1.302-.252q-.732 0-1.296.252t-.948.69-.576 1.032-.192 1.278m7.224-3.108v6.204h1.02v-3.504q0-.42.114-.774t.342-.618.57-.408.81-.144q.588 0 .924.336t.336.912v4.2h1.02v-4.08q0-.504-.102-.918t-.354-.714-.66-.468-1.02-.168q-1.38 0-2.016 1.128h-.024v-.984z"/></g><clipPath id="episodes-weekday__b"><path d="M0 271.6h500V300H0z"/></clipPath><g clip-path="url(#episodes-weekday__b)"><path fill="#111112" d="M127.304 287.034v7.608h1.14v-7.608h2.856v-.96h-6.852v.96zm8.808 7.608v-6.204h-1.02v3.504q0 .42-.114.774t-.342.618-.57.408-.81.144q-.588 0-.924-.336t-.336-.912v-4.2h-1.02v4.08q0 .504.102.918t.354.714.66.462 1.02.162q.684 0 1.188-.27t.828-.846h.024v.984zm5.844-3.696h-3.564q.024-.36.156-.678t.36-.558.546-.378.714-.138q.384 0 .702.138t.552.372.372.558.162.684m.984 1.728h-1.008q-.132.612-.546.912t-1.062.3q-.504 0-.876-.168t-.612-.45-.348-.648-.096-.774h4.644q.024-.564-.102-1.188t-.456-1.152-.876-.87-1.374-.342q-.636 0-1.17.24t-.924.672-.606 1.02-.216 1.296q.024.708.21 1.308t.558 1.032.918.672 1.29.24q1.056 0 1.752-.528t.9-1.572"/></g><clipPath id="episodes-weekday__c"><path d="M0 271.6h500V300H0z"/></clipPath><g clip-path="url(#episodes-weekday__c)"><path fill="#111112" d="m197.125 294.642 2.292-8.568h-1.14l-1.74 7.128h-.024l-1.896-7.128h-1.236l-1.92 7.128h-.024l-1.68-7.128h-1.164l2.196 8.568h1.188l1.98-7.2h.024l1.956 7.2zm6.828-3.696h-3.564q.024-.36.156-.678t.36-.558.546-.378.714-.138q.384 0 .702.138t.552.372.372.558.162.684m.984 1.728h-1.008q-.132.612-.546.912t-1.062.3q-.504 0-.876-.168t-.612-.45-.348-.648-.096-.774h4.644q.024-.564-.102-1.188t-.456-1.152-.876-.87-1.374-.342q-.636 0-1.17.24t-.924.672-.606 1.02-.216 1.296q.024.708.21 1.308t.558 1.032.918.672 1.29.24q1.056 0 1.752-.528t.9-1.572m1.896-1.08q0-.456.096-.888t.312-.768.576-.54.876-.204q.528 0 .9.198t.606.522.342.75.108.882q0 .432-.102.852t-.33.75-.588.534-.876.204q-.492 0-.858-.192t-.6-.516-.348-.738-.114-.846m4.8 3.048v-8.568h-1.02v3.192h-.024q-.168-.276-.414-.462t-.522-.3-.552-.162-.516-.048q-.708 0-1.242.258t-.888.696-.528 1.026-.174 1.248.18 1.248.534 1.032.888.708 1.254.264q.648 0 1.188-.228t.792-.744h.024v.84z"/></g><clipPath id="episodes-weekday__d"><path d="M0 271.6h500V300H0z"/></clipPath><g clip-path="url(#episodes-weekday__d)"><path fill="#111112" d="M259.773 287.034v7.608h1.14v-7.608h2.856v-.96h-6.852v.96zm4.776-.96v8.568h1.02v-3.504q0-.42.114-.774t.342-.618.57-.408.81-.144q.588 0 .924.336t.336.912v4.2h1.02v-4.08q0-.504-.102-.918t-.354-.714-.66-.468-1.02-.168q-.276 0-.57.06t-.564.186-.486.324-.336.486h-.024v-3.276zm11.808 8.568v-6.204h-1.02v3.504q0 .42-.114.774t-.342.618-.57.408-.81.144q-.588 0-.924-.336t-.336-.912v-4.2h-1.02v4.08q0 .504.102.918t.354.714.66.462 1.02.162q.684 0 1.188-.27t.828-.846h.024v.984z"/></g><clipPath id="episodes-weekday__e"><path d="M0 271.6h500V300H0z"/></clipPath><g clip-path="url(#episodes-weekday__e)"><path fill="#111112" d="M327.742 286.074v8.568h1.14v-3.924h3.936v-.96h-3.936v-2.724h4.488v-.96zm6.684 2.364v6.204h1.02v-2.76q0-.6.12-1.062t.384-.786.696-.492 1.044-.168v-1.08q-.828-.024-1.368.336t-.912 1.116h-.024v-1.308zm5.112-1.116v-1.248h-1.02v1.248zm-1.02 1.116v6.204h1.02v-6.204z"/></g><clipPath id="episodes-weekday__f"><path d="M0 271.6h500V300H0z"/></clipPath><g clip-path="url(#episodes-weekday__f)"><path fill="#111112" d="M397.039 288.582h1.08q-.024-.708-.27-1.218t-.672-.846-.99-.492-1.224-.156q-.588 0-1.146.15t-.996.456-.702.78-.264 1.122q0 .588.234.978t.624.636.882.396 1.002.264l1.002.222q.492.108.882.282t.624.45.234.72q0 .468-.192.768t-.504.474-.702.246-.774.072q-.48 0-.936-.12t-.798-.372-.552-.642-.21-.93h-1.08q0 .78.282 1.35t.768.936 1.128.546 1.362.18q.588 0 1.182-.138t1.074-.444.786-.792.306-1.17q0-.636-.234-1.056t-.624-.696-.882-.438-1.002-.282-1.002-.222-.882-.258-.624-.402-.234-.642q0-.42.162-.702t.432-.45.618-.24.708-.072q.888 0 1.458.414t.666 1.338m8.148 6.036q-.264.156-.732.156-.396 0-.63-.222t-.234-.726q-.42.504-.978.726t-1.206.222q-.42 0-.798-.096t-.654-.3-.438-.534-.162-.798q0-.528.18-.864t.474-.546.672-.318.774-.18q.42-.084.798-.126t.666-.12.456-.228.168-.438q0-.336-.126-.54t-.324-.312-.444-.144-.486-.036q-.648 0-1.08.246t-.468.93h-1.02q.024-.576.24-.972t.576-.642.822-.354.99-.108q.42 0 .834.06t.75.246.54.522.204.876v3.192q0 .36.042.528t.282.168q.132 0 .312-.06zm-1.656-3.18q-.192.144-.504.21t-.654.108-.69.096-.624.174-.45.342-.174.606q0 .252.102.426t.264.282.378.156.456.048q.504 0 .864-.138t.588-.348.336-.456.108-.462zm4.02-3v-1.86h-1.02v1.86h-1.056v.9h1.056v3.948q0 .432.084.696t.258.408.456.198.678.054h.78v-.9h-.468q-.24 0-.39-.018t-.234-.078-.114-.168-.03-.288v-3.852h1.236v-.9z"/></g><clipPath id="episodes-weekday__g"><path d="M0 271.6h500V300H0z"/></clipPath><g clip-path="url(#episodes-weekday__g)"><path fill="#111112" d="M462.05 288.582h1.08q-.025-.708-.27-1.218-.247-.51-.673-.846t-.99-.492-1.224-.156q-.588 0-1.146.15t-.996.456-.702.78-.264 1.122q0 .588.234.978t.624.636.882.396 1.002.264l1.002.222q.492.108.882.282t.624.45.234.72q0 .468-.192.768t-.504.474-.702.246-.774.072q-.48 0-.936-.12t-.798-.372-.552-.642-.21-.93h-1.08q0 .78.282 1.35t.768.936 1.128.546 1.362.18q.588 0 1.182-.138t1.074-.444.786-.792.306-1.17q0-.636-.234-1.056t-.624-.696-.882-.438-1.002-.282-1.002-.222-.882-.258-.624-.402-.234-.642q0-.42.162-.702t.432-.45.618-.24.708-.072q.888 0 1.458.414t.666 1.338m7.787 6.06v-6.204h-1.02v3.504q0 .42-.114.774t-.342.618-.57.408-.81.144q-.588 0-.924-.336t-.336-.912v-4.2h-1.02v4.08q0 .504.102.918t.354.714.66.462 1.02.162q.684 0 1.188-.27t.828-.846h.024v.984zm1.536-6.204v6.204h1.02v-3.504q0-.42.114-.774t.342-.618.57-.408.81-.144q.588 0 .924.336t.336.912v4.2h1.02v-4.08q0-.504-.102-.918t-.354-.714-.66-.468-1.02-.168q-1.38 0-2.016 1.128h-.024v-.984z"/></g><path fill="none" stroke="#000" stroke-miterlimit="10" stroke-opacity=".102" d="M34.5 34v238"/><clipPath id="episodes-weekday__h"><path d="M0 0h34.02v300H0z"/></clipPath><g clip-path="url(#episodes-weekday__h)"><path fill="#111112" d="M17.932 272.254q0-.312.006-.69t.06-.756.156-.738.3-.63.498-.438.732-.168.732.168.498.438.3.63.156.738.06.756.006.69q0 .48-.03 1.074t-.192 1.116-.522.882-1.008.36-1.008-.36-.522-.882-.192-1.116-.03-1.074m-1.08.012q0 .468.024.972t.12.984.276.906.492.75.786.51 1.134.186q.672 0 1.14-.186t.78-.51.492-.75.276-.906.12-.984.024-.972-.024-.972-.12-.984-.276-.912-.492-.756-.786-.516-1.134-.192-1.134.192-.786.516-.492.756-.276.912-.12.984-.024.972"/></g><clipPath id="episodes-weekday__i"><path d="M0 0h34.02v300H0z"/></clipPath><g clip-path="url(#episodes-weekday__i)"><path fill="#111112" d="M10.204 237.06h1.02q-.012-.384.078-.762t.294-.678.522-.486.762-.186q.336 0 .636.108t.522.312.354.486.132.63q0 .444-.138.78t-.408.624-.678.57-.948.618q-.444.264-.852.564t-.732.696-.534.93-.27 1.29h5.556v-.9h-4.368q.072-.396.306-.702t.564-.57.726-.498.792-.474q.396-.252.768-.528t.66-.618.462-.774.174-.996q0-.6-.21-1.056t-.57-.762-.846-.468-1.038-.162q-.672 0-1.2.228t-.882.63-.522.954-.132 1.2m7.728 1.308q0-.312.006-.69t.06-.756.156-.738.3-.63.498-.438.732-.168.732.168.498.438.3.63.156.738.06.756.006.69q0 .48-.03 1.074t-.192 1.116-.522.882-1.008.36-1.008-.36-.522-.882-.192-1.116-.03-1.074m-1.08.012q0 .468.024.972t.12.984.276.906.492.75.786.51 1.134.186q.672 0 1.14-.186t.78-.51.492-.75.276-.906.12-.984.024-.972-.024-.972-.12-.984-.276-.912-.492-.756-.786-.516-1.134-.192-1.134.192-.786.516-.492.756-.276.912-.12.984-.024.972"/></g><clipPath id="episodes-weekday__j"><path d="M0 0h34.02v300H0z"/></clipPath><g clip-path="url(#episodes-weekday__j)"><path fill="#111112" d="M13.744 205.779h-2.856l2.832-4.164h.024zm.96 0v-5.616h-.816l-3.876 5.532v.984h3.732v1.992h.96v-1.992h1.152v-.9zm3.228-1.296q0-.312.006-.69t.06-.756.156-.738.3-.63.498-.438.732-.168.732.168.498.438.3.63.156.738.06.756.006.69q0 .48-.03 1.074t-.192 1.116-.522.882-1.008.36-1.008-.36-.522-.882-.192-1.116-.03-1.074m-1.08.012q0 .468.024.972t.12.984.276.906.492.75.786.51 1.134.186q.672 0 1.14-.186t.78-.51.492-.75.276-.906.12-.984.024-.972-.024-.972-.12-.984-.276-.912-.492-.756-.786-.516-1.134-.192-1.134.192-.786.516-.492.756-.276.912-.12.984-.024.972"/></g><clipPath id="episodes-weekday__k"><path d="M0 0h34.02v300H0z"/></clipPath><g clip-path="url(#episodes-weekday__k)"><path fill="#111112" d="M14.644 168.449h1.02q-.096-1.056-.72-1.614t-1.68-.558q-.912 0-1.512.384t-.96 1.02-.51 1.458-.15 1.698q0 .672.102 1.392t.414 1.32.888.984 1.524.384q.804 0 1.35-.27t.876-.684.474-.918.144-.972q0-.588-.18-1.092t-.51-.876-.816-.582-1.098-.21q-.696 0-1.23.264t-.894.852l-.024-.024q.012-.492.096-1.056t.306-1.05.618-.804 1.044-.318q.612 0 .984.348t.444.924m-1.536 1.764q.432 0 .756.156t.54.414.318.612.102.75q0 .372-.114.714t-.33.606-.534.414-.738.15-.75-.15-.552-.402-.342-.6-.12-.744.114-.75.342-.612.552-.408.756-.15m4.824.384q0-.312.006-.69t.06-.756.156-.738.3-.63.498-.438.732-.168.732.168.498.438.3.63.156.738.06.756.006.69q0 .48-.03 1.074t-.192 1.116-.522.882-1.008.36-1.008-.36-.522-.882-.192-1.116-.03-1.074m-1.08.012q0 .468.024.972t.12.984.276.906.492.75.786.51 1.134.186q.672 0 1.14-.186t.78-.51.492-.75.276-.906.12-.984.024-.972-.024-.972-.12-.984-.276-.912-.492-.756-.786-.516-1.134-.192-1.134.192-.786.516-.492.756-.276.912-.12.984-.024.972"/></g><clipPath id="episodes-weekday__l"><path d="M0 0h34.02v300H0z"/></clipPath><g clip-path="url(#episodes-weekday__l)"><path fill="#111112" d="M11.536 134.599q0-.324.12-.564t.318-.408.474-.252.576-.084q.624 0 1.026.33t.402.978-.396 1.008-1.008.36q-.312 0-.588-.084t-.48-.252-.324-.426-.12-.606m-1.08-.036q0 .576.324 1.062t.864.702q-.72.252-1.104.81t-.384 1.314q0 .648.222 1.134t.612.81.918.48 1.14.156q.588 0 1.104-.168t.894-.498.6-.81.222-1.104q0-.792-.372-1.338t-1.14-.786q.54-.24.858-.714t.318-1.05q0-.408-.144-.798t-.45-.696-.798-.492-1.188-.186q-.492 0-.942.144t-.798.42-.552.678-.204.93m.78 3.936q0-.372.138-.672t.384-.516.576-.33.702-.114q.36 0 .678.126t.558.342.378.51.138.642q0 .36-.126.66t-.36.522-.552.348-.702.126q-.792 0-1.302-.438t-.51-1.206m6.696-1.788q0-.312.006-.69t.06-.756.156-.738.3-.63.498-.438.732-.168.732.168.498.438.3.63.156.738.06.756.006.69q0 .48-.03 1.074t-.192 1.116-.522.882-1.008.36-1.008-.36-.522-.882-.192-1.116-.03-1.074m-1.08.012q0 .468.024.972t.12.984.276.906.492.75.786.51 1.134.186q.672 0 1.14-.186t.78-.51.492-.75.276-.906.12-.984.024-.972-.024-.972-.12-.984-.276-.912-.492-.756-.786-.516-1.134-.192-1.134.192-.786.516-.492.756-.276.912-.12.984-.024.972"/></g><clipPath id="episodes-weekday__m"><path d="M0 0h34.02v300H0z"/></clipPath><g clip-path="url(#episodes-weekday__m)"><path fill="#111112" d="M7.276 107.013v-8.508h-.78q-.084.48-.312.792t-.558.492-.738.246-.84.066v.816h2.208v6.096zm3.984-4.188q0-.312.006-.69t.06-.756.156-.738.3-.63.498-.438.732-.168.732.168.498.438.3.63.156.738.06.756.006.69q0 .48-.03 1.074t-.192 1.116-.522.882-1.008.36-1.008-.36-.522-.882-.192-1.116-.03-1.074m-1.08.012q0 .468.024.972t.12.984.276.906.492.75.786.51 1.134.186q.672 0 1.14-.186t.78-.51.492-.75.276-.906.12-.984.024-.972-.024-.972-.12-.984-.276-.912-.492-.756-.786-.516-1.134-.192-1.134.192-.786.516-.492.756-.276.912-.12.984-.024.972m7.752-.012q0-.312.006-.69t.06-.756.156-.738.3-.63.498-.438.732-.168.732.168.498.438.3.63.156.738.06.756.006.69q0 .48-.03 1.074t-.192 1.116-.522.882-1.008.36-1.008-.36-.522-.882-.192-1.116-.03-1.074m-1.08.012q0 .468.024.972t.12.984.276.906.492.75.786.51 1.134.186q.672 0 1.14-.186t.78-.51.492-.75.276-.906.12-.984.024-.972-.024-.972-.12-.984-.276-.912-.492-.756-.786-.516-1.134-.192-1.134.192-.786.516-.492.756-.276.912-.12.984-.024.972"/></g><clipPath id="episodes-weekday__n"><path d="M0 0h34.02v300H0z"/></clipPath><g clip-path="url(#episodes-weekday__n)"><path fill="#111112" d="M7.276 73.128V64.62h-.78q-.084.48-.312.792t-.558.492-.738.246-.84.066v.816h2.208v6.096zm2.928-5.496h1.02q-.012-.384.078-.762t.294-.678.522-.486.762-.186q.336 0 .636.108t.522.312.354.486.132.63q0 .444-.138.78t-.408.624-.678.57-.948.618q-.444.264-.852.564t-.732.696-.534.93-.27 1.29h5.556v-.9h-4.368q.072-.396.306-.702t.564-.57.726-.498.792-.474q.396-.252.768-.528t.66-.618.462-.774.174-.996q0-.6-.21-1.056t-.57-.762-.846-.468-1.038-.162q-.672 0-1.2.228t-.882.63-.522.954-.132 1.2m7.728 1.308q0-.312.006-.69t.06-.756.156-.738.3-.63.498-.438.732-.168.732.168.498.438.3.63.156.738.06.756.006.69q0 .48-.03 1.074t-.192 1.116-.522.882-1.008.36-1.008-.36-.522-.882-.192-1.116-.03-1.074m-1.08.012q0 .468.024.972t.12.984.276.906.492.75.786.51 1.134.186q.672 0 1.14-.186t.78-.51.492-.75.276-.906.12-.984.024-.972-.024-.972-.12-.984-.276-.912-.492-.756-.786-.516-1.134-.192-1.134.192-.786.516-.492.756-.276.912-.12.984-.024.972"/></g><clipPath id="episodes-weekday__o"><path d="M0 0h34.02v300H0z"/></clipPath><g clip-path="url(#episodes-weekday__o)"><path fill="#111112" d="M7.276 39.242v-8.508h-.78q-.084.48-.312.792t-.558.492-.738.246-.84.066v.816h2.208v6.096zm6.468-2.892h-2.856l2.832-4.164h.024zm.96 0v-5.616h-.816l-3.876 5.532v.984h3.732v1.992h.96V37.25h1.152v-.9zm3.228-1.296q0-.312.006-.69t.06-.756.156-.738.3-.63.498-.438.732-.168.732.168.498.438.3.63.156.738.06.756.006.69q0 .48-.03 1.074t-.192 1.116-.522.882-1.008.36-1.008-.36-.522-.882-.192-1.116-.03-1.074m-1.08.012q0 .468.024.972t.12.984.276.906.492.75.786.51 1.134.186q.672 0 1.14-.186t.78-.51.492-.75.276-.906.12-.984.024-.972-.024-.972-.12-.984-.276-.912-.492-.756-.786-.516-1.134-.192-1.134.192-.786.516-.492.756-.276.912-.12.984-.024.972"/></g><clipPath id="episodes-weekday__p"><path d="M34.02 34.4H500v237.2H34.02z"/></clipPath><g clip-path="url(#episodes-weekday__p)"><path fill="#000001" d="M43.34 183.497h47.929V271.1h-47.93z"/></g><clipPath id="episodes-weekday__q"><path d="M34.02 34.4H500v237.2H34.02z"/></clipPath><g clip-path="url(#episodes-weekday__q)"><path fill="#000001" d="M109.908 207.217h47.93V271.1h-47.93z"/></g><clipPath id="episodes-weekday__r"><path d="M34.02 34.4H500v237.2H34.02z"/></clipPath><g clip-path="url(#episodes-weekday__r)"><path fill="#000001" d="M176.477 63.203h47.93V271.1h-47.93z"/></g><clipPath id="episodes-weekday__s"><path d="M34.02 34.4H500v237.2H34.02z"/></clipPath><g clip-path="url(#episodes-weekday__s)"><path fill="#000001" d="M243.045 71.674h47.93V271.1h-47.93z"/></g><clipPath id="episodes-weekday__t"><path d="M34.02 34.4H500v237.2H34.02z"/></clipPath><g clip-path="url(#episodes-weekday__t)"><path fill="#000001" d="M309.614 173.331h47.93V271.1h-47.93z"/></g><clipPath id="episodes-weekday__u"><path d="M34.02 34.4H500v237.2H34.02z"/></clipPath><g clip-path="url(#episodes-weekday__u)"><path fill="#000001" d="M376.182 142.834h47.93V271.1h-47.93z"/></g><clipPath id="episodes-weekday__v"><path d="M34.02 34.4H500v237.2H34.02z"/></clipPath><g clip-path="url(#episodes-weekday__v)"><path fill="#000001" d="M442.751 97.089h47.93V271.1h-47.93z"/></g></svg>