<svg xmlns="http://www.w3.org/2000/svg" xmlns:xlink="http://www.w3.org/1999/xlink" width="480" height="288" viewBox="0 0 360 216"><defs><style>*{stroke-linejoin:round;stroke-linecap:butt}</style></defs><g id="figure_1"><path id="patch_1" d="M0 216h360V0H0z" style="fill:none"/><g id="axes_1"><path id="patch_2" d="M27.47 184.84H360V0H27.47z" style="fill:none"/><path id="patch_3" d="M30.241 184.84H52.41V59.099H30.24z" clip-path="url(#p64f588e607)" style="fill:#212121"/><path id="patch_4" d="M57.952 184.84H80.12V59.099H57.95z" clip-path="url(#p64f588e607)" style="fill:#212121"/><path id="patch_5" d="M85.663 184.84h22.168V33.95H85.663z" clip-path="url(#p64f588e607)" style="fill:#212121"/><path id="patch_6" d="M113.374 184.84h22.168V8.802h-22.168z" clip-path="url(#p64f588e607)" style="fill:#212121"/><path id="patch_7" d="M141.084 184.84h22.17V84.247h-22.17z" clip-path="url(#p64f588e607)" style="fill:#212121"/><path id="patch_8" d="M168.795 184.84h22.169v-25.148h-22.169z" clip-path="url(#p64f588e607)" style="fill:#212121"/><path id="patch_9" d="M196.506 184.84h22.169v-25.148h-22.169z" clip-path="url(#p64f588e607)" style="fill:#212121"/><path id="patch_10" d="M224.217 184.84h22.169V84.247h-22.17z" clip-path="url(#p64f588e607)" style="fill:#212121"/><path id="patch_11" d="M251.928 184.84h22.168V33.95h-22.168z" clip-path="url(#p64f588e607)" style="fill:#212121"/><path id="patch_12" d="M279.639 184.84h22.168V33.95H279.64z" clip-path="url(#p64f588e607)" style="fill:#212121"/><path id="patch_13" d="M307.35 184.84h22.168v-50.297H307.35z" clip-path="url(#p64f588e607)" style="fill:#212121"/><path id="patch_14" d="M335.06 184.84h22.169V8.802H335.06z" clip-path="url(#p64f588e607)" style="fill:#212121"/><g id="matplotlib.axis_1"><g id="xtick_1"><g id="line2d_1"><defs><path id="m8a86010ea2" d="M0 0v3.5" style="stroke:#000;stroke-width:.8"/></defs><use xlink:href="#m8a86010ea2" x="41.325" y="184.84" style="stroke:#000;stroke-width:.8"/></g><g id="text_1" transform="matrix(.1 0 0 -.1 33.618 199.438)"><defs><path id="DejaVuSans-4a" d="M628 4666h631V325q0-844-320-1225T-91-1281h-240v531h197q418 0 590 235 172 234 172 840z" transform="scale(.01563)"/><path id="DejaVuSans-61" d="M2194 1759q-697 0-966-159t-269-544q0-306 202-486 202-179 548-179 479 0 768 339t289 901v128zm1147 238V0h-575v531q-197-318-491-470T1556-91q-537 0-855 302-317 302-317 808 0 590 395 890 396 300 1180 300h807v57q0 397-261 614t-733 217q-300 0-585-72-284-72-546-216v532q315 122 612 182 297 61 578 61 760 0 1135-394 375-393 375-1193" transform="scale(.01563)"/><path id="DejaVuSans-6e" d="M3513 2113V0h-575v2094q0 497-194 743-194 247-581 247-466 0-735-297-269-296-269-809V0H581v3500h578v-544q207 316 486 472 280 156 646 156 603 0 912-373 310-373 310-1098" transform="scale(.01563)"/></defs><use xlink:href="#DejaVuSans-4a"/><use xlink:href="#DejaVuSans-61" x="29.492"/><use xlink:href="#DejaVuSans-6e" x="90.771"/></g></g><g id="xtick_2"><use xlink:href="#m8a86010ea2" id="line2d_2" x="69.036" y="184.84" style="stroke:#000;stroke-width:.8"/><g id="text_2" transform="matrix(.1 0 0 -.1 60.185 199.438)"><defs><path id="DejaVuSans-46" d="M628 4666h2681v-532H1259V2759h1850v-531H1259V0H628z" transform="scale(.01563)"/><path id="DejaVuSans-65" d="M3597 1894v-281H953q38-594 358-905t892-311q331 0 642 81t618 244V178Q3153 47 2828-22t-659-69q-838 0-1327 487-489 488-489 1320 0 859 464 1363 464 505 1252 505 706 0 1117-455 411-454 411-1235m-575 169q-6 471-264 752-258 282-683 282-481 0-770-272t-333-766z" transform="scale(.01563)"/><path id="DejaVuSans-62" d="M3116 1747q0 634-261 995t-717 361q-457 0-718-361t-261-995 261-995 718-361q456 0 717 361t261 995M1159 2969q182 312 458 463 277 152 661 152 638 0 1036-506 399-506 399-1331T3314 415Q2916-91 2278-91q-384 0-661 152-276 152-458 464V0H581v4863h578z" transform="scale(.01563)"/></defs><use xlink:href="#DejaVuSans-46"/><use xlink:href="#DejaVuSans-65" x="52.02"/><use xlink:href="#DejaVuSans-62" x="113.543"/></g></g><g id="xtick_3"><use xlink:href="#m8a86010ea2" id="line2d_3" x="96.747" y="184.84" style="stroke:#000;stroke-width:.8"/><g id="text_3" transform="matrix(.1 0 0 -.1 87.313 199.438)"><defs><path id="DejaVuSans-4d" d="M628 4666h941l1190-3175 1197 3175h941V0h-616v4097L3078 897h-634L1241 4097V0H628z" transform="scale(.01563)"/><path id="DejaVuSans-72" d="M2631 2963q-97 56-211 82-114 27-251 27-488 0-749-317t-261-911V0H581v3500h578v-544q182 319 472 473 291 155 707 155 59 0 131-8 72-7 159-23z" transform="scale(.01563)"/></defs><use xlink:href="#DejaVuSans-4d"/><use xlink:href="#DejaVuSans-61" x="86.279"/><use xlink:href="#DejaVuSans-72" x="147.559"/></g></g><g id="xtick_4"><use xlink:href="#m8a86010ea2" id="line2d_4" x="124.458" y="184.84" style="stroke:#000;stroke-width:.8"/><g id="text_4" transform="matrix(.1 0 0 -.1 115.808 199.438)"><defs><path id="DejaVuSans-41" d="m2188 4044-857-2322h1716zm-357 622h716L4325 0h-656l-425 1197H1141L716 0H50z" transform="scale(.01563)"/><path id="DejaVuSans-70" d="M1159 525v-1856H581v4831h578v-531q182 312 458 463 277 152 661 152 638 0 1036-506 399-506 399-1331T3314 415Q2916-91 2278-91q-384 0-661 152-276 152-458 464m1957 1222q0 634-261 995t-717 361q-457 0-718-361t-261-995 261-995 718-361q456 0 717 361t261 995" transform="scale(.01563)"/></defs><use xlink:href="#DejaVuSans-41"/><use xlink:href="#DejaVuSans-70" x="68.408"/><use xlink:href="#DejaVuSans-72" x="131.885"/></g></g><g id="xtick_5"><use xlink:href="#m8a86010ea2" id="line2d_5" x="152.169" y="184.84" style="stroke:#000;stroke-width:.8"/><g id="text_5" transform="matrix(.1 0 0 -.1 141.831 199.438)"><defs><path id="DejaVuSans-79" d="M2059-325q-243-625-475-815-231-191-618-191H506v481h338q237 0 368 113 132 112 291 531l103 262L191 3500h609L1894 763l1094 2737h609z" transform="scale(.01563)"/></defs><use xlink:href="#DejaVuSans-4d"/><use xlink:href="#DejaVuSans-61" x="86.279"/><use xlink:href="#DejaVuSans-79" x="147.559"/></g></g><g id="xtick_6"><use xlink:href="#m8a86010ea2" id="line2d_6" x="179.88" y="184.84" style="stroke:#000;stroke-width:.8"/><g id="text_6" transform="matrix(.1 0 0 -.1 172.067 199.438)"><defs><path id="DejaVuSans-75" d="M544 1381v2119h575V1403q0-497 193-746 194-248 582-248 465 0 735 297 271 297 271 810v1984h575V0h-575v538q-209-319-486-474-276-155-642-155-603 0-916 375-312 375-312 1097m1447 2203" transform="scale(.01563)"/></defs><use xlink:href="#DejaVuSans-4a"/><use xlink:href="#DejaVuSans-75" x="29.492"/><use xlink:href="#DejaVuSans-6e" x="92.871"/></g></g><g id="xtick_7"><use xlink:href="#m8a86010ea2" id="line2d_7" x="207.59" y="184.84" style="stroke:#000;stroke-width:.8"/><g id="text_7" transform="matrix(.1 0 0 -.1 201.558 199.438)"><defs><path id="DejaVuSans-6c" d="M603 4863h575V0H603z" transform="scale(.01563)"/></defs><use xlink:href="#DejaVuSans-4a"/><use xlink:href="#DejaVuSans-75" x="29.492"/><use xlink:href="#DejaVuSans-6c" x="92.871"/></g></g><g id="xtick_8"><use xlink:href="#m8a86010ea2" id="line2d_8" x="235.301" y="184.84" style="stroke:#000;stroke-width:.8"/><g id="text_8" transform="matrix(.1 0 0 -.1 225.538 199.438)"><defs><path id="DejaVuSans-67" d="M2906 1791q0 625-258 968-257 344-723 344-462 0-720-344-258-343-258-968 0-622 258-966t720-344q466 0 723 344 258 344 258 966m575-1357q0-893-397-1329-396-436-1215-436-303 0-572 45t-522 139v559q253-137 500-202 247-66 503-66 566 0 847 295t281 892v285q-178-310-456-463T1784 0Q1141 0 747 490 353 981 353 1791q0 812 394 1302 394 491 1037 491 388 0 666-153t456-462v531h575z" transform="scale(.01563)"/></defs><use xlink:href="#DejaVuSans-41"/><use xlink:href="#DejaVuSans-75" x="68.408"/><use xlink:href="#DejaVuSans-67" x="131.787"/></g></g><g id="xtick_9"><use xlink:href="#m8a86010ea2" id="line2d_9" x="263.012" y="184.84" style="stroke:#000;stroke-width:.8"/><g id="text_9" transform="matrix(.1 0 0 -.1 253.587 199.438)"><defs><path id="DejaVuSans-53" d="M3425 4513v-616q-359 172-678 256-319 85-616 85-515 0-795-200t-280-569q0-310 186-468 186-157 705-254l381-78q706-135 1042-474t336-907q0-679-455-1029Q2797-91 1919-91q-331 0-705 75-373 75-773 222v650q384-215 753-325 369-109 725-109 540 0 834 212 294 213 294 607 0 343-211 537t-692 291l-385 75q-706 140-1022 440-315 300-315 835 0 619 436 975t1201 356q329 0 669-60 341-59 697-177" transform="scale(.01563)"/></defs><use xlink:href="#DejaVuSans-53"/><use xlink:href="#DejaVuSans-65" x="63.477"/><use xlink:href="#DejaVuSans-70" x="125"/></g></g><g id="xtick_10"><use xlink:href="#m8a86010ea2" id="line2d_10" x="290.723" y="184.84" style="stroke:#000;stroke-width:.8"/><g id="text_10" transform="matrix(.1 0 0 -.1 282.078 199.438)"><defs><path id="DejaVuSans-4f" d="M2522 4238q-688 0-1093-513-404-512-404-1397 0-881 404-1394 405-512 1093-512 687 0 1089 512 402 513 402 1394 0 885-402 1397-402 513-1089 513m0 512q981 0 1568-658 588-658 588-1764 0-1103-588-1761Q3503-91 2522-91q-984 0-1574 656-589 657-589 1763t589 1764q590 658 1574 658" transform="scale(.01563)"/><path id="DejaVuSans-63" d="M3122 3366v-538q-244 135-489 202t-495 67q-560 0-870-355-309-354-309-995t309-996q310-354 870-354 250 0 495 67t489 202V134Q2881 22 2623-34q-257-57-548-57-791 0-1257 497-465 497-465 1341 0 856 470 1346 471 491 1290 491 265 0 518-55 253-54 491-163" transform="scale(.01563)"/><path id="DejaVuSans-74" d="M1172 4494v-994h1184v-447H1172V1153q0-428 117-550t477-122h590V0h-590q-666 0-919 248-253 249-253 905v1900H172v447h422v994z" transform="scale(.01563)"/></defs><use xlink:href="#DejaVuSans-4f"/><use xlink:href="#DejaVuSans-63" x="78.711"/><use xlink:href="#DejaVuSans-74" x="133.691"/></g></g><g id="xtick_11"><use xlink:href="#m8a86010ea2" id="line2d_11" x="318.434" y="184.84" style="stroke:#000;stroke-width:.8"/><g id="text_11" transform="matrix(.1 0 0 -.1 308.674 199.438)"><defs><path id="DejaVuSans-4e" d="M628 4666h850L3547 763v3903h612V0h-850L1241 3903V0H628z" transform="scale(.01563)"/><path id="DejaVuSans-6f" d="M1959 3097q-462 0-731-361t-269-989 267-989q268-361 733-361 460 0 728 362 269 363 269 988 0 622-269 986-268 364-728 364m0 487q750 0 1178-488 429-487 429-1349 0-859-429-1349Q2709-91 1959-91q-753 0-1180 489-426 490-426 1349 0 862 426 1349 427 488 1180 488" transform="scale(.01563)"/><path id="DejaVuSans-76" d="M191 3500h609L1894 563l1094 2937h609L2284 0h-781z" transform="scale(.01563)"/></defs><use xlink:href="#DejaVuSans-4e"/><use xlink:href="#DejaVuSans-6f" x="74.805"/><use xlink:href="#DejaVuSans-76" x="135.986"/></g></g><g id="xtick_12"><use xlink:href="#m8a86010ea2" id="line2d_12" x="346.145" y="184.84" style="stroke:#000;stroke-width:.8"/><g id="text_12" transform="matrix(.1 0 0 -.1 336.469 199.438)"><defs><path id="DejaVuSans-44" d="M1259 4147V519h763q966 0 1414 437 448 438 448 1382 0 937-448 1373t-1414 436zm-631 519h1297q1356 0 1990-564 635-564 635-1764 0-1207-638-1773Q3275 0 1925 0H628z" transform="scale(.01563)"/></defs><use xlink:href="#DejaVuSans-44"/><use xlink:href="#DejaVuSans-65" x="77.002"/><use xlink:href="#DejaVuSans-63" x="138.525"/></g></g><g id="text_13" transform="matrix(.1 0 0 -.1 178.064 213.117)"><defs><path id="DejaVuSans-68" d="M3513 2113V0h-575v2094q0 497-194 743-194 247-581 247-466 0-735-297-269-296-269-809V0H581v4863h578V2956q207 316 486 472 280 156 646 156 603 0 912-373 310-373 310-1098" transform="scale(.01563)"/></defs><use xlink:href="#DejaVuSans-4d"/><use xlink:href="#DejaVuSans-6f" x="86.279"/><use xlink:href="#DejaVuSans-6e" x="147.461"/><use xlink:href="#DejaVuSans-74" x="210.84"/><use xlink:href="#DejaVuSans-68" x="250.049"/></g></g><g id="matplotlib.axis_2"><g id="ytick_1"><g id="line2d_13"><defs><path id="m33495624a3" d="M0 0h-3.5" style="stroke:#000;stroke-width:.8"/></defs><use xlink:href="#m33495624a3" x="27.47" y="184.84" style="stroke:#000;stroke-width:.8"/></g><g id="text_14" transform="matrix(.1 0 0 -.1 14.107 188.64)"><defs><path id="DejaVuSans-30" d="M2034 4250q-487 0-733-480-245-479-245-1442 0-959 245-1439 246-480 733-480 491 0 736 480 246 480 246 1439 0 963-246 1442-245 480-736 480m0 500q785 0 1199-621 414-620 414-1801 0-1178-414-1799Q2819-91 2034-91q-784 0-1198 620-414 621-414 1799 0 1181 414 1801 414 621 1198 621" transform="scale(.01563)"/></defs><use xlink:href="#DejaVuSans-30"/></g></g><g id="ytick_2"><use xlink:href="#m33495624a3" id="line2d_14" x="27.47" y="159.692" style="stroke:#000;stroke-width:.8"/><g id="text_15" transform="matrix(.1 0 0 -.1 14.107 163.49)"><defs><path id="DejaVuSans-31" d="M794 531h1031v3560L703 3866v575l1116 225h631V531h1031V0H794z" transform="scale(.01563)"/></defs><use xlink:href="#DejaVuSans-31"/></g></g><g id="ytick_3"><use xlink:href="#m33495624a3" id="line2d_15" x="27.47" y="134.543" style="stroke:#000;stroke-width:.8"/><g id="text_16" transform="matrix(.1 0 0 -.1 14.107 138.343)"><defs><path id="DejaVuSans-32" d="M1228 531h2203V0H469v531q359 372 979 998 621 627 780 809 303 340 423 576 121 236 121 464 0 372-261 606-261 235-680 235-297 0-627-103-329-103-704-313v638q381 153 712 231 332 78 607 78 725 0 1156-363 431-362 431-968 0-288-108-546-107-257-392-607-78-91-497-524-418-433-1181-1211" transform="scale(.01563)"/></defs><use xlink:href="#DejaVuSans-32"/></g></g><g id="ytick_4"><use xlink:href="#m33495624a3" id="line2d_16" x="27.47" y="109.395" style="stroke:#000;stroke-width:.8"/><g id="text_17" transform="matrix(.1 0 0 -.1 14.107 113.194)"><defs><path id="DejaVuSans-33" d="M2597 2516q453-97 707-404 255-306 255-756 0-690-475-1069Q2609-91 1734-91q-293 0-604 58T488 141v609q262-153 574-231 313-78 654-78 593 0 904 234t311 681q0 413-289 645-289 233-804 233h-544v519h569q465 0 712 186t247 536q0 359-255 551-254 193-729 193-260 0-557-57-297-56-653-174v562q360 100 674 150t592 50q719 0 1137-327 419-326 419-882 0-388-222-655t-631-370" transform="scale(.01563)"/></defs><use xlink:href="#DejaVuSans-33"/></g></g><g id="ytick_5"><use xlink:href="#m33495624a3" id="line2d_17" x="27.47" y="84.247" style="stroke:#000;stroke-width:.8"/><g id="text_18" transform="matrix(.1 0 0 -.1 14.107 88.046)"><defs><path id="DejaVuSans-34" d="M2419 4116 825 1625h1594zm-166 550h794V1625h666v-525h-666V0h-628v1100H313v609z" transform="scale(.01563)"/></defs><use xlink:href="#DejaVuSans-34"/></g></g><g id="ytick_6"><use xlink:href="#m33495624a3" id="line2d_18" x="27.47" y="59.099" style="stroke:#000;stroke-width:.8"/><g id="text_19" transform="matrix(.1 0 0 -.1 14.107 62.898)"><defs><path id="DejaVuSans-35" d="M691 4666h2478v-532H1269V2991q137 47 274 70 138 23 276 23 781 0 1237-428 457-428 457-1159 0-753-469-1171Q2575-91 1722-91q-294 0-599 50Q819 9 494 109v635q281-153 581-228t634-75q541 0 856 284 316 284 316 772 0 487-316 771-315 285-856 285-253 0-505-56-251-56-513-175z" transform="scale(.01563)"/></defs><use xlink:href="#DejaVuSans-35"/></g></g><g id="ytick_7"><use xlink:href="#m33495624a3" id="line2d_19" x="27.47" y="33.95" style="stroke:#000;stroke-width:.8"/><g id="text_20" transform="matrix(.1 0 0 -.1 14.107 37.75)"><defs><path id="DejaVuSans-36" d="M2113 2584q-425 0-674-291-248-290-248-796 0-503 248-796 249-292 674-292t673 292q248 293 248 796 0 506-248 796-248 291-673 291m1253 1979v-575q-238 112-480 171-242 60-480 60-625 0-955-422-329-422-376-1275 184 272 462 417 279 145 613 145 703 0 1111-427 408-426 408-1160 0-719-425-1154Q2819-91 2113-91q-810 0-1238 620-428 621-428 1799 0 1106 525 1764t1409 658q238 0 480-47t505-140" transform="scale(.01563)"/></defs><use xlink:href="#DejaVuSans-36"/></g></g><g id="ytick_8"><use xlink:href="#m33495624a3" id="line2d_20" x="27.47" y="8.802" style="stroke:#000;stroke-width:.8"/><g id="text_21" transform="matrix(.1 0 0 -.1 14.107 12.601)"><defs><path id="DejaVuSans-37" d="M525 4666h3000v-269L1831 0h-659l1594 4134H525z" transform="scale(.01563)"/></defs><use xlink:href="#DejaVuSans-37"/></g></g><g id="text_22" transform="matrix(0 -.1 -.1 0 8.028 123.089)"><defs><path id="DejaVuSans-54" d="M-19 4666h3947v-532H2272V0h-634v4134H-19z" transform="scale(.01563)"/><path id="DejaVuSans-69" d="M603 3500h575V0H603zm0 1363h575v-729H603z" transform="scale(.01563)"/><path id="DejaVuSans-73" d="M2834 3397v-544q-243 125-506 187-262 63-544 63-428 0-642-131t-214-394q0-200 153-314t616-217l197-44q612-131 870-370t258-667q0-488-386-773Q2250-91 1575-91q-281 0-586 55T347 128v594q319-166 628-249 309-82 613-82 406 0 624 139 219 139 219 392 0 234-158 359-157 125-692 241l-200 47q-534 112-772 345-237 233-237 639 0 494 350 762 350 269 994 269 318 0 599-47 282-46 519-140" transform="scale(.01563)"/></defs><use xlink:href="#DejaVuSans-54"/><use xlink:href="#DejaVuSans-6f" x="44.084"/><use xlink:href="#DejaVuSans-74" x="105.266"/><use xlink:href="#DejaVuSans-61" x="144.475"/><use xlink:href="#DejaVuSans-6c" x="205.754"/><use xlink:href="#DejaVuSans-4d" x="265.324"/><use xlink:href="#DejaVuSans-6f" x="351.604"/><use xlink:href="#DejaVuSans-76" x="412.785"/><use xlink:href="#DejaVuSans-69" x="471.965"/><use xlink:href="#DejaVuSans-65" x="499.748"/><use xlink:href="#DejaVuSans-73" x="561.271"/></g></g><path id="patch_15" d="M27.47 184.84V0" style="fill:none;stroke:#000;stroke-width:.8;stroke-linejoin:miter;stroke-linecap:square"/><path id="patch_16" d="M360 184.84V0" style="fill:none;stroke:#000;stroke-width:.8;stroke-linejoin:miter;stroke-linecap:square"/><path id="patch_17" d="M27.47 184.84H360" style="fill:none;stroke:#000;stroke-width:.8;stroke-linejoin:miter;stroke-linecap:square"/><path id="patch_18" d="M27.47 0H360" style="fill:none;stroke:#000;stroke-width:.8;stroke-linejoin:miter;stroke-linecap:square"/></g></g><defs><clipPath id="p64f588e607"><path d="M27.47 0H360v184.84H27.47z"/></clipPath></defs></svg>