<svg class="marks" viewBox="0 0 523 264" xmlns="http://www.w3.org/2000/svg"><path fill="transparent" d="M0 0h523v264H0z"/><g class="mark-group role-frame root"><g class="mark-group role-row-header row_header"><path class="background" d="M43 43v200z" fill="none"/><g class="mark-group role-axis"><path d="M43.5 243.5h-5m5-44h-5m5-45h-5m5-44h-5m5-45h-5" pointer-events="none" fill="none" stroke="#888"/><g class="mark-text role-axis-label" pointer-events="none" text-anchor="end" font-family="sans-serif" font-size="10"><text transform="translate(36.5 246.5)">0</text><text transform="translate(36.5 202.056)">20</text><text transform="translate(36.5 157.611)">40</text><text transform="translate(36.5 113.167)">60</text><text transform="translate(36.5 68.722)">80</text></g><path fill="none" stroke="#888" d="M43.5 243.5v-200" pointer-events="none"/><text text-anchor="middle" transform="rotate(-90 79 64.5)" font-family="sans-serif" font-size="11" font-weight="700" pointer-events="none">Watches</text></g></g><g class="mark-group role-column-header column_header"><path class="background" d="M44 42h24-24z" fill="none"/><text text-anchor="middle" transform="translate(56 30)" font-family="sans-serif" font-size="10" pointer-events="none">Jan</text><path class="background" d="M80 42h24-24z" fill="none"/><text text-anchor="middle" transform="translate(92 30)" font-family="sans-serif" font-size="10" pointer-events="none">Feb</text><path class="background" d="M116 42h24-24z" fill="none"/><text text-anchor="middle" transform="translate(128 30)" font-family="sans-serif" font-size="10" pointer-events="none">Mar</text><path class="background" d="M152 42h24-24z" fill="none"/><text text-anchor="middle" transform="translate(164 30)" font-family="sans-serif" font-size="10" pointer-events="none">Apr</text><path class="background" d="M188 42h24-24z" fill="none"/><text text-anchor="middle" transform="translate(200 30)" font-family="sans-serif" font-size="10" pointer-events="none">May</text><path class="background" d="M224 42h24-24z" fill="none"/><text text-anchor="middle" transform="translate(236 30)" font-family="sans-serif" font-size="10" pointer-events="none">Jun</text><path class="background" d="M260 42h24-24z" fill="none"/><text text-anchor="middle" transform="translate(272 30)" font-family="sans-serif" font-size="10" pointer-events="none">Jul</text><path class="background" d="M296 42h24-24z" fill="none"/><text text-anchor="middle" transform="translate(308 30)" font-family="sans-serif" font-size="10" pointer-events="none">Aug</text><path class="background" d="M332 42h24-24z" fill="none"/><text text-anchor="middle" transform="translate(344 30)" font-family="sans-serif" font-size="10" pointer-events="none">Sep</text><path class="background" d="M368 42h24-24z" fill="none"/><text text-anchor="middle" transform="translate(380 30)" font-family="sans-serif" font-size="10" pointer-events="none">Oct</text><path class="background" d="M404 42h24-24z" fill="none"/><text text-anchor="middle" transform="translate(416 30)" font-family="sans-serif" font-size="10" pointer-events="none">Nov</text><path class="background" d="M440 42h24-24z" fill="none"/><text text-anchor="middle" transform="translate(452 30)" font-family="sans-serif" font-size="10" pointer-events="none">Dec</text></g><g class="mark-group role-column-footer column_footer"><path class="background" d="M44 244h24-24z" fill="none"/><g class="mark-group role-axis"><path d="M50.5 244.5v5m12-5v5" pointer-events="none" fill="none" stroke="#888"/><g class="mark-text role-axis-label" pointer-events="none" text-anchor="end" font-family="sans-serif" font-size="10"><text transform="rotate(-90 152.25 99.25)">E</text><text transform="rotate(-90 158.25 93.25)">M</text></g><path fill="none" stroke="#888" d="M44.5 244.5h24" pointer-events="none"/></g><path class="background" d="M80 244h24-24z" fill="none"/><g class="mark-group role-axis"><path d="M86.5 244.5v5m12-5v5" pointer-events="none" fill="none" stroke="#888"/><g class="mark-text role-axis-label" pointer-events="none" text-anchor="end" font-family="sans-serif" font-size="10"><text transform="rotate(-90 170.25 81.25)">E</text><text transform="rotate(-90 176.25 75.25)">M</text></g><path fill="none" stroke="#888" d="M80.5 244.5h24" pointer-events="none"/></g><path class="background" d="M116 244h24-24z" fill="none"/><g class="mark-group role-axis"><path d="M122.5 244.5v5m12-5v5" pointer-events="none" fill="none" stroke="#888"/><g class="mark-text role-axis-label" pointer-events="none" text-anchor="end" font-family="sans-serif" font-size="10"><text transform="rotate(-90 188.25 63.25)">E</text><text transform="rotate(-90 194.25 57.25)">M</text></g><path fill="none" stroke="#888" d="M116.5 244.5h24" pointer-events="none"/></g><path class="background" d="M152 244h24-24z" fill="none"/><g class="mark-group role-axis"><path d="M158.5 244.5v5m12-5v5" pointer-events="none" fill="none" stroke="#888"/><g class="mark-text role-axis-label" pointer-events="none" text-anchor="end" font-family="sans-serif" font-size="10"><text transform="rotate(-90 206.25 45.25)">E</text><text transform="rotate(-90 212.25 39.25)">M</text></g><path fill="none" stroke="#888" d="M152.5 244.5h24" pointer-events="none"/></g><path class="background" d="M188 244h24-24z" fill="none"/><g class="mark-group role-axis"><path d="M194.5 244.5v5m12-5v5" pointer-events="none" fill="none" stroke="#888"/><g class="mark-text role-axis-label" pointer-events="none" text-anchor="end" font-family="sans-serif" font-size="10"><text transform="rotate(-90 224.25 27.25)">E</text><text transform="rotate(-90 230.25 21.25)">M</text></g><path fill="none" stroke="#888" d="M188.5 244.5h24" pointer-events="none"/></g><path class="background" d="M224 244h24-24z" fill="none"/><g class="mark-group role-axis"><path d="M230.5 244.5v5m12-5v5" pointer-events="none" fill="none" stroke="#888"/><g class="mark-text role-axis-label" pointer-events="none" text-anchor="end" font-family="sans-serif" font-size="10"><text transform="rotate(-90 242.25 9.25)">E</text><text transform="rotate(-90 248.25 3.25)">M</text></g><path fill="none" stroke="#888" d="M224.5 244.5h24" pointer-events="none"/></g><path class="background" d="M260 244h24-24z" fill="none"/><g class="mark-group role-axis"><path d="M266.5 244.5v5m12-5v5" pointer-events="none" fill="none" stroke="#888"/><g class="mark-text role-axis-label" pointer-events="none" text-anchor="end" font-family="sans-serif" font-size="10"><text transform="rotate(-90 260.25 -8.75)">E</text><text transform="rotate(-90 266.25 -14.75)">M</text></g><path fill="none" stroke="#888" d="M260.5 244.5h24" pointer-events="none"/></g><path class="background" d="M296 244h24-24z" fill="none"/><g class="mark-group role-axis"><path d="M302.5 244.5v5m12-5v5" pointer-events="none" fill="none" stroke="#888"/><g class="mark-text role-axis-label" pointer-events="none" text-anchor="end" font-family="sans-serif" font-size="10"><text transform="rotate(-90 278.25 -26.75)">E</text><text transform="rotate(-90 284.25 -32.75)">M</text></g><path fill="none" stroke="#888" d="M296.5 244.5h24" pointer-events="none"/></g><path class="background" d="M332 244h24-24z" fill="none"/><g class="mark-group role-axis"><path d="M338.5 244.5v5m12-5v5" pointer-events="none" fill="none" stroke="#888"/><g class="mark-text role-axis-label" pointer-events="none" text-anchor="end" font-family="sans-serif" font-size="10"><text transform="rotate(-90 296.25 -44.75)">E</text><text transform="rotate(-90 302.25 -50.75)">M</text></g><path fill="none" stroke="#888" d="M332.5 244.5h24" pointer-events="none"/></g><path class="background" d="M368 244h24-24z" fill="none"/><g class="mark-group role-axis"><path d="M374.5 244.5v5m12-5v5" pointer-events="none" fill="none" stroke="#888"/><g class="mark-text role-axis-label" pointer-events="none" text-anchor="end" font-family="sans-serif" font-size="10"><text transform="rotate(-90 314.25 -62.75)">E</text><text transform="rotate(-90 320.25 -68.75)">M</text></g><path fill="none" stroke="#888" d="M368.5 244.5h24" pointer-events="none"/></g><path class="background" d="M404 244h24-24z" fill="none"/><g class="mark-group role-axis"><path d="M410.5 244.5v5m12-5v5" pointer-events="none" fill="none" stroke="#888"/><g class="mark-text role-axis-label" pointer-events="none" text-anchor="end" font-family="sans-serif" font-size="10"><text transform="rotate(-90 332.25 -80.75)">E</text><text transform="rotate(-90 338.25 -86.75)">M</text></g><path fill="none" stroke="#888" d="M404.5 244.5h24" pointer-events="none"/></g><path class="background" d="M440 244h24-24z" fill="none"/><g class="mark-group role-axis"><path d="M446.5 244.5v5m12-5v5" pointer-events="none" fill="none" stroke="#888"/><g class="mark-text role-axis-label" pointer-events="none" text-anchor="end" font-family="sans-serif" font-size="10"><text transform="rotate(-90 350.25 -98.75)">E</text><text transform="rotate(-90 356.25 -104.75)">M</text></g><path fill="none" stroke="#888" d="M440.5 244.5h24" pointer-events="none"/></g></g><g class="mark-group role-scope cell"><path class="background" d="M44.5 43.5h24v200h-24z" fill="none"/><g class="mark-rect role-mark child_marks"><path d="M56.6 216.333h10.8V243H56.6z" fill="#3867d6"/><path d="M44.6 200.778h10.8V243H44.6z" fill="#fed330"/></g><path class="background" d="M80.5 43.5h24v200h-24z" fill="none"/><g class="mark-rect role-mark child_marks"><path d="M92.6 238.556h10.8V243H92.6z" fill="#3867d6"/><path d="M80.6 203h10.8v40H80.6z" fill="#fed330"/></g><path class="background" d="M116.5 43.5h24v200h-24z" fill="none"/><g class="mark-rect role-mark child_marks"><path d="M128.6 238.556h10.8V243h-10.8z" fill="#3867d6"/><path d="M116.6 225.222h10.8V243h-10.8z" fill="#fed330"/></g><path class="background" d="M152.5 43.5h24v200h-24z" fill="none"/><g class="mark-rect role-mark child_marks"><path d="M164.6 234.111h10.8V243h-10.8z" fill="#3867d6"/><path d="M152.6 225.222h10.8V243h-10.8z" fill="#fed330"/></g><path class="background" d="M188.5 43.5h24v200h-24z" fill="none"/><g class="mark-rect role-mark child_marks"><path d="M200.6 234.111h10.8V243h-10.8z" fill="#3867d6"/><path d="M188.6 131.889h10.8V243h-10.8z" fill="#fed330"/></g><path class="background" d="M224.5 43.5h24v200h-24z" fill="none"/><g class="mark-rect role-mark child_marks"><path d="M236.6 236.333h10.8V243h-10.8z" fill="#3867d6"/><path d="M224.6 158.556h10.8V243h-10.8z" fill="#fed330"/></g><path class="background" d="M260.5 43.5h24v200h-24z" fill="none"/><g class="mark-rect role-mark child_marks"><path d="M272.6 238.556h10.8V243h-10.8z" fill="#3867d6"/><path d="M260.6 198.556h10.8V243h-10.8z" fill="#fed330"/></g><path class="background" d="M296.5 43.5h24v200h-24z" fill="none"/><g class="mark-rect role-mark child_marks"><path d="M308.6 234.111h10.8V243h-10.8z" fill="#3867d6"/><path d="M296.6 207.444h10.8V243h-10.8z" fill="#fed330"/></g><path class="background" d="M332.5 43.5h24v200h-24z" fill="none"/><g class="mark-rect role-mark child_marks"><path d="M344.6 234.111h10.8V243h-10.8z" fill="#3867d6"/><path d="M332.6 163h10.8v80h-10.8z" fill="#fed330"/></g><path class="background" d="M368.5 43.5h24v200h-24z" fill="none"/><g class="mark-rect role-mark child_marks"><path d="M380.6 243h10.8-10.8z" fill="#3867d6"/><path d="M368.6 205.222h10.8V243h-10.8z" fill="#fed330"/></g><path class="background" d="M404.5 43.5h24v200h-24z" fill="none"/><g class="mark-rect role-mark child_marks"><path d="M416.6 231.889h10.8V243h-10.8z" fill="#3867d6"/><path d="M404.6 54.111h10.8V243h-10.8z" fill="#fed330"/></g><path class="background" d="M440.5 43.5h24v200h-24z" fill="none"/><g class="mark-rect role-mark child_marks"><path d="M452.6 231.889h10.8V243h-10.8z" fill="#3867d6"/><path d="M440.6 103h10.8v140h-10.8z" fill="#fed330"/></g></g><g class="mark-group role-legend"><path class="background" d="M483 43h35v40h-35z" pointer-events="none" fill="none"/><g class="mark-group role-legend-entry"><g class="mark-group role-scope"><path class="background" d="M483 59h24v11h-24z" pointer-events="none" fill="none"/><path d="M484 60h10v10h-10z" fill="#fed330" pointer-events="none"/><text transform="translate(499 68)" font-family="sans-serif" font-size="10" pointer-events="none">E</text><path class="background" d="M483 72h24v11h-24z" pointer-events="none" fill="none"/><path d="M484 73h10v10h-10z" fill="#3867d6" pointer-events="none"/><text transform="translate(499 81)" font-family="sans-serif" font-size="10" pointer-events="none">M</text></g></g><text transform="translate(483 52)" font-family="sans-serif" font-size="11" font-weight="700" pointer-events="none">Type</text></g><text text-anchor="middle" transform="translate(261.5 15)" font-family="sans-serif" font-size="13" font-weight="700" pointer-events="none">2019 Watches per Month</text></g></svg>