<svg class="marks" viewBox="0 0 362 439" xmlns="http://www.w3.org/2000/svg"><path fill="transparent" d="M0 0h362v439H0z"/><g class="mark-group role-frame root"><path class="background" d="M132.5 22.5h200v380h-200z" fill="none" stroke="#ddd"/><path d="M132.5 402.5v-380m29 380v-380m28 380v-380m29 380v-380m28 380v-380m29 380v-380m28 380v-380m29 380v-380" pointer-events="none" fill="none" stroke="#ddd"/><g class="mark-group role-axis"><path d="M132.5 402.5v5m29-5v5m28-5v5m29-5v5m28-5v5m29-5v5m28-5v5m29-5v5" pointer-events="none" fill="none" stroke="#888"/><g class="mark-text role-axis-label" pointer-events="none" font-family="sans-serif" font-size="10"><text transform="translate(132.5 417.5)">0</text><text text-anchor="middle" transform="translate(161.071 417.5)">5</text><text text-anchor="middle" transform="translate(189.643 417.5)">10</text><text text-anchor="middle" transform="translate(218.214 417.5)">15</text><text text-anchor="middle" transform="translate(246.786 417.5)">20</text><text text-anchor="middle" transform="translate(275.357 417.5)">25</text><text text-anchor="middle" transform="translate(303.929 417.5)">30</text><text text-anchor="end" transform="translate(332.5 417.5)">35</text></g><path fill="none" stroke="#888" d="M132.5 402.5h200" pointer-events="none"/><text text-anchor="middle" transform="translate(232.5 432.5)" font-family="sans-serif" font-size="11" font-weight="700" pointer-events="none">Watches (shows, movies)</text></g><g class="mark-group role-axis"><path d="M132.5 32.5h-5m5 20h-5m5 20h-5m5 20h-5m5 20h-5m5 20h-5m5 20h-5m5 20h-5m5 20h-5m5 20h-5m5 20h-5m5 20h-5m5 20h-5m5 20h-5m5 20h-5m5 20h-5m5 20h-5m5 20h-5m5 20h-5" pointer-events="none" fill="none" stroke="#888"/><g class="mark-text role-axis-label" pointer-events="none" text-anchor="end" font-family="sans-serif" font-size="10"><text transform="translate(125.5 35)">Drama</text><text transform="translate(125.5 55)">Comedy</text><text transform="translate(125.5 75)">Fantasy</text><text transform="translate(125.5 95)">Action</text><text transform="translate(125.5 115)">Adventure</text><text transform="translate(125.5 135)">Science fiction</text><text transform="translate(125.5 155)">Romance</text><text transform="translate(125.5 175)">Superhero</text><text transform="translate(125.5 195)">Family</text><text transform="translate(125.5 215)">Thriller</text><text transform="translate(125.5 235)">Mystery</text><text transform="translate(125.5 255)">Crime</text><text transform="translate(125.5 275)">Reality</text><text transform="translate(125.5 295)">Musical</text><text transform="translate(125.5 315)">Horror</text><text transform="translate(125.5 335)">Music</text><text transform="translate(125.5 355)">History</text><text transform="translate(125.5 375)">Animation</text><text transform="translate(125.5 395)">Documentary</text></g><path fill="none" stroke="#888" d="M132.5 22.5v380" pointer-events="none"/></g><path d="M132 83h97.143v18H132zm0 20h97.143v18H132zm0 20h80v18h-80zm0 80h34.286v18H132zm0-40h40v18h-40zm0-120h148.571v18H132zm0 20h108.571v18H132zm0-40h177.143v18H132zm0 240h17.143v18H132zm0 60h11.429v18H132zm0 20h11.429v18H132zm0-200h62.857v18H132zm0 80h34.286v18H132zm0 20h28.571v18H132zm0-60h40v18h-40zm0 200h5.714v18H132zm0-100h17.143v18H132zm0 80h11.429v18H132zm0-60h17.143v18H132z" fill="#3867d6"/><path d="M132 83v18zm0 20v18zm0 20h28.571v18H132zm0 80v18zm0-40v18zm0-120h28.571v18H132zm0 20h34.286v18H132zm0-40h85.714v18H132zm0 240h17.143v18H132zm0 60v18zm0 20v18zm0-200v18zm0 80h22.857v18H132zm0 20h17.143v18H132zm0-60v18zm0 200h5.714v18H132zm0-100v18zm0 80v18zm0-60h5.714v18H132z" fill="#fed330"/><text text-anchor="middle" transform="translate(232 15)" font-family="sans-serif" font-size="13" font-weight="700" pointer-events="none">2019 Most Watched Genres</text></g></svg>