<svg class="marks" viewBox="0 0 776 305" xmlns="http://www.w3.org/2000/svg"><path fill="transparent" d="M0 0h776v305H0z"/><defs><linearGradient id="a" x1="0" x2="0" y1="1" y2="0"><stop offset="0" stop-color="#FED330"/><stop offset=".091" stop-color="#FFBB3A"/><stop offset=".182" stop-color="#FFA24C"/><stop offset=".273" stop-color="#FF8A61"/><stop offset=".364" stop-color="#FF7377"/><stop offset=".455" stop-color="#FF628E"/><stop offset=".545" stop-color="#FF57A5"/><stop offset=".636" stop-color="#ED55B9"/><stop offset=".727" stop-color="#CE59C9"/><stop offset=".818" stop-color="#A75FD4"/><stop offset=".909" stop-color="#7864D9"/><stop offset="1" stop-color="#3867D6"/></linearGradient></defs><g class="mark-group role-frame root"><path class="background" d="M99 22h620v240H99z" fill="none"/><g class="mark-rect role-mark marks"><path d="M119 102h20v20h-20z" fill="#fed330"/><path d="M139 102h20v20h-20z" fill="#ff8a61"/><path d="M199 102h20v20h-20z" fill="#ffbb3a"/><path d="M259 102h20v20h-20z" fill="#fed330"/><path d="M359 102h20v20h-20z" fill="#a75fd4"/><path d="M379 102h20v20h-20z" fill="#fed330"/><path d="M439 102h20v20h-20z" fill="#ffbb3a"/><path d="M459 102h20v20h-20z" fill="#ffa24c"/><path d="M519 102h20v20h-20zm20 0h20v20h-20zm20 0h20v20h-20zm20 0h20v20h-20zm20 0h20v20h-20zm60 0h20v20h-20zm40 0h20v20h-20z" fill="#fed330"/><path d="M99 82h20v20H99z" fill="#ffa24c"/><path d="M299 82h20v20h-20zm20 0h20v20h-20z" fill="#fed330"/><path d="M339 82h20v20h-20z" fill="#ffbb3a"/><path d="M359 82h20v20h-20z" fill="#ff8a61"/><path d="M379 82h20v20h-20zm120 0h20v20h-20z" fill="#fed330"/><path d="M599 82h20v20h-20z" fill="#ff8a61"/><path d="M619 82h20v20h-20z" fill="#fed330"/><path d="M639 82h20v20h-20z" fill="#ffbb3a"/><path d="M119 162h20v20h-20zm40 0h20v20h-20zm20 0h20v20h-20zm40 0h20v20h-20zm40 0h20v20h-20zm60 0h20v20h-20zm40 0h20v20h-20zm140 0h20v20h-20zm40 0h20v20h-20zm100 0h20v20h-20zM159 22h20v20h-20zm20 0h20v20h-20zm140 0h20v20h-20zm20 0h20v20h-20zm40 0h20v20h-20zm40 0h20v20h-20zm20 0h20v20h-20zm20 0h20v20h-20zm60 0h20v20h-20z" fill="#fed330"/><path d="M619 22h20v20h-20z" fill="#ffbb3a"/><path d="M659 22h20v20h-20zM139 182h20v20h-20zm20 0h20v20h-20zm40 0h20v20h-20zm80 0h20v20h-20zm60 0h20v20h-20zm40 0h20v20h-20zm40 0h20v20h-20zm60 0h20v20h-20z" fill="#fed330"/><path d="M579 182h20v20h-20z" fill="#ff7377"/><path d="M599 182h20v20h-20z" fill="#3867d6"/><path d="M619 182h20v20h-20z" fill="#fed330"/><path d="M639 182h20v20h-20z" fill="#ff628e"/><path d="M659 182h20v20h-20z" fill="#ffa24c"/><path d="M679 182h20v20h-20z" fill="#a75fd4"/><path d="M699 182h20v20h-20z" fill="#ce59c9"/><path d="M99 142h20v20H99z" fill="#ed55b9"/><path d="M119 142h20v20h-20z" fill="#ff7377"/><path d="M139 142h20v20h-20z" fill="#ff8a61"/><path d="M159 142h20v20h-20z" fill="#ffa24c"/><path d="M179 142h20v20h-20z" fill="#ed55b9"/><path d="M199 142h20v20h-20z" fill="#ffa24c"/><path d="M219 142h20v20h-20zm20 0h20v20h-20zm80 0h20v20h-20zm20 0h20v20h-20z" fill="#fed330"/><path d="M479 142h20v20h-20z" fill="#ffbb3a"/><path d="M519 142h20v20h-20zm60 0h20v20h-20zm20 0h20v20h-20zm40 0h20v20h-20zM99 122h20v20H99zm40 0h20v20h-20z" fill="#fed330"/><path d="M159 122h20v20h-20z" fill="#ffbb3a"/><path d="M179 122h20v20h-20zm20 0h20v20h-20z" fill="#ffa24c"/><path d="M339 122h20v20h-20zm60 0h20v20h-20zm20 0h20v20h-20z" fill="#fed330"/><path d="M479 122h20v20h-20z" fill="#ffa24c"/><path d="M499 122h20v20h-20z" fill="#ff7377"/><path d="M559 122h20v20h-20zM119 42h20v20h-20zm100 0h20v20h-20zm80 0h20v20h-20zm60 0h20v20h-20zm20 0h20v20h-20zm20 0h20v20h-20z" fill="#fed330"/><path d="M579 42h20v20h-20z" fill="#ffa24c"/><path d="M619 42h20v20h-20z" fill="#ffbb3a"/><path d="M639 42h20v20h-20z" fill="#ff8a61"/><path d="M699 42h20v20h-20z" fill="#ff7377"/><path d="M159 242h20v20h-20zm60 0h20v20h-20zm120 0h20v20h-20z" fill="#fed330"/><path d="M359 242h20v20h-20z" fill="#ffbb3a"/><path d="M379 242h20v20h-20z" fill="#ffa24c"/><path d="M399 242h20v20h-20z" fill="#ff8a61"/><path d="M419 242h20v20h-20z" fill="#fed330"/><path d="M439 242h20v20h-20z" fill="#ed55b9"/><path d="M499 242h20v20h-20z" fill="#ff8a61"/><path d="M519 242h20v20h-20z" fill="#ed55b9"/><path d="M559 242h20v20h-20z" fill="#fed330"/><path d="M679 242h20v20h-20z" fill="#ff628e"/><path d="M99 222h20v20H99z" fill="#ffbb3a"/><path d="M139 222h20v20h-20z" fill="#fed330"/><path d="M199 222h20v20h-20z" fill="#ffbb3a"/><path d="M279 222h20v20h-20z" fill="#fed330"/><path d="M299 222h20v20h-20z" fill="#ffbb3a"/><path d="M319 222h20v20h-20z" fill="#fed330"/><path d="M439 222h20v20h-20z" fill="#ff8a61"/><path d="M559 222h20v20h-20z" fill="#fed330"/><path d="M579 222h20v20h-20z" fill="#ffbb3a"/><path d="M619 222h20v20h-20z" fill="#fed330"/><path d="M99 202h20v20H99z" fill="#ff7377"/><path d="M119 202h20v20h-20z" fill="#fed330"/><path d="M139 202h20v20h-20z" fill="#ff8a61"/><path d="M159 202h20v20h-20z" fill="#ff7377"/><path d="M179 202h20v20h-20z" fill="#3867d6"/><path d="M199 202h20v20h-20z" fill="#fed330"/><path d="M219 202h20v20h-20z" fill="#ffbb3a"/><path d="M239 202h20v20h-20z" fill="#ffa24c"/><path d="M259 202h20v20h-20z" fill="#fed330"/><path d="M279 202h20v20h-20z" fill="#ffbb3a"/><path d="M299 202h20v20h-20z" fill="#ffa24c"/><path d="M319 202h20v20h-20z" fill="#ed55b9"/><path d="M339 202h20v20h-20z" fill="#ff628e"/><path d="M359 202h20v20h-20z" fill="#ff8a61"/><path d="M379 202h20v20h-20z" fill="#a75fd4"/><path d="M419 202h20v20h-20zm140 0h20v20h-20z" fill="#ffa24c"/><path d="M579 202h20v20h-20z" fill="#fed330"/><path d="M619 202h20v20h-20z" fill="#a75fd4"/><path d="M639 202h20v20h-20z" fill="#ffbb3a"/><path d="M659 202h20v20h-20z" fill="#ff8a61"/><path d="M99 62h20v20H99z" fill="#3867d6"/><path d="M119 62h20v20h-20z" fill="#ff628e"/><path d="M139 62h20v20h-20z" fill="#ffa24c"/><path d="M199 62h20v20h-20z" fill="#3867d6"/><path d="M239 62h20v20h-20z" fill="#ffa24c"/><path d="M379 62h20v20h-20z" fill="#fed330"/><path d="M459 62h20v20h-20z" fill="#ff57a5"/><path d="M479 62h20v20h-20z" fill="#ff7377"/><path d="M499 62h20v20h-20z" fill="#ff8a61"/><path d="M519 62h20v20h-20z" fill="#ffbb3a"/><path d="M539 62h20v20h-20z" fill="#ffa24c"/><path d="M559 62h20v20h-20z" fill="#ff8a61"/><path d="M579 62h20v20h-20z" fill="#ffa24c"/><path d="M659 62h20v20h-20zm20 0h20v20h-20zm20 0h20v20h-20z" fill="#fed330"/></g><g class="mark-group role-legend"><path class="background" d="M737 22h34v200h-34z" pointer-events="none" fill="none"/><g class="mark-group role-legend-entry"><path d="M0 0h16v200H0z" fill="url(#a)" transform="translate(737 22)" pointer-events="none"/><g class="mark-text role-legend-label" pointer-events="none" font-family="sans-serif" font-size="10"><text transform="translate(755 206.818)">2</text><text transform="translate(755 170.455)">4</text><text transform="translate(755 134.09)">6</text><text transform="translate(755 97.727)">8</text><text transform="translate(755 61.364)">10</text><text transform="translate(755 30)">12</text></g></g></g><text text-anchor="middle" transform="translate(409 15)" font-family="sans-serif" font-size="13" font-weight="700" pointer-events="none">2019 TV Series and Movies Views</text><g class="mark-group role-axis"><path d="M109.5 262.5v5m20-5v5m20-5v5m20-5v5m20-5v5m20-5v5m20-5v5m20-5v5m20-5v5m20-5v5m20-5v5m20-5v5m20-5v5m20-5v5m20-5v5m20-5v5m20-5v5m20-5v5m20-5v5m20-5v5m20-5v5m20-5v5m20-5v5m20-5v5m20-5v5m20-5v5m20-5v5m20-5v5m20-5v5m20-5v5m20-5v5" pointer-events="none" fill="none" stroke="#888"/><g class="mark-text role-axis-label" pointer-events="none" text-anchor="end" font-family="sans-serif" font-size="10"><text transform="rotate(-90 190.75 78.75)">1</text><text transform="rotate(-90 200.75 68.75)">2</text><text transform="rotate(-90 210.75 58.75)">3</text><text transform="rotate(-90 220.75 48.75)">4</text><text transform="rotate(-90 230.75 38.75)">5</text><text transform="rotate(-90 240.75 28.75)">6</text><text transform="rotate(-90 250.75 18.75)">7</text><text transform="rotate(-90 260.75 8.75)">8</text><text transform="rotate(-90 270.75 -1.25)">9</text><text transform="rotate(-90 280.75 -11.25)">10</text><text transform="rotate(-90 290.75 -21.25)">11</text><text transform="rotate(-90 300.75 -31.25)">12</text><text transform="rotate(-90 310.75 -41.25)">13</text><text transform="rotate(-90 320.75 -51.25)">14</text><text transform="rotate(-90 330.75 -61.25)">15</text><text transform="rotate(-90 340.75 -71.25)">16</text><text transform="rotate(-90 350.75 -81.25)">17</text><text transform="rotate(-90 360.75 -91.25)">18</text><text transform="rotate(-90 370.75 -101.25)">19</text><text transform="rotate(-90 380.75 -111.25)">20</text><text transform="rotate(-90 390.75 -121.25)">21</text><text transform="rotate(-90 400.75 -131.25)">22</text><text transform="rotate(-90 410.75 -141.25)">23</text><text transform="rotate(-90 420.75 -151.25)">24</text><text transform="rotate(-90 430.75 -161.25)">25</text><text transform="rotate(-90 440.75 -171.25)">26</text><text transform="rotate(-90 450.75 -181.25)">27</text><text transform="rotate(-90 460.75 -191.25)">28</text><text transform="rotate(-90 470.75 -201.25)">29</text><text transform="rotate(-90 480.75 -211.25)">30</text><text transform="rotate(-90 490.75 -221.25)">31</text></g><text text-anchor="middle" transform="translate(409.5 298.5)" font-family="sans-serif" font-size="11" font-weight="700" pointer-events="none">Day</text></g><g class="mark-group role-axis"><path d="M99.5 32.5h-5m5 20h-5m5 20h-5m5 20h-5m5 20h-5m5 20h-5m5 20h-5m5 20h-5m5 20h-5m5 20h-5m5 20h-5m5 20h-5" pointer-events="none" fill="none" stroke="#888"/><g class="mark-text role-axis-label" pointer-events="none" text-anchor="end" font-family="sans-serif" font-size="10"><text transform="translate(92.5 35)">April</text><text transform="translate(92.5 55)">August</text><text transform="translate(92.5 75)">December</text><text transform="translate(92.5 95)">February</text><text transform="translate(92.5 115)">January</text><text transform="translate(92.5 135)">July</text><text transform="translate(92.5 155)">June</text><text transform="translate(92.5 175)">March</text><text transform="translate(92.5 195)">May</text><text transform="translate(92.5 215)">November</text><text transform="translate(92.5 235)">October</text><text transform="translate(92.5 255)">September</text></g><text text-anchor="middle" transform="rotate(-90 78.5 64)" font-family="sans-serif" font-size="11" font-weight="700" pointer-events="none">Month</text></g></g></svg>