<svg xmlns="http://www.w3.org/2000/svg" width="902.128" height="804.604" version="1.0"><path d="M-3637.111-6417.936c28.668.642 56.305 15.791 71.69 42.439l363.855 630.207a84.87 84.87 0 0 1 11.375 42.439c0 46.888-38.02 84.909-84.909 84.909h-727.71c-46.89 0-84.91-38.021-84.91-84.909a84.87 84.87 0 0 1 11.376-42.439l363.855-630.207c15.385-26.648 43.022-41.796 71.69-42.439.61-.014 3.078-.014 3.688 0z" style="fill:#fff;fill-opacity:1;stroke:#000;stroke-width:4;stroke-miterlimit:4;stroke-dasharray:none;stroke-opacity:1" transform="translate(4090.02 6420.247)"/><path d="M-3640.236-6393.676c-20.476.46-40.23 11.31-51.22 30.345l-363.846 630.192a60.6 60.6 0 0 0-8.125 30.312c0 33.49 27.135 60.626 60.626 60.626h727.693c33.49 0 60.625-27.135 60.625-60.626a60.6 60.6 0 0 0-8.125-30.312l-363.846-630.192c-10.99-19.034-30.743-29.886-51.22-30.345-.43-.01-2.132-.02-2.562 0" style="fill:red;fill-opacity:1;fill-rule:evenodd;stroke:none" transform="translate(4090.02 6420.247)"/><path d="m-3638.955-6312.885-346.4 599.984h692.8z" style="clip-rule:evenodd;fill:#fff;fill-opacity:1;fill-rule:evenodd;stroke:none" transform="translate(4090.02 6420.247)"/><path d="m-3545.41-5844.342 46.116 26.668c3.093-4.76 5.928-9.68 8.504-14.747l-46.115-26.667 52.422-25-17.737-11.254-53.163 25.568-53.13-30.727a25.1 25.1 0 0 0 0-8.526l53.13-30.725 53.163 25.556 17.737-11.253-52.422-24.992 46.115-26.668a162 162 0 0 0-8.504-14.745l-46.116 26.666 4.606-57.973-18.596 9.759-4.487 58.897-53.13 30.725a24.9 24.9 0 0 0-7.375-4.265v-61.447l48.685-33.339-.855-21.009-47.826 32.974v-53.336a155 155 0 0 0-17 0v53.336l-47.825-32.974-.854 21.01 48.687 33.338v61.447a25 25 0 0 0-7.373 4.265l-53.13-30.725-4.481-58.897-18.602-9.76 4.603 57.974-46.114-26.666a161 161 0 0 0-8.504 14.745l46.114 26.668-52.422 24.992 17.736 11.253 53.172-25.556 53.125 30.725a25.1 25.1 0 0 0 0 8.526l-53.125 30.727-53.172-25.568-17.736 11.254 52.422 25-46.114 26.667a160 160 0 0 0 8.504 14.747l46.114-26.668-4.603 57.973 18.602-9.757 4.48-58.903 53.131-30.727a24.6 24.6 0 0 0 7.373 4.267v61.452l-48.687 33.337.854 21.011 47.825-32.973v53.327a155 155 0 0 0 17 0v-53.327l47.826 32.974.855-21.012-48.685-33.337v-61.452a24.8 24.8 0 0 0 7.374-4.267l53.13 30.727 4.488 58.903 18.596 9.757z" style="fill:#000;fill-opacity:1;fill-rule:evenodd;stroke:none" transform="translate(4090.02 6420.247)"/></svg>