<?xml version="1.0" encoding="UTF-8" standalone="no"?>
<svg viewBox="0 0 2098.38 1870.52" version="1.1" id="svg46" sodipodi:docname="Portugal_road_sign_A14.svg" inkscape:version="1.1.2 (b8e25be833, 2022-02-05)" xmlns:inkscape="http://www.inkscape.org/namespaces/inkscape" xmlns:sodipodi="http://sodipodi.sourceforge.net/DTD/sodipodi-0.dtd" xmlns="http://www.w3.org/2000/svg" xmlns:svg="http://www.w3.org/2000/svg" xmlns:rdf="http://www.w3.org/1999/02/22-rdf-syntax-ns#" xmlns:cc="http://creativecommons.org/ns#" xmlns:dc="http://purl.org/dc/elements/1.1/">
  <sodipodi:namedview id="namedview48" pagecolor="#ffffff" bordercolor="#666666" borderopacity="1.0" inkscape:pageshadow="2" inkscape:pageopacity="0.0" inkscape:pagecheckerboard="0" showgrid="false" inkscape:zoom="0.39314792" inkscape:cx="1173.8584" inkscape:cy="883.89123" inkscape:window-width="1920" inkscape:window-height="1001" inkscape:window-x="-9" inkscape:window-y="-9" inkscape:window-maximized="1" inkscape:current-layer="Capa_1-2"/>
  <defs id="defs4">
    <style id="style2">.cls-1{fill:#fff;}.cls-1,.cls-2,.cls-3,.cls-4{stroke:#000;stroke-linecap:round;stroke-linejoin:round;stroke-width:0.71px;}.cls-2{fill:red;}.cls-3{fill:none;}</style>
  </defs>
  <title id="title6">Portugal road sign A16aRecurso 3</title>
  <g id="Capa_2" data-name="Capa 2">
    <g id="Capa_1-2" data-name="Capa 1">
      <g id="LWPOLYLINE">
        <path class="cls-1" d="M 27,1572.53 877.37,99.6 A 198.47,198.47 0 0 1 950,27 c 94.91,-54.79 216.26,-22.28 271.06,72.63 l 850.39,1472.93 a 198.37,198.37 0 0 1 26.59,99.21 c 0,109.58 -88.84,198.42 -198.43,198.42 H 198.81 A 198.46,198.46 0 0 1 99.6,1843.61 C 4.69,1788.79 -27.82,1667.43 27,1572.53 Z" id="path8"/>
      </g>
      <g id="LWPOLYLINE-2" data-name="LWPOLYLINE">
        <path class="cls-2" d="M 926.46,128 76.07,1600.87 a 141.74,141.74 0 0 0 122.74,212.6 H 1899.6 a 141.73,141.73 0 0 0 122.74,-212.6 L 1172,128 a 141.73,141.73 0 0 0 -245.49,0 z" id="path11" style="stroke:none"/>
      </g>
      <g id="LWPOLYLINE-3" data-name="LWPOLYLINE">
        <polygon class="cls-1" points="1049.21,245.87 1858.85,1648.21 239.56,1648.21 " id="polygon14" style="stroke:none"/>
      </g>
      <g id="CIRCLE"/>
      <g id="CIRCLE-2" data-name="CIRCLE"/>
      <g id="LWPOLYLINE-4" data-name="LWPOLYLINE"/>
      <g id="LWPOLYLINE-5" data-name="LWPOLYLINE"/>
    </g>
  </g>
  <path d="m 932.06778,1274.3913 -55.9603,113.4158 v 144.6077 c 0,18.4738 -14.9961,33.4298 -33.4662,33.4298 -18.4939,0 -33.4818,-14.956 -33.4818,-33.4298 V 1375.01 l 71.6247,-166.9366 105.0431,-38.1403 23.86182,133.5459 90.7235,-19.0936 c 18.0928,-3.7811 35.8473,7.7649 39.6589,25.838 3.804,18.0731 -7.7804,35.8082 -25.8656,39.6162 l -158.27652,33.2727 z" style="display:inline;fill:#000000;fill-opacity:1;fill-rule:evenodd;stroke:none;stroke-width:5.39761" id="path3340" sodipodi:nodetypes="ccsssccccccccc"/>
  <path d="m 1367.8034,1379.7909 h -12.9608 l 1.5782,11.1485 50.6869,-3.0211 c 16.4818,-0.9798 30.6291,11.5724 31.6112,28.0207 0.9809,16.4633 -11.585,30.5951 -28.0512,31.6 l -88.3104,5.2508 c -5.0112,0.3141 -9.9577,-1.4069 -13.7228,-4.742 -3.7663,-3.3351 -6.0425,-8.0313 -6.3506,-13.0641 l -7.8199,-55.1928 h -18.116 l -13.3456,33.9404 20.8354,118.5736 c 2.6032,16.2674 -8.5116,31.5769 -24.8206,34.1602 -16.3089,2.6065 -31.6188,-8.503 -34.2206,-24.7703 l -23.2405,-135.0376 14.3277,-36.4131 h -24.7495 l 52.1952,-116.3679 100.0998,5.5648 24.3728,120.3487 z" style="display:inline;fill:#000000;fill-opacity:1;fill-rule:evenodd;stroke:none;stroke-width:5.39761" id="path10211" sodipodi:nodetypes="cccccccccccccccccccccc"/>
  <path d="m 608.66938,1211.7244 94.2599,80.6929 62.1379,-72.4104 -94.2441,-80.7242 z" style="display:inline;fill:#000000;fill-opacity:1;fill-rule:evenodd;stroke:none;stroke-width:5.39761" id="path7300" sodipodi:nodetypes="ccccc"/>
  <path d="m 1380.5517,1346.2124 102.5286,-22.7679 -14.5013,-65.1874 -102.5362,22.768 z" style="display:inline;fill:#000000;fill-opacity:1;fill-rule:evenodd;stroke:none;stroke-width:5.39761" id="path8765" sodipodi:nodetypes="ccccc"/>
  <path id="path2965" style="display:inline;fill:#000000;fill-opacity:1;fill-rule:evenodd;stroke:none;stroke-width:5.39761" d="m 1321.7305,976.82227 c -28.3103,0 -51.2832,22.25775 -51.2832,49.69723 0,27.4629 22.9729,49.7188 51.2832,49.7188 17.559,0 33.0513,-8.5486 42.3027,-21.5801 0.1937,1.8072 0.8452,3.5852 2.0098,5.1328 0.4074,0.5405 0.8581,1.0295 1.3437,1.4688 0,0 5.5362,4.1471 22.0078,16.4863 l -27.5175,16.4961 21.1035,21.0566 15.9082,-33.5644 34.5117,34.498 9.2187,-10.1758 -37.1601,-30.4609 31.8769,-19.1172 -23.6093,-19.3691 -13.7305,28.9551 -18.5801,-20.2481 c -3.2853,-2.9711 -7.9786,-3.452 -11.7637,-1.5137 2.1847,-5.5235 3.3946,-11.5144 3.3946,-17.7832 0,-27.43948 -22.9748,-49.69723 -51.3164,-49.69723 z"/>
  <path d="m 868.84518,931.4504 c 0,-30.2893 -24.5767,-54.8391 -54.8989,-54.8391 -30.3462,0 -54.9153,24.5498 -54.9153,54.8391 0,30.2817 24.5691,54.8554 54.9153,54.8554 30.3222,0 54.8989,-24.5737 54.8989,-54.8554 z" style="display:inline;fill:#000000;fill-opacity:1;fill-rule:evenodd;stroke:none;stroke-width:5.39761" id="path4183" sodipodi:nodetypes="sssss"/>
  <metadata id="metadata865">
    <rdf:RDF>
      <cc:Work rdf:about="">
        <dc:title>Portugal road sign A16aRecurso 3</dc:title>
      </cc:Work>
    </rdf:RDF>
  </metadata>
  <path d="m 837.80798,1084.0743 -90.7236,95.4056 -33.419,-28.6248 117.0136,-126.6289 c 32.13,-34.78 84.0347,-42.8433 125.2272,-19.4705 l 138.98082,78.8947 -22.3923,39.012 -91.43032,-52.9002 4.0556,85.1912 -109.0125,39.6162 z" style="display:inline;fill:#000000;fill-opacity:1;fill-rule:evenodd;stroke:none;stroke-width:5.39761" id="path2201" sodipodi:nodetypes="ccccccccccc"/>
  <path d="m 1389.3701,1252.6986 2.3201,3.0965 42.953,-9.5469 -14.3201,-100.1709 -71.8053,-47.8284 c -35.1405,-23.3885 -80.3174,-25.4612 -117.4618,-5.3639 l -61.3752,33.2017 -55.7006,-31.6007 -22.4785,39.1691 82.3918,47.6475 47.433,-29.6216 22.8085,87.6174 100.0997,5.5649 18.3128,-82.3415 15.3966,10.2377 11.4279,79.9391 z" style="display:inline;fill:#000000;fill-opacity:1;fill-rule:evenodd;stroke:none;stroke-width:5.39761" id="path13546" sodipodi:nodetypes="ccccccccccccccccc"/>
</svg>