<svg xmlns="http://www.w3.org/2000/svg" id="svg46" version="1.1" viewBox="0 0 2098.38 1870.52"><defs id="defs4"><style id="style2">.cls-1{fill:#fff;stroke:#000;stroke-linecap:round;stroke-linejoin:round;stroke-width:.71px}</style></defs><g id="Capa_2" data-name="Capa 2"><g id="Capa_1-2" data-name="Capa 1"><g id="LWPOLYLINE"><path id="path8" d="M27 1572.53 877.37 99.6A198.47 198.47 0 0 1 950 27c94.91-54.79 216.26-22.28 271.06 72.63l850.39 1472.93a198.37 198.37 0 0 1 26.59 99.21c0 109.58-88.84 198.42-198.43 198.42H198.81a198.46 198.46 0 0 1-99.21-26.58C4.69 1788.79-27.82 1667.43 27 1572.53" class="cls-1"/></g><g id="LWPOLYLINE-2" data-name="LWPOLYLINE"><path id="path11" d="M926.46 128 76.07 1600.87a141.74 141.74 0 0 0 122.74 212.6H1899.6a141.73 141.73 0 0 0 122.74-212.6L1172 128a141.73 141.73 0 0 0-245.49 0z" style="stroke-linecap:round;stroke-linejoin:round;stroke-width:.71px;fill:red;stroke:none"/></g><g id="LWPOLYLINE-3" data-name="LWPOLYLINE"><path id="polygon14" d="m1049.21 245.87 809.64 1402.34H239.56z" class="cls-1" style="stroke:none"/></g></g></g><path id="path3340" d="m932.068 1274.391-55.96 113.416v144.608c0 18.474-14.997 33.43-33.467 33.43-18.494 0-33.482-14.956-33.482-33.43V1375.01l71.625-166.937 105.043-38.14 23.862 133.546 90.724-19.094c18.092-3.78 35.847 7.765 39.658 25.838 3.804 18.074-7.78 35.809-25.865 39.617l-158.277 33.272z" style="display:inline;fill:#000;fill-opacity:1;fill-rule:evenodd;stroke:none;stroke-width:5.39761"/><path id="path10211" d="M1367.803 1379.79h-12.96l1.578 11.15 50.687-3.022c16.481-.98 30.629 11.573 31.61 28.021.982 16.463-11.584 30.595-28.05 31.6l-88.31 5.25c-5.012.315-9.958-1.406-13.724-4.741a18.98 18.98 0 0 1-6.35-13.064l-7.82-55.193h-18.116l-13.346 33.94 20.836 118.574c2.603 16.267-8.512 31.577-24.82 34.16-16.31 2.607-31.62-8.503-34.221-24.77l-23.24-135.038 14.327-36.413h-24.75l52.195-116.368 100.1 5.565z" style="display:inline;fill:#000;fill-opacity:1;fill-rule:evenodd;stroke:none;stroke-width:5.39761"/><path id="path7300" d="m608.67 1211.724 94.26 80.693 62.137-72.41-94.244-80.724z" style="display:inline;fill:#000;fill-opacity:1;fill-rule:evenodd;stroke:none;stroke-width:5.39761"/><path id="path8765" d="m1380.552 1346.212 102.528-22.768-14.501-65.187-102.536 22.768z" style="display:inline;fill:#000;fill-opacity:1;fill-rule:evenodd;stroke:none;stroke-width:5.39761"/><path id="path2965" d="M1321.73 976.822c-28.31 0-51.283 22.258-51.283 49.698 0 27.462 22.973 49.718 51.283 49.718 17.56 0 33.052-8.548 42.303-21.58a10.33 10.33 0 0 0 3.354 6.602l22.007 16.486-27.517 16.496 21.104 21.057 15.908-33.565 34.511 34.498 9.22-10.175-37.161-30.461 31.877-19.117-23.61-19.37-13.73 28.956-18.58-20.249c-3.285-2.97-7.979-3.452-11.764-1.513a48.2 48.2 0 0 0 3.395-17.783c0-27.44-22.975-49.698-51.316-49.698" style="display:inline;fill:#000;fill-opacity:1;fill-rule:evenodd;stroke:none;stroke-width:5.39761"/><path id="path4183" d="M868.845 931.45c0-30.289-24.577-54.839-54.899-54.839-30.346 0-54.915 24.55-54.915 54.84 0 30.281 24.57 54.855 54.915 54.855 30.322 0 54.9-24.574 54.9-54.856" style="display:inline;fill:#000;fill-opacity:1;fill-rule:evenodd;stroke:none;stroke-width:5.39761"/><path id="path2201" d="m837.808 1084.074-90.724 95.406-33.419-28.625 117.014-126.629c32.13-34.78 84.035-42.843 125.227-19.47l138.981 78.894-22.392 39.012-91.43-52.9 4.055 85.191-109.013 39.617z" style="display:inline;fill:#000;fill-opacity:1;fill-rule:evenodd;stroke:none;stroke-width:5.39761"/><path id="path13546" d="m1389.37 1252.699 2.32 3.096 42.953-9.547-14.32-100.17-71.805-47.83c-35.14-23.388-80.318-25.46-117.462-5.363l-61.375 33.202-55.7-31.601-22.48 39.17 82.393 47.647 47.433-29.622 22.808 87.617 100.1 5.565 18.313-82.341 15.396 10.238 11.428 79.939z" style="display:inline;fill:#000;fill-opacity:1;fill-rule:evenodd;stroke:none;stroke-width:5.39761"/></svg>