<svg xmlns="http://www.w3.org/2000/svg" width="902.128" height="804.604" version="1.0"><path d="M-3637.111-6417.936c28.668.642 56.305 15.791 71.69 42.439l363.855 630.207a84.87 84.87 0 0 1 11.375 42.439c0 46.888-38.02 84.909-84.909 84.909h-727.71c-46.89 0-84.91-38.021-84.91-84.909a84.87 84.87 0 0 1 11.376-42.439l363.855-630.207c15.385-26.648 43.022-41.796 71.69-42.439.61-.014 3.078-.014 3.688 0z" style="fill:#fff;fill-opacity:1;stroke:#000;stroke-width:4;stroke-miterlimit:4;stroke-dasharray:none;stroke-opacity:1" transform="translate(4090.02 6420.247)"/><path d="M-3640.236-6393.676c-20.476.46-40.23 11.31-51.22 30.345l-363.846 630.192a60.6 60.6 0 0 0-8.125 30.312c0 33.49 27.135 60.626 60.626 60.626h727.693c33.49 0 60.625-27.135 60.625-60.626a60.6 60.6 0 0 0-8.125-30.312l-363.846-630.192c-10.99-19.034-30.743-29.886-51.22-30.345-.43-.01-2.132-.02-2.562 0" style="fill:red;fill-opacity:1;fill-rule:evenodd;stroke:none" transform="translate(4090.02 6420.247)"/><path d="m-3638.955-6312.885-346.4 599.984h692.8z" style="clip-rule:evenodd;fill:#fff;fill-opacity:1;fill-rule:evenodd;stroke:none" transform="translate(4090.02 6420.247)"/><path d="M-3665.625-6081.036c0-11.827 9.6-21.413 21.444-21.413s21.445 9.586 21.445 21.413-9.6 21.415-21.445 21.415c-11.844 0-21.444-9.587-21.444-21.415" style="fill:#000;fill-opacity:1;fill-rule:evenodd;stroke:none;stroke-width:.26999998;stroke-linecap:butt;stroke-linejoin:bevel;stroke-miterlimit:22.92558479;stroke-dasharray:none;stroke-opacity:1" transform="translate(4090.02 6420.247)"/><path d="M-3800.249-5943.113a29.72 29.72 0 0 1 22.38-9.968l.174.011h4.497l.347.124.371.124.41.124.47.123.533.124.607.136.681.149.731.173.78.186.818.197.83.21.843.223.83.235.83.223.806.235.78.235.768.248.756.247.743.248.719.247.706.247.681.248.67.247.644.248.619.247.595.235.557.223.533.223.496.21.458.198.434.185.396.186.36.16.334.162.297.124.26.123.223.124.186.124h.669l.124-.124.124-.124.136-.136.137-.16.16-.199.174-.222.198-.248.21-.272.236-.284.26-.298.285-.321.31-.334.322-.347.335-.346.347-.346.347-.347.346-.346.335-.334.322-.322.31-.322.297-.321.297-.31.298-.297.285-.309.285-.31.297-.308.297-.31.298-.321.31-.322.322-.322.334-.321.347-.322.36-.31.371-.321.396-.31.397-.296.409-.297.408-.285.397-.272.384-.26.36-.247.346-.235.31-.223.297-.21.273-.198.272-.198.273-.186.285-.185.285-.186.322-.185.347-.186.372-.198.396-.198.434-.198.458-.198.483-.21.496-.21.532-.21.546-.211.57-.21.57-.21.582-.199.582-.198.582-.198.57-.198.558-.185.545-.186.533-.185.52-.161.495-.161.496-.148.483-.137.483-.123.471-.124.471-.124.471-.123.47-.124.471-.124h3.11l.558-.012h1.115l.532.012h3.63l.397.124.433.124.471.123.496.124.52.124.533.123.557.124.57.124.583.124.594.123.595.124.607.124.62.124.631.123.632.124.644.124.657.136.657.148.669.161.669.173.656.173.645.186.62.186.606.173.57.173.545.16.508.15.483.135.459.137.433.123.422.124.408.124.397.123.396.124.397.124.409.124.408.136.422.136.446.148.458.173.483.174.52.198.533.198.545.21.533.21.52.198.484.198.446.173.396.161.322.124.273.124.223.123.173.124a23.56 23.56 0 0 1-4.889-21.156v-.322l17.196-58.373a35.5 35.5 0 0 1 8.56-14.683 13.375 13.375 0 0 1 13.84-3.372c.199.123.41.136.607.222a23.13 23.13 0 0 1 11.223 9.299 36.86 36.86 0 0 1 5.232 24.712v.148l.124.124.123.124.124.123.124.124.124.124.124.123.124.124.136.124.161.136.161.16.174.174.198.186.21.185.211.198.235.21.236.223.26.223.26.235.273.235.272.235.273.235.272.235.285.223.285.223.298.235.31.235.346.26.384.272.41.309.458.334.508.371.557.409.607.432.657.47.706.508.743.532.793.557.83.581.868.619.892.63.904.632.904.63.892.62.855.605.818.557.756.52.694.47 20.82 14.04a312.3 312.3 0 0 1 31.937-42.985 24.18 24.18 0 0 1 20.518-8.953h7.347l.471.124.446.124.421.123.422.124.408.124.41.124.42.123.422.124.421.124.421.124.409.123.397.124.384.124h1.003l.297.012h.558l.272-.124.273-.124.273-.124.285-.16.285-.198.284-.21.285-.223.273-.235.273-.236.247-.235.236-.21.21-.198.199-.185.173-.174.173-.148.174-.161.16-.136.162-.136.173-.136.174-.149.186-.148.186-.149.198-.16.198-.149.198-.148.198-.149.199-.16.186-.137.185-.136.174-.136.173-.124.174-.123.173-.124.161-.124.161-.123.161-.124.149-.124.136-.124.137-.123.123-.124.124-.124.124-.124.124-.123.124-.124h.124l.124-.124.124-.123.124-.124.123-.124.124-.124.137-.123.173-.124.186-.124.21-.123.224-.124.247-.124.273-.124.285-.123.297-.124.322-.124h.979l.322-.012h.545l.124.012c.706 0 1.37.359 1.84.891a2.7 2.7 0 0 1 .669 1.926v.124l.013.248-.013.247v.26l-.012.26v2.548l-.012.235-.011.235-.012.235v.223l-.012.223v2.276l-.012.198-.013.198-.012.198v33.33l.012.408.013.433v.916l-.013.445-.012.42v13.263l-.011.198-.012.21v.446l.012.248.011.26v18.582l.012.346.013.36v.729l-.013.359-.012.359v6.854h-.743l-.124.123-.124.124-.124.124h-.124l-.124.124-.124.123-.124.124v.124l-.123.124h-14.26l-.558-.012h-8.301v-16.096l-.123-.173-.124-.174-.124-.16-.124-.161v-.149l-.124-.136-.124-.124v-.123l-.124-.124-.124-.124-.124-.123v-.124l-.124-.124-.123-.124-.124-.123-.124-.124-.124-.136-.124-.136-.124-.136-.124-.137-.124-.136-.124-.136-.123-.123-.124-.124-.124-.124-.124-.124-.124-.123-.124-.124-.124-.124-.124-.123h-.124l-.124-.124-.123-.124h-.124l-.124-.124-.124-.123-.124-.124h-.124l-.124-.124-.124-.123-.124-.124-.124-.124-.123-.124-.124-.123-.124-.124-.124-.124-.124-.123-.124-.124-.124-.124-.124-.124-.123-.123-.124-.124-.124-.124-.124-.124-.124-.123-.124-.124-.124-.124-.124-.123-.124-.124-.123-.124-.124-.124-.124-.123h-.372l-.124.01h-2.23l-19.447 45.009v1.2l-.012.198-.012.222v.47l.012.236.012.235v14.982l.012.693.013.68.012.693-.012.68-.013.693-.012.693v29.668l-.012.149.012.136v.989l.124.124 1.655 1.28 32.379 24.413.136.124.137.123.136.124.136.124.136.124.137.123.136.124.136.124.137.123.136.124.136.124.136.123.162.137.16.16.186.161.199.186.21.198.236.21.26.235.26.247.273.26.284.273.285.272.285.272.285.272.273.26.26.26.248.247.235.248.223.235.21.222.199.21.186.199.161.185.161.173.136.161.149.173.149.174.16.185.174.198.198.21.223.248.236.26.248.272.26.272.248.26.235.26.21.235.186.198.161.173.124.136.124.124.124.124v9.952l-.012 1.61v9.398l-.124 1.334-.124 1.244-.124 1.15-.123 1.065v6.619l-.012.532v.557l-.012.58-.012.62-.013.655-.012.706v30.637c0 1.347-.88 2.534-2.173 2.924l-12.02 3.634c-.917.272-1.901.123-2.674-.446a3.08 3.08 0 0 1-1.277-2.385l-.199-6.168v-11.731l-.012-1.94-.013-1.974.013-1.969.012-1.915v-20.71l.012-.743-.012-.618v-1.881l-.123-.148-.124-.136-.124-.136-.124-.136-.124-.137-.124-.136-.124-.136-.148-.136-.162-.136-.185-.148-.199-.149-.21-.16-.223-.161-.248-.161-.248-.174-.26-.185-.273-.186-.285-.185-.297-.198-.322-.223-.347-.247-.384-.272-.434-.297-.483-.347-.545-.396-.595-.433-.656-.482-.706-.52-.756-.557-.793-.594-.818-.606-.842-.63-.855-.644-.867-.643-.867-.644-.88-.655-.867-.644-.88-.643-.855-.643-.855-.631-.842-.631-.818-.62-.805-.605-.78-.582-.756-.569-.731-.544-.707-.52-.669-.482-.644-.446-.607-.42-.582-.396-.545-.371-.533-.347-.508-.346-.496-.347-.495-.346-.483-.359-.484-.383-.483-.396-.483-.42-.483-.434-.496-.445-.495-.446-.496-.457-.495-.458-.496-.458-.508-.458-.483-.433-.47-.42-.447-.396-.409-.36-.371-.308-.322-.273-.26-.222-.224-.173-.173-.136-.136-.124-.124-.124h-.62l-.124-.012-.123.012h-.372v.878l-.124.136-.124.149-.124.148-.124.149-.124.16-.124.15-.123.135-.124.136-.124.124v.124l-.124.123v.372l-.124.123-.124.136-.124.161-.124.173-.123.198-.125.223-.123.248-.124.272-.124.297-.136.334-.149.359-.161.395-.174.409-.173.433-.186.445-.198.458-.198.47-.199.47-.198.458-.186.458-.185.433-.186.433-.174.433-.186.42-.185.42-.186.422-.186.42-.198.409-.199.42-.198.42-.21.421-.211.433-.21.434-.224.445-.223.445-.223.458-.235.47-.235.483-.236.482-.235.483-.236.482-.235.483-.223.482-.223.47-.223.483-.223.482-.223.495-.223.52-.235.532-.248.569-.248.606-.273.644-.272.68-.297.717-.298.755-.31.78-.322.804-.334.841-.347.866-.347.879-.36.903-.359.915-.371.94-.384.953-.384.965-.397.978-.396.99-.397 1.001-.396 1.003-.397.99-.396.977-.384.952-.372.928-.36.879-.346.84-.322.78-.297.73-.285.68-.26.632-.248.593-.236.57-.223.532-.21.507-.199.482-.198.483-.198.482-.198.483-.21.507-.224.532-.248.57-.26.618-.285.668-.31.705-.322.755-.334.767-.347.767-.335.767-.334.755-.322.73-.31.68-.285.643-.272.607-.248.581-.248.544-.235.52-.223.482-.211.47-.198.446-.199.433-.185.42-.186.409-.186.408-.173.409-.174.42-.173.42-.174.446-.173.458-.174.47-.173.47-.186.483-.173.482-.186.483-.186.482-.198.47-.199.483-.198.47-.21.483-.211.494-.223.508-.235.52-.236.544-.247.569-.26.594-.26.618-.274.631-.272.644-.273.655-.272.656-.273.656-.272.668-.273.655-.272.656-.273.668-.273.656-.272.656-.273.668-.272.655-.273.656-.272.656-.273.668-.273.656-.26.655-.26.644-.26.63-.248.632-.235.618-.223.607-.223.593-.21.582-.211.569-.199.544-.198.52-.198.507-.186.483-.186.47-.186.47-.185.458-.186.457-.186.47-.198.47-.211.496-.21.507-.224.52-.223.532-.223.544-.223.544-.223.545-.235.532-.223.532-.223.52-.223.494-.21.482-.211.458-.198.446-.199.42-1.226 2.66a3.06 3.06 0 0 1-2.784 1.786h-13.968a3.07 3.07 0 0 1-2.501-1.293 3.07 3.07 0 0 1-.384-2.789l2.814-7.944s0-.012.012 0l.359-1.027.173-.495.174-.495.173-.494.174-.495.173-.495.174-.483.16-.482.15-.47.148-.458.136-.446.137-.42.124-.42.123-.41.124-.407.124-.409.124-.408.124-.42.136-.434.136-.445.15-.445.148-.47.16-.458.162-.47.16-.458.162-.458.161-.445.149-.433.148-.409.137-.395.136-.372.124-.346.124-.334.124-.31.124-.284.123-.26.124-.235.124-.222.124-.198.124-.198.124-.186.124-.185.124-.186.124-.198.123-.198.124-.198.124-.198.124-.198.124-.21.124-.21.124-.211.124-.21.124-.21.123-.21.124-.211.124-.21.124-.21.124-.211.124-.21.124-.21.124-.211.124-.21.124-.21.123-.211.124-.223.124-.222.124-.235.124-.223.124-.235.124-.235.124-.235.124-.223.123-.223.124-.21.124-.198.124-.173.124-.173.124-.161.124-.149.124-.16.124-.15.124-.16.123-.16.124-.174.124-.186.124-.185.124-.186.124-.198.124-.198.124-.198.124-.185.123-.186.124-.185.124-.186.124-.185.124-.174.124-.185.124-.198.124-.21.124-.21.123-.224.124-.234.124-.248.124-.247.124-.26.124-.272.124-.285.124-.297.124-.31.124-.308.123-.322.124-.322.124-.334.136-.346.137-.347.136-.359.136-.358.137-.36.123-.358.124-.346.124-.347.124-.334.124-.31.124-.308.124-.285.124-.272.124-.272.123-.26.124-.248.124-.235.124-.222.124-.223.124-.223.124-.222.124-.223.124-.223.124-.222.123-.236.124-.247.124-.247.124-.273.124-.284.124-.297.124-.322.124-.346.124-.371.136-.396.136-.433.149-.458.16-.47.15-.482.148-.483.136-.483.137-.457.124-.446.124-.42.123-.396.124-.371.124-.36.124-.346.124-.334.124-.321.124-.31.124-.309.124-.31v-.296l.123-.297.124-.297.124-.297.124-.284v-2.883l.124-.21.124-.21.124-.224.124-.234.124-.248.123-.272.124-.297.124-.347.124-.383.124-.42.124-.47.124-.52.124-.57.123-.63.124-.693.137-.743.136-.78.149-.803.148-.817.15-.804.148-.792.136-.767.136-.717.124-.68.124-.644.124-.606.124-.557.124-.52.124-.482.123-.433.124-.396.124-.359.124-.334.124-.31.124-.284.124-.272.124-.272v-2.586l.124-.31.123-.333.124-.36.124-.407.124-.458.124-.532.124-.606.136-.693.174-.792.186-.878.198-.953.21-1.002.211-1.027.223-1.04.21-1.038.211-1.015.198-.977.199-.928.185-.879.174-.828.161-.78.161-.718.136-.655.124-.594.124-.532.124-.47.124-.42.124-.384.124-.36.124-.346.123-.346.124-.346.124-.36.124-.37.124-.396.124-.409.124-.42.124-.433.124-.458.123-.47.124-.483.124-.482.124-.483.124-.47.124-.445v-1.374l-.124-.21-.124-.16-.148-.124-.186-.124h-1.772l-.52-.012-.57-.012h-6.108l-.966.012-1.029.012h-22.473l-.445.01-.447.014-.47.01h-3.828l-.818-.01-.818-.013a62 62 0 0 1-29.666-5.914l-.186-.123-.21-.124-.21-.124-.2-.124-.173-.123h-.272l-.124-.013-.124.013h-.124v1.484l-.124.124-.124.124-.124.123-.124.124-.123.124-.124.124-.124.123-.124.124-.124.124-.124.124-.124.123-.124.124-.124.124-.123.123-.124.124-.124.124-.124.123-.124.137-.124.136-.124.136-.124.148-.123.161-.125.173-.123.186-.124.185-.124.198-.124.198-.124.198-.124.21-.124.21-.124.211-.123.21-.124.21-.124.199-.124.198-.124.185-.124.174-.124.173-.124.16-.123.161-.124.149-.124.136-.124.136-.124.149-.124.148-.124.16-.124.174-.124.186-.124.185-.136.21-.136.236-.149.235-.16.26-.174.284-.174.297-.186.322-.198.334-.198.346-.21.359-.211.371-.223.371-.223.371-.223.371-.236.372-.247.383-.248.384-.26.396-.273.408-.272.42-.286.421-.297.446-.31.457-.31.458-.31.446-.296.432-.285.421-.273.396-.26.371-.235.334-.211.31-.186.284-.173.26-.161.247-.161.248-.15.235-.148.247-.16.26-.174.272-.186.285-.198.31-.211.333-.235.359-.26.396-.298.433-.322.47-.36.507-.371.532-.396.557-.397.557-.409.569-.396.557-.397.544-.371.532-.36.507-.334.483-.322.47-.298.445-.285.42-.272.41-.248.383-.235.358-.223.347-.21.346-.224.347-.223.346-.235.371-.248.396-.285.42-.31.459-.334.482-.36.52-.384.544-.396.581-.409.607-.421.63-.434.656-.433.68-.434.681-.421.68-.41.669-.395.656-.36.618-.334.582-.298.532-.26.47-.21.42-.186.372-.161.346-.137.31-.123.296-.124.297-.124.31-.124.321-.124.334-.124.347-.124.37-.124.384-.124.409-.124.42-.123.446v1.435l-.012.482v1.794c.124 4.383 1.314 8.67 3.57 12.433l22.71 44.53a3.03 3.03 0 0 1-.124 2.989 3.08 3.08 0 0 1-2.61 1.465h-16.14a3.08 3.08 0 0 1-2.72-1.653l-1.673-3.235-1.177-2.224-.347-.668-.36-.717-.371-.767-.384-.817-.397-.841-.396-.866-.41-.879-.408-.89-.409-.879-.408-.866-.422-.841-.421-.817-.421-.804-.421-.792-.422-.791-.433-.792-.434-.804-.446-.817-.446-.841-.458-.842-.459-.84-.446-.83-.433-.804-.41-.767-.37-.717-.348-.656-.31-.594-.272-.52-.248-.47-.223-.433-.21-.408-.199-.384-.198-.371-.186-.371-.198-.384-.198-.395-.21-.421-.212-.445-.235-.483-.248-.52-.272-.556-.285-.619-.31-.668-.322-.718-.335-.767-.346-.804-.36-.829-.36-.841-.358-.866-.347-.866-.347-.878-.335-.866-.334-.879-.322-.89-.31-.891-.31-.904-.297-.915-.297-.928-.298-.94-.285-.94-.272-.953-.273-.928-.26-.916-.248-.878-.223-.841-.223-.792-.198-.742-.186-.693-.173-.644-.161-.618-.137-.582-.123-.556-.124-.545-.124-.544-.124-.545-.124-.532-.124-.52-.124-.506-.124-.483-.124-.458v-3.291l-.012-.272-.01-.284.01-.31v-1.868l.124-.457.124-.47.124-.496.124-.494.124-.495.124-.495.124-.483.124-.47.123-.458.124-.445.124-.445.124-.446.124-.457.124-.458.124-.47.124-.483.124-.495.124-.495.123-.495.124-.47.124-.457.124-.421.124-.396.124-.346.124-.322.124-.31.124-.309.123-.321.124-.347.124-.396.124-.445.136-.507.174-.57.186-.63.198-.693.223-.755.235-.792.248-.853.273-.891.285-.928.297-.965.31-.977.31-.978.309-.977.31-.953.297-.915.285-.879.273-.829.26-.779.248-.742.235-.73.248-.718.248-.73.247-.742.273-.767.285-.804.297-.83.297-.828.298-.804.273-.78.26-.717.223-.644.198-.544.149-.445.123-.347.124-.247v-.297l-.124.124-.123.123-.124.136-.137.161-.173.198-.198.235-.223.272-.26.31-.298.346-.322.384-.347.42-.372.433-.396.458-.396.458-.41.47-.408.458-.421.458-.41.433-.408.42-.409.408-.409.396-.396.372-.397.37-.384.347-.384.322-.371.309-.372.297-.372.284-.371.285-.384.285-.397.296-.409.298-.421.321-.434.334-.446.347-.458.358-.47.359-.472.371-.47.372-.471.37-.471.384-.458.371-.471.371-.459.372-.47.37-.471.36-.471.358-.483.359-.483.347-.496.346-.508.346-.52.334-.52.334-.533.334-.533.322-.558.334-.557.334-.57.334-.607.347-.632.359-.681.383-.731.408-.793.433-.867.483-.93.52-.99.544-1.041.569-1.053.581-1.054.582-1.04.581-1.004.557-.941.532-.88.495-.805.47-.756.433-.694.408-.644.384-.595.359-.557.334-.52.321-.484.297-.458.285-.434.272-.409.26-.384.247-.359.235-.334.223-.323.21-.31.21-.284.199-.273.185-.248.186-.235.173-.223.16-.198.174-.186.16-.174.174-.148.173-.136.173-.124.186-.124.186-.124.198-.124.21-.124.223-.124.235-.124.247-.124.26-.124.26-.123.26-.124.26-.124.26-.124.247-.124.247-.124.235-.124.223-.124.21-.124.198v.198l-.123.186v1.372l-.124.174-.124.186-.124.185-.124.198-.124.21-.124.21v.224l-.124.222v2.252l-.124.272-.123.285-.124.297-.124.297-.124.309-.124.31v3.649l-.124.396-.124.408-.124.408-.124.408v.421l-.124.408-.123.421-.124.408-.124.409-.124.408-.124.408-.124.396-.124.396-.124.384v2.845l-.123.557v.63l-.124.706-.124.767-.124.829-.124.866-.124.903-.124.928-.124.928-.124.915-.124.904-.124.89v5.617l-.123 1.064-.124 1.101-.124 1.126-.124 1.15-.124 1.151-.124 1.138-.124 1.126-.124 1.09-.124 1.063-.123 1.015-.124.965-.124.915v5.605l-.012.581-.012.606-.011.644v18.701c0 .817-.322 1.586-.905 2.161a3.08 3.08 0 0 1-2.164.904h-11.633a3.065 3.065 0 0 1-3.064-3.044v-36.446l.012-1.2v-1.82l.012-.704.012-.656.01-.643v-12.335l.124-.767.124-.68.124-.62.124-.568.124-.52v-6.421l.124-.322.124-.346.124-.359.124-.396.123-.42.124-.458.124-.495.124-.532.124-.582.124-.618.124-.631.124-.643.124-.631.123-.607.125-.569.123-.532.124-.47.124-.408.124-.371.124-.322.124-.284.124-.26.123-.248.124-.235v-2.004l.124-.235v-.248l.124-.247.124-.26.124-.272.124-.272.124-.285.124-.297.124-.31.123-.308.124-.31.124-.309.124-.322.124-.321.124-.31.124-.309.124-.297.124-.297.123-.297.124-.296.124-.297.124-.297.124-.285.124-.284.124-.285.124-.285.124-.284.123-.285.124-.272.124-.26.124-.26.124-.247.124-.235.124-.223.124-.21.124-.21.124-.186v-.186l.123-.173.124-.16.124-.15.124-.135v-.136l.124-.136.124-.124.124-.124.124-.123.124-.124.123-.124.124-.124v-.123l.124-.124.124-.124.124-.123.124-.124v-.124l.124-.124.124-.123.124-.124.123-.124.124-.123.124-.124v-1.002l.124-.161.124-.173.124-.198.124-.21.124-.236.124-.235.124-.247.123-.26.124-.26.124-.272.124-.272.136-.285.137-.284.136-.285.136-.272.136-.272.137-.272.136-.273.136-.26.137-.272.136-.272.136-.272.149-.285.16-.284.15-.31.16-.309.162-.334.173-.346.174-.371.185-.384.199-.396.21-.408.223-.433.236-.445.247-.458.248-.47.248-.47.26-.47.26-.47.248-.458.248-.446.248-.433.235-.42.235-.433.248-.446.26-.482.286-.52.31-.57.346-.63.384-.693.409-.755.434-.804.458-.829.458-.841.446-.841.446-.83.434-.803.396-.767.385-.73.359-.706.347-.68.334-.656.335-.643.322-.631.334-.619.335-.618.334-.631.347-.631.347-.643.36-.656.371-.68.397-.706.409-.73.42-.754.434-.78.434-.78.421-.766.409-.743.384-.717.36-.656.321-.594.273-.532.235-.458.199-.395.173-.36.149-.321.124-.297.124-.284.123-.285.124-.297.124-.297.124-.31.124-.308.124-.31.124-.31.124-.296.124-.297.123-.284.124-.273.124-.26.124-.247.124-.223.124-.21.124-.198.124-.173.124-.161.124-.136v-3.303l.012-.359.013-.396.012-.433.012-.483v-4.429l.012-.928.012-.94.012-.928v-6.408l.124-.532.123-.532.124-.545v-.544l.124-.532.124-.52.124-.507v-3.588l.124-.31.124-.284.124-.284.124-.272v-.26l.123-.272.124-.26.124-.272v-3.13l.124-.198.124-.21.124-.248.124-.26.124-.284.124-.297.124-.31.123-.31.124-.308.124-.31.124-.31v-.58l.013-.273v-.47l-.124-.198-.124-.16-.173-.124-.21-.124-.249-.124h-13.368l-.743-.012h-1.462l-.669.012h-3.915l-.124.124-.124.124-.124.123-.124.124-.123.124-.124.124-.124.123-.124.124-.124.124-.124.124-.124.123-.124.124-.123.124-.124.123-.124.124-.124.124-.124.124-.124.123-.124.124-.124.124-.124.124-.124.123-.123.136-.124.136-.124.136-.124.149-.124.16-.124.162-.124.16-.124.161-.124.173-.124.174-.123.16-.124.161-.124.174-.124.173-.124.173-.124.16-.124.174-.124.173-.123.161-.124.16-.124.162-.124.16-.124.161-.124.149-.124.148-.124.161-.124.136-.123.136-.124.136-.124.149-.124.148-.124.174-.124.185-.124.198-.124.21-.124.235-.124.248-.123.272-.124.285-.124.296-.124.298-.124.309-.124.31-.124.32-.124.322-.124.334-.123.347-.124.359-.124.37-.124.384-.136.409-.15.42-.16.433-.161.458-.174.483-.16.507-.174.544-.174.57-.173.593-.173.619-.174.63-.161.644-.161.63-.149.62-.148.606-.137.569-.136.544-.124.52-.124.495-.124.482-.124.47-.124.483-.123.495-.124.507-.124.532-.124.557-.124.557-.124.569-.124.569-.124.556-.124.557-.123.532v.507l-.124.495-.124.495v4.318l-.124.829-.124.89-.124.929-.124.965-.124 1.002v9.625l-.012.68v.607l-.012.544-.013.495-.012.458v5.666h-.743l-.161.012h-.409l-.26-.012h-25.051v-1.695l-.011-.408.01-.433v-3.068l.125-.297.124-.285v-2.808l.124-.532.124-.607.124-.68.123-.742.124-.792.124-.841.124-.854.124-.878.124-.867.124-.853.124-.841.123-.817.124-.817.124-.828.124-.842.124-.866.124-.915.124-.965.124-1.027.124-1.064.123-1.09.124-1.1.124-1.076.124-1.052.124-1.002v-.928l.124-.854.124-.767.124-.705v-.643l.124-.594.124-.545.124-.507v-3.922l.123-.26v-.247l.124-.235.124-.235.124-.247.124-.273.124-.297.124-.321.124-.359.123-.371.124-.396.124-.396.124-.396.124-.383.124-.36.124-.345.124-.31v-1.571l.124-.223.123-.223.124-.222.124-.223.124-.235.124-.247.124-.26.124-.285.124-.297.124-.321.123-.334.124-.347.124-.358.124-.36.124-.37.124-.372.124-.371.124-.371.124-.359.136-.371.136-.346.137-.347.136-.334.136-.321.136-.297.137-.297.136-.285.136-.272.136-.272.137-.272.136-.273.136-.284.137-.297.136-.297.136-.31.137-.309.123-.309.124-.297.124-.284.124-.273.124-.26.124-.247.124-.247.124-.248.124-.26.136-.272.148-.284.162-.322.185-.346.198-.372.211-.395.236-.421.247-.433.273-.445.285-.458.31-.458.322-.458.322-.457.347-.446.347-.433.347-.433.346-.42.335-.396.31-.384.31-.359.284-.346.273-.322.26-.31.26-.296.248-.285-.124.124z" style="fill:#000;fill-opacity:1;fill-rule:evenodd;stroke:none" transform="translate(4090.02 6420.247)"/><path d="M-3617.205-5959.127h-1.66l-1.664-.655-2.77-1.663-2.489-1.657-3.324-2.322-18.488-12.666 6.123-24.504 38.744 23.868-8.937 13.634-2.766 3.647-2.769 2.324z" style="fill:#fff;fill-opacity:1;fill-rule:evenodd;stroke:none;stroke-width:.26999998;stroke-linecap:butt;stroke-linejoin:bevel;stroke-miterlimit:22.92558479;stroke-dasharray:none;stroke-opacity:1" transform="translate(4090.02 6420.247)"/></svg>