<svg xmlns="http://www.w3.org/2000/svg" width="902.128" height="804.604" version="1.0"><path d="M-3637.111-6417.936c28.668.642 56.305 15.791 71.69 42.439l363.855 630.207a84.87 84.87 0 0 1 11.375 42.439c0 46.888-38.02 84.909-84.909 84.909h-727.71c-46.89 0-84.91-38.021-84.91-84.909a84.87 84.87 0 0 1 11.376-42.439l363.855-630.207c15.385-26.648 43.022-41.796 71.69-42.439.61-.014 3.078-.014 3.688 0z" style="fill:#fff;fill-opacity:1;stroke:#000;stroke-width:4;stroke-miterlimit:4;stroke-dasharray:none;stroke-opacity:1" transform="translate(4090.02 6420.247)"/><path d="M-3640.236-6393.676c-20.476.46-40.23 11.31-51.22 30.345l-363.846 630.192a60.6 60.6 0 0 0-8.125 30.312c0 33.49 27.135 60.626 60.626 60.626h727.693c33.49 0 60.625-27.135 60.625-60.626a60.6 60.6 0 0 0-8.125-30.312l-363.846-630.192c-10.99-19.034-30.743-29.886-51.22-30.345-.43-.01-2.132-.02-2.562 0" style="fill:red;fill-opacity:1;fill-rule:evenodd;stroke:none" transform="translate(4090.02 6420.247)"/><path d="m-3638.955-6312.885-346.4 599.984h692.8z" style="clip-rule:evenodd;fill:#fff;fill-opacity:1;fill-rule:evenodd;stroke:none" transform="translate(4090.02 6420.247)"/><path d="m-3743.253-5904.385-6.728-2.805a23.67 23.67 0 0 0-15.383-.99l-5.2 1.425-6.035 3.452a3.57 3.57 0 0 0-1.7 3.872l1.798 8.142 59.377 73.747h23.749l-11.873-11.903-9.503 1.188-38-58.284 51.31 20.73 6.588.673c.948.198 1.917-.297 2.521-1.049l4.895-4.9a154.94 154.94 0 0 0 68.614 4.453 23.7 23.7 0 0 1 10.338.633 851 851 0 0 1 88.352 30.94 23.7 23.7 0 0 1 7.888 5.325c15.369 15.667 37.648 22.426 59.114 17.916a5.96 5.96 0 0 1 6.372 2.87l35.425 62.052 23.448 3.772-9.844-13.635-9.563-.336-33.285-74.792-8.17-2.336-16.06-4.02a5.92 5.92 0 0 1-4.07-3.562l-3.625-9.075-4.748-22.594-5.938-28.55 9.74 2.575a5.94 5.94 0 0 0 4.461-1.267 5.95 5.95 0 0 0 2.184-4.093l.197-2.237a5.94 5.94 0 0 0-4.074-6.193l-52.888-17.324-17.813-2.384-13.063 2.384-73.625-11.898-10.686-9.51-24.938-14.278-11.874-21.41-9.502-22.598-2.373-15.462-2.373-17.84.652-5.5 14.57-8.238c.83-1.346.79-3.038 0-4.342a4.01 4.01 0 0 0-3.97-1.742l-12.673 1.9a50.47 50.47 0 0 1 30.52-26.887 50.89 50.89 0 0 0 22.846-39.66c.198-1.642-1.166-3.05-2.794-3.14-1.64-.198-3.039 1.167-3.138 2.804a49.54 49.54 0 0 1-16.291 32.162 47.4 47.4 0 0 0-2.022-24.783c-.217-.871-.928-1.524-1.817-1.722-.89-.198-1.779.198-2.346.85 1.443 10.443.198 21.073-3.823 30.837a55.6 55.6 0 0 0-8.096 4.811 32.62 32.62 0 0 0-5.04-20.99 1.23 1.23 0 0 0-1.245-.593c-.494 0-.89.475-.968.99a66.95 66.95 0 0 1-.336 27.099 56.4 56.4 0 0 0-11.629 17.49l-27.768 4.538c-.889-.198-1.778.198-2.513.634l-6.519 4.663a3.7 3.7 0 0 1-1.462.613l-23.56 4.103a3.576 3.576 0 0 0-2.955 3.52v6.368a3.55 3.55 0 0 0 2.381 3.365l17.811 6.292 14.948 2.14c1.048.197 1.996.771 2.55 1.701a73.36 73.36 0 0 0 7.891 40.05 23.87 23.87 0 0 1 2.156 15.788 106.6 106.6 0 0 0 9.269 69.98l-8.319-1.187-15.436-1.188-14.248-3.57z" style="fill:#000;fill-opacity:1;fill-rule:evenodd;stroke:none" transform="translate(4090.02 6420.247)"/></svg>