<svg xmlns="http://www.w3.org/2000/svg" width="902.128" height="804.604" version="1.0"><path d="M-3638.499-6420.236c-28.668.642-56.305 15.791-71.69 42.439l-363.855 630.207a84.87 84.87 0 0 0-11.375 42.439c0 46.888 38.02 84.909 84.909 84.909h727.71c46.89 0 84.91-38.021 84.91-84.909a84.87 84.87 0 0 0-11.376-42.439l-363.855-630.207c-15.385-26.648-43.022-41.797-71.69-42.439a162 162 0 0 0-3.688 0z" style="fill:#fff;stroke:#000;stroke-opacity:1;stroke-width:4;stroke-miterlimit:4;stroke-dasharray:none" transform="translate(4087.72 6422.547)"/><path d="M-3635.374-6395.976c20.476.46 40.23 11.31 51.22 30.344l363.846 630.193a60.6 60.6 0 0 1 8.125 30.312c0 33.49-27.135 60.626-60.626 60.626h-727.693c-33.49 0-60.625-27.135-60.625-60.626a60.6 60.6 0 0 1 8.125-30.312l363.846-630.192c10.99-19.034 30.743-29.886 51.22-30.345.43-.01 2.132-.02 2.562 0" style="fill:red;fill-opacity:1;fill-rule:evenodd;stroke:none" transform="translate(4087.72 6422.547)"/><path d="m-3636.655-6315.185 346.4 599.984h-692.8z" clip-rule="evenodd" style="fill:#fff;fill-rule:evenodd;stroke:none" transform="translate(4087.72 6422.547)"/><path d="m-3548.905-6046.201 74.25 82.094v214.906h-324v-214.906l74.25-82.094zm-3 6.75-36.969 75.062a93.6 93.6 0 0 1 20.532 16.407l49.656-54.75zm-7.844 0h-47.687l-10.875 63.906a94 94 0 0 1 23.187 7.938zm-54.53 0h-44.75l10.718 62.844c3.872-.49 7.76-.75 11.656-.75s7.784.26 11.656.75zm-51.595 0h-47.687l35.375 71.844a94 94 0 0 1 23.187-7.938zm-55.53 0-33.22 36.719 49.657 54.75a93.6 93.6 0 0 1 20.53-16.407zm207.25 41.75-49.72 54.812a93.4 93.4 0 0 1 13.782 23.125l69-41.375zm-245 0-33.063 36.562 69 41.375a93.5 93.5 0 0 1 13.78-23.125zm277.75 44.437-66.595 39.938a93.3 93.3 0 0 1 4.5 22.875h62.094zm-310.5 0v62.813h62.093a93.3 93.3 0 0 1 4.5-22.875zm310.5 69.97h-62.095v37.968h62.094zm-248.407 0h-62.094v37.968h62.094zm248.406 44.718h-62.094v37.937h62.094zm-248.406 0h-62.094v37.937h62.094zm248.406 44.687h-62.094v37.938h62.094zm-248.406 0h-62.094v37.938h62.094z" style="fill:#000;fill-opacity:1;fill-rule:evenodd;stroke:#000;stroke-opacity:1;stroke-width:5;stroke-miterlimit:4;stroke-dasharray:none" transform="translate(4087.72 6422.547)"/></svg>