<svg xmlns="http://www.w3.org/2000/svg" width="898.128" height="800.604" version="1.0"><path d="M-3640.799-6417.936c-28.668.642-56.305 15.791-71.69 42.439l-363.855 630.207a84.87 84.87 0 0 0-11.375 42.439c0 46.888 38.02 84.909 84.909 84.909h727.71c46.89 0 84.91-38.021 84.91-84.909a84.87 84.87 0 0 0-11.376-42.439l-363.856-630.207c-15.384-26.648-43.021-41.796-71.69-42.439a162 162 0 0 0-3.687 0" style="fill:#ff0;fill-opacity:1;stroke:none;stroke-width:4;stroke-miterlimit:4;stroke-dasharray:none;stroke-opacity:1" transform="translate(4088.02 6418.247)"/><path d="M-3637.674-6393.676c20.476.46 40.23 11.31 51.22 30.345l363.846 630.192a60.6 60.6 0 0 1 8.125 30.312c0 33.49-27.135 60.626-60.626 60.626h-727.693c-33.49 0-60.625-27.135-60.625-60.626a60.6 60.6 0 0 1 8.125-30.312l363.846-630.192c10.99-19.034 30.743-29.886 51.22-30.345.43-.01 2.132-.02 2.562 0" style="fill:red;fill-opacity:1;fill-rule:evenodd;stroke:none" transform="translate(4088.02 6418.247)"/><path d="m-3638.955-6312.885 346.4 599.984h-692.8z" style="clip-rule:evenodd;fill:#ff0;fill-opacity:1;fill-rule:evenodd;stroke:none" transform="translate(4088.02 6418.247)"/><path d="M-3533.645-5800.154c-9.59 2.84-19.174 8.179-26.99 24.545-11.01-1.068-23.086 8.536-22.377 22.052-19.183 2.138-30.901 2.848-41.912 21.346 87.017-.356 174.392.712 261.407 0-5.679-10.318-12.075-22.414-34.094-22.414-2.486-6.4-8.877-10.308-14.915-11.738 1.422-16.005-8.882-40.197-34.102-31.3-18.11-38.778-55.405-37.71-74.94-7.829l-108.324-87.87 45.814-84.309c6.396-13.516 11.366-15.296-3.554-38.419l-30.544-44.114c-7.457-8.894-6.037-11.738-27.35-11.738h-79.916c-9.585.356-15.621 8.54-18.465 21.346l-12.786 56.203-12.786-10.668c-7.106-5.696-14.205 2.49-7.456 9.246l18.108 14.586c0 8.896 6.753 14.586 12.791 14.586-17.763 16.365-20.957 16.007-20.957 32.019v91.066l-20.244 81.113c-8.524 33.082 31.253 40.55 39.424 12.448l25.572-99.61-.355-63.671 52.212 64.382-41.203 85.38c-13.495 27.745 20.96 45.18 36.941 18.145 15.27-29.88 30.9-60.12 46.172-90.001 8.173-14.947 6.397-23.833 0-30.951-3.553-3.2-6.748-7.828-10.3-11.026l2.843-4.98 102.288 82.175zm-179.36-231.59 31.608.356-40.844 40.557 9.236-40.909zm52.92 114.196 24.152-43.046-50.793 21.704z" style="fill:#000;fill-opacity:1;fill-rule:evenodd;stroke:none" transform="translate(4088.02 6418.247)"/><path d="M-3558.862-6085.462c18.826 0 34.099 15.296 34.099 33.79 0 18.147-15.273 33.443-34.099 33.443-18.473 0-33.745-15.296-33.745-33.443 0-18.494 15.272-33.79 33.745-33.79z" style="fill:#000;fill-opacity:1;fill-rule:evenodd;stroke:#000;stroke-width:.83331311;stroke-linecap:butt;stroke-linejoin:miter;stroke-miterlimit:22.92558479;stroke-dasharray:none;stroke-opacity:1" transform="translate(4088.02 6418.247)"/></svg>