<svg xmlns="http://www.w3.org/2000/svg" width="902.128" height="804.604" version="1.0"><path d="M-3637.111-6417.936c28.668.642 56.305 15.791 71.69 42.439l363.855 630.207a84.87 84.87 0 0 1 11.375 42.439c0 46.888-38.02 84.909-84.909 84.909h-727.71c-46.89 0-84.91-38.021-84.91-84.909a84.87 84.87 0 0 1 11.376-42.439l363.855-630.207c15.385-26.648 43.022-41.796 71.69-42.439.61-.014 3.078-.014 3.688 0z" style="fill:#fff;fill-opacity:1;stroke:#000;stroke-width:4;stroke-miterlimit:4;stroke-dasharray:none;stroke-opacity:1" transform="translate(4090.02 6420.247)"/><path d="M-3640.236-6393.676c-20.476.46-40.23 11.31-51.22 30.345l-363.846 630.192a60.6 60.6 0 0 0-8.125 30.312c0 33.49 27.135 60.626 60.626 60.626h727.693c33.49 0 60.625-27.135 60.625-60.626a60.6 60.6 0 0 0-8.125-30.312l-363.846-630.192c-10.99-19.034-30.743-29.886-51.22-30.345-.43-.01-2.132-.02-2.562 0" style="fill:red;fill-opacity:1;fill-rule:evenodd;stroke:none" transform="translate(4090.02 6420.247)"/><path d="m-3638.955-6312.885-346.4 599.984h692.8z" style="clip-rule:evenodd;fill:#fff;fill-opacity:1;fill-rule:evenodd;stroke:none" transform="translate(4090.02 6420.247)"/><path d="m-3678.033-6129.83 20.83 244.713c.916 10.76 9.9 19.022 20.68 19.022 10.776 0 19.76-8.262 20.678-19.022l20.826-244.713c0-22.957-18.582-41.57-41.503-41.57-22.927 0-41.51 18.613-41.51 41.57M-3595.02-5781.824c0-22.965-18.58-41.58-41.502-41.58-22.927 0-41.51 18.615-41.51 41.58 0 22.958 18.583 41.57 41.51 41.57 22.921 0 41.503-18.612 41.503-41.57" style="fill:#000;fill-opacity:1;fill-rule:evenodd;stroke:none" transform="translate(4090.02 6420.247)"/></svg>