<svg xmlns="http://www.w3.org/2000/svg" viewBox="0 0 2098.38 1870.52"><defs><style>.cls-1{fill:#fff}.cls-1,.cls-3{stroke:#000;stroke-linecap:round;stroke-linejoin:round;stroke-width:.71px}</style></defs><g id="Capa_2" data-name="Capa 2"><g id="Capa_1-2" data-name="Capa 1"><path id="LWPOLYLINE" d="M27 1572.53 877.37 99.6A198.47 198.47 0 0 1 950 27c94.91-54.79 216.26-22.28 271.06 72.63l850.39 1472.93a198.37 198.37 0 0 1 26.59 99.21c0 109.58-88.84 198.42-198.43 198.42H198.81a198.46 198.46 0 0 1-99.21-26.58C4.69 1788.79-27.82 1667.43 27 1572.53" class="cls-1"/><path id="LWPOLYLINE-2" d="M926.46 128 76.07 1600.87a141.74 141.74 0 0 0 122.74 212.6H1899.6a141.73 141.73 0 0 0 122.74-212.6L1172 128a141.73 141.73 0 0 0-245.49 0Z" data-name="LWPOLYLINE" style="stroke:#000;stroke-linecap:round;stroke-linejoin:round;stroke-width:.71px;fill:red"/><path id="LWPOLYLINE-3" d="m1049.21 245.87 809.64 1402.34H239.56z" class="cls-1" data-name="LWPOLYLINE"/><path id="LWPOLYLINE-4" d="m693.48 975.38-355.72 616.14h1422.89z" class="cls-3" data-name="LWPOLYLINE"/><path id="LWPOLYLINE-5" d="M1270.33 923.38a40.55 40.55 0 0 0-43.93 1.39 89.54 89.54 0 0 0-38.81 67.23 41.69 41.69 0 0 0 64.69 37.35 89.49 89.49 0 0 0 38.81-67.22 40.52 40.52 0 0 0-20.76-38.75" class="cls-3" data-name="LWPOLYLINE"/><path id="LWPOLYLINE-6" d="m1427.02 1009.91-25.05-14.46-307.92 132.32 25.04 14.46z" class="cls-3" data-name="LWPOLYLINE"/><path id="LWPOLYLINE-7" d="M1311.74 1107.33a40.49 40.49 0 0 0-43.92 1.39 89.49 89.49 0 0 0-38.81 67.22 41.69 41.69 0 0 0 64.68 37.35 89.51 89.51 0 0 0 38.82-67.23 40.53 40.53 0 0 0-20.77-38.73" class="cls-3" data-name="LWPOLYLINE"/><path id="LWPOLYLINE-8" d="M1090.53 826.18q-3.27-2.05-6.6-4c-2.23-1.28-4.49-2.52-6.76-3.72a100 100 0 0 0-79.46-6.1 142.8 142.8 0 0 0-45.29 32.49 233.3 233.3 0 0 0-48.24 83.55 142.6 142.6 0 0 0-5.49 55.48 99.9 99.9 0 0 0 45 65.76q3.25 2.05 6.6 4t6.76 3.71a99.9 99.9 0 0 0 79.45 6.1 142.8 142.8 0 0 0 45.3-32.49 233 233 0 0 0 48.24-83.55 143 143 0 0 0 5.49-55.48 100 100 0 0 0-45-65.75" class="cls-3" data-name="LWPOLYLINE"/><path id="LWPOLYLINE-9" d="m803 962.36-45.24-26.12L844 786.84l-36.82-21.26L829 727.71l19.28 8.67a26.73 26.73 0 0 0 30-5.63l12.22-12.41 40 23.08Z" class="cls-3" data-name="LWPOLYLINE"/><path id="LWPOLYLINE-10" d="M1261.32 939a25 25 0 0 1 10.38 27.24 98.37 98.37 0 0 1-25.54 44.24 23.1 23.1 0 0 1-39.16-22.61 98.13 98.13 0 0 1 25.54-44.24 25 25 0 0 1 28.78-4.63" class="cls-1" data-name="LWPOLYLINE"/><path id="LWPOLYLINE-11" d="M1302.73 1122.94a25 25 0 0 1 10.38 27.25 98.13 98.13 0 0 1-25.54 44.24 23.1 23.1 0 0 1-39.17-22.62 98.27 98.27 0 0 1 25.54-44.23 25 25 0 0 1 28.79-4.64" class="cls-1" data-name="LWPOLYLINE"/><path id="LWPOLYLINE-12" d="M987.74 884.66a89 89 0 0 1 17.8-17.69 49.29 49.29 0 0 1 78.8 45.49 89.5 89.5 0 0 1-6.41 24.27 231 231 0 0 1-31.44 54.45 89.3 89.3 0 0 1-17.81 17.68 49.29 49.29 0 0 1-78.79-45.49 89.2 89.2 0 0 1 6.41-24.27 238 238 0 0 1 13.86-28.29 235 235 0 0 1 17.58-26.15" class="cls-1" data-name="LWPOLYLINE"/></g></g></svg>