<svg xmlns="http://www.w3.org/2000/svg" viewBox="0 0 2098.38 1870.52"><defs><style>.cls-1{fill:#fff;}.cls-1,.cls-2,.cls-3{stroke:#000;stroke-linecap:round;stroke-linejoin:round;stroke-width:0.71px;}.cls-2{fill:red;}</style></defs><title>Portugal road sign A3bRecurso 1</title><g id="Capa_2" data-name="Capa 2"><g id="Capa_1-2" data-name="Capa 1"><g id="LWPOLYLINE"><path class="cls-1" d="M27,1572.53,877.37,99.6A198.47,198.47,0,0,1,950,27c94.91-54.79,216.26-22.28,271.06,72.63l850.39,1472.93a198.37,198.37,0,0,1,26.59,99.21c0,109.58-88.84,198.42-198.43,198.42H198.81a198.46,198.46,0,0,1-99.21-26.58C4.69,1788.79-27.82,1667.43,27,1572.53Z"/></g><g id="LWPOLYLINE-2" data-name="LWPOLYLINE"><path class="cls-2" d="M926.46,128,76.07,1600.87a141.74,141.74,0,0,0,122.74,212.6H1899.6a141.73,141.73,0,0,0,122.74-212.6L1172,128a141.73,141.73,0,0,0-245.49,0Z"/></g><g id="LWPOLYLINE-3" data-name="LWPOLYLINE"><polygon class="cls-1" points="1049.21 245.87 1858.85 1648.21 239.56 1648.21 1049.21 245.87"/></g><g id="LWPOLYLINE-4" data-name="LWPOLYLINE"><polygon class="cls-3" points="693.48 975.38 337.76 1591.52 1760.65 1591.52 693.48 975.38"/></g><g id="LWPOLYLINE-5" data-name="LWPOLYLINE"><path class="cls-3" d="M1270.33,923.38a40.55,40.55,0,0,0-43.93,1.39A89.54,89.54,0,0,0,1187.59,992a41.69,41.69,0,0,0,64.69,37.35,89.49,89.49,0,0,0,38.81-67.22A40.52,40.52,0,0,0,1270.33,923.38Z"/></g><g id="LWPOLYLINE-6" data-name="LWPOLYLINE"><polygon class="cls-3" points="1427.02 1009.91 1401.97 995.45 1094.05 1127.77 1119.09 1142.23 1427.02 1009.91"/></g><g id="LWPOLYLINE-7" data-name="LWPOLYLINE"><path class="cls-3" d="M1311.74,1107.33a40.49,40.49,0,0,0-43.92,1.39,89.49,89.49,0,0,0-38.81,67.22,41.69,41.69,0,0,0,64.68,37.35,89.51,89.51,0,0,0,38.82-67.23A40.53,40.53,0,0,0,1311.74,1107.33Z"/></g><g id="LWPOLYLINE-8" data-name="LWPOLYLINE"><path class="cls-3" d="M1090.53,826.18q-3.27-2.05-6.6-4c-2.23-1.28-4.49-2.52-6.76-3.72a100,100,0,0,0-79.46-6.1,142.78,142.78,0,0,0-45.29,32.49,233.27,233.27,0,0,0-48.24,83.55,142.62,142.62,0,0,0-5.49,55.48,99.89,99.89,0,0,0,45,65.76q3.25,2.05,6.6,4t6.76,3.71a99.89,99.89,0,0,0,79.45,6.1,142.82,142.82,0,0,0,45.3-32.49,233,233,0,0,0,48.24-83.55,143,143,0,0,0,5.49-55.48A100,100,0,0,0,1090.53,826.18Z"/></g><g id="LWPOLYLINE-9" data-name="LWPOLYLINE"><path class="cls-3" d="M803,962.36l-45.24-26.12L844,786.84l-36.82-21.26L829,727.71l19.28,8.67a26.73,26.73,0,0,0,30-5.63l12.22-12.41,40,23.08Z"/></g><g id="LWPOLYLINE-10" data-name="LWPOLYLINE"><path class="cls-1" d="M1261.32,939a25,25,0,0,1,10.38,27.24,98.37,98.37,0,0,1-25.54,44.24A23.1,23.1,0,0,1,1207,987.87a98.13,98.13,0,0,1,25.54-44.24A25,25,0,0,1,1261.32,939Z"/></g><g id="LWPOLYLINE-11" data-name="LWPOLYLINE"><path class="cls-1" d="M1302.73,1122.94a25,25,0,0,1,10.38,27.25,98.13,98.13,0,0,1-25.54,44.24,23.1,23.1,0,0,1-39.17-22.62,98.27,98.27,0,0,1,25.54-44.23A25,25,0,0,1,1302.73,1122.94Z"/></g><g id="LWPOLYLINE-12" data-name="LWPOLYLINE"><path class="cls-1" d="M987.74,884.66a89.06,89.06,0,0,1,17.8-17.69,49.29,49.29,0,0,1,78.8,45.49,89.53,89.53,0,0,1-6.41,24.27,231.1,231.1,0,0,1-31.44,54.45,89.33,89.33,0,0,1-17.81,17.68,49.29,49.29,0,0,1-78.79-45.49,89.17,89.17,0,0,1,6.41-24.27,238.1,238.1,0,0,1,13.86-28.29A234.7,234.7,0,0,1,987.74,884.66Z"/></g></g></g></svg>