<svg xmlns="http://www.w3.org/2000/svg" width="902.128" height="804.604" version="1.0"><path d="M-3640.799-6417.936c-28.668.642-56.305 15.791-71.69 42.439l-363.855 630.207a84.87 84.87 0 0 0-11.375 42.439c0 46.888 38.02 84.909 84.909 84.909h727.71c46.89 0 84.91-38.021 84.91-84.909a84.87 84.87 0 0 0-11.376-42.439l-363.856-630.207c-15.384-26.648-43.021-41.796-71.69-42.439a162 162 0 0 0-3.687 0z" style="fill:#fff;fill-opacity:1;stroke:#000;stroke-width:4;stroke-miterlimit:4;stroke-dasharray:none;stroke-opacity:1" transform="translate(4090.02 6420.247)"/><path d="M-3637.674-6393.676c20.476.46 40.23 11.31 51.22 30.345l363.846 630.192a60.6 60.6 0 0 1 8.125 30.312c0 33.49-27.135 60.626-60.626 60.626h-727.693c-33.49 0-60.625-27.135-60.625-60.626a60.6 60.6 0 0 1 8.125-30.312l363.846-630.192c10.99-19.034 30.743-29.886 51.22-30.345.43-.01 2.132-.02 2.562 0" style="fill:red;fill-opacity:1;fill-rule:evenodd;stroke:none" transform="translate(4090.02 6420.247)"/><path d="m-3638.955-6312.885 346.4 599.984h-692.8z" style="clip-rule:evenodd;fill:#fff;fill-opacity:1;fill-rule:evenodd;stroke:none" transform="translate(4090.02 6420.247)"/><path d="M-3705-5746.214h-52.556v-161.728l39.028-100.754v-98.524h52.555v107.076L-3705-5898.27zM-3570.141-5746.214h52.552v-161.728l-39.027-100.754v-98.524h-52.163v107.076l38.638 101.874z" style="fill:#000;fill-opacity:1;fill-rule:evenodd;stroke:none;stroke-width:.71999991;stroke-linecap:butt;stroke-linejoin:miter;stroke-miterlimit:22.92558479;stroke-dasharray:none;stroke-opacity:1" transform="translate(4090.02 6420.247)"/></svg>