<svg xmlns="http://www.w3.org/2000/svg" width="902.128" height="804.604" version="1.0"><path d="M-3634.811-6420.236c28.668.642 56.305 15.791 71.69 42.439l363.855 630.207a84.87 84.87 0 0 1 11.375 42.439c0 46.888-38.02 84.909-84.909 84.909h-727.71c-46.89 0-84.91-38.021-84.91-84.909a84.87 84.87 0 0 1 11.376-42.439l363.855-630.207c15.385-26.648 43.022-41.797 71.69-42.439.61-.014 3.078-.014 3.688 0z" style="fill:#fff;stroke:#000;stroke-opacity:1;stroke-width:4;stroke-miterlimit:4;stroke-dasharray:none" transform="translate(4087.72 6422.547)"/><path d="M-3637.936-6395.976c-20.476.46-40.23 11.31-51.22 30.344l-363.846 630.193a60.6 60.6 0 0 0-8.125 30.312c0 33.49 27.135 60.626 60.626 60.626h727.693c33.49 0 60.625-27.135 60.625-60.626a60.6 60.6 0 0 0-8.125-30.312l-363.846-630.192c-10.99-19.034-30.743-29.886-51.22-30.345-.43-.01-2.132-.02-2.562 0" style="fill:red;fill-opacity:1;fill-rule:evenodd;stroke:none" transform="translate(4087.72 6422.547)"/><path d="m-3636.655-6315.185-346.4 599.984h692.8z" clip-rule="evenodd" style="fill:#fff;fill-rule:evenodd;stroke:none" transform="translate(4087.72 6422.547)"/><g style="stroke:none"><path d="m462.13 387.323-99.08 8.57-28.835-7.937a21.2 21.2 0 0 1-5.21-2.22c-10.05-5.982-13.347-18.978-7.365-29.027l4.482-7.53-7.911-4.71-4.482 7.53c-8.583 14.42-3.851 33.066 10.567 41.648a30.4 30.4 0 0 0 7.476 3.185l4.885 1.345-6.781.587c-14.184 1.227-24.688 13.72-23.461 27.905a25.78 25.78 0 0 0 19.227 22.736l56.738 14.677a11.05 11.05 0 0 1 8.28 10.696c0 6.102-4.945 11.048-11.047 11.048H276.39v9.207h103.222c11.186 0 20.255-9.068 20.255-20.255a20.254 20.254 0 0 0-15.182-19.61l-56.738-14.676a16.57 16.57 0 0 1-12.36-14.616c-.79-9.118 5.964-17.15 15.082-17.94l31.529-2.726 151.898 41.818a11.05 11.05 0 0 1 8.116 10.652v14.336h9.207V457.68c0-9.116-6.09-17.11-14.88-19.528l-127.947-35.225 74.332-6.43z" clip-rule="evenodd" style="fill:#000;fill-rule:evenodd;stroke:none" transform="matrix(1.34362 0 0 1.34362 -114.6 2.41)"/></g><g style="stroke:none"><path d="m462.131 387.302-99.08 8.571-28.835-7.938a21.2 21.2 0 0 1-5.21-2.22c-10.049-5.982-13.347-18.978-7.365-29.027l4.482-7.53-7.911-4.709-4.482 7.53c-8.583 14.419-3.851 33.065 10.567 41.647a30.4 30.4 0 0 0 7.476 3.185l4.885 1.345-6.781.587c-14.184 1.227-24.688 13.72-23.461 27.905a25.78 25.78 0 0 0 19.227 22.736l56.738 14.677a11.05 11.05 0 0 1 8.281 10.696c0 6.102-4.946 11.048-11.048 11.048H276.392v9.207h103.222c11.186 0 20.255-9.068 20.255-20.255a20.254 20.254 0 0 0-15.182-19.609l-56.738-14.677a16.57 16.57 0 0 1-12.36-14.616c-.789-9.118 5.964-17.15 15.082-17.939l31.529-2.727 151.898 41.818a11.05 11.05 0 0 1 8.116 10.652v14.336h9.207v-14.336c0-9.116-6.09-17.109-14.879-19.528l-127.948-35.225 74.332-6.43z" style="fill:none;stroke:none" transform="matrix(1.34362 0 0 1.34362 -114.6 2.41)"/></g><g style="stroke:none"><path d="M484.023 301.935a3.314 3.314 0 0 1-4.67 3.041l-103.264-46.124a3.315 3.315 0 0 1-.851-5.507l19.915-17.675a7.18 7.18 0 0 1 7.696-1.186l76.795 34.301a7.18 7.18 0 0 1 4.253 6.523z" style="fill:none;stroke:none" transform="matrix(1.34362 0 0 1.34362 -114.6 2.41)"/></g><g style="stroke:none"><path d="m351.76 326.011 9.462-21.184 93.815 41.903-9.462 21.184a3.314 3.314 0 0 0 1.675 4.378l16.645 7.434a3.314 3.314 0 0 0 4.378-1.675l9.462-21.184 3.026 1.352a3.314 3.314 0 0 0 4.378-1.675l14.086-31.537a7.74 7.74 0 0 0 .267-5.626l-1.301-3.856a16.6 16.6 0 0 1-.869-5.218l-.189-39.696a13.26 13.26 0 0 0-7.851-12.042l-85.256-38.08a13.26 13.26 0 0 0-14.207 2.19L360.13 249.03a16.6 16.6 0 0 1-4.466 2.835l-3.74 1.605a7.74 7.74 0 0 0-4.012 3.953l-14.086 31.537a3.314 3.314 0 0 0 1.675 4.378l3.026 1.352-9.462 21.184a3.314 3.314 0 0 0 1.675 4.378l16.645 7.434a3.313 3.313 0 0 0 4.375-1.675" style="fill:none;stroke:none" transform="matrix(1.34362 0 0 1.34362 -114.6 2.41)"/></g><path d="M391.032 305.219h48.612v8.838h-48.612z" style="fill:none;stroke:none" transform="scale(-1.34366)rotate(24.066 1499.463 -1749.239)"/><path d="M-3659.185-6123.933a17.83 17.83 0 0 0-19.111 2.926l-39.997 35.398a22.2 22.2 0 0 1-5.994 3.815l-5.038 2.161a10.4 10.4 0 0 0-5.4 5.31l-19.02 42.413a4.46 4.46 0 0 0 2.243 5.896l4.087 1.82-12.764 28.484a4.46 4.46 0 0 0 2.244 5.895l22.376 10.018a4.46 4.46 0 0 0 5.896-2.245l12.764-28.484 126.403 56.279-12.627 28.545a4.464 4.464 0 0 0 2.278 5.883l22.416 9.926a4.464 4.464 0 0 0 5.883-2.278l12.627-28.545 4.087 1.82a4.464 4.464 0 0 0 5.883-2.278l18.792-42.514a10.4 10.4 0 0 0 .332-7.567l-1.765-5.19a22.2 22.2 0 0 1-1.175-7.006l-.458-53.41a17.82 17.82 0 0 0-10.613-16.16zm-1.606 18.844 103.026 45.87a9.66 9.66 0 0 1 5.761 8.748l.297 35.83c.019 2.464-1.968 4.464-4.431 4.484-.635.01-1.25-.12-1.83-.377l-138.868-61.828a4.4 4.4 0 0 1-1.504-1.107c-1.634-1.844-1.477-4.659.367-6.293l26.826-23.755a9.66 9.66 0 0 1 10.356-1.572m-10.774 82.385 59.785 26.618-4.838 10.868-59.786-26.619z" style="fill:#000;fill-rule:evenodd;stroke:none" transform="translate(4087.72 6422.547)"/></svg>