<svg xmlns="http://www.w3.org/2000/svg" width="902.128" height="804.604" version="1.0"><path d="M-3634.811-6420.236c28.668.642 56.305 15.791 71.69 42.439l363.855 630.207a84.87 84.87 0 0 1 11.375 42.439c0 46.888-38.02 84.909-84.909 84.909h-727.71c-46.89 0-84.91-38.021-84.91-84.909a84.87 84.87 0 0 1 11.376-42.439l363.855-630.207c15.385-26.648 43.022-41.797 71.69-42.439.61-.014 3.078-.014 3.688 0z" style="fill:#fff;stroke:#000;stroke-opacity:1;stroke-width:4;stroke-miterlimit:4;stroke-dasharray:none" transform="translate(4087.72 6422.547)"/><path d="M-3637.936-6395.976c-20.476.46-40.23 11.31-51.22 30.344l-363.846 630.193a60.6 60.6 0 0 0-8.125 30.312c0 33.49 27.135 60.626 60.626 60.626h727.693c33.49 0 60.625-27.135 60.625-60.626a60.6 60.6 0 0 0-8.125-30.312l-363.846-630.192c-10.99-19.034-30.743-29.886-51.22-30.345-.43-.01-2.132-.02-2.562 0" style="fill:red;fill-opacity:1;fill-rule:evenodd;stroke:none" transform="translate(4087.72 6422.547)"/><path d="m-3636.655-6315.185-346.4 599.984h692.8z" clip-rule="evenodd" style="fill:#fff;fill-rule:evenodd;stroke:none" transform="translate(4087.72 6422.547)"/><g style="stroke:none"><path d="M678.811 524.654H163.189L421 78.112z" style="fill:none;stroke:none" transform="matrix(1.34362 0 0 1.34362 -114.6 2.41)"/></g><g style="stroke:none"><path d="m339.54 315.906 15.204 9.503c-5.582 10.237-1.81 23.06 8.428 28.643 10.156 5.54 22.88 1.872 28.53-8.222l104.109 56.615c-5.582 10.237-1.81 23.06 8.428 28.643 10.229 5.578 23.041 1.816 28.631-8.405l.578.316a77.4 77.4 0 0 0 16.082 6.645 5.42 5.42 0 0 0 5.902-2.06l6.596-12.81a9.8 9.8 0 0 0-1.992-10.846q-1.256-1.455-2.557-2.87a363 363 0 0 0-4.551-4.401 10931 10931 0 0 1-35.955-31.02 27.1 27.1 0 0 1-7.471-10.565l-10.21-25.99a24.45 24.45 0 0 0-11.695-12.135l-62.588-34.037a7.22 7.22 0 0 0-6.091-.377l-25.865 10.164a18.05 18.05 0 0 1-14.764-.699q-9.41-4.77-18.868-9.45a7.22 7.22 0 0 0-8.785 1.89 99.3 99.3 0 0 0-13.858 22.392 7.22 7.22 0 0 0 2.763 9.076m154.996 16.13 10.607 29.074a.902.902 0 0 1-1.28 1.103l-56.817-30.897 12.693-23.34 26.463 14.39a18.04 18.04 0 0 1 8.334 9.67m-87.731-32.732a.9.9 0 0 1 .351-.355l16.855-9.444a1.8 1.8 0 0 1 1.745-.01l29.223 15.891-12.714 23.328-38.13-20.735a1.806 1.806 0 0 1-.723-2.45zm-54.846 173.313a8.56 8.56 0 0 1-8.992 2.038v7.733a16.05 16.05 0 0 0 14.322-4.508l.409-.41c18.176-17.95 47.463-17.767 65.413.41 6.229 6.307 16.392 6.37 22.698.142l.142-.142q.203-.206.41-.41c18.176-17.95 47.463-17.767 65.413.41 6.228 6.307 16.391 6.37 22.698.142l.142-.142q.203-.206.41-.41c18.176-17.95 47.463-17.767 65.412.41a16.05 16.05 0 0 0 14.322 4.508v-7.733a8.56 8.56 0 0 1-8.992-2.038c-20.857-21.12-54.887-21.333-76.007-.475q-.239.236-.475.475l-.076.076a8.56 8.56 0 0 1-12.105-.076c-20.858-21.12-54.887-21.333-76.007-.475q-.24.236-.475.475l-.076.076a8.56 8.56 0 0 1-12.106-.076c-20.858-21.12-54.888-21.333-76.007-.475zm10.659 10.527a23.54 23.54 0 0 1-19.652 6.82v7.534a31.04 31.04 0 0 0 24.982-9.091l.277-.277c12.288-12.137 32.09-12.013 44.227.277 12.043 12.193 31.69 12.316 43.885.274q.139-.136.274-.274l.277-.277c12.29-12.137 32.09-12.013 44.228.277 12.043 12.193 31.69 12.316 43.885.274q.139-.136.274-.274l.277-.277c12.289-12.137 32.09-12.013 44.227.277a31.04 31.04 0 0 0 24.981 9.09v-7.533a23.54 23.54 0 0 1-19.652-6.82c-15.043-15.233-39.587-15.387-54.82-.343a56 56 0 0 0-.55.55c-9.252 9.137-24.156 9.044-33.292-.207-15.044-15.233-39.588-15.387-54.82-.343a56 56 0 0 0-.552.55c-9.25 9.137-24.155 9.044-33.291-.207-15.044-15.233-39.588-15.387-54.82-.343q-.175.17-.345.343m-25.988 14.485-124.275.004 82.309-142.57h41.967v142.574z" clip-rule="evenodd" style="fill:#000;fill-rule:evenodd;stroke:none" transform="matrix(1.34362 0 0 1.34362 -114.6 2.41)"/></g><g style="stroke:none"><path d="M349.697 472.566a8.56 8.56 0 0 1-8.992 2.038v7.733a16.05 16.05 0 0 0 14.322-4.508q.204-.206.409-.409c18.177-17.951 47.464-17.768 65.414.409 6.229 6.307 16.392 6.371 22.699.142l.142-.142q.203-.206.409-.409c18.177-17.951 47.464-17.768 65.414.409 6.229 6.307 16.392 6.371 22.699.142l.142-.142q.203-.206.409-.409c18.177-17.951 47.464-17.768 65.414.409a16.05 16.05 0 0 0 14.322 4.508v-7.733a8.56 8.56 0 0 1-8.992-2.038c-20.858-21.12-54.888-21.333-76.008-.475a53 53 0 0 0-.475.475l-.076.076a8.56 8.56 0 0 1-12.106-.076c-20.858-21.12-54.887-21.333-76.008-.475a53 53 0 0 0-.475.475l-.076.076a8.56 8.56 0 0 1-12.106-.076c-20.858-21.12-54.888-21.333-76.008-.475z" style="fill:none;stroke:none" transform="matrix(1.34362 0 0 1.34362 -114.6 2.41)"/></g><g style="stroke:none"><path d="M360.356 483.093a23.54 23.54 0 0 1-19.652 6.82v7.534a31.04 31.04 0 0 0 24.982-9.091l.277-.277c12.289-12.137 32.091-12.013 44.228.277 12.043 12.194 31.691 12.317 43.886.274q.139-.136.274-.274l.277-.277c12.289-12.137 32.091-12.013 44.228.277 12.043 12.194 31.691 12.317 43.886.274q.139-.136.274-.274l.277-.277c12.289-12.137 32.091-12.013 44.227.277a31.04 31.04 0 0 0 24.982 9.091v-7.534a23.54 23.54 0 0 1-19.652-6.82c-15.044-15.233-39.588-15.387-54.821-.343a56 56 0 0 0-.551.551c-9.251 9.136-24.156 9.043-33.292-.208-15.044-15.233-39.588-15.387-54.821-.343a56 56 0 0 0-.551.551c-9.251 9.136-24.156 9.043-33.292-.208-15.044-15.233-39.588-15.387-54.821-.343q-.175.17-.345.343" style="fill:none;stroke:none" transform="matrix(1.34362 0 0 1.34362 -114.6 2.41)"/></g><g style="stroke:none"><path d="m337.279 315.853 15.203 9.503c-5.582 10.237-1.809 23.061 8.428 28.644 10.157 5.539 22.88 1.872 28.531-8.223l104.11 56.616c-5.582 10.237-1.809 23.061 8.428 28.644 10.229 5.578 23.042 1.816 28.632-8.406l.578.316a77.4 77.4 0 0 0 16.082 6.646 5.42 5.42 0 0 0 5.902-2.061l6.596-12.81a9.8 9.8 0 0 0-1.992-10.846q-1.256-1.455-2.557-2.87a363 363 0 0 0-4.551-4.401 10931 10931 0 0 1-35.956-31.021 27.1 27.1 0 0 1-7.471-10.564l-10.21-25.99a24.45 24.45 0 0 0-11.695-12.136l-62.589-34.037a7.22 7.22 0 0 0-6.091-.377l-25.865 10.164a18.05 18.05 0 0 1-14.764-.699q-9.412-4.77-18.869-9.451a7.22 7.22 0 0 0-8.785 1.891 99.3 99.3 0 0 0-13.858 22.392 7.22 7.22 0 0 0 2.763 9.076" style="fill:none;stroke:none" transform="matrix(1.34362 0 0 1.34362 -114.6 2.41)"/></g><g style="stroke:none"><path d="M404.544 299.251a.9.9 0 0 1 .351-.355l16.855-9.444a1.8 1.8 0 0 1 1.745-.011l29.224 15.892-12.715 23.328-38.13-20.735a1.806 1.806 0 0 1-.723-2.45z" style="fill:none;stroke:none" transform="matrix(1.34362 0 0 1.34362 -114.6 2.41)"/></g><g style="stroke:none"><path d="m421 78.112 257.811 446.542H163.189z" style="fill:none;stroke:none" transform="matrix(1.34362 0 0 1.34362 -114.6 2.41)"/></g><g style="stroke:none"><path d="m210.091 497.575 82.311-142.567h41.966v142.567z" style="fill:none;stroke:none" transform="matrix(1.34362 0 0 1.34362 -114.6 2.41)"/></g><g style="stroke:none"><path d="m492.276 331.984 10.607 29.074a.902.902 0 0 1-1.279 1.103l-56.818-30.898 12.693-23.34 26.463 14.391a18.04 18.04 0 0 1 8.334 9.67" style="fill:none;stroke:none" transform="matrix(1.34362 0 0 1.34362 -114.6 2.41)"/></g></svg>