<svg xmlns="http://www.w3.org/2000/svg" width="902.128" height="804.604" version="1.0"><path d="M-3637.111-6417.936c28.668.642 56.305 15.791 71.69 42.439l363.855 630.207a84.87 84.87 0 0 1 11.375 42.439c0 46.888-38.02 84.909-84.909 84.909h-727.71c-46.89 0-84.91-38.021-84.91-84.909a84.87 84.87 0 0 1 11.376-42.439l363.855-630.207c15.385-26.648 43.022-41.796 71.69-42.439.61-.014 3.078-.014 3.688 0z" style="fill:#fff;fill-opacity:1;stroke:#000;stroke-width:4;stroke-miterlimit:4;stroke-dasharray:none;stroke-opacity:1" transform="translate(4090.02 6420.247)"/><path d="M-3640.236-6393.676c-20.476.46-40.23 11.31-51.22 30.345l-363.846 630.192a60.6 60.6 0 0 0-8.125 30.312c0 33.49 27.135 60.626 60.626 60.626h727.693c33.49 0 60.625-27.135 60.625-60.626a60.6 60.6 0 0 0-8.125-30.312l-363.846-630.192c-10.99-19.034-30.743-29.886-51.22-30.345-.43-.01-2.132-.02-2.562 0" style="fill:red;fill-opacity:1;fill-rule:evenodd;stroke:none" transform="translate(4090.02 6420.247)"/><path d="m-3638.955-6312.885-346.4 599.984h692.8z" style="clip-rule:evenodd;fill:#fff;fill-opacity:1;fill-rule:evenodd;stroke:none" transform="translate(4090.02 6420.247)"/><path d="m-3664.498-6053.794-.584-.39-.584-.37-.584-.332-.584-.312-.565-.292-.564-.254-.565-.214-.565-.215-.564-.195-.565-.195-.564-.195-.565-.195h-1.577l-.486.012h-.896l-.409.195-.37.195-.37.273-.37.37-.35.527-.37.682-.389.858-.408 1.053-.41 1.21-.408 1.306-.409 1.384-.37 1.404-.33 1.404-.293 1.326-.233 1.228-.195 1.092-.195.956v2.2809999999999997l.195.624.195.585.194.566.195.565.195.585.194.624.195.683v1.657l-.195 1.014-.272 1.17-.428 1.326-.546 1.423-.584 1.502-.584 1.501-.525 1.462-.409 1.346-.253 1.209v.994l.214.76.448.527.642.332.779.195.876.195h.934l.935.012h1.752l.76.195.7.214.623.312.564.41.507.546.467.663.428.8.39.954.35 1.073.311 1.13.292 1.151.292 1.112.273 1.033.272.936.273.78.292.566.311.37.35.195h.429l.526-.214.623-.41.759-.604.895-.8 1.07-.975 1.188-1.17 1.285-1.345 1.363-1.54 1.382-1.716 1.382-1.911 1.343-2.106 1.266-2.287 1.187-2.475 1.07-2.597.955-2.654.837-2.652.72-2.584.584-2.454.467-2.258.331-2.003.195-1.696v-2.554l-.195-.937-.33-.76-.468-.605-.584-.487-.72-.43-.837-.37-.935-.35-1.012-.332-1.07-.312-1.09-.312-1.09-.312-1.052-.332-.993-.35-.915-.39-.837-.41-.779-.429-.72-.429-.681-.429-.643-.429-.623-.41zM-3674.894-5962.525l-1.958.858-1.908.975-1.81 1.072-1.752 1.17-1.655 1.249-1.577 1.306-1.48 1.345-1.362 1.404-1.265 1.424-1.149 1.462-1.012 1.502-.896 1.56-.759 1.657-.623 1.755-.486 1.872-.331 2.033-.195 2.204v2.382l.195 2.543.233 2.681.312 2.785.39 2.868.427 2.915.448 2.929.448 2.93.428 2.888.428 2.818.467 2.709.526 2.564.623 2.377.76 2.16.934 1.911 1.129 1.618 1.343 1.287 1.538.995 1.674.702 1.772.448 1.83.195h1.83l1.79-.214 1.694-.39 1.577-.546 1.48-.702 1.362-.839 1.285-.955 1.246-1.072 1.187-1.19 1.168-1.287 1.149-1.365 1.148-1.443 1.168-1.501 1.207-1.56 1.246-1.58 1.304-1.598 1.402-1.6 1.48-1.56 1.596-1.52 1.693-1.482 1.772-1.424 1.81-1.384 1.791-1.345 1.733-1.307 1.616-1.287 1.479-1.248 1.285-1.228 1.051-1.21.837-1.208.662-1.209.487-1.209.35-1.228.233-1.248.195-1.287.195-1.346v-1.384l.014-1.443v-1.462l-.195-1.502-.194-1.52-.195-1.522-.273-1.52-.35-1.522-.428-1.501-.506-1.482-.623-1.443-.74-1.423-.896-1.385-1.031-1.345-1.207-1.326-1.402-1.287-1.596-1.229-1.752-1.17-1.908-1.091-2.028-.975-2.118-.858-2.196-.722-2.225-.565-2.241-.39-2.237-.215h-2.22l-2.187.195-2.159.312-2.124.468-2.07.605-2.027.74z" style="fill:#000;fill-opacity:1;fill-rule:evenodd;stroke:none" transform="translate(4090.02 6420.247)"/><path d="m-3629.886-5998.247 4.919 24.653 11.933 21.509v20.314l7.982 23.986c2.37 7.125 0 14.973-5.797 19.665l-20.079 16.09-17.9 23.9-36.329 20.796a17.93 17.93 0 0 0-7.74 8.905l-8.332 20.866a18.1 18.1 0 0 0-1.265 6.653v9.044c0 3.545-1.051 6.998-3.008 9.942l-8.925 13.412h-189.682v11.945h553.528l-216.76-376.049c-1.635-2.862-5.29-3.834-8.147-2.184-2.856 1.638-3.827 5.298-2.18 8.16l7.14 12.394a11.94 11.94 0 0 1 .74 10.413l-3.387 8.491a18 18 0 0 1-5.159 7.11l-10.835 9.043-13.94 9.313a17.9 17.9 0 0 0-6.084 6.895l-9.47 18.973c-.215.448-.429.897-.604 1.364l-9.679 24.23a18 18 0 0 0-.934 10.169" style="fill:#000;fill-opacity:1;fill-rule:evenodd;stroke:none" transform="translate(4090.02 6420.247)"/><path d="m-3730.37-5872.929-.798.41-.76.41-.72.428-.7.43-.663.448-.642.448-.604.468-.564.488-.545.507-.506.526-.487.527-.448.546-.428.545-.39.547-.35.545-.292.527-.253.507-.195.487-.194.488-.195.468v1.716l.195.39.194.39.195.39.253.41.312.428.408.468.526.527.642.585.78.682.914.76 1.032.82 1.129.857 1.187.878 1.227.838 1.226.8 1.207.721 1.149.624 1.07.507.993.37.896.235.837.195h.74l.661-.195.604-.273.525-.41.448-.526.41-.644.408-.721.448-.78.506-.839.603-.838.74-.839.895-.818 1.09-.8 1.246-.74 1.344-.722 1.42-.663 1.46-.644 1.441-.604 1.382-.585 1.266-.546 1.148-.527 1.012-.507.896-.487.798-.488.701-.487.642-.488.584-.487.546-.507.506-.526.486-.546.448-.547.428-.545.39-.546.33-.546.293-.527.253-.526.214-.507.194-.488.195-.468v-.878l-.014-.428v-.41l-.195-.39-.194-.39-.195-.39-.194-.37-.254-.351-.292-.351-.33-.332-.39-.33-.428-.313-.487-.312-.545-.312-.623-.312-.681-.35-.76-.371-.856-.41-.934-.468-1.052-.526-1.168-.585-1.245-.624-1.324-.605-1.363-.546-1.401-.468-1.402-.331-1.382-.195h-1.324l-1.285.331-1.226.546-1.168.722-1.13.838-1.09.897-1.05.936-1.013.916-1.012.858-.973.761-.954.663-.935.565-.915.507-.895.449-.857.429-.817.41zM-3747.589-5822.518l-.876-.195-.857-.195-.837-.195h-4.652l-.72.195-.72.195-.682.195-.662.195-.623.215-.584.214-.545.254-.506.253-.448.293-.409.292-.37.312-.31.332-.274.331-.253.351-.194.351-.195.39-.195.39-.194.41v.428l-.012.43v.916l.194.487.195.507.195.527.253.546.292.565.33.566.37.585.41.585.447.565.467.566.506.546.526.546.526.565.545.585.545.624.526.682.505.741.487.82.468.896.467.956.486.975.526.936.584.877.681.76.798.625.935.448 1.09.215h1.226l1.305-.195 1.362-.215 1.402-.292 1.382-.332 1.343-.331 1.266-.312 1.168-.234 1.07-.195.974-.195.915-.195h3.134l.72-.195.72-.195.682-.195.662-.195.623-.215.584-.214.545-.254.506-.273.448-.273.408-.292.37-.312.312-.332.272-.331.253-.351.195-.351.195-.37.194-.39.195-.43v-3.821l.195-.975.194-1.073v-4.6209999999999996l-.194-1.092-.195-1.014-.273-.897-.37-.78-.467-.663-.564-.565-.681-.449-.799-.331-.915-.215-1.031-.195-1.168-.016h-1.266l-1.323.195-1.383.195-1.401.195-1.402.195-1.362.195-1.324.195h-2.395l-1.09-.195-1.032-.195-.992-.195-.935-.195-.915-.195zM-3734.56-5951.576l-.798-.39-.778-.37-.78-.332-.758-.293-.76-.253-.74-.215-.74-.194-.739-.196-.74-.194-.72-.196h-4.029999999999999l-.564.196-.526.195-.467.195-.428.194-.39.215-.35.253-.33.273-.293.293-.272.312-.215.331-.194.371-.195.39-.195.41-.194.448v.9750000000000001l.012.546v.565l.195.605.194.624.195.643.195.663.214.663.253.663.292.683.33.662.332.702.33.76.312.84.253.974.195 1.131.195 1.307-.014 1.52-.195 1.755-.214 1.93-.253 2.043-.195 2.062-.195 2.026v1.892l.195 1.716.448 1.443.72 1.13.973.82 1.149.585 1.285.39 1.382.234 1.402.195h2.686l1.187.195 1.071.195.973.194.915.196.838.194.778.195.76.195.74.196.739.194h1.42l.682.012h1.3050000000000002l.603-.195.565-.195.525-.195.487-.214.506-.293.526-.41.564-.545.643-.741.72-.956.837-1.189.954-1.443 1.05-1.638 1.11-1.794 1.11-1.891 1.09-1.911.993-1.872.896-1.794.72-1.638.525-1.443.35-1.248.196-1.092v-1.794l-.195-.76-.234-.722-.292-.682-.33-.663-.37-.643-.429-.624-.506-.605-.603-.565-.72-.507-.838-.468-.973-.39-1.11-.332-1.226-.273-1.324-.234-1.363-.214-1.401-.215-1.402-.214-1.343-.234-1.285-.273-1.187-.332-1.11-.37-1.032-.39-.954-.43-.895-.428-.857-.43-.837-.409zM-3623.36-6099.617l-.721.507-.682.507-.661.507-.604.527-.584.526-.564.546-.526.546-.487.565-.467.566-.428.585-.409.585-.37.585-.33.585-.293.585-.272.565-.214.566-.195.546-.195.526-.194.488v.468l-.012.448v.839l.194.39.195.37.195.351.214.35.253.333.292.311.33.293.37.293.429.272.467.254.506.234.565.214.603.195.643.195.662.195.68.195.702.195h1.46l.74.015h2.316l.798-.195.818-.195.837-.195.857-.195.875-.234.896-.292.915-.351.954-.429.973-.526.993-.624 1.012-.722 1.032-.838 1.051-.936 1.07-.995 1.052-1.033 1.012-1.053.993-1.034.935-.994.875-.936.818-.838.74-.761.681-.702.623-.643.584-.605.545-.585.506-.565.467-.585.429-.585.409-.585.37-.585.33-.585.292-.585.254-.566.214-.565.194-.546.195-.527.195-.487v-1.7550000000000001l-.195-.39-.195-.37-.194-.37-.214-.352-.254-.331-.291-.312-.331-.312-.37-.273-.429-.273-.467-.254-.506-.234-.564-.214-.604-.195-.642-.195-.662-.195-.682-.195-.7-.195h-1.46l-.74.012h-.779l-.798.195-.837.195-.876.292-.915.39-.973.507-1.013.624-1.07.741-1.09.82-1.11.857-1.11.878-1.11.896-1.09.858-1.05.82-1.013.74-.973.683-.915.624-.876.585-.838.546-.798.526-.759.507z" style="fill:#000;fill-opacity:1;fill-rule:evenodd;stroke:none" transform="translate(4090.02 6420.247)"/></svg>