<svg xmlns="http://www.w3.org/2000/svg" width="1010.4" height="1010.4" version="1.0"><path d="m-801.151-2230.875 295.822-295.822v-418.356l-295.822-295.822h-418.356l-295.822 295.822v418.356l295.822 295.822z" style="fill:#000;fill-opacity:1;stroke:none" transform="translate(1515.529 3241.075)"/><path d="m-510.33-2942.982.001 414.214-292.893 292.893h-414.214l-292.893-292.893v-414.214l292.893-292.893h414.214z" style="fill:#fff;fill-opacity:1;stroke:none" transform="translate(1515.529 3241.075)"/><path d="M-537.36-2931.785v391.82l-277.059 277.06h-391.82l-277.06-277.06v-391.82l277.06-277.06h391.82z" style="fill:red;fill-opacity:1;stroke:none" transform="translate(1515.529 3241.075)"/><path d="M-742.637-2888.13v304.602h47.93v-125.627h47.24c49.422 0 89.488-40.066 89.488-89.488s-40.066-89.488-89.488-89.488zm95.17 43.206h-47.24v92.563h47.24c25.562 0 46.282-20.72 46.282-46.282 0-25.56-20.722-46.281-46.282-46.281m-260.298 266.748c9.497.017 18.977-.81 28.33-2.459a62 62 0 0 0 8.395-2.066 108.6 108.6 0 0 0 43.837-27.408 96.7 96.7 0 0 0 20.52-32.999 231.9 231.9 0 0 0 14.563-84.445v-16.551a231.9 231.9 0 0 0-14.563-84.445 96.7 96.7 0 0 0-20.52-32.999 108.63 108.63 0 0 0-43.837-27.408 61 61 0 0 0-8.395-2.067 162 162 0 0 0-28.33-2.458 161.6 161.6 0 0 0-28.33 2.458 62 62 0 0 0-8.396 2.067 108.6 108.6 0 0 0-43.836 27.408 96.7 96.7 0 0 0-20.52 32.999 231.9 231.9 0 0 0-14.564 84.445v16.551a232 232 0 0 0 14.563 84.445 96.7 96.7 0 0 0 20.52 32.999 108.63 108.63 0 0 0 43.837 27.408 61 61 0 0 0 8.395 2.066 162 162 0 0 0 28.33 2.459m-330.228-309.955h184.927v43.207h-68.498v261.396h-47.93v-261.396h-68.499zm-224.686 245.591 35.813-28.944c6.54 29.462 32.688 50.41 62.867 50.367a78.2 78.2 0 0 0 27.883-3.077c24.459-10.043 36.144-38.013 26.102-62.471a47.8 47.8 0 0 0-6.442-11.138 28.98 28.98 0 0 0-14.182-10.013l-63.013-18.648c-35.527-12.073-59.683-45.112-60.414-82.627 0-1.592.055-3.185.15-4.772 2.787-46.907 43.071-82.673 89.978-79.887 38.419-1.344 74.255 19.284 92.39 53.181l-34.693 28.038a57.58 57.58 0 0 0-49.474-37.881 92.4 92.4 0 0 0-18.314.025c-20.789 2.522-36.517 20.013-36.828 40.951.58 19.137 12.98 35.904 31.107 42.064l61.349 18.119a75.3 75.3 0 0 1 36.335 25.294 91.1 91.1 0 0 1 14.969 29.19c14.518 48.16-12.756 98.974-60.917 113.49a146.3 146.3 0 0 1-35.924 3.365c-42.852.066-81.65-25.328-98.742-64.626zm554.914 21.157a118 118 0 0 0 17.862-1.317 61 61 0 0 0 5.178-1.143q2.557-.872 5.11-1.749a65.4 65.4 0 0 0 21.16-14.355 58.55 58.55 0 0 0 11.614-19.097 188.1 188.1 0 0 0 11.523-67.521v-18.52a188.1 188.1 0 0 0-11.523-67.522 58.6 58.6 0 0 0-11.613-19.096 65.4 65.4 0 0 0-21.16-14.356 1458 1458 0 0 0-5.11-1.749 60 60 0 0 0-5.18-1.143 119 119 0 0 0-17.861-1.317c-5.979-.017-11.95.43-17.862 1.317q-2.615.46-5.18 1.143-2.555.873-5.109 1.75a65.4 65.4 0 0 0-21.16 14.354 58.6 58.6 0 0 0-11.613 19.098 188.1 188.1 0 0 0-11.524 67.52v18.521a188.1 188.1 0 0 0 11.524 67.52 58.6 58.6 0 0 0 11.613 19.098 65.4 65.4 0 0 0 21.16 14.355q2.553.88 5.11 1.75 2.564.685 5.179 1.142a119 119 0 0 0 17.862 1.317" clip-rule="evenodd" style="fill:#fff;fill-rule:evenodd;stroke:none" transform="translate(1515.529 3241.075)"/></svg>