<svg xmlns="http://www.w3.org/2000/svg" width="902.128" height="804.604" version="1.0"><path d="M-3634.811-6420.236c28.668.642 56.305 15.791 71.69 42.439l363.855 630.207a84.87 84.87 0 0 1 11.375 42.439c0 46.888-38.02 84.909-84.909 84.909h-727.71c-46.89 0-84.91-38.021-84.91-84.909a84.87 84.87 0 0 1 11.376-42.439l363.855-630.207c15.385-26.648 43.022-41.797 71.69-42.439.61-.014 3.078-.014 3.688 0z" style="fill:#fff;stroke:#000;stroke-width:4;stroke-miterlimit:4;stroke-opacity:1;stroke-dasharray:none" transform="translate(4087.72 6422.547)"/><path d="M-3637.936-6395.976c-20.476.46-40.23 11.31-51.22 30.344l-363.846 630.193a60.6 60.6 0 0 0-8.125 30.312c0 33.49 27.135 60.626 60.626 60.626h727.693c33.49 0 60.625-27.135 60.625-60.626a60.6 60.6 0 0 0-8.125-30.312l-363.846-630.192c-10.99-19.034-30.743-29.886-51.22-30.345-.43-.01-2.132-.02-2.562 0" style="fill:red;fill-opacity:1;fill-rule:evenodd;stroke:none" transform="translate(4087.72 6422.547)"/><path d="m-3636.655-6315.185-346.4 599.984h692.8z" clip-rule="evenodd" style="fill:#fff;fill-rule:evenodd;stroke:none" transform="translate(4087.72 6422.547)"/><path d="m-3697.885-6061.371 61.23-61.23 61.23 61.23v297.67l-61.23-61.23-61.23 61.23z" style="fill:#000;fill-opacity:1;stroke:none" transform="translate(4087.72 6422.547)"/><path d="M-3495.405-5968.611h-141.25v50.92h141.25z" style="fill:#000;fill-opacity:1;stroke:none" transform="translate(4087.72 6422.547)"/></svg>