<svg xmlns="http://www.w3.org/2000/svg" width="814.229" height="814.229"><path d="M-5005.983-6044.543c0-223.46-181.153-404.613-404.613-404.613-223.462 0-404.616 181.153-404.616 404.613 0 223.462 181.155 404.616 404.616 404.616s404.613-181.154 404.613-404.616z" style="fill:#fff;fill-opacity:1;fill-rule:evenodd;stroke:#000;stroke-width:5;stroke-linecap:butt;stroke-linejoin:bevel;stroke-miterlimit:22.92558479;stroke-opacity:1;stroke-dasharray:none" transform="translate(5817.712 6451.656)"/><path d="m-5028.095-6044.542-.502-19.696-1.477-19.428-2.435-19.146-3.366-18.834-4.266-18.499-5.153-18.146-6.015-17.766-6.846-17.366-7.661-16.939-8.443-16.494-9.208-16.017-9.954-15.52-10.66-15-11.363-14.451-12.017-13.882-12.674-13.282-13.283-12.672-13.879-12.02-14.455-11.36-14.997-10.662-15.521-9.953-16.017-9.21-16.493-8.442-16.938-7.66-17.366-6.847-17.767-6.015-18.147-5.151-18.499-4.268-18.834-3.366-19.146-2.435-19.428-1.477-19.695-.502-19.696.502-19.428 1.477-19.146 2.435-18.834 3.366-18.499 4.268-18.148 5.15-17.765 6.016-17.367 6.847-16.94 7.66-16.492 8.443-16.017 9.21-15.522 9.952-14.998 10.661-14.446 11.362-13.885 12.019-13.283 12.672-12.674 13.282-12.019 13.882-11.36 14.452-10.66 14.998-9.955 15.521-9.21 16.017-8.442 16.494-7.661 16.939-6.846 17.366-6.014 17.766-5.152 18.146-4.27 18.499-3.364 18.834-2.435 19.146-1.477 19.428-.502 19.696.502 19.697 1.477 19.427 2.435 19.146 3.365 18.834 4.269 18.5 5.152 18.148 6.014 17.764 6.846 17.367 7.66 16.94 8.443 16.491 9.21 16.017 9.955 15.521 10.66 14.999 11.36 14.453 12.02 13.88 12.673 13.281 13.283 12.674 13.885 12.019 14.446 11.363 14.998 10.659 15.522 9.953 16.017 9.21 16.492 8.442 16.94 7.66 17.367 6.849 17.765 6.014 18.148 5.152 18.5 4.268 18.833 3.364 19.146 2.435 19.428 1.477 19.696.502 19.695-.502 19.428-1.477 19.146-2.435 18.834-3.364 18.499-4.268 18.147-5.152 17.767-6.014 17.366-6.849 16.938-7.66 16.493-8.442 16.017-9.21 15.52-9.953 14.998-10.66 14.449-11.362 13.885-12.02 13.283-12.673 12.674-13.281 12.017-13.88 11.363-14.453 10.66-14.999 9.954-15.52 9.208-16.018 8.443-16.49 7.661-16.94 6.846-17.368 6.015-17.764 5.153-18.149 4.266-18.499 3.368-18.834 2.433-19.146 1.477-19.427z" style="fill:red;fill-opacity:1;fill-rule:evenodd;stroke:none" transform="translate(5817.712 6451.656)"/><path d="M-5091.841-6108.293v127.502h-637.51v-127.502z" style="fill:#fff;fill-opacity:1;fill-rule:evenodd;stroke:none" transform="translate(5817.712 6451.656)"/></svg>