<svg xmlns="http://www.w3.org/2000/svg" width="814.237" height="814.228"><path d="M-6617.372-6025.97c0-223.463-181.154-404.614-404.617-404.614s-404.62 181.151-404.62 404.614c0 223.464 181.157 404.614 404.62 404.614s404.617-181.15 404.617-404.614z" style="fill:#fff;fill-opacity:1;fill-rule:evenodd;stroke:#000;stroke-width:5;stroke-linecap:butt;stroke-linejoin:bevel;stroke-miterlimit:22.92558479;stroke-opacity:1;stroke-dasharray:none" transform="translate(7429.109 6433.084)"/><path d="M-6956.597-5916.378v100.054l38.143-38.143 38.14 38.143v-247.466c.838-56.925-32.497-108.825-84.607-131.755-52.116-22.926-112.894-12.433-154.3 26.642a141.66 141.66 0 0 0-44.427 105.561v208.875l38.142 38.143 38.142-38.143v-211.41c0-18.764 8.06-36.62 22.135-49.034 19.276-17 46.726-21.132 70.149-10.558 23.426 10.575 38.483 33.891 38.483 59.592v149.5" style="fill:#000;fill-opacity:1;fill-rule:evenodd;stroke:none" transform="translate(7429.109 6433.084)"/><path d="M-6829.324-5788.233c-121.717 98.635-298.266 89.416-409.044-21.358-110.78-110.78-120-287.326-21.363-409.043zm42.331-47.303c97.498-120.305 88.385-294.815-21.114-404.315-109.5-109.496-284.01-118.613-404.322-21.115zm147.514-190.434c0-211.255-171.256-382.505-382.51-382.505s-382.51 171.25-382.51 382.505c0 211.254 171.256 382.504 382.51 382.504s382.51-171.25 382.51-382.504" style="fill:red;fill-opacity:1;fill-rule:evenodd;stroke:none" transform="translate(7429.109 6433.084)"/></svg>