<svg xmlns="http://www.w3.org/2000/svg" width="814.229" height="814.242"><path d="M-5802.168-6019.587c0-223.464-181.154-404.62-404.615-404.62-223.46 0-404.614 181.156-404.614 404.62 0 223.467 181.153 404.623 404.614 404.623 223.462 0 404.615-181.156 404.615-404.623z" style="fill:#fff;fill-opacity:1;fill-rule:evenodd;stroke:#000;stroke-width:5;stroke-linecap:butt;stroke-linejoin:bevel;stroke-miterlimit:22.92558479;stroke-opacity:1;stroke-dasharray:none" transform="translate(6613.897 6426.706)"/><path d="M-5824.273-6019.586c0-211.252-171.255-382.506-382.508-382.506-211.25 0-382.506 171.254-382.506 382.506 0 211.253 171.255 382.508 382.506 382.508 211.253 0 382.508-171.255 382.508-382.508" style="fill:red;fill-opacity:1;fill-rule:evenodd;stroke:none" transform="translate(6613.897 6426.706)"/><path d="M-5901.663-6019.586c0-168.514-136.603-305.122-305.118-305.122-168.513 0-305.116 136.608-305.116 305.122s136.603 305.124 305.116 305.124c168.515 0 305.118-136.61 305.118-305.124" style="fill:#fff;fill-opacity:1;fill-rule:evenodd;stroke:none" transform="translate(6613.897 6426.706)"/><path d="M-6321.647-5979.5v-117.739l-89.14 117.739zm-152.967 52.46v-52.46l136.906-181.047h73.731v181.047h36.168v52.46h-36.168v48.276h-57.67v-48.277zm416.77-240.133c86.043 1.431 120.083 69.234 118.87 147.657a222.7 222.7 0 0 1-5.639 53.4l.153-.153c-14.032 58.146-49.805 92.148-113.373 94.258-83.825-2.763-118.77-68.527-118.77-147.518v-.153c0-75.496 32.428-146.092 118.77-147.515zm-59.883 147.517c0 38.877 7.681 96.38 59.882 95.06 52.51 1.339 59.403-56.139 59.977-94.92-.579-38.928-7.441-96.082-59.977-94.958-51.585-1.096-59.882 55.535-59.882 94.818" style="fill:#000;fill-opacity:1;fill-rule:evenodd;stroke:none" transform="translate(6613.897 6426.706)"/></svg>