<svg xmlns="http://www.w3.org/2000/svg" width="1004.4" height="1004.4" viewBox="-50 -30 100.44 100.44"><path d="M.22-29.78c-27.614 0-50 22.386-50 50s22.386 50 50 50 50-22.386 50-50-22.386-50-50-50z" style="fill:#fff;fill-opacity:1;stroke:#000;stroke-opacity:1;stroke-width:.40000005999999999;stroke-miterlimit:4;stroke-dasharray:none"/><path d="M.22-27.077c-26.122 0-47.297 21.176-47.297 47.297S-25.902 67.517.22 67.517 47.517 46.341 47.517 20.22 26.34-27.077.22-27.077" style="fill:red;fill-opacity:1;stroke:none"/><path d="M.22-17.618c-20.897 0-37.838 16.94-37.838 37.838 0 20.897 16.94 37.838 37.838 37.838 20.897 0 37.838-16.94 37.838-37.838 0-20.897-16.94-37.838-37.838-37.838" style="fill:#fff;fill-opacity:1;stroke:none"/></svg>