<svg xmlns="http://www.w3.org/2000/svg" width="814.227" height="814.239"><path d="M-5809.157-6032.745c0-223.464-181.154-404.618-404.613-404.618-223.461 0-404.614 181.154-404.614 404.618 0 223.467 181.153 404.62 404.614 404.62s404.613-181.153 404.613-404.62z" style="fill:#fff;fill-opacity:1;fill-rule:evenodd;stroke:#000;stroke-width:5;stroke-linecap:butt;stroke-linejoin:bevel;stroke-miterlimit:22.92558479;stroke-opacity:1;stroke-dasharray:none" transform="translate(6620.884 6439.863)"/><path d="M-5831.262-6032.75c0-211.25-171.255-382.504-382.505-382.504-211.251 0-382.506 171.255-382.506 382.505 0 211.251 171.255 382.506 382.506 382.506s382.505-171.254 382.505-382.506" style="fill:red;fill-opacity:1;fill-rule:evenodd;stroke:none" transform="translate(6620.884 6439.863)"/><path d="M-5908.652-6032.75c0-168.511-136.602-305.119-305.115-305.119-168.514 0-305.116 136.608-305.116 305.12 0 168.514 136.602 305.122 305.116 305.122s305.115-136.608 305.115-305.122" style="fill:#fff;fill-opacity:1;fill-rule:evenodd;stroke:none" transform="translate(6620.884 6439.863)"/><path d="m-6427.29-6157.797-16.18 110.227 44.156 6.986a37.08 37.08 0 0 1 29.77-18.728 37.08 37.08 0 0 1 32.023 14.547 25.3 25.3 0 0 1 3.202 5.467 46.28 46.28 0 0 1-2.595 42.89 34.94 34.94 0 0 1-37.609 15.865c-14.643-3.347-25.514-15.678-26.994-30.624l-41.953 12.138a68.28 68.28 0 0 0 39.036 50.186 93.99 93.99 0 0 0 77.89.273 62.45 62.45 0 0 0 35.624-41.72 143.3 143.3 0 0 0 1.887-58.01 54.2 54.2 0 0 0-5.575-14.647 80.9 80.9 0 0 0-16.782-20.09c-23.542-20.479-58.088-22.05-83.39-3.79l4.629-31.529h94.324v-39.436h-131.462zM-6246.871-5942.72l-8.734 3.582 2.686 6.706 8.786-3.603a28.9 28.9 0 0 0 17.779-23.729c.257-2.38.272-4.783 0-7.167a13.72 13.72 0 0 0-7.534-10.336 20.1 20.1 0 0 0-16.282-.378c-6.529 2.648-9.994 9.815-8.01 16.575 1.985 6.767 8.773 10.926 15.698 9.628a2.52 2.52 0 0 1 2.8 1.104c.59.939.499 2.157-.212 3.004a21.7 21.7 0 0 1-7.006 4.625M-6180.265-6011.458l31.54 4.992a26.5 26.5 0 0 1 21.265-13.376 26.5 26.5 0 0 1 22.876 10.389 17.7 17.7 0 0 1 2.285 3.91 33.05 33.05 0 0 1-1.851 30.633 24.96 24.96 0 0 1-46.144-10.54l-29.97 8.664a48.77 48.77 0 0 0 27.884 35.85 67.13 67.13 0 0 0 55.634.197 44.6 44.6 0 0 0 25.445-29.804 102.25 102.25 0 0 0 1.346-41.43 38.8 38.8 0 0 0-3.983-10.467 57.8 57.8 0 0 0-11.988-14.346c-16.814-14.63-41.492-15.751-59.562-2.707l3.306-22.522h67.373v-28.17h-93.9l-11.56 78.73zM-6002.57-6090.187l-29.616 8.664v33.953h-17.338v24.56h17.338v64.287c0 11.654 8.68 21.487 20.25 22.934a94.45 94.45 0 0 0 41.146-4.154l-6.501-24.56a52 52 0 0 1-16.61 2.89 8.65 8.65 0 0 1-6.129-2.536 8.68 8.68 0 0 1-2.54-6.134v-52.727h27.444v-24.56h-27.444z" style="fill:#000;fill-opacity:1;fill-rule:evenodd;stroke:none" transform="translate(6620.884 6439.863)"/></svg>