<svg xmlns="http://www.w3.org/2000/svg" width="814.227" height="814.239"><path d="M-5809.157-6032.745c0-223.464-181.154-404.618-404.613-404.618-223.461 0-404.614 181.154-404.614 404.618 0 223.467 181.153 404.62 404.614 404.62s404.613-181.153 404.613-404.62z" style="fill:#fff;fill-opacity:1;fill-rule:evenodd;stroke:#000;stroke-width:5;stroke-linecap:butt;stroke-linejoin:bevel;stroke-miterlimit:22.92558479;stroke-opacity:1;stroke-dasharray:none" transform="translate(6620.884 6439.863)"/><path d="M-5831.262-6032.75c0-211.25-171.255-382.504-382.505-382.504-211.251 0-382.506 171.255-382.506 382.505 0 211.251 171.255 382.506 382.506 382.506s382.505-171.254 382.505-382.506" style="fill:red;fill-opacity:1;fill-rule:evenodd;stroke:none" transform="translate(6620.884 6439.863)"/><path d="M-5908.652-6032.75c0-168.511-136.602-305.119-305.115-305.119-168.514 0-305.116 136.608-305.116 305.12 0 168.514 136.602 305.122 305.116 305.122s305.115-136.608 305.115-305.122" style="fill:#fff;fill-opacity:1;fill-rule:evenodd;stroke:none" transform="translate(6620.884 6439.863)"/><path d="M-6308.953-6044.043a68 68 0 0 1-4.313 6.987 115 115 0 0 1-14.893 14.102 387 387 0 0 1-41.23 29.04l-20.03 12.311v30.164h114.44v-30.164h-57.276a281 281 0 0 0 34.611-23.897 110 110 0 0 0 17.984-22.81 69.14 69.14 0 0 0 3.23-58.485 56.97 56.97 0 0 0-20.201-22.966 22 22 0 0 0-3.745-2.02 50.6 50.6 0 0 0-12.512-3.658 119.2 119.2 0 0 0-40.364.412 42.5 42.5 0 0 0-16.825 7.029 58.61 58.61 0 0 0-23.98 47.792v8.213h33.25a43.8 43.8 0 0 1 4.437-21.305 23.16 23.16 0 0 1 12.74-11.595 36.35 36.35 0 0 1 23.978.26 24.65 24.65 0 0 1 13.956 15.185 35.88 35.88 0 0 1-3.257 25.397M-6410.687-6032.652l-97.267 84.794a306.3 306.3 0 0 1 .29-170.607l96.972 85.812zM-6033.652-6016.12v64.681h-29.591v-64.523c.152-2.564-.275-5.124-1.054-7.565a18.07 18.07 0 0 0-6.835-9.211 11.6 11.6 0 0 0-3.994-1.726c-.26 0-.534-.153-.794-.198a11.2 11.2 0 0 0-4.5 0 24.7 24.7 0 0 0-6.01 2.122 21.15 21.15 0 0 0-8.938 8.643 15.8 15.8 0 0 0-1.375 3.57 24.5 24.5 0 0 0-.428 3.8v65.076h-29.585v-64.525c.153-2.564-.275-5.124-1.054-7.563a18.08 18.08 0 0 0-6.834-9.213 11.6 11.6 0 0 0-3.994-1.726c-.26 0-.52-.152-.794-.183a11.2 11.2 0 0 0-4.503 0 24.7 24.7 0 0 0-6.007 2.123 21.15 21.15 0 0 0-8.94 8.643 15.8 15.8 0 0 0-1.375 3.57 22.7 22.7 0 0 0-.412 3.8v65.075h-29.591v-108.281h29.59v7.7a40.47 40.47 0 0 1 30.365-10.347c2.144.198 4.266.58 6.333 1.176 1.146.32 2.284.687 3.403 1.084a25.93 25.93 0 0 1 14.02 12.637 37.6 37.6 0 0 1 10.997-9.862 40.5 40.5 0 0 1 22.984-5.037c2.145.199 4.266.58 6.332 1.176a45.15 45.15 0 0 1 27.06 20.955 54.1 54.1 0 0 1 5.524 24.12M-6017.034-6032.652l97.27 84.794a306.2 306.2 0 0 0-.306-170.607l-96.972 85.812z" style="fill:#000;fill-opacity:1;fill-rule:evenodd;stroke:none" transform="translate(6620.884 6439.863)"/></svg>