<svg xmlns="http://www.w3.org/2000/svg" width="998.384" height="998.373"><path d="M-7109.211-6604.381c274.314 0 496.685 222.378 496.685 496.69 0 274.316-222.37 496.694-496.686 496.694-274.313 0-496.687-222.378-496.687-496.693 0-274.313 222.374-496.691 496.687-496.691z" style="fill:#fff;fill-opacity:1;fill-rule:evenodd;stroke:#000;stroke-width:5;stroke-linecap:butt;stroke-linejoin:bevel;stroke-miterlimit:22.92558479;stroke-opacity:1;stroke-dasharray:none" transform="translate(7608.405 6606.876)"/><path d="M-7109.218-6577.24c259.327 0 469.547 210.227 469.547 469.553s-210.22 469.554-469.547 469.554-469.55-210.227-469.55-469.554 210.222-469.553 469.55-469.553" style="fill:#00f;fill-opacity:1;fill-rule:evenodd;stroke:none" transform="translate(7608.405 6606.876)"/><path d="m-6924.833-6212.94-186.433-303.791-186.43 303.791a13.26 13.26 0 0 0 1.27 15.16 13.25 13.25 0 0 0 14.681 3.985l117.438-48.642v543.793h106.08v-543.793l117.438 48.642a13.255 13.255 0 0 0 14.685-3.985 13.27 13.27 0 0 0 1.271-15.16" style="fill:#fff;fill-opacity:1;fill-rule:evenodd;stroke:none" transform="translate(7608.405 6606.876)"/></svg>