<svg xmlns="http://www.w3.org/2000/svg" width="998.158" height="998.159"><path d="M-8636.563-6105.818c0-274.25 222.327-496.58 496.578-496.58 274.252 0 496.58 222.33 496.58 496.58s-222.328 496.58-496.58 496.58c-274.25 0-496.578-222.33-496.578-496.58z" style="fill:#fff;fill-opacity:1;fill-rule:evenodd;stroke:#000;stroke-width:5;stroke-linecap:butt;stroke-linejoin:bevel;stroke-miterlimit:22.92558479;stroke-opacity:1;stroke-dasharray:none" transform="translate(8639.063 6604.898)"/><path d="M-8609.432-6105.814c0-259.268 210.18-469.44 469.445-469.44 259.268 0 469.448 210.172 469.448 469.44 0 259.27-210.18 469.442-469.448 469.442-259.266 0-469.445-210.172-469.445-469.442" style="fill:#00f;fill-opacity:1;fill-rule:evenodd;stroke:none" transform="translate(8639.063 6604.898)"/><path d="M-7856.434-6332.79c-109.569-134.315-298.272-173.45-452.214-93.781l-19.155-36.92a5.31 5.31 0 0 0-4.82-2.875c-2.019 0-3.847 1.206-4.723 3.025l-66.345 138.592 151.514 25.573a5.332 5.332 0 0 0 5.621-7.713l-19.153-36.922c114.75-59.33 255.374-30.143 337.03 69.957l72.252-58.936zM-8265.15-5906.228l-22.364 34.988c-108.858-69.68-153.953-206.137-108.058-326.956l-87.158-33.107c-61.58 162.094-1.058 345.163 144.998 438.622l-22.365 34.988c-1.077 1.708-1.114 3.875 0 5.61a5.34 5.34 0 0 0 4.986 2.576l153.085-11.815-53.558-143.899a5.34 5.34 0 0 0-4.432-3.44 5.34 5.34 0 0 0-5.057 2.433M-7908.988-6090.645l41.486 1.867c-5.903 129.118-101.525 236.404-229.106 257.077l14.913 92.034c171.17-27.739 299.441-171.69 307.338-344.91l41.478 1.867c2.025.186 3.917-.965 4.907-2.733a5.35 5.35 0 0 0-.26-5.603l-86.789-126.658-97.832 118.333a5.36 5.36 0 0 0-.761 5.562 5.32 5.32 0 0 0 4.634 3.164" style="fill:#fff;fill-opacity:1;fill-rule:evenodd;stroke:none" transform="translate(8639.063 6604.898)"/></svg>