<svg xmlns="http://www.w3.org/2000/svg" width="805.7" height="1180.188"><path d="M-5723.44-4462.926h649.213c20.089 0 39.353-7.952 53.557-22.106a75.3 75.3 0 0 0 22.188-53.362v-1024.251a75.3 75.3 0 0 0-22.188-53.362 75.88 75.88 0 0 0-53.557-22.107h-649.213a75.88 75.88 0 0 0-53.556 22.107 75.3 75.3 0 0 0-22.186 53.362v1024.251a75.3 75.3 0 0 0 22.186 53.362c14.204 14.154 33.468 22.106 53.556 22.106z" style="fill:#fff;fill-opacity:1;fill-rule:evenodd;stroke:#000;stroke-width:5;stroke-linecap:butt;stroke-linejoin:bevel;stroke-miterlimit:22.92558479;stroke-opacity:1;stroke-dasharray:none" transform="translate(5801.682 5640.614)"/><path d="M-5723.441-4484.485h649.214a54.21 54.21 0 0 0 38.26-15.787 53.83 53.83 0 0 0 15.842-38.119v-1024.251c0-14.295-5.7-28.004-15.843-38.119a54.22 54.22 0 0 0-38.26-15.789h-649.213a54.23 54.23 0 0 0-38.26 15.789 53.85 53.85 0 0 0-15.841 38.119v1024.251a53.84 53.84 0 0 0 15.841 38.12 54.22 54.22 0 0 0 38.26 15.786" style="fill:#00f;fill-opacity:1;fill-rule:evenodd;stroke:none" transform="translate(5801.682 5640.614)"/><path d="M-5682.863-4767.582v-565.867h568.06v565.867z" style="fill:#fff;fill-opacity:1;fill-rule:evenodd;stroke:none" transform="translate(5801.682 5640.614)"/><path d="M-5326.038-4814.385h-148.008v-160.24h-160.806v-147.47h160.806v-160.238h148.008v160.239h160.806v147.47h-160.806z" style="fill:red;fill-opacity:1;fill-rule:evenodd;stroke:none" transform="translate(5801.682 5640.614)"/></svg>