<svg xmlns="http://www.w3.org/2000/svg" width="805.7" height="1180.188"><path d="M-5723.44-4462.926h649.213c20.089 0 39.353-7.952 53.557-22.106a75.3 75.3 0 0 0 22.188-53.362v-1024.251a75.3 75.3 0 0 0-22.188-53.362 75.88 75.88 0 0 0-53.557-22.107h-649.213a75.88 75.88 0 0 0-53.556 22.107 75.3 75.3 0 0 0-22.186 53.362v1024.251a75.3 75.3 0 0 0 22.186 53.362c14.204 14.154 33.468 22.106 53.556 22.106z" style="fill:#fff;fill-opacity:1;fill-rule:evenodd;stroke:#000;stroke-width:5;stroke-linecap:butt;stroke-linejoin:bevel;stroke-miterlimit:22.92558479;stroke-opacity:1;stroke-dasharray:none" transform="translate(5801.682 5640.614)"/><path d="M-5723.441-4484.485h649.214a54.21 54.21 0 0 0 38.26-15.787 53.83 53.83 0 0 0 15.842-38.119v-1024.251c0-14.295-5.7-28.004-15.843-38.119a54.22 54.22 0 0 0-38.26-15.789h-649.213a54.23 54.23 0 0 0-38.26 15.789 53.85 53.85 0 0 0-15.841 38.119v1024.251a53.84 53.84 0 0 0 15.841 38.12 54.22 54.22 0 0 0 38.26 15.786" style="fill:#00f;fill-opacity:1;fill-rule:evenodd;stroke:none" transform="translate(5801.682 5640.614)"/><path d="M-5682.863-4767.582v-565.867h568.06v565.867z" style="fill:#fff;fill-opacity:1;fill-rule:evenodd;stroke:none" transform="translate(5801.682 5640.614)"/><path d="M-5518.765-4945.998a531.5 531.5 0 0 1-87.975-155.266 161.45 161.45 0 0 1-12.006-64.872c.249-31.84 9.98-62.883 27.969-89.201 13.938-22.025 36.066-37.652 61.536-43.452l26.858 124.613a165.6 165.6 0 0 0-50.115 12.345 29.26 29.26 0 0 0-15.97 19.83c-2.002 8.692.167 17.82 5.672 24.796l101.394 126.454 98.883 128.417a29.32 29.32 0 0 0 22.786 11.431 29.31 29.31 0 0 0 23.157-10.687 164.3 164.3 0 0 0 24.048-45.514l114.969 55.879c-11.766 23.253-32.299 40.907-57.106 49.1a161.76 161.76 0 0 1-93.61 5.656 162.9 162.9 0 0 1-60.324-27.181A533.3 533.3 0 0 1-5518.765-4946m42.618-344.557-40.05-9.947 28.04 121.802 32.473-21.977zm303.387 427.125-.166-41.13-82.654-41.362-29.206 26.141 111.948 56.35z" style="fill:#000;fill-opacity:1;fill-rule:evenodd;stroke:none" transform="translate(5801.682 5640.614)"/></svg>