<svg xmlns="http://www.w3.org/2000/svg" width="805.7" height="1180.188"><path d="M-5723.44-4462.926h649.213c20.089 0 39.353-7.952 53.557-22.106a75.3 75.3 0 0 0 22.188-53.362v-1024.251a75.3 75.3 0 0 0-22.188-53.362 75.88 75.88 0 0 0-53.557-22.107h-649.213a75.88 75.88 0 0 0-53.556 22.107 75.3 75.3 0 0 0-22.186 53.362v1024.251a75.3 75.3 0 0 0 22.186 53.362c14.204 14.154 33.468 22.106 53.556 22.106z" style="fill:#fff;fill-opacity:1;fill-rule:evenodd;stroke:#000;stroke-width:5;stroke-linecap:butt;stroke-linejoin:bevel;stroke-miterlimit:22.92558479;stroke-opacity:1;stroke-dasharray:none" transform="translate(5801.682 5640.614)"/><path d="M-5723.441-4484.485h649.214a54.21 54.21 0 0 0 38.26-15.787 53.83 53.83 0 0 0 15.842-38.119v-1024.251c0-14.295-5.7-28.004-15.843-38.119a54.22 54.22 0 0 0-38.26-15.789h-649.213a54.23 54.23 0 0 0-38.26 15.789 53.85 53.85 0 0 0-15.841 38.119v1024.251a53.84 53.84 0 0 0 15.841 38.12 54.22 54.22 0 0 0 38.26 15.786" style="fill:#00f;fill-opacity:1;fill-rule:evenodd;stroke:none" transform="translate(5801.682 5640.614)"/><path d="M-5682.863-4767.582v-565.867h568.06v565.867z" style="fill:#fff;fill-opacity:1;fill-rule:evenodd;stroke:none" transform="translate(5801.682 5640.614)"/><path d="M-5257.147-5250.649h-162.336c-17.316 0-31.362 13.973-31.368 31.204l-.167 330.54h225.275l-.166-330.54c-.01-17.23-14.049-31.204-31.368-31.204zm2.196 368.954v20.778l-167.485.199v-20.977h167.487zm-241.347-216.163a547.1 547.1 0 0 1-71.87 126.111h-.013a162 162 0 0 0-18.7 31.639 53.1 53.1 0 0 0-2.045 37.997c9.246 28.613 38.229 46.102 68.005 41.047 29.776-5.056 51.29-31.117 50.476-61.16v-227.854h10.183v-67.289l-7.034-.166-15.424 30.613.25 6.886-.167 13.786-1.848 20.596-3.77 20.331-3.563 13.329-4.468 14.026zm15.018-8.673v184.326l.01.282c.666 24.682-17.013 46.093-41.472 50.244-24.457 4.15-48.267-10.217-55.861-33.724a42.32 42.32 0 0 1 1.632-30.313 151 151 0 0 1 17.44-29.519 557.9 557.9 0 0 0 78.258-141.302zm58.913 5.425v-112.655c0-4.701 3.83-8.512 8.558-8.512h150.922c4.727 0 8.554 3.81 8.554 8.512v112.648c0 4.705-3.823 8.516-8.545 8.522l-75.8.166-75.218-.166c-4.721-.01-8.545-3.817-8.545-8.515" style="fill:#000;fill-opacity:1;fill-rule:evenodd;stroke:none" transform="translate(5801.682 5640.614)"/><g style="font-size:249.17115784px"><path d="m-5610.407-4625.862 9.125-1.216q1.57 7.755 5.348 11.178 3.777 3.42 9.2 3.421 6.439 0 10.875-4.46 4.435-4.462 4.435-11.052 0-6.285-4.106-10.367-4.105-4.08-10.443-4.08-2.586 0-6.438 1.013l1.014-8.01q.912.103 1.47.102 5.829 0 10.494-3.042 4.663-3.041 4.663-9.378 0-5.019-3.396-8.314t-8.77-3.295q-5.323 0-8.872 3.346t-4.562 10.037l-9.125-1.622q1.673-9.176 7.604-14.22t14.752-5.044q6.084 0 11.203 2.611 5.121 2.61 7.833 7.123 2.712 4.511 2.712 9.58 0 4.817-2.586 8.77-2.585 3.955-7.654 6.287 6.59 1.521 10.24 6.311t3.65 11.99q0 9.733-7.097 16.5-7.098 6.768-17.946 6.768-9.785 0-16.247-5.83-6.465-5.83-7.376-15.107M-5516.297-4642.895q0-13.18 2.712-21.215t8.06-12.395 13.46-4.36q5.982 0 10.493 2.408t7.452 6.945 4.614 11.052 1.673 17.565q0 13.08-2.687 21.114-2.687 8.036-8.035 12.42-5.35 4.385-13.51 4.385-10.748 0-16.881-7.705-7.35-9.277-7.351-30.214m9.378 0q0 18.3 4.284 24.359 4.284 6.057 10.57 6.057t10.57-6.083q4.283-6.083 4.283-24.333 0-18.351-4.283-24.384-4.284-6.032-10.672-6.032-6.285 0-10.037 5.323-4.715 6.792-4.715 25.093M-5417.667-4642.895q0-13.18 2.713-21.215 2.711-8.036 8.06-12.395 5.348-4.36 13.46-4.36 5.98 0 10.493 2.408 4.512 2.408 7.452 6.945t4.613 11.052 1.673 17.565q0 13.08-2.687 21.114-2.687 8.036-8.035 12.42t-13.51 4.385q-10.747 0-16.881-7.705-7.35-9.277-7.35-30.214m9.379 0q0 18.3 4.283 24.359 4.284 6.057 10.57 6.057 6.285 0 10.57-6.083 4.284-6.083 4.283-24.333 0-18.351-4.283-24.384-4.284-6.032-10.671-6.032-6.287 0-10.038 5.323-4.714 6.792-4.714 25.093M-5228.976-4606.243v-53.837h8.162v7.553q2.535-3.954 6.742-6.362 4.208-2.408 9.582-2.408 5.98 0 9.809 2.484 3.827 2.484 5.399 6.945 6.387-9.429 16.627-9.429 8.01 0 12.319 4.436t4.309 13.662v36.956h-9.074v-33.915q0-5.475-.887-7.882-.888-2.408-3.22-3.879-2.332-1.47-5.474-1.47-5.679 0-9.43 3.777t-3.75 12.09v31.279h-9.126v-34.979q0-6.083-2.23-9.125t-7.3-3.042q-3.853 0-7.123 2.028t-4.74 5.931-1.47 11.254v27.933z" style="font-size:103.82131958px;font-variant:normal;writing-mode:lr-tb;fill:#fff;fill-opacity:1;fill-rule:nonzero;stroke:none;font-family:JAE;-inkscape-font-specification:JAE-FonteTipo1ANegativa" transform="matrix(1.00252 0 0 .99749 5801.682 5640.614)"/></g></svg>