<svg xmlns="http://www.w3.org/2000/svg" width="805.7" height="1180.188"><path d="M-5723.44-4462.926h649.213c20.089 0 39.353-7.952 53.557-22.106a75.3 75.3 0 0 0 22.188-53.362v-1024.251a75.3 75.3 0 0 0-22.188-53.362 75.88 75.88 0 0 0-53.557-22.107h-649.213a75.88 75.88 0 0 0-53.556 22.107 75.3 75.3 0 0 0-22.186 53.362v1024.251a75.3 75.3 0 0 0 22.186 53.362c14.204 14.154 33.468 22.106 53.556 22.106z" style="fill:#fff;fill-opacity:1;fill-rule:evenodd;stroke:#000;stroke-width:5;stroke-linecap:butt;stroke-linejoin:bevel;stroke-miterlimit:22.92558479;stroke-opacity:1;stroke-dasharray:none" transform="translate(5801.682 5640.614)"/><path d="M-5723.441-4484.485h649.214a54.21 54.21 0 0 0 38.26-15.787 53.83 53.83 0 0 0 15.842-38.119v-1024.251c0-14.295-5.7-28.004-15.843-38.119a54.22 54.22 0 0 0-38.26-15.789h-649.213a54.23 54.23 0 0 0-38.26 15.789 53.85 53.85 0 0 0-15.841 38.119v1024.251a53.84 53.84 0 0 0 15.841 38.12 54.22 54.22 0 0 0 38.26 15.786" style="fill:#00f;fill-opacity:1;fill-rule:evenodd;stroke:none" transform="translate(5801.682 5640.614)"/><path d="M-5682.863-4767.582v-565.867h568.06v565.867z" style="fill:#fff;fill-opacity:1;fill-rule:evenodd;stroke:none" transform="translate(5801.682 5640.614)"/><path d="m-5237.757-5040.69-178.131-107.236a21.8 21.8 0 0 0 2.528-8.603 56.1 56.1 0 0 0-6.982-28.166 57 57 0 0 0-23.844-21.375v-36.485c0-4.01-2.152-7.715-5.641-9.717a11.3 11.3 0 0 0-11.265.01l-143.858 82.991a16.83 16.83 0 0 0-8.427 14.565v151.175c.164 3.205 2.156 6.018 5.197 7.088a24.8 24.8 0 0 0 9.256 1.556 24.8 24.8 0 0 0 9.097-2.305 7.76 7.76 0 0 0 4.603-7.489v-36.92l227.961 139.148v55.252c.165 3.203 2.161 6.02 5.197 7.082a24.4 24.4 0 0 0 9.255 1.557 24.7 24.7 0 0 0 9.096-2.307 7.75 7.75 0 0 0 4.606-6.68v-53.251l113.46-69.039v43.758c.164 3.205 2.163 6.02 5.199 7.083a24.5 24.5 0 0 0 9.259 1.556 24.8 24.8 0 0 0 9.098-2.304 7.76 7.76 0 0 0 4.602-7.483v-123.962c0-4.056-2.196-7.795-5.74-9.78a11.35 11.35 0 0 0-11.374.18l-33.152 20.074zm-7.799 5.086-103.281 59.583a16.82 16.82 0 0 0-8.426 14.564v35.894l-203.766-124.379a5.6 5.6 0 0 1-2.686-4.841c0-1.974 1.069-3.785 2.786-4.784l134.237-78.235c3.56-2.077 7.977-2.05 11.51.164l169.626 102.118zm-181.9-145.108a46.16 46.16 0 0 1 5.955 23.537 13.76 13.76 0 0 1-6.14 10.404l-129.418 75.43a55.8 55.8 0 0 0-6.94-29.628 57.07 57.07 0 0 0-22.66-20.787l129.408-75.426a13.93 13.93 0 0 1 12.114-.246 46.47 46.47 0 0 1 17.68 16.708zm-143.69 117.575a13.58 13.58 0 0 1-11.947.164 46.36 46.36 0 0 1-17.68-16.706 46.1 46.1 0 0 1-5.961-23.541 13.44 13.44 0 0 1 5.984-10.303 13.57 13.57 0 0 1 11.952-.164 46.4 46.4 0 0 1 17.682 16.707 46.16 46.16 0 0 1 5.957 23.538 13.45 13.45 0 0 1-5.987 10.305" style="fill:#000;fill-opacity:1;fill-rule:evenodd;stroke:none" transform="translate(5801.682 5640.614)"/></svg>