<svg xmlns="http://www.w3.org/2000/svg" width="805.7" height="1180.188"><path d="M-5723.44-4462.926h649.213c20.089 0 39.353-7.952 53.557-22.106a75.3 75.3 0 0 0 22.188-53.362v-1024.251a75.3 75.3 0 0 0-22.188-53.362 75.88 75.88 0 0 0-53.557-22.107h-649.213a75.88 75.88 0 0 0-53.556 22.107 75.3 75.3 0 0 0-22.186 53.362v1024.251a75.3 75.3 0 0 0 22.186 53.362c14.204 14.154 33.468 22.106 53.556 22.106z" style="fill:#fff;fill-opacity:1;fill-rule:evenodd;stroke:#000;stroke-width:5;stroke-linecap:butt;stroke-linejoin:bevel;stroke-miterlimit:22.92558479;stroke-opacity:1;stroke-dasharray:none" transform="translate(5801.682 5640.614)"/><path d="M-5723.441-4484.485h649.214a54.21 54.21 0 0 0 38.26-15.787 53.83 53.83 0 0 0 15.842-38.119v-1024.251c0-14.295-5.7-28.004-15.843-38.119a54.22 54.22 0 0 0-38.26-15.789h-649.213a54.23 54.23 0 0 0-38.26 15.789 53.85 53.85 0 0 0-15.841 38.119v1024.251a53.84 53.84 0 0 0 15.841 38.12 54.22 54.22 0 0 0 38.26 15.786" style="fill:#00f;fill-opacity:1;fill-rule:evenodd;stroke:none" transform="translate(5801.682 5640.614)"/><path d="M-5682.863-4767.582v-565.867h568.06v565.867z" style="fill:#fff;fill-opacity:1;fill-rule:evenodd;stroke:none" transform="translate(5801.682 5640.614)"/><path d="M-5282.98-4823.428c6.355 9.905 17.885 15.26 29.586 13.737 18.99-2.475 35.664-28.274 21.704-46.39l-138.492-188.312a137.9 137.9 0 0 1-20.84-62.348c0-16.17-1.548-32.299-4.823-48.135a174.1 174.1 0 0 0-38.568-77.006c-18.935-24.06-44.543-42.051-73.653-51.75a36.38 36.38 0 0 0-31.83 3.544c-9.48 6.042-15.612 16.123-16.596 27.29a155.7 155.7 0 0 0 16.227 88.317 174.46 174.46 0 0 0 53.967 67.197 192 192 0 0 0 41.843 24.565 138.5 138.5 0 0 1 48.061 45.02zm-113.106-188.431-6.68-12.03a130.6 130.6 0 0 0-13.259-16.994l-138.372 187.63c-9.306 14.3-5.377 33.393 8.821 42.898 14.604 8.887 33.657 4.468 42.816-9.921zm116.746-275.048c2.55-.564 5.223 0 7.394 1.393l-67.988 103.578a10.83 10.83 0 0 0-.6 10.848 10.9 10.9 0 0 0 9.136 5.934c3.887.199 7.58-1.643 9.706-4.902l67.988-103.889 9.11 5.843-66.359 104.905a10.78 10.78 0 0 0-.4 10.854 10.92 10.92 0 0 0 9.246 5.768 10.8 10.8 0 0 0 9.614-5.073l66.089-104.787a9.47 9.47 0 0 1 4.355 6.108c-.183 3.48-.8 6.924-1.835 10.25-10.687 44.72-32.698 85.96-63.926 119.806a156.8 156.8 0 0 1-30.297 23 256.6 256.6 0 0 0-45.858 37.108q-1.972 2.539-3.934 5.078a130.7 130.7 0 0 1-15.927-54.853 254 254 0 0 0 4.998-26.103 155 155 0 0 1 8.327-37.033c17.825-42.398 46.254-79.54 82.581-107.884a69 69 0 0 1 8.585-5.943" style="fill:#000;fill-opacity:1;fill-rule:evenodd;stroke:none" transform="translate(5801.682 5640.614)"/></svg>