<?xml version="1.0" encoding="UTF-8" standalone="no"?>
<svg xmlns="http://www.w3.org/2000/svg" width="804.83002" height="804.8382">
  <path fill="#fff" fill-rule="evenodd" stroke="#000" stroke-linejoin="bevel" stroke-miterlimit="22.92558479" stroke-width="5" d="M73.7906 802.3382h657.2422c38.3874 0 71.2972-31.6768 71.2972-71.2939V73.7922C802.33 34.1701 769.4202 2.5 731.0328 2.5H73.7906C35.4082 2.5 2.5 34.1701 2.5 73.7922v657.2521c0 39.6171 32.9082 71.2939 71.2906 71.2939z"/>
  <path fill="#00f" fill-rule="evenodd" d="M74.0737 780.4238h659.4217l2.423-.1823 2.4031-.2983 2.3734-.4309 2.3368-.5469 2.307-.663 2.2673-.7789 2.2258-.8784 2.1777-.9779 2.138-1.0938 2.08-1.1933 2.0203-1.2927 1.959-1.3756 1.8926-1.475 1.8264-1.5579 1.7452-1.6408 1.6673-1.7253 1.591-1.8082 1.4917-1.8761 1.4087-1.9424 1.3093-2.007 1.2099-2.075 1.1104-2.1247 1.011-2.1861.8949-2.2307.7955-2.2839.6795-2.3318.5635-2.3717.4475-2.4197.3149-2.4661.1989-2.5093.1657-2.8423V74.1625l-.1657-2.8424-.1989-2.5092-.3149-2.4645-.4475-2.4197-.5635-2.3783-.6795-2.3319-.7955-2.2788-.8949-2.2374-1.011-2.1794-1.1104-2.1247-1.2099-2.075-1.3093-2.0071-1.4087-1.944-1.4917-1.8811-1.591-1.8015-1.6673-1.727-1.7452-1.6408-1.8264-1.5744-1.8926-1.4751-1.959-1.3756-2.0203-1.2927-2.08-1.1933-2.138-1.0938-2.1777-.9779-2.2258-.8783-2.2673-.779-2.307-.6629-2.3368-.547-2.3734-.4309-2.4031-.3149-2.423-.1823H71.3374l-2.4296.1823-2.4032.3149-2.3666.4309-2.3435.547-2.3004.6629-2.2673.779-2.2307.8783-2.1794.9779-2.1314 1.0938-2.08 1.1933-2.0203 1.2927-1.9606 1.3756-1.8976 1.4751-1.8198 1.5744-1.7485 1.6408-1.664 1.727-1.591 1.8015-1.4916 1.8811-1.4088 1.944-1.3093 2.0071-1.2098 2.0733-1.1105 2.1264-1.0109 2.1794-.895 2.2374-.7789 2.2788-.6796 2.3303-.5635 2.3783-.4474 2.4197-.3315 2.4661-.1823 2.5076-.1657 2.8423v656.677l.1657 2.8423.1823 2.5093.3315 2.4644.4474 2.4197.5635 2.3717.6796 2.3335.7789 2.2822.895 2.2308 1.0109 2.186 1.1105 2.1264 1.2098 2.0733 1.3093 2.0071 1.4088 1.944 1.4916 1.8745 1.591 1.8081 1.664 1.7253 1.7485 1.6408 1.8198 1.5579 1.8976 1.475 1.9606 1.3756 2.0203 1.2928 2.08 1.1932 2.1314 1.0939 2.1794.9778 2.2307.8784 2.2673.779 2.3004.6629 2.3435.5469 2.3666.4309 2.4032.2983 2.4296.1824h2.7363z"/>
  <path fill="#fff" fill-rule="evenodd" d="M332.0807 715.3723H227.0916V102.9409h227.473c107.9157 0 195.3984 87.4826 195.3984 195.3949 0 107.9157-87.4827 195.3917-195.3984 195.3917H332.0807v221.6448zm116.6489-519.1089H332.0807v204.1432h116.6489c56.3736 0 102.0725-45.6989 102.0725-102.0708 0-56.375-45.6989-102.0724-102.0725-102.0724"/>
</svg>