<svg xmlns="http://www.w3.org/2000/svg" width="804.83" height="804.838"><path fill="#fff" fill-rule="evenodd" stroke="#000" stroke-linejoin="bevel" stroke-miterlimit="22.926" stroke-width="5" d="M73.79 802.338h657.243c38.387 0 71.297-31.677 71.297-71.294V73.792c0-39.622-32.91-71.292-71.297-71.292H73.79C35.408 2.5 2.5 34.17 2.5 73.792v657.252c0 39.617 32.908 71.294 71.29 71.294z"/><path fill="#00f" fill-rule="evenodd" d="M74.074 780.424h659.421l2.423-.182 2.404-.299 2.373-.43 2.337-.548 2.307-.663 2.267-.779 2.226-.878 2.178-.978 2.138-1.094 2.08-1.193 2.02-1.293 1.959-1.375 1.892-1.475 1.827-1.558 1.745-1.64 1.667-1.726 1.591-1.808 1.492-1.877 1.409-1.942 1.309-2.007 1.21-2.075 1.11-2.125 1.011-2.186.895-2.23.796-2.284.68-2.332.563-2.372.447-2.42.315-2.466.199-2.509.166-2.842V74.163l-.166-2.843-.199-2.51-.315-2.464-.447-2.42-.564-2.378-.68-2.331-.795-2.28-.895-2.237-1.01-2.18-1.111-2.124-1.21-2.075-1.31-2.007-1.408-1.944-1.492-1.881-1.59-1.801-1.668-1.727-1.745-1.641-1.827-1.575-1.892-1.475-1.96-1.375-2.02-1.293-2.08-1.193-2.138-1.094-2.177-.978-2.226-.878-2.267-.78-2.307-.662-2.337-.547-2.374-.431-2.403-.315-2.423-.182H71.337l-2.43.182-2.402.315-2.367.43-2.343.548-2.3.663-2.268.779-2.23.878-2.18.978-2.132 1.094-2.08 1.193-2.02 1.293-1.96 1.375-1.898 1.475-1.82 1.575-1.748 1.64-1.664 1.728-1.591 1.801-1.492 1.881-1.409 1.944-1.31 2.007-1.209 2.074-1.11 2.126-1.011 2.18-.895 2.237-.78 2.279-.679 2.33-.563 2.378-.448 2.42-.331 2.466-.183 2.508-.165 2.842v656.677l.165 2.842.183 2.51.331 2.464.448 2.42.563 2.371.68 2.334.779 2.282.895 2.23 1.01 2.187 1.111 2.126 1.21 2.073 1.31 2.008 1.408 1.944 1.492 1.874 1.59 1.808 1.665 1.725 1.748 1.641 1.82 1.558 1.897 1.475 1.961 1.376 2.02 1.293 2.08 1.193 2.132 1.094 2.18.977 2.23.879 2.267.779 2.3.663 2.344.547 2.367.43 2.403.299 2.43.182h2.736z"/><path fill="#fff" fill-rule="evenodd" d="M332.08 715.372H227.093V102.941h227.473c107.915 0 195.398 87.483 195.398 195.395 0 107.916-87.483 195.392-195.398 195.392H332.08zm116.65-519.109H332.08v204.144h116.65c56.373 0 102.072-45.7 102.072-102.071 0-56.375-45.699-102.073-102.072-102.073"/></svg>