<svg xmlns="http://www.w3.org/2000/svg" width="805.7" height="1180.188"><path d="M-5723.44-4462.926h649.213c20.089 0 39.353-7.952 53.557-22.106a75.3 75.3 0 0 0 22.188-53.362v-1024.251a75.3 75.3 0 0 0-22.188-53.362 75.88 75.88 0 0 0-53.557-22.107h-649.213a75.88 75.88 0 0 0-53.556 22.107 75.3 75.3 0 0 0-22.186 53.362v1024.251a75.3 75.3 0 0 0 22.186 53.362c14.204 14.154 33.468 22.106 53.556 22.106z" style="fill:#fff;fill-opacity:1;fill-rule:evenodd;stroke:#000;stroke-width:5;stroke-linecap:butt;stroke-linejoin:bevel;stroke-miterlimit:22.92558479;stroke-opacity:1;stroke-dasharray:none" transform="translate(5801.682 5640.614)"/><path d="M-5723.441-4484.485h649.214a54.21 54.21 0 0 0 38.26-15.787 53.83 53.83 0 0 0 15.842-38.119v-1024.251c0-14.295-5.7-28.004-15.843-38.119a54.22 54.22 0 0 0-38.26-15.789h-649.213a54.23 54.23 0 0 0-38.26 15.789 53.85 53.85 0 0 0-15.841 38.119v1024.251a53.84 53.84 0 0 0 15.841 38.12 54.22 54.22 0 0 0 38.26 15.786" style="fill:#00f;fill-opacity:1;fill-rule:evenodd;stroke:none" transform="translate(5801.682 5640.614)"/><path d="M-5682.863-4767.582v-565.867h568.06v565.867z" style="fill:#fff;fill-opacity:1;fill-rule:evenodd;stroke:none" transform="translate(5801.682 5640.614)"/><path d="M-5639.47-5047.317c0-.724.165-1.448.215-2.177.33-2.523.924-5.002 1.79-7.392a43 43 0 0 1 2.528-5.698c.693-1.3 1.52-2.511 2.466-3.635a25.6 25.6 0 0 1 6.987-5.85 23.7 23.7 0 0 1 8.23-2.852 59 59 0 0 1 7.024-.609c3.068-.164 6.134 0 9.196.165l104.275-.395 133.68-220.466 44.368.313-84.16 227.877 171.46 6.67 42.71-71.367h15.939l-11.532 71.81 16.858.164v26.733l-16.858.164 11.562 71.8h-15.94l-42.74-71.344-171.452 6.734 84.246 227.844-44.372.33-133.766-220.409-104.273-.362a90 90 0 0 1-9.196.165c-2.354 0-4.693-.264-7.024-.61a23.6 23.6 0 0 1-8.228-2.843 25.7 25.7 0 0 1-6.996-5.845 22.2 22.2 0 0 1-2.464-3.641 44 44 0 0 1-2.528-5.692 34.5 34.5 0 0 1-1.797-7.394c-.165-.723-.165-1.447-.215-2.173" style="fill:#000;fill-opacity:1;fill-rule:evenodd;stroke:none" transform="translate(5801.682 5640.614)"/></svg>