<svg xmlns="http://www.w3.org/2000/svg" width="804.83" height="804.838"><path d="M-5731.592-5646.078h657.242c38.387 0 71.297-31.677 71.297-71.294v-657.252c0-39.622-32.91-71.292-71.297-71.292h-657.242c-38.383 0-71.291 31.67-71.291 71.292v657.252c0 39.617 32.908 71.294 71.29 71.294z" style="fill:#fff;fill-opacity:1;fill-rule:evenodd;stroke:#000;stroke-width:5;stroke-linecap:butt;stroke-linejoin:bevel;stroke-miterlimit:22.92558479;stroke-opacity:1;stroke-dasharray:none" transform="translate(5805.383 6448.416)"/><path d="M-5731.31-5667.992h659.422l2.423-.183 2.403-.298 2.374-.43 2.337-.548 2.307-.663 2.267-.779 2.226-.878 2.177-.978 2.138-1.094 2.08-1.193 2.02-1.293 1.96-1.375 1.892-1.475 1.827-1.558 1.745-1.641 1.667-1.725 1.591-1.809 1.492-1.876 1.409-1.942 1.309-2.007 1.21-2.075 1.11-2.125 1.011-2.186.895-2.23.796-2.285.68-2.331.563-2.372.447-2.42.315-2.466.199-2.51.166-2.841v-656.676l-.166-2.842-.199-2.51-.315-2.464-.447-2.42-.564-2.378-.68-2.332-.795-2.279-.895-2.237-1.01-2.18-1.111-2.124-1.21-2.075-1.31-2.007-1.408-1.944-1.492-1.881-1.59-1.802-1.668-1.727-1.745-1.64-1.827-1.575-1.892-1.475-1.96-1.376-2.02-1.292-2.08-1.194-2.138-1.093-2.177-.978-2.226-.879-2.267-.779-2.307-.663-2.337-.547-2.374-.43-2.403-.315-2.423-.183h-662.158l-2.43.183-2.403.315-2.366.43-2.344.547-2.3.663-2.267.78-2.231.878-2.18.978-2.13 1.093-2.08 1.194-2.021 1.292-1.96 1.376-1.898 1.475-1.82 1.574-1.749 1.641-1.664 1.727-1.59 1.802-1.492 1.88-1.409 1.945-1.31 2.007-1.21 2.073-1.11 2.127-1.01 2.18-.896 2.236-.778 2.28-.68 2.33-.564 2.378-.447 2.42-.331 2.466-.183 2.507-.165 2.843v656.677l.165 2.842.183 2.51.331 2.464.447 2.42.564 2.371.68 2.333.778 2.283.895 2.23 1.011 2.186 1.11 2.127 1.21 2.073 1.31 2.007 1.409 1.944 1.491 1.875 1.591 1.808 1.664 1.725 1.749 1.641 1.82 1.558 1.897 1.475 1.96 1.375 2.021 1.293 2.08 1.193 2.132 1.094 2.179.978 2.23.879 2.268.779 2.3.662 2.344.547 2.366.431 2.404.299 2.43.182h2.736z" style="fill:#00f;fill-opacity:1;fill-rule:evenodd;stroke:none" transform="translate(5805.383 6448.416)"/><path d="M-6412.138-6370.68h379.304v126.438h-379.304z" style="fill:red;fill-opacity:1;fill-rule:evenodd;stroke:none" transform="translate(6629.51 6453.457)"/><path d="M-6157.462-6244.242h-130.046v523.801h130.046z" style="fill:#fff;fill-opacity:1;fill-rule:evenodd;stroke:none" transform="translate(6629.51 6453.457)"/></svg>