<svg xmlns="http://www.w3.org/2000/svg" width="809.794" height="809.794"><path d="M-5706.606-4837.18h652.53a76.1 76.1 0 0 0 53.831-22.301 76.1 76.1 0 0 0 22.301-53.831v-652.531c0-20.19-8.02-39.553-22.301-53.832a76.12 76.12 0 0 0-53.83-22.299h-652.53a76.11 76.11 0 0 0-53.831 22.3 76.12 76.12 0 0 0-22.301 53.83v652.532a76.1 76.1 0 0 0 22.3 53.83 76.1 76.1 0 0 0 53.831 22.302z" style="fill:#fff;fill-opacity:1;stroke:#000;stroke-width:5;stroke-linecap:butt;stroke-linejoin:bevel;stroke-miterlimit:22.92558479;stroke-opacity:1;stroke-dasharray:none" transform="translate(5785.238 5644.474)"/><path d="M-5706.61-4858.928h652.53a54.38 54.38 0 0 0 54.379-54.381v-652.531a54.36 54.36 0 0 0-15.93-38.449 54.37 54.37 0 0 0-38.45-15.93h-652.53a54.38 54.38 0 0 0-54.38 54.379v652.53a54.4 54.4 0 0 0 15.925 38.456 54.4 54.4 0 0 0 38.456 15.926" style="fill:#00f;fill-opacity:1;fill-rule:evenodd;stroke:none" transform="translate(5785.238 5644.474)"/><path d="M-5486.766-4931.13h-105.709v-616.647h229.04c108.654 0 196.738 88.084 196.738 196.745 0 108.65-88.084 196.735-196.738 196.735h-123.33zm117.458-522.676h-117.458v205.546h117.458c56.76 0 102.772-46.013 102.772-102.772 0-56.762-46.011-102.774-102.772-102.774" style="fill:#fff;fill-opacity:1;fill-rule:evenodd;stroke:none" transform="translate(5785.238 5644.474)"/><path d="M-5760.992-4948.673v35.364a54.4 54.4 0 0 0 15.926 38.455 54.4 54.4 0 0 0 38.456 15.926h35.363l671.546-671.547v-35.365a54.36 54.36 0 0 0-15.93-38.449 54.37 54.37 0 0 0-38.45-15.93h-35.363z" style="fill:red;fill-opacity:1;fill-rule:evenodd;stroke:none" transform="translate(5785.238 5644.474)"/></svg>