<svg xmlns="http://www.w3.org/2000/svg" width="602.6" height="602.6" version="1.0"><path stroke-miterlimit="10" d="M-1053.964 286.155h486.486c31.346 0 56.757-25.41 56.757-56.757v-486.486c0-31.346-25.41-56.757-56.757-56.757h-486.486c-31.347 0-56.757 25.41-56.757 56.757v486.486c0 31.346 25.41 56.757 56.757 56.757z" style="fill:#fff;stroke:#000;stroke-opacity:1;stroke-width:2;stroke-miterlimit:10;stroke-dasharray:none" transform="translate(1112.021 315.145)"/><path d="M-567.472-297.625c22.39 0 40.53 18.141 40.53 40.531v486.498c0 22.39-18.14 40.53-40.53 40.53h-486.498c-22.39 0-40.531-18.14-40.531-40.53v-486.498c0-22.39 18.141-40.531 40.531-40.531z" style="fill:#00f;fill-opacity:1;fill-rule:evenodd;stroke:none" transform="translate(1112.021 315.145)"/><path d="m-810.721-214.59-231.8 401.49h463.6z" clip-rule="evenodd" style="fill:#fff;fill-rule:evenodd;stroke:none" transform="translate(1112.021 315.145)"/><path d="m-761.687 154.445-.611-3.866c8.336.122 15.192-6.538 15.312-14.874a15.1 15.1 0 0 0-1.727-7.233l-23.337-44.661h34.86l21.708 70.634zm75.401 0h42.857l-38.13-70.634h-33.09zm-172.68-4.983-.79 4.983h-46.205l21.708-70.634h24.544l-7.797 49.657a15.055 15.055 0 0 0 8.54 15.994m-76.19 4.983h-42.857l38.13-70.634h33.09zm140.273-49.33 2.998 49.33h-37.672l4.294-70.635h21.574l1.773 7.777zm-38.058-23.621 23-43.24 11.836 51.935 26.207 50.402c2.82 5.424 9.502 7.533 14.925 4.714s7.533-9.502 4.714-14.925c-.01-.013-.014-.027-.021-.04l-25.002-47.85-10.73-46.65V13.39h-44.049v19.485l-22.093 41.535-9.371 59.682c-.945 6.017 3.167 11.66 9.184 12.606s11.66-3.167 12.605-9.184zm44.928-73.61v-45.825l21.81 19.828V7.705a8.26 8.26 0 1 0 16.518 0v-31.677a8.06 8.06 0 0 0-2.262-5.597l-31.208-32.303c-12.678-13.123-33.592-13.483-46.714-.806a33 33 0 0 0-3.44 3.89L-883.82 8.31a8.6 8.6 0 0 0 1.102 12.114 8.6 8.6 0 0 0 12.47-1.56l38.186-49.097V7.882h44.05zm-7.71-105.29c0-12.165-9.86-22.025-22.023-22.025s-22.024 9.86-22.024 22.024 9.86 22.024 22.024 22.024c12.163 0 22.024-9.86 22.024-22.024" clip-rule="evenodd" style="fill:#000;fill-rule:evenodd;stroke:none" transform="translate(1112.021 315.145)"/></svg>