<svg class="marks" viewBox="0 0 319 199" xmlns="http://www.w3.org/2000/svg"><path fill="transparent" d="M0 0h319v199H0z"/><g class="mark-group role-frame root"><path class="background" d="M84.5 22.5h200v140h-200z" fill="none" stroke="#ddd"/><path d="M84.5 162.5v-140m50 140v-140m50 140v-140m50 140v-140m50 140v-140" pointer-events="none" fill="none" stroke="#ddd"/><g class="mark-group role-axis"><path d="M84.5 162.5v5m50-5v5m50-5v5m50-5v5m50-5v5" pointer-events="none" fill="none" stroke="#888"/><g class="mark-text role-axis-label" pointer-events="none" font-family="sans-serif" font-size="10"><text transform="translate(84.5 177.5)">0</text><text text-anchor="middle" transform="translate(134.5 177.5)">20</text><text text-anchor="middle" transform="translate(184.5 177.5)">40</text><text text-anchor="middle" transform="translate(234.5 177.5)">60</text><text text-anchor="end" transform="translate(284.5 177.5)">80</text></g><path fill="none" stroke="#888" d="M84.5 162.5h200" pointer-events="none"/><text text-anchor="middle" transform="translate(184.5 192.5)" font-family="sans-serif" font-size="11" font-weight="700" pointer-events="none">Movie, Episodes</text></g><g class="mark-group role-axis"><path d="M84.5 32.5h-5m5 20h-5m5 20h-5m5 20h-5m5 20h-5m5 20h-5m5 20h-5" pointer-events="none" fill="none" stroke="#888"/><g class="mark-text role-axis-label" pointer-events="none" text-anchor="end" font-family="sans-serif" font-size="10"><text transform="translate(77.5 35)">Friday</text><text transform="translate(77.5 55)">Monday</text><text transform="translate(77.5 75)">Saturday</text><text transform="translate(77.5 95)">Sunday</text><text transform="translate(77.5 115)">Thursday</text><text transform="translate(77.5 135)">Tuesday</text><text transform="translate(77.5 155)">Wednesday</text></g><path fill="none" stroke="#888" d="M84.5 22.5v140" pointer-events="none"/></g><path d="M84 83h182.5v18H84zm0-40h132.5v18H84zm0 80h137.5v18H84zm0 20h147.5v18H84zm0-40h140v18H84zm0-80h192.5v18H84zm0 40h130v18H84z" fill="#eb3b5a"/><path d="M84 83h25v18H84zm0-40h12.5v18H84zm0 80h12.5v18H84zm0 20h12.5v18H84zm0-40h12.5v18H84zm0-80h7.5v18H84zm0 40h35v18H84z" fill="#fd9644"/><text text-anchor="middle" transform="translate(184 15)" font-family="sans-serif" font-size="13" font-weight="700" pointer-events="none">2019 Weekday Distribution</text></g></svg>