<?xml version="1.0" encoding="UTF-8" standalone="no"?>
<!-- Created with Inkscape (http://www.inkscape.org/) -->
<svg xmlns:dc="http://purl.org/dc/elements/1.1/" xmlns:cc="http://creativecommons.org/ns#" xmlns:rdf="http://www.w3.org/1999/02/22-rdf-syntax-ns#" xmlns:svg="http://www.w3.org/2000/svg" xmlns="http://www.w3.org/2000/svg" xmlns:sodipodi="http://sodipodi.sourceforge.net/DTD/sodipodi-0.dtd" xmlns:inkscape="http://www.inkscape.org/namespaces/inkscape" width="1010.4" height="1010.4002" id="svg2" sodipodi:version="0.32" inkscape:version="0.48.4 r9939" version="1.0" sodipodi:docname="AJAX.svg" inkscape:output_extension="org.inkscape.output.svg.inkscape">
  <defs id="defs4">
    <inkscape:perspective sodipodi:type="inkscape:persp3d" inkscape:vp_x="0 : 300.5 : 1" inkscape:vp_y="0 : 1000 : 0" inkscape:vp_z="601 : 300.5 : 1" inkscape:persp3d-origin="300.5 : 200.33333 : 1" id="perspective3380"/>
    <inkscape:perspective id="perspective3990" inkscape:persp3d-origin="375 : 250 : 1" inkscape:vp_z="750 : 375 : 1" inkscape:vp_y="0 : 1000 : 0" inkscape:vp_x="0 : 375 : 1" sodipodi:type="inkscape:persp3d"/>
  </defs>
  <sodipodi:namedview id="base" pagecolor="#ffffff" bordercolor="#666666" borderopacity="1.0" gridtolerance="10000" guidetolerance="10" objecttolerance="10" inkscape:pageopacity="0.0" inkscape:pageshadow="2" inkscape:zoom="0.44192573" inkscape:cx="568.32902" inkscape:cy="496.05349" inkscape:document-units="px" inkscape:current-layer="layer1" width="601px" height="601px" inkscape:window-width="1280" inkscape:window-height="1001" inkscape:window-x="-8" inkscape:window-y="-8" showgrid="false" fit-margin-top="0.2" fit-margin-left="0.2" fit-margin-right="0.2" fit-margin-bottom="0.2" inkscape:window-maximized="1" showguides="true" inkscape:guide-bbox="true"/>
  <metadata id="metadata7">
    <rdf:RDF>
      <cc:Work rdf:about="">
        <dc:format>image/svg+xml</dc:format>
        <dc:type rdf:resource="http://purl.org/dc/dcmitype/StillImage"/>
        <dc:title/>
      </cc:Work>
    </rdf:RDF>
  </metadata>
  <g inkscape:label="Layer 1" inkscape:groupmode="layer" id="layer1" transform="translate(1515.529,3241.075)">
    <rect style="color:#000000;fill:#000000;fill-opacity:1;fill-rule:nonzero;stroke:none;stroke-width:0.8735441;marker:none;visibility:visible;display:inline;overflow:visible" id="rect3653" width="0" height="27.202072" x="578.73834" y="298.1684" rx="249.48199" ry="27.202072"/>
    <path inkscape:connector-curvature="0" id="path3940" d="m -801.1513,-2230.8749 295.8223,-295.8221 -10e-5,-418.3556 -295.822,-295.8224 -418.3557,3e-4 -295.8222,295.8221 2e-4,418.3558 295.822,295.822 z" style="fill:#000000;fill-opacity:1;stroke:none"/>
    <path style="fill:#ffffff;fill-opacity:1;stroke:none" d="m -510.3292,-2942.9816 2e-4,414.2141 -292.8933,292.8925 -414.2135,4e-4 -292.893,-292.8936 0,-414.2134 292.8929,-292.8932 414.2137,0 z" id="path3831" inkscape:connector-curvature="0" sodipodi:nodetypes="ccccccccc"/>
    <path sodipodi:nodetypes="ccccccccc" inkscape:connector-curvature="0" id="path3045" d="m -537.3595,-2931.7853 3e-4,391.8212 -277.0595,277.0593 -391.8211,2e-4 -277.0589,-277.0596 -10e-5,-391.8209 277.059,-277.0595 391.8213,0 z" style="fill:#ff0000;fill-opacity:1;stroke:none"/>
    <path inkscape:connector-curvature="0" clip-rule="evenodd" d="m -742.63719,-2888.1308 0,304.6027 47.9298,0 0,-125.627 47.2407,0 c 49.422,0 89.4879,-40.0659 89.4879,-89.4878 0,-49.422 -40.0659,-89.4879 -89.4879,-89.4879 l -95.1705,0 z m 95.1705,43.2064 -47.2407,0 0,92.5629 47.2407,0 c 25.5612,0 46.2815,-20.7202 46.2815,-46.2814 0,-25.5596 -20.722,-46.2815 -46.2815,-46.2815 z m -260.2987,266.748 c 9.4973,0.017 18.9777,-0.81 28.3305,-2.4584 2.8431,-0.4923 5.6493,-1.1828 8.3949,-2.0667 16.6051,-5.4746 31.6441,-14.8778 43.8366,-27.408 9.0032,-9.4971 15.985,-20.7236 20.5202,-32.9984 10.0569,-26.9996 14.997,-55.6376 14.5635,-84.445 l 0,-8.2758 0,-8.2756 c 0.4335,-28.8093 -4.5066,-57.4456 -14.5635,-84.4451 -4.5352,-12.2749 -11.517,-23.5012 -20.5202,-32.9985 -12.1942,-12.5302 -27.2315,-21.9334 -43.8366,-27.408 -2.7456,-0.8855 -5.5518,-1.5761 -8.3949,-2.0667 -9.3528,-1.6484 -18.8332,-2.4701 -28.3305,-2.4584 -9.4972,-0.017 -18.9777,0.81 -28.3303,2.4584 -2.8432,0.4925 -5.6493,1.1829 -8.395,2.0667 -16.6051,5.4746 -31.6441,14.8778 -43.8366,27.408 -9.00321,9.4973 -15.98501,20.7236 -20.52031,32.9985 -10.0567,26.9995 -14.9969,55.6375 -14.5633,84.4451 l 0,8.2756 0,8.2758 c -0.4319,28.8093 4.5066,57.4454 14.5633,84.445 4.5353,12.2748 11.5171,23.5013 20.52031,32.9984 12.1942,12.5302 27.2315,21.9334 43.8366,27.408 2.7457,0.8854 5.5518,1.5761 8.395,2.0667 9.3543,1.6484 18.8331,2.4703 28.3303,2.4584 z m -330.22751,-309.9544 184.9274,0 0,43.2064 -68.4988,0 0,261.3963 -47.9299,0 0,-261.3963 -68.4987,0 0,-43.2064 z m -224.6859,245.5909 35.813,-28.9438 c 6.5398,29.4614 32.6875,50.41 62.8663,50.3664 9.4048,0.6637 18.8517,-0.3781 27.8835,-3.0767 24.4589,-10.0434 36.1439,-38.0126 26.1023,-62.4715 -1.6366,-3.9858 -3.8027,-7.7312 -6.4425,-11.1372 -3.5925,-4.7083 -8.5428,-8.2034 -14.1819,-10.0131 l -63.0125,-18.6484 c -35.5273,-12.0732 -59.6838,-45.1119 -60.4148,-82.627 0,-1.5914 0.055,-3.1843 0.1496,-4.7722 2.7876,-46.9065 43.072,-82.6724 89.9785,-79.8864 38.4192,-1.3443 74.2556,19.2835 92.3898,53.1808 l -34.6922,28.0381 c -7.6439,-21.231 -26.9845,-36.0397 -49.4741,-37.8814 -6.0895,-0.5983 -12.2244,-0.5899 -18.314,0.025 -20.789,2.5221 -36.5169,20.0128 -36.8278,40.9515 0.5797,19.1372 12.9789,35.9036 31.1064,42.0637 l 61.3489,18.119 c 14.3719,4.6007 27.0315,13.4124 36.3356,25.2941 6.7145,8.7444 11.7875,18.6332 14.9683,29.1891 14.5182,48.1617 -12.7553,98.975 -60.917,113.4914 -11.791,2.5994 -23.8575,3.7288 -35.9239,3.364 -42.852,0.066 -81.6491,-25.3275 -98.7415,-64.6256 l 0,0 z m 554.91341,21.1571 c 5.9787,0.017 11.9489,-0.4302 17.862,-1.3173 1.7425,-0.3059 3.4699,-0.6872 5.1788,-1.1427 1.7038,-0.5815 3.4077,-1.1644 5.1099,-1.7492 7.9295,-3.3473 15.1196,-8.2251 21.1604,-14.3552 5.0612,-5.5617 9.0049,-12.0446 11.6128,-19.0969 7.9413,-21.6125 11.8464,-44.4987 11.5238,-67.5209 l 0,-9.4301 0,-9.0906 c 0.3226,-23.0222 -3.5825,-45.9084 -11.5238,-67.5208 -2.6095,-7.0524 -6.5516,-13.5368 -11.6128,-19.097 -6.0408,-6.1316 -13.2309,-11.0096 -21.1604,-14.3551 -1.7022,-0.5864 -3.4061,-1.1693 -5.1099,-1.7492 -1.7089,-0.4571 -3.4363,-0.8386 -5.1788,-1.1427 -5.9131,-0.8872 -11.8833,-1.3274 -17.862,-1.3173 -5.9785,-0.017 -11.9488,0.4301 -17.8619,1.3173 -1.7425,0.3058 -3.4699,0.6874 -5.1788,1.1427 -1.7039,0.5814 -3.4077,1.1645 -5.1098,1.7492 -7.9295,3.3472 -15.1197,8.2252 -21.1606,14.3551 -5.0611,5.5621 -9.0048,12.0446 -11.6127,19.097 -7.9412,21.6124 -11.8464,44.4986 -11.5237,67.5208 l 0,9.0906 0,9.4301 c -0.3227,23.0222 3.5825,45.9086 11.5237,67.5209 2.6096,7.0523 6.5516,13.5367 11.6127,19.0969 6.0409,6.1316 13.2311,11.0096 21.1606,14.3552 1.7021,0.5863 3.4059,1.1696 5.1098,1.7492 1.7089,0.457 3.4363,0.8386 5.1788,1.1427 5.9131,0.8871 11.8834,1.3275 17.8619,1.3173 z" id="path15" style="fill:#ffffff;fill-rule:evenodd;stroke:none" sodipodi:nodetypes="ccccssscccccssccccccccccccccccccccccccccccccccccccccccccccccccccccccccccccccccccccccccccccccccccccccccccccc"/>
  </g>
</svg>