<?xml version="1.0" encoding="UTF-8" standalone="no"?>
<svg xmlns:dc="http://purl.org/dc/elements/1.1/" xmlns:cc="http://creativecommons.org/ns#" xmlns:rdf="http://www.w3.org/1999/02/22-rdf-syntax-ns#" xmlns:svg="http://www.w3.org/2000/svg" xmlns="http://www.w3.org/2000/svg" xmlns:sodipodi="http://sodipodi.sourceforge.net/DTD/sodipodi-0.dtd" xmlns:inkscape="http://www.inkscape.org/namespaces/inkscape" width="1004.3997" height="1004.3998" viewBox="-50 -30 100.43972 100.44" id="svg2" version="1.1" inkscape:version="0.48.4 r9939" sodipodi:docname="AJAX.svg">
  <metadata id="metadata14">
    <rdf:RDF>
      <cc:Work rdf:about="">
        <dc:format>image/svg+xml</dc:format>
        <dc:type rdf:resource="http://purl.org/dc/dcmitype/StillImage"/>
        <dc:title/>
      </cc:Work>
    </rdf:RDF>
  </metadata>
  <defs id="defs12"/>
  <sodipodi:namedview pagecolor="#ffffff" bordercolor="#666666" borderopacity="1" objecttolerance="10" gridtolerance="10" guidetolerance="10" inkscape:pageopacity="0" inkscape:pageshadow="2" inkscape:window-width="1280" inkscape:window-height="1001" id="namedview10" showgrid="false" fit-margin-top="2.2" fit-margin-left="2.2" fit-margin-right="2.2" fit-margin-bottom="2.2" inkscape:zoom="0.5" inkscape:cx="594.45281" inkscape:cy="255.50617" inkscape:window-x="-8" inkscape:window-y="-8" inkscape:window-maximized="1" inkscape:current-layer="svg2" showguides="true" inkscape:guide-bbox="true" inkscape:showpageshadow="true" borderlayer="false" showborder="true"/>
  <path inkscape:connector-curvature="0" id="path3124-1" d="m 0.21988382,-29.78 c -27.61426482,0 -50.00001482,22.385749 -50.00001482,50.000009 0,27.614225 22.385751,49.999986 50.00001482,49.999986 C 27.834085,70.219995 50.219847,47.834234 50.219847,20.220009 50.219847,-7.394251 27.834085,-29.78 0.21988382,-29.78 z" style="fill:#ffffff;fill-opacity:1;stroke:#000000;stroke-opacity:1;stroke-width:0.40000005999999999;stroke-miterlimit:4;stroke-dasharray:none" sodipodi:nodetypes="sssss"/>
  <path sodipodi:nodetypes="sssss" style="fill:#ff0000;fill-opacity:1;stroke:none" d="m 0.21989882,-27.077045 c -26.12144582,0 -47.29702982,21.175581 -47.29702982,47.297023 0,26.121412 21.175583,47.297017 47.29702982,47.297017 26.12138618,0 47.29698218,-21.175605 47.29698218,-47.297017 0,-26.121442 -21.175596,-47.297023 -47.29698218,-47.297023 z" id="path4310" inkscape:connector-curvature="0"/>
  <path inkscape:connector-curvature="0" id="path4312" d="m 0.21989682,-17.617842 c -20.89726782,0 -37.83782682,16.9405555 -37.83782682,37.83782 0,20.897236 16.940559,37.837817 37.83782682,37.837817 20.89722018,0 37.83778118,-16.940581 37.83778118,-37.837817 0,-20.8972645 -16.940565,-37.83782 -37.83778118,-37.83782 z" style="fill:#ffffff;fill-opacity:1;stroke:none" sodipodi:nodetypes="sssss"/>
</svg>