<?xml version="1.0" encoding="UTF-8" standalone="no"?>
<!-- Created with Inkscape (http://www.inkscape.org/) -->
<svg xmlns:dc="http://purl.org/dc/elements/1.1/" xmlns:cc="http://creativecommons.org/ns#" xmlns:rdf="http://www.w3.org/1999/02/22-rdf-syntax-ns#" xmlns:svg="http://www.w3.org/2000/svg" xmlns="http://www.w3.org/2000/svg" xmlns:sodipodi="http://sodipodi.sourceforge.net/DTD/sodipodi-0.dtd" xmlns:inkscape="http://www.inkscape.org/namespaces/inkscape" width="602.59998" height="602.59998" id="svg2" sodipodi:version="0.32" inkscape:version="0.48.4 r9939" version="1.0" sodipodi:docname="Pentagon_warning_sign.svg" inkscape:output_extension="org.inkscape.output.svg.inkscape" sodipodi:modified="true">
  <defs id="defs4"/>
  <sodipodi:namedview id="base" pagecolor="#ffffff" bordercolor="#666666" borderopacity="1.0" inkscape:pageopacity="0.0" inkscape:pageshadow="2" inkscape:zoom="0.98994949" inkscape:cx="368.23372" inkscape:cy="313.97208" inkscape:document-units="px" inkscape:current-layer="layer2" inkscape:window-width="1920" inkscape:window-height="1057" inkscape:window-x="-8" inkscape:window-y="-8" showguides="true" inkscape:guide-bbox="true" showgrid="false" fit-margin-top="1.3" fit-margin-left="1.3" fit-margin-right="1.3" fit-margin-bottom="1.3" inkscape:window-maximized="1"/>
  <metadata id="metadata7">
    <rdf:RDF>
      <cc:Work rdf:about="">
        <dc:format>image/svg+xml</dc:format>
        <dc:type rdf:resource="http://purl.org/dc/dcmitype/StillImage"/>
        <dc:title/>
      </cc:Work>
    </rdf:RDF>
  </metadata>
  <g inkscape:groupmode="layer" id="layer2" inkscape:label="Dessin" transform="translate(1112.0211,315.14507)">
    <g id="g3501" transform="matrix(1.25,0,0,-1.25,-212.4009,47.565979)" style="stroke:none"/>
    <g id="g3505" transform="matrix(1.25,0,0,-1.25,-199.2509,25.588479)" style="stroke:none"/>
    <g id="g3509" transform="matrix(1.25,0,0,-1.25,-217.4834,33.662229)" style="stroke:none"/>
    <path inkscape:connector-curvature="0" stroke-miterlimit="10" d="m -1053.9644,286.15489 486.48656,0 c 31.34611,0 56.75671,-25.41061 56.75671,-56.7567 l 0,-486.48656 c 0,-31.3461 -25.4106,-56.7567 -56.75671,-56.7567 l -486.48656,0 c -31.3461,0 -56.7567,25.4106 -56.7567,56.7567 l 0,486.48656 c 0,31.34609 25.4106,56.7567 56.7567,56.7567 z" id="path42" style="fill:#ffffff;stroke:#000000;stroke-opacity:1;stroke-width:2;stroke-miterlimit:10;stroke-dasharray:none"/>
    <path style="fill:#0000ff;fill-opacity:1;fill-rule:evenodd;stroke:none" d="m -567.4722,-297.62508 c 22.38955,0 40.53107,18.14153 40.53107,40.53107 l 0,486.49785 c 0,22.38954 -18.14152,40.53107 -40.53107,40.53107 l -486.4978,0 c -22.3896,0 -40.5311,-18.14153 -40.5311,-40.53107 l 0,-486.49785 c 0,-22.38954 18.1415,-40.53107 40.5311,-40.53107 z" id="path36" inkscape:connector-curvature="0" sodipodi:nodetypes="sssssssss"/>
    <path inkscape:connector-curvature="0" style="fill:#ffffff;fill-rule:evenodd;stroke:none" id="path3014" d="m -810.72112,-214.59051 -231.79998,401.49043 463.59997,0 z" clip-rule="evenodd" sodipodi:nodetypes="cccc"/>
    <path style="fill:#000000;fill-rule:evenodd;stroke:none" inkscape:connector-curvature="0" clip-rule="evenodd" d="m -761.68687,154.44525 -0.61129,-3.866 c 8.33618,0.1214 15.19173,-6.53791 15.31219,-14.87407 0.0368,-2.51748 -0.55688,-5.00377 -1.72686,-7.23304 l -23.33684,-44.661443 h 34.85993 l 21.70817,70.634553 h -46.2053 l 0,0 z m 75.40091,0 h 42.85697 l -38.13063,-70.634553 h -33.08931 l 28.36297,70.634553 0,0 z m -172.68047,-4.98329 -0.78895,4.98329 h -46.20531 l 21.70817,-70.634553 h 24.54358 l -7.79716,49.657263 c -1.04323,6.63961 2.44166,13.16589 8.53967,15.994 l 0,0 z m -76.18987,4.98329 h -42.85696 l 38.13063,-70.634553 h 33.08929 l -28.36296,70.634553 0,0 z m 140.27299,-49.32964 2.9986,49.32877 h -37.67192 l 4.29346,-70.634553 h 21.57432 l 1.77244,7.77747 7.0331,13.528313 0,0 z m -38.05737,-23.621583 23.00046,-43.2398 11.83532,51.93465 26.20691,50.402373 c 2.82002,5.42328 9.50167,7.5329 14.92494,4.71376 5.42329,-2.81914 7.53296,-9.50166 4.71376,-14.92494 -0.009,-0.0134 -0.0134,-0.0267 -0.0207,-0.0395 l -25.00212,-47.850073 -10.72966,-46.64968 v -22.4516 h -44.04916 v 19.48605 l -22.09285,41.53428 -9.37131,59.682763 c -0.94513,6.01669 3.16718,11.6604 9.18388,12.60546 6.01668,0.94506 11.66044,-3.16717 12.60552,-9.18394 l 8.79487,-56.020113 0,0 z M -788.01336,7.8832169 V -37.941053 l 21.80994,19.82793 V 7.7047369 c 0,4.5612001 3.69736,8.2594201 8.25933,8.2594201 4.56127,0 8.25942,-3.69822 8.25942,-8.2594201 V -23.971883 c 0,-2.08822 -0.81117,-4.09532 -2.26224,-5.59728 l -31.2081,-32.3031 c -12.67778,-13.12227 -33.59178,-13.48274 -46.71398,-0.80588 -1.24667,1.20478 -2.39709,2.5051 -3.43939,3.89015 l -50.51218,67.0977999 c -3.04132,3.6491801 -2.54787,9.0723901 1.10131,12.1137501 3.64903,3.04138 9.07239,2.54787 12.11377,-1.10117 0.12398,-0.14822 0.2427,-0.3008 0.35606,-0.45784 l 38.18683,-49.09765 V 7.8823469 h 44.04923 l 0,0 z M -795.7222,-97.406783 c 0,-12.163817 -9.86032,-22.024137 -22.02413,-22.024137 -12.16368,0 -22.02414,9.86032 -22.02414,22.024137 0,12.16367 9.86046,22.02415 22.02414,22.02415 12.16381,0 22.02413,-9.86048 22.02413,-22.02415 l 0,0 z" id="path24"/>
  </g>
  <g inkscape:label="Calque 1" inkscape:groupmode="layer" id="layer1" transform="translate(1113.3068,305.71823)"/>
</svg>