<svg xmlns="http://www.w3.org/2000/svg" viewBox="0 0 500 300"><path fill="none" stroke="#111113" stroke-miterlimit="10" d="M44.5 66.4V271m0 1v7.6m38-213.2V271m0 1v7.6m38-213.2V271m0 1v7.6m38-213.2V271m0 1v7.6m38-213.2V271m0 1v7.6m38-213.2V271m0 1v7.6m38-213.2V271m0 1v7.6m38-213.2V271m0 1v7.6m38-213.2V271m0 1v7.6m38-213.2V271m0 1v7.6m38-213.2V271m0 1v7.6m38-213.2V271m0 1v7.6m38-213.2V271m0 1v7.6M45 271.5h455m-463.98 0H44m1-41h455m-463.98 0H44m1-41h455m-463.98 0H44m1-41h455m-463.98 0H44m1-41h455m-463.98 0H44m1-41h455m-463.98 0H44"/><path fill="#111112" d="M191.884 19.03h-1.824q-.012.792.288 1.368t.81.948 1.176.546 1.374.174q.876 0 1.542-.204t1.116-.57.678-.87.228-1.092q0-.72-.306-1.182t-.726-.738-.846-.402-.666-.174q-.804-.204-1.302-.336t-.78-.264-.378-.288-.096-.408q0-.276.12-.456t.306-.3.414-.168.456-.048q.348 0 .642.06t.522.204.366.396.162.636h1.824q0-.744-.282-1.266t-.762-.858-1.098-.486-1.29-.15q-.576 0-1.152.156t-1.032.48-.738.81-.282 1.146q0 .588.222 1.002t.582.69.816.45.936.294q.468.132.924.24t.816.252.582.36.222.564q0 .324-.168.534t-.42.33-.54.162-.54.042q-.372 0-.72-.09t-.606-.276-.414-.486-.156-.732m10.548-1.176h1.668q-.036-.6-.288-1.038t-.654-.732-.912-.438-1.062-.144q-.756 0-1.344.252t-.996.702-.618 1.068-.21 1.338q0 .696.228 1.278t.636 1.002.99.654 1.278.234q1.236 0 2.028-.648t.96-1.884h-1.644q-.084.576-.414.918t-.942.342q-.396 0-.672-.18t-.438-.462-.234-.63-.072-.684q0-.348.072-.702t.246-.648.45-.48.684-.186q1.092 0 1.26 1.068m2.664-2.184v6.204h1.704v-2.796q0-.42.084-.78t.282-.63.522-.426.792-.156q.156 0 .324.018t.288.042v-1.584q-.204-.06-.372-.06-.324 0-.624.096t-.564.27-.468.42-.324.534h-.024V15.67zm5.964 3.108q0-.372.072-.732t.246-.636.462-.45.72-.174.726.174.468.45.246.636.072.732-.072.726-.246.636-.468.45-.726.168-.72-.168-.462-.45-.246-.636-.072-.726m-1.704 0q0 .744.228 1.344t.648 1.026 1.008.654 1.32.228 1.326-.228 1.014-.654.648-1.026.228-1.344-.228-1.35-.648-1.032-1.014-.66-1.326-.234-1.32.234-1.008.66-.648 1.032-.228 1.35m12.072 0q0 .384-.084.744t-.264.636-.45.438-.654.162q-.372 0-.648-.162t-.456-.438-.264-.636-.084-.744q0-.396.084-.756t.264-.636.456-.438.648-.162q.384 0 .654.162t.45.438.264.636.084.756m-4.548-5.472v8.568h1.62v-.792h.024q.276.516.816.732t1.224.216q.468 0 .924-.192t.822-.588.594-1.014.228-1.47-.228-1.47-.594-1.014-.822-.588-.924-.192q-.576 0-1.11.222t-.846.702h-.024v-3.12zm11.88 5.472q0 .384-.084.744t-.264.636-.45.438-.654.162q-.372 0-.648-.162t-.456-.438-.264-.636-.084-.744q0-.396.084-.756t.264-.636.456-.438.648-.162q.384 0 .654.162t.45.438.264.636.084.756m-4.548-5.472v8.568h1.62v-.792h.024q.276.516.816.732t1.224.216q.468 0 .924-.192t.822-.588.594-1.014.228-1.47-.228-1.47-.594-1.014-.822-.588-.924-.192q-.576 0-1.11.222t-.846.702h-.024v-3.12zm7.38 0v8.568h1.704v-8.568zm7.224 4.8h-2.772q.012-.18.078-.408t.228-.432.432-.342.678-.138q.624 0 .93.336t.426.984m-2.772 1.08h4.476q.048-.72-.12-1.38t-.546-1.176-.966-.822-1.38-.306q-.708 0-1.29.252t-1.002.69-.648 1.038-.228 1.296q0 .72.222 1.32t.63 1.032.996.666 1.32.234q1.056 0 1.8-.48t1.104-1.596h-1.5q-.084.288-.456.546t-.888.258q-.72 0-1.104-.372t-.42-1.2m6.804.672h-1.62q.024.624.282 1.038t.66.666.918.36 1.056.108q.528 0 1.038-.102t.906-.354.642-.666.246-1.026q0-.432-.168-.726t-.444-.492-.63-.318-.726-.204q-.36-.084-.708-.156t-.618-.162-.438-.234-.168-.372q0-.192.096-.306t.234-.174.306-.078.312-.018q.456 0 .792.174t.372.666h1.62q-.048-.576-.294-.954t-.618-.606-.846-.324-.978-.096-.984.09-.864.312-.618.606-.234.984q0 .408.168.69t.444.468.63.3.726.198q.912.192 1.422.384t.51.576q0 .228-.108.378t-.27.24-.36.132-.378.042q-.252 0-.486-.06t-.414-.186-.294-.324-.114-.474m10.524-2.52V14.77h1.464q.324 0 .624.048t.528.186.366.39.138.66-.138.66-.366.39-.528.186-.624.048zm-1.884-4.032v8.568h1.884v-3.072h1.98q.804 0 1.368-.234t.918-.618.516-.882.162-1.014q0-.528-.162-1.02t-.516-.876-.918-.618-1.368-.234zm12 4.8h-2.772q.012-.18.078-.408t.228-.432.432-.342.678-.138q.624 0 .93.336t.426.984m-2.772 1.08h4.476q.048-.72-.12-1.38t-.546-1.176-.966-.822-1.38-.306q-.708 0-1.29.252t-1.002.69-.648 1.038-.228 1.296q0 .72.222 1.32t.63 1.032.996.666 1.32.234q1.056 0 1.8-.48t1.104-1.596h-1.5q-.084.288-.456.546t-.888.258q-.72 0-1.104-.372t-.42-1.2m5.484-3.516v6.204h1.704v-2.796q0-.42.084-.78t.282-.63.522-.426.792-.156q.156 0 .324.018t.288.042v-1.584q-.204-.06-.372-.06-.324 0-.624.096t-.564.27-.468.42-.324.534h-.024V15.67zm8.184-2.364v8.568h1.764v-6.012h.024l2.1 6.012h1.452l2.1-6.072h.024v6.072h1.764v-8.568h-2.652l-1.896 5.892h-.024l-2.004-5.892zm12.216 5.472q0-.372.072-.732t.246-.636.462-.45.72-.174.726.174.468.45.246.636.072.732-.072.726-.246.636-.468.45-.726.168-.72-.168-.462-.45-.246-.636-.072-.726m-1.704 0q0 .744.228 1.344t.648 1.026 1.008.654 1.32.228 1.326-.228 1.014-.654.648-1.026.228-1.344-.228-1.35-.648-1.032-1.014-.66-1.326-.234-1.32.234-1.008.66-.648 1.032-.228 1.35m7.524-3.108v6.204h1.704v-3.252q0-.948.312-1.362t1.008-.414q.612 0 .852.378t.24 1.146v3.504h1.704v-3.816q0-.576-.102-1.05t-.354-.804-.69-.516-1.122-.186q-.54 0-1.056.246t-.84.786h-.036v-.864zm9.276 0v-1.86h-1.704v1.86h-1.032v1.14h1.032v3.66q0 .468.156.756t.426.444.624.21.75.054q.252 0 .516-.012t.48-.048v-1.32q-.12.024-.252.036t-.276.012q-.432 0-.576-.144t-.144-.576V16.81h1.248v-1.14zm2.064-2.364v8.568h1.704v-3.252q0-.948.312-1.362t1.008-.414q.612 0 .852.378t.24 1.146v3.504h1.704v-3.816q0-.576-.102-1.05t-.354-.804-.69-.516-1.122-.186q-.48 0-.984.246t-.828.786h-.036v-3.228z"/><clipPath id="scrobbles-month__a"><path d="M0 34.4h500v32H0z"/></clipPath><g clip-path="url(#scrobbles-month__a)"><path fill="#000001" d="M172.31 44.4h40v12h-40z"/></g><clipPath id="scrobbles-month__b"><path d="M0 34.4h500v32H0z"/></clipPath><g clip-path="url(#scrobbles-month__b)"><path fill="#666" d="M218.838 49.746h1.02q-.012-.384.078-.762t.294-.678.522-.486.762-.186q.336 0 .636.108t.522.312.354.486.132.63q0 .444-.138.78t-.408.624-.678.57-.948.618q-.444.264-.852.564t-.732.696-.534.93-.27 1.29h5.556v-.9h-4.368q.072-.396.306-.702t.564-.57.726-.498.792-.474q.396-.252.768-.528t.66-.618.462-.774.174-.996q0-.6-.21-1.056t-.57-.762-.846-.468-1.038-.162q-.672 0-1.2.228t-.882.63-.522.954-.132 1.2m7.728 1.308q0-.312.006-.69t.06-.756.156-.738.3-.63.498-.438.732-.168.732.168.498.438.3.63.156.738.06.756.006.69q0 .48-.03 1.074t-.192 1.116-.522.882-1.008.36-1.008-.36-.522-.882-.192-1.116-.03-1.074m-1.08.012q0 .468.024.972t.12.984.276.906.492.75.786.51 1.134.186q.672 0 1.14-.186t.78-.51.492-.75.276-.906.12-.984.024-.972-.024-.972-.12-.984-.276-.912-.492-.756-.786-.516-1.134-.192-1.134.192-.786.516-.492.756-.276.912-.12.984-.024.972m6.696-1.32h1.02q-.012-.384.078-.762t.294-.678.522-.486.762-.186q.336 0 .636.108t.522.312.354.486.132.63q0 .444-.138.78t-.408.624-.678.57-.948.618q-.444.264-.852.564t-.732.696-.534.93-.27 1.29h5.556v-.9h-4.368q.072-.396.306-.702t.564-.57.726-.498.792-.474q.396-.252.768-.528t.66-.618.462-.774.174-.996q0-.6-.21-1.056t-.57-.762-.846-.468-1.038-.162q-.672 0-1.2.228t-.882.63-.522.954-.132 1.2m10.212 2.604h-2.856l2.832-4.164h.024zm.96 0v-5.616h-.816l-3.876 5.532v.984h3.732v1.992h.96V53.25h1.152v-.9z"/></g><clipPath id="scrobbles-month__c"><path d="M0 34.4h500v32H0z"/></clipPath><g clip-path="url(#scrobbles-month__c)"><path fill="#000002" d="M255 44.4h40v12h-40z"/></g><clipPath id="scrobbles-month__d"><path d="M0 34.4h500v32H0z"/></clipPath><g clip-path="url(#scrobbles-month__d)"><path fill="#666" d="M301.528 49.746h1.02q-.012-.384.078-.762t.294-.678.522-.486.762-.186q.336 0 .636.108t.522.312.354.486.132.63q0 .444-.138.78t-.408.624-.678.57-.948.618q-.444.264-.852.564t-.732.696-.534.93-.27 1.29h5.556v-.9h-4.368q.072-.396.306-.702t.564-.57.726-.498.792-.474q.396-.252.768-.528t.66-.618.462-.774.174-.996q0-.6-.21-1.056t-.57-.762-.846-.468-1.038-.162q-.672 0-1.2.228t-.882.63-.522.954-.132 1.2m7.728 1.308q0-.312.006-.69t.06-.756.156-.738.3-.63.498-.438.732-.168.732.168.498.438.3.63.156.738.06.756.006.69q0 .48-.03 1.074t-.192 1.116-.522.882-1.008.36-1.008-.36-.522-.882-.192-1.116-.03-1.074m-1.08.012q0 .468.024.972t.12.984.276.906.492.75.786.51 1.134.186q.672 0 1.14-.186t.78-.51.492-.75.276-.906.12-.984.024-.972-.024-.972-.12-.984-.276-.912-.492-.756-.786-.516-1.134-.192-1.134.192-.786.516-.492.756-.276.912-.12.984-.024.972m6.696-1.32h1.02q-.012-.384.078-.762t.294-.678.522-.486.762-.186q.336 0 .636.108t.522.312.354.486.132.63q0 .444-.138.78t-.408.624-.678.57-.948.618q-.444.264-.852.564t-.732.696-.534.93-.27 1.29h5.556v-.9h-4.368q.072-.396.306-.702t.564-.57.726-.498.792-.474q.396-.252.768-.528t.66-.618.462-.774.174-.996q0-.6-.21-1.056t-.57-.762-.846-.468-1.038-.162q-.672 0-1.2.228t-.882.63-.522.954-.132 1.2m8.76.636v.864q.288-.036.612-.036.384 0 .714.102t.57.312.384.516.144.702q0 .384-.15.69t-.402.516-.588.324-.708.114q-.876 0-1.332-.522t-.48-1.35h-1.02q-.012.66.186 1.176t.57.87.9.534 1.176.18q.6 0 1.134-.162t.93-.486.63-.81.234-1.122q0-.768-.378-1.332t-1.158-.732v-.024q.504-.228.84-.672t.336-1.02q0-.588-.198-1.02t-.546-.708-.822-.414-1.026-.138q-.636 0-1.122.204t-.81.564-.498.864-.198 1.116h1.02q0-.372.096-.708t.294-.588.504-.402.714-.15q.648 0 1.08.342t.432 1.026q0 .336-.132.6t-.354.438-.516.264-.618.09h-.336q-.048 0-.108-.012"/></g><path fill="none" stroke="#000" stroke-miterlimit="10" stroke-opacity=".102" d="M44 271.5h457"/><clipPath id="scrobbles-month__e"><path d="M0 271.6h500V300H0z"/></clipPath><g clip-path="url(#scrobbles-month__e)"><path fill="#111112" d="M58.64 292.506v-6.432H57.5v6.264q0 .708-.295 1.128-.294.42-1.074.42-.42 0-.69-.126t-.42-.354-.21-.54-.06-.684v-.36h-1.14v.528q0 1.224.648 1.854t1.848.63q.72 0 1.206-.198t.78-.528.42-.75.126-.852m7.2 2.112q-.265.156-.733.156-.396 0-.63-.222t-.234-.726q-.42.504-.978.726t-1.206.222q-.42 0-.798-.096t-.654-.3-.438-.534-.162-.798q0-.528.18-.864t.474-.546.672-.318.774-.18q.42-.084.798-.126t.666-.12.456-.228.168-.438q0-.336-.126-.54t-.324-.312-.444-.144-.486-.036q-.648 0-1.08.246t-.468.93h-1.02q.024-.576.24-.972t.576-.642.822-.354.99-.108q.42 0 .834.06t.75.246.54.522.204.876v3.192q0 .36.042.528t.282.168q.132 0 .312-.06zm-1.657-3.18q-.192.144-.504.21t-.654.108-.69.096-.624.174-.45.342-.174.606q0 .252.102.426t.264.282.378.156.456.048q.504 0 .864-.138t.588-.348.336-.456.108-.462zm2.604-3v6.204h1.02v-3.504q0-.42.114-.774t.342-.618.57-.408.81-.144q.588 0 .924.336t.336.912v4.2h1.02v-4.08q0-.504-.102-.918t-.354-.714-.66-.468-1.02-.168q-1.38 0-2.016 1.128h-.024v-.984z"/></g><clipPath id="scrobbles-month__f"><path d="M0 271.6h500V300H0z"/></clipPath><g clip-path="url(#scrobbles-month__f)"><path fill="#111112" d="M91.731 286.074v8.568h1.14v-3.924h3.936v-.96h-3.936v-2.724h4.488v-.96zm11.028 4.872h-3.564q.024-.36.156-.678t.36-.558.546-.378.714-.138q.384 0 .702.138t.552.372.372.558.162.684m.984 1.728h-1.008q-.132.612-.546.912t-1.062.3q-.504 0-.876-.168t-.612-.45-.348-.648-.096-.774h4.644q.024-.564-.102-1.188t-.456-1.152-.876-.87-1.374-.342q-.636 0-1.17.24t-.924.672-.606 1.02-.216 1.296q.024.708.21 1.308t.558 1.032.918.672 1.29.24q1.056 0 1.752-.528t.9-1.572m1.188-6.6v8.568h1.02v-.828h.024q.168.276.414.462t.522.294.558.156.51.048q.708 0 1.242-.252t.888-.69.528-1.026.174-1.248-.18-1.248-.534-1.038-.888-.714-1.254-.264q-.648 0-1.188.234t-.792.75h-.024v-3.204zm4.8 5.412q0 .456-.096.888t-.312.768-.57.54-.882.204-.9-.198-.606-.522-.342-.75-.108-.882q0-.432.102-.852t.33-.75.588-.534.876-.204q.492 0 .858.192t.6.516.348.738.114.846"/></g><clipPath id="scrobbles-month__g"><path d="M0 271.6h500V300H0z"/></clipPath><g clip-path="url(#scrobbles-month__g)"><path fill="#111112" d="M129.53 286.074v8.568h1.08v-7.128h.025l2.676 7.128h.972l2.676-7.128h.024v7.128h1.08v-8.568h-1.56l-2.712 7.2-2.7-7.2zm15.757 8.544q-.264.156-.732.156-.396 0-.63-.222t-.234-.726q-.42.504-.978.726t-1.206.222q-.42 0-.798-.096t-.654-.3-.438-.534-.162-.798q0-.528.18-.864t.474-.546.672-.318.774-.18q.42-.084.798-.126t.666-.12.456-.228.168-.438q0-.336-.126-.54t-.324-.312-.444-.144-.486-.036q-.648 0-1.08.246t-.468.93h-1.02q.024-.576.24-.972t.576-.642.822-.354.99-.108q.42 0 .834.06t.75.246.54.522.204.876v3.192q0 .36.042.528t.282.168q.132 0 .312-.06zm-1.656-3.18q-.192.144-.504.21t-.654.108-.69.096-.624.174-.45.342-.174.606q0 .252.102.426t.264.282.378.156.456.048q.504 0 .864-.138t.588-.348.336-.456.108-.462zm2.568-3v6.204h1.02v-2.76q0-.6.12-1.062t.384-.786.696-.492 1.044-.168v-1.08q-.828-.024-1.368.336t-.912 1.116h-.024v-1.308z"/></g><clipPath id="scrobbles-month__h"><path d="M0 271.6h500V300H0z"/></clipPath><g clip-path="url(#scrobbles-month__h)"><path fill="#111112" d="m169.98 291.102 1.453-3.996h.024l1.428 3.996zm.853-5.028-3.336 8.568h1.164l.96-2.58h3.624l.936 2.58h1.26l-3.348-8.568zm5.316 2.364v8.568h1.02v-3.192h.024q.168.276.414.462t.522.294.558.156.51.048q.708 0 1.242-.252t.888-.69.528-1.026.174-1.248-.18-1.248-.534-1.038-.888-.714-1.254-.264q-.648 0-1.188.234t-.792.75h-.024v-.84zm4.8 3.048q0 .456-.096.888t-.312.768-.57.54-.882.204-.9-.198-.606-.522-.342-.75-.108-.882q0-.432.102-.852t.33-.75.588-.534.876-.204q.492 0 .858.192t.6.516.348.738.114.846m2.244-3.048v6.204h1.02v-2.76q0-.6.12-1.062t.384-.786.696-.492 1.044-.168v-1.08q-.828-.024-1.368.336t-.912 1.116h-.024v-1.308z"/></g><clipPath id="scrobbles-month__i"><path d="M0 271.6h500V300H0z"/></clipPath><g clip-path="url(#scrobbles-month__i)"><path fill="#111112" d="M204.523 286.074v8.568h1.08v-7.128h.024l2.676 7.128h.972l2.676-7.128h.024v7.128h1.08v-8.568h-1.56l-2.712 7.2-2.7-7.2zm15.756 8.544q-.264.156-.732.156-.396 0-.63-.222t-.234-.726q-.42.504-.978.726t-1.206.222q-.42 0-.798-.096t-.654-.3-.438-.534-.162-.798q0-.528.18-.864t.474-.546.672-.318.774-.18q.42-.084.798-.126t.666-.12.456-.228.168-.438q0-.336-.126-.54t-.324-.312-.444-.144-.486-.036q-.648 0-1.08.246t-.468.93h-1.02q.024-.576.24-.972t.576-.642.822-.354.99-.108q.42 0 .834.06t.75.246.54.522.204.876v3.192q0 .36.042.528t.282.168q.132 0 .312-.06zm-1.656-3.18q-.192.144-.504.21t-.654.108-.69.096-.624.174-.45.342-.174.606q0 .252.102.426t.264.282.378.156.456.048q.504 0 .864-.138t.588-.348.336-.456.108-.462zm5.04 4.032q-.18.456-.354.768t-.384.51-.468.288-.594.09q-.18 0-.36-.024t-.348-.084v-.936q.132.06.306.102t.294.042q.312 0 .522-.15t.318-.426l.42-1.044-2.46-6.168h1.152l1.812 5.076h.024l1.74-5.076h1.08z"/></g><clipPath id="scrobbles-month__j"><path d="M0 271.6h500V300H0z"/></clipPath><g clip-path="url(#scrobbles-month__j)"><path fill="#111112" d="M248.518 292.506v-6.432h-1.14v6.264q0 .708-.294 1.128t-1.074.42q-.42 0-.69-.126t-.42-.354-.21-.54-.06-.684v-.36h-1.14v.528q0 1.224.648 1.854t1.848.63q.72 0 1.206-.198t.78-.528.42-.75.126-.852m6.84 2.136v-6.204h-1.02v3.504q0 .42-.114.774t-.342.618-.57.408-.81.144q-.588 0-.924-.336t-.336-.912v-4.2h-1.02v4.08q0 .504.102.918t.354.714.66.462 1.02.162q.684 0 1.188-.27t.828-.846h.024v.984zm1.536-6.204v6.204h1.02v-3.504q0-.42.114-.774t.342-.618.57-.408.81-.144q.588 0 .924.336t.336.912v4.2h1.02v-4.08q0-.504-.102-.918t-.354-.714-.66-.468-1.02-.168q-1.38 0-2.016 1.128h-.024v-.984z"/></g><clipPath id="scrobbles-month__k"><path d="M0 271.6h500V300H0z"/></clipPath><g clip-path="url(#scrobbles-month__k)"><path fill="#111112" d="M288.52 292.506v-6.432h-1.14v6.264q0 .708-.294 1.128t-1.074.42q-.42 0-.69-.126t-.42-.354-.21-.54-.06-.684v-.36h-1.14v.528q0 1.224.648 1.854t1.848.63q.72 0 1.206-.198t.78-.528.42-.75.126-.852m6.84 2.136v-6.204h-1.02v3.504q0 .42-.114.774t-.342.618-.57.408-.81.144q-.588 0-.924-.336t-.336-.912v-4.2h-1.02v4.08q0 .504.102.918t.354.714.66.462 1.02.162q.684 0 1.188-.27t.828-.846h.024v.984zm1.596-8.568v8.568h1.02v-8.568z"/></g><clipPath id="scrobbles-month__l"><path d="M0 271.6h500V300H0z"/></clipPath><g clip-path="url(#scrobbles-month__l)"><path fill="#111112" d="m320.752 291.102 1.452-3.996h.024l1.428 3.996zm.852-5.028-3.336 8.568h1.164l.96-2.58h3.624l.936 2.58h1.26l-3.348-8.568zm10.416 8.568v-6.204H331v3.504q0 .42-.114.774t-.342.618-.57.408-.81.144q-.588 0-.924-.336t-.336-.912v-4.2h-1.02v4.08q0 .504.102.918t.354.714.66.462 1.02.162q.684 0 1.188-.27t.828-.846h.024v.984zm6.888-.528v-5.676h-.96v.888h-.012q-.276-.516-.768-.774t-1.08-.258q-.804 0-1.356.306t-.888.78-.48 1.056-.144 1.134q0 .636.174 1.206t.522.996.864.678 1.212.252q.6 0 1.134-.27t.798-.846h.024v.408q0 .516-.102.948t-.33.738-.576.48-.852.174q-.252 0-.528-.054t-.51-.174-.396-.312-.174-.468h-1.02q.024.504.264.852t.606.564.816.312.882.096q1.488 0 2.184-.756t.696-2.28m-2.856-.3q-.504 0-.84-.21t-.54-.552-.288-.762-.084-.84q0-.444.102-.852t.324-.72.57-.498.84-.186q.48 0 .816.192t.546.51.306.714.096.804q0 .432-.102.864t-.318.774-.57.552-.858.21"/></g><clipPath id="scrobbles-month__m"><path d="M0 271.6h500V300H0z"/></clipPath><g clip-path="url(#scrobbles-month__m)"><path fill="#111112" d="M362.23 288.582h1.08q-.024-.708-.27-1.218t-.672-.846-.99-.492-1.224-.156q-.588 0-1.146.15t-.996.456-.702.78-.264 1.122q0 .588.234.978t.624.636.882.396 1.002.264l1.002.222q.492.108.882.282t.624.45.234.72q0 .468-.192.768t-.504.474-.702.246-.774.072q-.48 0-.936-.12t-.798-.372-.552-.642-.21-.93h-1.08q0 .78.282 1.35t.768.936 1.128.546 1.362.18q.588 0 1.182-.138t1.074-.444.786-.792.306-1.17q0-.636-.234-1.056t-.624-.696-.882-.438-1.002-.282-1.002-.222-.882-.258-.624-.402-.234-.642q0-.42.162-.702t.432-.45.618-.24.708-.072q.888 0 1.458.414t.666 1.338m6.96 2.364h-3.564q.024-.36.156-.678t.36-.558.546-.378.714-.138q.384 0 .702.138t.552.372.372.558.162.684m.984 1.728h-1.008q-.132.612-.546.912t-1.062.3q-.504 0-.876-.168t-.612-.45-.348-.648-.096-.774h4.644q.024-.564-.102-1.188t-.456-1.152-.876-.87-1.374-.342q-.636 0-1.17.24t-.924.672-.606 1.02-.216 1.296q.024.708.21 1.308t.558 1.032.918.672 1.29.24q1.056 0 1.752-.528t.9-1.572m1.188-4.236v8.568h1.02v-3.192h.024q.168.276.414.462t.522.294.558.156.51.048q.708 0 1.242-.252t.888-.69.528-1.026.174-1.248-.18-1.248-.534-1.038-.888-.714-1.254-.264q-.648 0-1.188.234t-.792.75h-.024v-.84zm4.8 3.048q0 .456-.096.888t-.312.768-.57.54-.882.204-.9-.198-.606-.522-.342-.75-.108-.882q0-.432.102-.852t.33-.75.588-.534.876-.204q.492 0 .858.192t.6.516.348.738.114.846"/></g><clipPath id="scrobbles-month__n"><path d="M0 271.6h500V300H0z"/></clipPath><g clip-path="url(#scrobbles-month__n)"><path fill="#111112" d="M396.928 290.358q0-.648.168-1.278t.528-1.134.924-.81 1.344-.306 1.344.306.924.81.528 1.134.168 1.278-.168 1.278-.528 1.134-.924.81-1.344.306-1.344-.306-.924-.81-.528-1.134-.168-1.278m-1.14 0q0 .876.258 1.686t.774 1.434 1.284.99 1.788.366 1.788-.366 1.284-.99.774-1.434.258-1.686-.258-1.686-.774-1.434-1.284-.996-1.788-.372-1.788.372-1.284.996-.774 1.434-.258 1.686m13.644.072h1.056q-.06-.552-.288-.954t-.582-.666-.816-.39-.99-.126q-.732 0-1.284.258t-.918.708-.546 1.056-.18 1.302.186 1.278.552 1.002.912.648 1.254.228q1.188 0 1.878-.624t.858-1.776h-1.044q-.096.72-.522 1.116t-1.182.396q-.48 0-.828-.192t-.564-.51-.318-.726-.102-.84q0-.468.096-.906t.318-.774.594-.54.924-.204q.648 0 1.032.324t.504.912m3.648-1.992v-1.86h-1.02v1.86h-1.056v.9h1.056v3.948q0 .432.084.696t.258.408.456.198.678.054h.78v-.9h-.468q-.24 0-.39-.018t-.234-.078-.114-.168-.03-.288v-3.852h1.236v-.9z"/></g><clipPath id="scrobbles-month__o"><path d="M0 271.6h500V300H0z"/></clipPath><g clip-path="url(#scrobbles-month__o)"><path fill="#111112" d="M433.15 286.074v8.568h1.08v-6.876h.024l4.476 6.876h1.248v-8.568h-1.08v6.948h-.024l-4.512-6.948zm9.252 5.472q0-.564.15-1.002t.414-.738.618-.456.75-.156.75.156.618.456.414.738.15 1.002-.15 1.002-.414.732-.618.45-.75.156-.75-.156-.618-.45-.414-.732-.15-1.002m-1.08 0q0 .684.192 1.272t.576 1.026.948.684 1.296.246q.744 0 1.302-.246t.942-.684.576-1.026.192-1.272-.192-1.278-.576-1.032-.942-.69-1.302-.252q-.732 0-1.296.252t-.948.69-.576 1.032-.192 1.278m10.02 3.096 2.268-6.204h-1.068l-1.692 5.172h-.024l-1.74-5.172h-1.14l2.304 6.204z"/></g><clipPath id="scrobbles-month__p"><path d="M0 271.6h500V300H0z"/></clipPath><g clip-path="url(#scrobbles-month__p)"><path fill="#111112" d="M472.409 293.682v-6.648h1.92q.792 0 1.332.222t.882.648.492 1.032.15 1.374q0 .792-.162 1.35t-.414.93-.57.588-.642.33-.612.144-.48.03zm-1.14-7.608v8.568h2.94q1.068 0 1.848-.3t1.284-.87.744-1.404.24-1.914q0-2.064-1.068-3.072t-3.048-1.008zm12.588 4.872h-3.564q.024-.36.156-.678t.36-.558.546-.378.714-.138q.384 0 .702.138t.552.372.372.558.162.684m.984 1.728h-1.008q-.132.612-.546.912t-1.062.3q-.504 0-.876-.168t-.612-.45-.348-.648-.096-.774h4.644q.024-.564-.102-1.188t-.456-1.152-.876-.87-1.374-.342q-.636 0-1.17.24t-.924.672-.606 1.02-.216 1.296q.024.708.21 1.308t.558 1.032.918.672 1.29.24q1.056 0 1.752-.528t.9-1.572m5.364-2.244h1.056q-.06-.552-.288-.954t-.582-.666-.816-.39-.99-.126q-.732 0-1.284.258t-.918.708-.546 1.056-.18 1.302.186 1.278.552 1.002.912.648 1.254.228q1.188 0 1.878-.624t.858-1.776h-1.044q-.096.72-.522 1.116t-1.182.396q-.48 0-.828-.192t-.564-.51-.318-.726-.102-.84q0-.468.096-.906t.318-.774.594-.54.924-.204q.648 0 1.032.324t.504.912"/></g><path fill="none" stroke="#000" stroke-miterlimit="10" stroke-opacity=".102" d="M44.5 66v206"/><clipPath id="scrobbles-month__q"><path d="M0 0h44.02v300H0z"/></clipPath><g clip-path="url(#scrobbles-month__q)"><path fill="#111112" d="M27.932 272.254q0-.312.006-.69t.06-.756.156-.738.3-.63.498-.438.732-.168.732.168.498.438.3.63.156.738.06.756.006.69q0 .48-.03 1.074t-.192 1.116-.522.882-1.008.36-1.008-.36-.522-.882-.192-1.116-.03-1.074m-1.08.012q0 .468.024.972t.12.984.276.906.492.75.786.51 1.134.186q.672 0 1.14-.186t.78-.51.492-.75.276-.906.12-.984.024-.972-.024-.972-.12-.984-.276-.912-.492-.756-.786-.516-1.134-.192-1.134.192-.786.516-.492.756-.276.912-.12.984-.024.972"/></g><clipPath id="scrobbles-month__r"><path d="M0 0h44.02v300H0z"/></clipPath><g clip-path="url(#scrobbles-month__r)"><path fill="#111112" d="M18.644 227.938v-.9h-4.2l-.792 4.416.876.048q.3-.36.69-.582t.894-.222q.432 0 .786.144t.606.402.39.612.138.774q0 .504-.144.882t-.39.63-.576.378-.69.126q-.384 0-.702-.114t-.552-.324-.372-.492-.162-.606h-1.02q.012.576.228 1.032t.588.762.858.468 1.038.162q.744 0 1.302-.234t.93-.63.558-.906.186-1.05q0-.732-.216-1.278t-.588-.912-.876-.546-1.068-.18q-.432 0-.87.15t-.714.462l-.024-.024.456-2.448zm2.616 3.276q0-.312.006-.69t.06-.756.156-.738.3-.63.498-.438.732-.168.732.168.498.438.3.63.156.738.06.756.006.69q0 .48-.03 1.074t-.192 1.116-.522.882-1.008.36-1.008-.36-.522-.882-.192-1.116-.03-1.074m-1.08.012q0 .468.024.972t.12.984.276.906.492.75.786.51 1.134.186q.672 0 1.14-.186t.78-.51.492-.75.276-.906.12-.984.024-.972-.024-.972-.12-.984-.276-.912-.492-.756-.786-.516-1.134-.192-1.134.192-.786.516-.492.756-.276.912-.12.984-.024.972m7.752-.012q0-.312.006-.69t.06-.756.156-.738.3-.63.498-.438.732-.168.732.168.498.438.3.63.156.738.06.756.006.69q0 .48-.03 1.074t-.192 1.116-.522.882-1.008.36-1.008-.36-.522-.882-.192-1.116-.03-1.074m-1.08.012q0 .468.024.972t.12.984.276.906.492.75.786.51 1.134.186q.672 0 1.14-.186t.78-.51.492-.75.276-.906.12-.984.024-.972-.024-.972-.12-.984-.276-.912-.492-.756-.786-.516-1.134-.192-1.134.192-.786.516-.492.756-.276.912-.12.984-.024.972"/></g><clipPath id="scrobbles-month__s"><path d="M0 0h44.02v300H0z"/></clipPath><g clip-path="url(#scrobbles-month__s)"><path fill="#111112" d="M7.269 194.362v-8.508h-.78q-.084.48-.312.792t-.558.492-.738.246-.84.066v.816h2.208v6.096zm3.396-1.332v1.332h.708q.012.144-.018.312t-.114.33-.222.3-.342.21v.6q.696-.204 1.008-.696t.312-1.176v-1.212zm3.924-2.856q0-.312.006-.69t.06-.756.156-.738.3-.63.498-.438.732-.168.732.168.498.438.3.63.156.738.06.756.006.69q0 .48-.03 1.074t-.192 1.116-.522.882-1.008.36-1.008-.36-.522-.882-.192-1.116-.03-1.074m-1.08.012q0 .468.024.972t.12.984.276.906.492.75.786.51 1.134.186q.672 0 1.14-.186t.78-.51.492-.75.276-.906.12-.984.024-.972-.024-.972-.12-.984-.276-.912-.492-.756-.786-.516-1.134-.192-1.134.192-.786.516-.492.756-.276.912-.12.984-.024.972m7.752-.012q0-.312.006-.69t.06-.756.156-.738.3-.63.498-.438.732-.168.732.168.498.438.3.63.156.738.06.756.006.69q0 .48-.03 1.074t-.192 1.116-.522.882-1.008.36-1.008-.36-.522-.882-.192-1.116-.03-1.074m-1.08.012q0 .468.024.972t.12.984.276.906.492.75.786.51 1.134.186q.672 0 1.14-.186t.78-.51.492-.75.276-.906.12-.984.024-.972-.024-.972-.12-.984-.276-.912-.492-.756-.786-.516-1.134-.192-1.134.192-.786.516-.492.756-.276.912-.12.984-.024.972m7.752-.012q0-.312.006-.69t.06-.756.156-.738.3-.63.498-.438.732-.168.732.168.498.438.3.63.156.738.06.756.006.69q0 .48-.03 1.074t-.192 1.116-.522.882-1.008.36-1.008-.36-.522-.882-.192-1.116-.03-1.074m-1.08.012q0 .468.024.972t.12.984.276.906.492.75.786.51 1.134.186q.672 0 1.14-.186t.78-.51.492-.75.276-.906.12-.984.024-.972-.024-.972-.12-.984-.276-.912-.492-.756-.786-.516-1.134-.192-1.134.192-.786.516-.492.756-.276.912-.12.984-.024.972"/></g><clipPath id="scrobbles-month__t"><path d="M0 0h44.02v300H0z"/></clipPath><g clip-path="url(#scrobbles-month__t)"><path fill="#111112" d="M7.269 153.322v-8.508h-.78q-.084.48-.312.792t-.558.492-.738.246-.84.066v.816h2.208v6.096zm3.396-1.332v1.332h.708q.012.144-.018.312t-.114.33-.222.3-.342.21v.6q.696-.204 1.008-.696t.312-1.176v-1.212zm7.98-6.132v-.9h-4.2l-.792 4.416.876.048q.3-.36.69-.582t.894-.222q.432 0 .786.144t.606.402.39.612.138.774q0 .504-.144.882t-.39.63-.576.378-.69.126q-.384 0-.702-.114t-.552-.324-.372-.492-.162-.606h-1.02q.012.576.228 1.032t.588.762.858.468 1.038.162q.744 0 1.302-.234t.93-.63.558-.906.186-1.05q0-.732-.216-1.278t-.588-.912-.876-.546-1.068-.18q-.432 0-.87.15t-.714.462l-.024-.024.456-2.448zm2.616 3.276q0-.312.006-.69t.06-.756.156-.738.3-.63.498-.438.732-.168.732.168.498.438.3.63.156.738.06.756.006.69q0 .48-.03 1.074t-.192 1.116-.522.882-1.008.36-1.008-.36-.522-.882-.192-1.116-.03-1.074m-1.08.012q0 .468.024.972t.12.984.276.906.492.75.786.51 1.134.186q.672 0 1.14-.186t.78-.51.492-.75.276-.906.12-.984.024-.972-.024-.972-.12-.984-.276-.912-.492-.756-.786-.516-1.134-.192-1.134.192-.786.516-.492.756-.276.912-.12.984-.024.972m7.752-.012q0-.312.006-.69t.06-.756.156-.738.3-.63.498-.438.732-.168.732.168.498.438.3.63.156.738.06.756.006.69q0 .48-.03 1.074t-.192 1.116-.522.882-1.008.36-1.008-.36-.522-.882-.192-1.116-.03-1.074m-1.08.012q0 .468.024.972t.12.984.276.906.492.75.786.51 1.134.186q.672 0 1.14-.186t.78-.51.492-.75.276-.906.12-.984.024-.972-.024-.972-.12-.984-.276-.912-.492-.756-.786-.516-1.134-.192-1.134.192-.786.516-.492.756-.276.912-.12.984-.024.972"/></g><clipPath id="scrobbles-month__u"><path d="M0 0h44.02v300H0z"/></clipPath><g clip-path="url(#scrobbles-month__u)"><path fill="#111112" d="M3.525 106.786h1.02q-.012-.384.078-.762t.294-.678.522-.486.762-.186q.336 0 .636.108t.522.312.354.486.132.63q0 .444-.138.78t-.408.624-.678.57-.948.618q-.444.264-.852.564t-.732.696-.534.93-.27 1.29H8.84v-.9H4.473q.072-.396.306-.702t.564-.57.726-.498.792-.474q.396-.252.768-.528t.66-.618.462-.774.174-.996q0-.6-.21-1.056t-.57-.762-.846-.468-1.038-.162q-.672 0-1.2.228t-.882.63-.522.954-.132 1.2m7.14 4.164v1.332h.708q.012.144-.018.312t-.114.33-.222.3-.342.21v.6q.696-.204 1.008-.696t.312-1.176v-1.212zm3.924-2.856q0-.312.006-.69t.06-.756.156-.738.3-.63.498-.438.732-.168.732.168.498.438.3.63.156.738.06.756.006.69q0 .48-.03 1.074t-.192 1.116-.522.882-1.008.36-1.008-.36-.522-.882-.192-1.116-.03-1.074m-1.08.012q0 .468.024.972t.12.984.276.906.492.75.786.51 1.134.186q.672 0 1.14-.186t.78-.51.492-.75.276-.906.12-.984.024-.972-.024-.972-.12-.984-.276-.912-.492-.756-.786-.516-1.134-.192-1.134.192-.786.516-.492.756-.276.912-.12.984-.024.972m7.752-.012q0-.312.006-.69t.06-.756.156-.738.3-.63.498-.438.732-.168.732.168.498.438.3.63.156.738.06.756.006.69q0 .48-.03 1.074t-.192 1.116-.522.882-1.008.36-1.008-.36-.522-.882-.192-1.116-.03-1.074m-1.08.012q0 .468.024.972t.12.984.276.906.492.75.786.51 1.134.186q.672 0 1.14-.186t.78-.51.492-.75.276-.906.12-.984.024-.972-.024-.972-.12-.984-.276-.912-.492-.756-.786-.516-1.134-.192-1.134.192-.786.516-.492.756-.276.912-.12.984-.024.972m7.752-.012q0-.312.006-.69t.06-.756.156-.738.3-.63.498-.438.732-.168.732.168.498.438.3.63.156.738.06.756.006.69q0 .48-.03 1.074t-.192 1.116-.522.882-1.008.36-1.008-.36-.522-.882-.192-1.116-.03-1.074m-1.08.012q0 .468.024.972t.12.984.276.906.492.75.786.51 1.134.186q.672 0 1.14-.186t.78-.51.492-.75.276-.906.12-.984.024-.972-.024-.972-.12-.984-.276-.912-.492-.756-.786-.516-1.134-.192-1.134.192-.786.516-.492.756-.276.912-.12.984-.024.972"/></g><clipPath id="scrobbles-month__v"><path d="M0 0h44.02v300H0z"/></clipPath><g clip-path="url(#scrobbles-month__v)"><path fill="#111112" d="M3.525 65.746h1.02q-.012-.384.078-.762t.294-.678.522-.486.762-.186q.336 0 .636.108t.522.312.354.486.132.63q0 .444-.138.78t-.408.624-.678.57-.948.618q-.444.264-.852.564t-.732.696-.534.93-.27 1.29H8.84v-.9H4.473q.072-.396.306-.702t.564-.57.726-.498.792-.474q.396-.252.768-.528t.66-.618.462-.774.174-.996q0-.6-.21-1.056t-.57-.762-.846-.468-1.038-.162q-.672 0-1.2.228t-.882.63-.522.954-.132 1.2m7.14 4.164v1.332h.708q.012.144-.018.312t-.114.33-.222.3-.342.21v.6q.696-.204 1.008-.696t.312-1.176V69.91zm7.98-6.132v-.9h-4.2l-.792 4.416.876.048q.3-.36.69-.582t.894-.222q.432 0 .786.144t.606.402.39.612.138.774q0 .504-.144.882t-.39.63-.576.378-.69.126q-.384 0-.702-.114t-.552-.324-.372-.492-.162-.606h-1.02q.012.576.228 1.032t.588.762.858.468 1.038.162q.744 0 1.302-.234t.93-.63.558-.906.186-1.05q0-.732-.216-1.278t-.588-.912-.876-.546-1.068-.18q-.432 0-.87.15t-.714.462l-.024-.024.456-2.448zm2.616 3.276q0-.312.006-.69t.06-.756.156-.738.3-.63.498-.438.732-.168.732.168.498.438.3.63.156.738.06.756.006.69q0 .48-.03 1.074t-.192 1.116-.522.882-1.008.36-1.008-.36-.522-.882-.192-1.116-.03-1.074m-1.08.012q0 .468.024.972t.12.984.276.906.492.75.786.51 1.134.186q.672 0 1.14-.186t.78-.51.492-.75.276-.906.12-.984.024-.972-.024-.972-.12-.984-.276-.912-.492-.756-.786-.516-1.134-.192-1.134.192-.786.516-.492.756-.276.912-.12.984-.024.972m7.752-.012q0-.312.006-.69t.06-.756.156-.738.3-.63.498-.438.732-.168.732.168.498.438.3.63.156.738.06.756.006.69q0 .48-.03 1.074t-.192 1.116-.522.882-1.008.36-1.008-.36-.522-.882-.192-1.116-.03-1.074m-1.08.012q0 .468.024.972t.12.984.276.906.492.75.786.51 1.134.186q.672 0 1.14-.186t.78-.51.492-.75.276-.906.12-.984.024-.972-.024-.972-.12-.984-.276-.912-.492-.756-.786-.516-1.134-.192-1.134.192-.786.516-.492.756-.276.912-.12.984-.024.972"/></g><clipPath id="scrobbles-month__w"><path d="M44.02 66.4H500v205.2H44.02z"/></clipPath><g clip-path="url(#scrobbles-month__w)"><path fill="#000002" d="M63.78 145.197h13.679V271.1h-13.68z"/></g><clipPath id="scrobbles-month__x"><path d="M44.02 66.4H500v205.2H44.02z"/></clipPath><g clip-path="url(#scrobbles-month__x)"><path fill="#000002" d="M101.777 177.7h13.68v93.4h-13.68z"/></g><clipPath id="scrobbles-month__y"><path d="M44.02 66.4H500v205.2H44.02z"/></clipPath><g clip-path="url(#scrobbles-month__y)"><path fill="#000002" d="M139.776 88.644h13.68V271.1h-13.68z"/></g><clipPath id="scrobbles-month__z"><path d="M44.02 66.4H500v205.2H44.02z"/></clipPath><g clip-path="url(#scrobbles-month__z)"><path fill="#000002" d="M177.774 152.256h13.68V271.1h-13.68z"/></g><clipPath id="scrobbles-month__A"><path d="M44.02 66.4H500v205.2H44.02z"/></clipPath><g clip-path="url(#scrobbles-month__A)"><path fill="#000002" d="M215.772 153.815h13.68V271.1h-13.68z"/></g><clipPath id="scrobbles-month__B"><path d="M44.02 66.4H500v205.2H44.02z"/></clipPath><g clip-path="url(#scrobbles-month__B)"><path fill="#000002" d="M253.77 112.611h13.68V271.1h-13.68z"/></g><clipPath id="scrobbles-month__C"><path d="M44.02 66.4H500v205.2H44.02z"/></clipPath><g clip-path="url(#scrobbles-month__C)"><path fill="#000002" d="M291.77 207.496h13.679V271.1h-13.68z"/></g><clipPath id="scrobbles-month__D"><path d="M44.02 66.4H500v205.2H44.02z"/></clipPath><g clip-path="url(#scrobbles-month__D)"><path fill="#000002" d="M329.767 160.053h13.68V271.1h-13.68z"/></g><clipPath id="scrobbles-month__E"><path d="M44.02 66.4H500v205.2H44.02z"/></clipPath><g clip-path="url(#scrobbles-month__E)"><path fill="#000002" d="M367.766 175.895h13.68V271.1h-13.68z"/></g><clipPath id="scrobbles-month__F"><path d="M44.02 66.4H500v205.2H44.02z"/></clipPath><g clip-path="url(#scrobbles-month__F)"><path fill="#000002" d="M405.764 149.875h13.68V271.1h-13.68z"/></g><clipPath id="scrobbles-month__G"><path d="M44.02 66.4H500v205.2H44.02z"/></clipPath><g clip-path="url(#scrobbles-month__G)"><path fill="#000002" d="M443.762 78.794h13.68V271.1h-13.68z"/></g><clipPath id="scrobbles-month__H"><path d="M44.02 66.4H500v205.2H44.02z"/></clipPath><g clip-path="url(#scrobbles-month__H)"><path fill="#000002" d="M481.76 147.167h13.68V271.1h-13.68z"/></g><clipPath id="scrobbles-month__I"><path d="M44.02 66.4H500v205.2H44.02z"/></clipPath><g clip-path="url(#scrobbles-month__I)"><path fill="#000001" d="M48.58 117.125h13.68V271.1H48.58z"/></g><clipPath id="scrobbles-month__J"><path d="M44.02 66.4H500v205.2H44.02z"/></clipPath><g clip-path="url(#scrobbles-month__J)"><path fill="#000001" d="M86.578 182.872h13.68V271.1h-13.68z"/></g><clipPath id="scrobbles-month__K"><path d="M44.02 66.4H500v205.2H44.02z"/></clipPath><g clip-path="url(#scrobbles-month__K)"><path fill="#000001" d="M124.576 152.994h13.68V271.1h-13.68z"/></g><clipPath id="scrobbles-month__L"><path d="M44.02 66.4H500v205.2H44.02z"/></clipPath><g clip-path="url(#scrobbles-month__L)"><path fill="#000001" d="M162.575 178.44h13.68v92.66h-13.68z"/></g><clipPath id="scrobbles-month__M"><path d="M44.02 66.4H500v205.2H44.02z"/></clipPath><g clip-path="url(#scrobbles-month__M)"><path fill="#000001" d="M200.573 162.105h13.68V271.1h-13.68z"/></g><clipPath id="scrobbles-month__N"><path d="M44.02 66.4H500v205.2H44.02z"/></clipPath><g clip-path="url(#scrobbles-month__N)"><path fill="#000001" d="M238.571 157.59h13.68V271.1h-13.68z"/></g><clipPath id="scrobbles-month__O"><path d="M44.02 66.4H500v205.2H44.02z"/></clipPath><g clip-path="url(#scrobbles-month__O)"><path fill="#000001" d="M276.57 128.78h13.68V271.1h-13.68z"/></g><clipPath id="scrobbles-month__P"><path d="M44.02 66.4H500v205.2H44.02z"/></clipPath><g clip-path="url(#scrobbles-month__P)"><path fill="#000001" d="M314.568 171.544h13.68V271.1h-13.68z"/></g><clipPath id="scrobbles-month__Q"><path d="M44.02 66.4H500v205.2H44.02z"/></clipPath><g clip-path="url(#scrobbles-month__Q)"><path fill="#000001" d="M352.566 142.98h13.68V271.1h-13.68z"/></g><clipPath id="scrobbles-month__R"><path d="M44.02 66.4H500v205.2H44.02z"/></clipPath><g clip-path="url(#scrobbles-month__R)"><path fill="#000001" d="M390.565 125.17h13.68V271.1h-13.68z"/></g><clipPath id="scrobbles-month__S"><path d="M44.02 66.4H500v205.2H44.02z"/></clipPath><g clip-path="url(#scrobbles-month__S)"><path fill="#000001" d="M428.563 151.189h13.68V271.1h-13.68z"/></g><clipPath id="scrobbles-month__T"><path d="M44.02 66.4H500v205.2H44.02z"/></clipPath><g clip-path="url(#scrobbles-month__T)"><path fill="#000001" d="M466.561 152.748h13.68V271.1h-13.68z"/></g></svg>