<svg xmlns="http://www.w3.org/2000/svg" width="1000pt" height="800" viewBox="0 0 1000 600"><defs><clipPath id="scrobbles-month__a"><path d="M126 291h28v248.68h-28Zm0 0"/></clipPath><clipPath id="scrobbles-month__b"><path d="M202 395h28v144.68h-28Zm0 0"/></clipPath><clipPath id="scrobbles-month__c"><path d="M277 109h29v430.68h-29Zm0 0"/></clipPath><clipPath id="scrobbles-month__d"><path d="M353 313h28v226.68h-28Zm0 0"/></clipPath><clipPath id="scrobbles-month__e"><path d="M428 319h29v220.68h-29Zm0 0"/></clipPath><clipPath id="scrobbles-month__f"><path d="M504 186h28v353.68h-28Zm0 0"/></clipPath><clipPath id="scrobbles-month__g"><path d="M580 491h28v48.68h-28Zm0 0"/></clipPath><clipPath id="scrobbles-month__h"><path d="M655 339h28v200.68h-28Zm0 0"/></clipPath><clipPath id="scrobbles-month__i"><path d="M731 390h28v149.68h-28Zm0 0"/></clipPath><clipPath id="scrobbles-month__j"><path d="M806 306h28v233.68h-28Zm0 0"/></clipPath><clipPath id="scrobbles-month__k"><path d="M882 77h28v462.68h-28Zm0 0"/></clipPath><clipPath id="scrobbles-month__l"><path d="M957 297h28v242.68h-28Zm0 0"/></clipPath><clipPath id="scrobbles-month__m"><path d="M96 200h28v339.68H96Zm0 0"/></clipPath><clipPath id="scrobbles-month__n"><path d="M172 412h28v127.68h-28Zm0 0"/></clipPath><clipPath id="scrobbles-month__o"><path d="M247 316h28v223.68h-28Zm0 0"/></clipPath><clipPath id="scrobbles-month__p"><path d="M323 398h28v141.68h-28Zm0 0"/></clipPath><clipPath id="scrobbles-month__q"><path d="M398 345h28v194.68h-28Zm0 0"/></clipPath><clipPath id="scrobbles-month__r"><path d="M474 331h28v208.68h-28Zm0 0"/></clipPath><clipPath id="scrobbles-month__s"><path d="M549 238h29v301.68h-29Zm0 0"/></clipPath><clipPath id="scrobbles-month__t"><path d="M625 376h28v163.68h-28Zm0 0"/></clipPath><clipPath id="scrobbles-month__u"><path d="M700 284h29v255.68h-29Zm0 0"/></clipPath><clipPath id="scrobbles-month__v"><path d="M776 226h28v313.68h-28Zm0 0"/></clipPath><clipPath id="scrobbles-month__w"><path d="M851 310h29v229.68h-29Zm0 0"/></clipPath><clipPath id="scrobbles-month__x"><path d="M927 315h28v224.68h-28Zm0 0"/></clipPath></defs><path d="M342 20h80v24h-80Zm0 0" style="stroke:none;fill-rule:nonzero;fill:#111;fill-opacity:1"/><path d="M435.203 40.32v-1.484q.608-1.372 1.469-2.422a17 17 0 0 1 1.797-1.89 32 32 0 0 1 1.89-1.579 22 22 0 0 0 1.688-1.453c.5-.488.898-1 1.203-1.531q.47-.795.469-1.813 0-1.359-.797-2.109c-.531-.5-1.274-.75-2.219-.75q-1.346.001-2.219.734-.88.739-1.03 2.063l-2.157-.203c.156-1.32.719-2.375 1.687-3.156.97-.782 2.207-1.172 3.72-1.172q2.495.002 3.843 1.187c.894.781 1.344 1.899 1.344 3.344q-.001.956-.454 1.906-.438.957-1.312 1.906-.86.939-3.297 2.938-1.36 1.094-2.156 1.984c-.531.594-.914 1.164-1.14 1.703h8.609v1.797Zm25.203-8.265q0 4.141-1.453 6.328-1.453 2.173-4.312 2.172-2.848 0-4.282-2.172-1.422-2.169-1.421-6.328c0-2.832.46-4.957 1.39-6.375q1.39-2.123 4.39-2.125 2.92 0 4.298 2.156 1.389 2.144 1.39 6.344m-2.14 0c0-2.383-.278-4.11-.829-5.172-.554-1.07-1.46-1.61-2.718-1.61q-1.956.001-2.797 1.579-.844 1.581-.844 5.203-.001 3.515.86 5.156.857 1.627 2.734 1.625 1.857.002 2.719-1.656.874-1.67.875-5.125m4.937 8.265v-1.484q.608-1.372 1.469-2.422a17 17 0 0 1 1.797-1.89 32 32 0 0 1 1.89-1.579 22 22 0 0 0 1.688-1.453c.5-.488.898-1 1.203-1.531q.47-.795.469-1.813 0-1.359-.797-2.109c-.531-.5-1.274-.75-2.219-.75q-1.346.001-2.219.734-.88.739-1.03 2.063l-2.157-.203c.156-1.32.719-2.375 1.687-3.156.97-.782 2.207-1.172 3.72-1.172q2.495.002 3.843 1.187c.894.781 1.344 1.899 1.344 3.344q-.001.956-.454 1.906-.438.957-1.312 1.906-.86.939-3.297 2.938-1.36 1.094-2.156 1.984c-.531.594-.914 1.164-1.14 1.703h8.609v1.797Zm23.125-3.734v3.734h-2v-3.734h-7.781v-1.64l7.562-11.141h2.22v11.11h2.312v1.67Zm-2-1.672V26.18c-.18.343-.328.625-.453.843a8 8 0 0 1-.328.563l-3.781 5.594q-.33.486-1.266 1.734ZM434 18.594" style="stroke:none;fill-rule:nonzero;fill:#000;fill-opacity:1"/><path d="M510 20h80v24h-80Zm0 0" style="stroke:none;fill-rule:nonzero;fill:#222;fill-opacity:1"/><path d="M603.203 40.32v-1.484q.608-1.372 1.469-2.422a17 17 0 0 1 1.797-1.89 32 32 0 0 1 1.89-1.579 22 22 0 0 0 1.688-1.453c.5-.488.898-1 1.203-1.531q.47-.795.469-1.813 0-1.359-.797-2.109c-.531-.5-1.274-.75-2.219-.75q-1.346.001-2.219.734-.88.739-1.03 2.063l-2.157-.203c.156-1.32.719-2.375 1.687-3.156.97-.782 2.207-1.172 3.72-1.172q2.495.002 3.843 1.187c.894.781 1.344 1.899 1.344 3.344q-.002.956-.453 1.906-.44.957-1.313 1.906-.86.939-3.297 2.938-1.36 1.094-2.156 1.984c-.531.594-.914 1.164-1.14 1.703h8.609v1.797Zm25.203-8.265q0 4.141-1.453 6.328-1.453 2.173-4.312 2.172-2.848 0-4.282-2.172-1.423-2.169-1.422-6.328-.002-4.248 1.391-6.375 1.39-2.123 4.39-2.125 2.92 0 4.298 2.156 1.389 2.144 1.39 6.344m-2.14 0c0-2.383-.278-4.11-.828-5.172-.555-1.07-1.461-1.61-2.72-1.61q-1.955.001-2.796 1.579-.844 1.581-.844 5.203-.001 3.515.86 5.156.857 1.627 2.734 1.625 1.857.002 2.719-1.656.874-1.67.875-5.125m4.937 8.265v-1.484q.608-1.372 1.469-2.422a17 17 0 0 1 1.797-1.89 32 32 0 0 1 1.89-1.579 22 22 0 0 0 1.688-1.453c.5-.488.898-1 1.203-1.531q.47-.795.469-1.813 0-1.359-.797-2.109c-.531-.5-1.274-.75-2.219-.75q-1.346.001-2.219.734-.88.739-1.03 2.063l-2.157-.203c.156-1.32.719-2.375 1.687-3.156.97-.782 2.207-1.172 3.72-1.172q2.495.002 3.843 1.187c.894.781 1.344 1.899 1.344 3.344q-.002.956-.453 1.906-.44.957-1.313 1.906-.86.939-3.297 2.938-1.36 1.094-2.156 1.984c-.531.594-.914 1.164-1.14 1.703h8.609v1.797Zm25.094-4.562q0 2.283-1.453 3.547-1.455 1.252-4.157 1.25-2.5 0-4-1.125-1.486-1.139-1.765-3.36l2.172-.187q.42 2.923 3.593 2.922 1.593.002 2.5-.782.922-.78.922-2.328-.001-1.36-1.047-2.11-1.032-.75-2.984-.75h-1.203v-1.827h1.156q1.734 0 2.688-.75.951-.762.953-2.11-.001-1.311-.781-2.078-.784-.78-2.313-.78-1.394.001-2.265.718-.861.72-1 2.015l-2.11-.156q.232-2.028 1.672-3.172 1.452-1.139 3.719-1.14 2.483 0 3.86 1.156 1.389 1.158 1.39 3.219 0 1.581-.89 2.578-.892.985-2.579 1.344v.046c1.238.125 2.203.54 2.89 1.235q1.032 1.048 1.032 2.625M602 18.594" style="stroke:none;fill-rule:nonzero;fill:#000;fill-opacity:1"/><path d="M44 270.5v9.34M44 32v237.5" style="fill:none;stroke-width:1;stroke-linecap:butt;stroke-linejoin:miter;stroke:#000;stroke-opacity:.247059;stroke-miterlimit:10" transform="scale(2)"/><path d="M81.5 270.5v9.34M81.5 32v237.5m38 1v9.34m0-247.84v237.5m37.5 1v9.34M157 32v237.5m38 1v9.34M195 32v237.5m37.5 1v9.34m0-247.84v237.5m38 1v9.34m0-247.84v237.5m37.5 1v9.34M308 32v237.5m38 1v9.34M346 32v237.5m37.5 1v9.34m0-247.84v237.5m38 1v9.34m0-247.84v237.5m37.5 1v9.34M459 32v237.5m38 1v9.34M497 32v237.5m-453.5.5h454" style="fill:none;stroke-width:1;stroke-linecap:butt;stroke-linejoin:miter;stroke:#000;stroke-opacity:.0980392;stroke-miterlimit:10" transform="scale(2)"/><path d="M110.648 582.633q-4.205.002-4.984-4.344l2.188-.36q.215 1.362.953 2.126.733.766 1.86.765 1.218 0 1.92-.843.704-.844.704-2.454v-9.812h-3.187v-1.828h5.406v11.594q-.001 2.409-1.297 3.78-1.3 1.377-3.563 1.376m11.5 0c-1.28 0-2.246-.332-2.89-1q-.954-1.013-.953-2.781-.002-1.969 1.297-3.016 1.293-1.06 4.187-1.125l2.844-.047v-.687q0-1.547-.656-2.22c-.438-.444-1.125-.671-2.063-.671q-1.425.002-2.062.484-.643.488-.782 1.532l-2.203-.204q.546-3.42 5.094-3.421c1.594 0 2.789.37 3.594 1.109q1.202 1.094 1.203 3.156v5.469q-.001.939.25 1.422.246.469.937.469.312 0 .688-.094v1.312a6.7 6.7 0 0 1-1.625.203c-.781 0-1.352-.203-1.703-.609q-.534-.623-.61-1.937h-.062q-.814 1.452-1.89 2.062-1.067.593-2.595.594m.47-1.578q1.17.001 2.062-.532a3.8 3.8 0 0 0 1.422-1.453q.528-.919.53-1.89v-1.047l-2.312.047q-1.488.033-2.25.312-.766.282-1.187.875c-.274.387-.406.899-.406 1.531q-.001 1.033.546 1.594.563.563 1.594.563m18.343 1.343v-8.046c0-.832-.086-1.477-.25-1.938q-.252-.685-.797-.984-.532-.312-1.562-.313c-1.024 0-1.825.352-2.407 1.047-.586.688-.875 1.652-.875 2.89v7.344h-2.11v-9.968q0-2.215-.077-2.72h2q0 .065.015.33l.032.593q.01.33.047 1.25h.03c.477-.875 1.036-1.492 1.673-1.86q.967-.545 2.375-.546 2.09.002 3.062 1.046.968 1.032.969 3.422v8.453Zm44.071-14.688v6.142h9.219v1.859h-9.219v6.687h-2.234v-16.515h11.734v1.828Zm13.031 8.798q-.001 2.174.907 3.36c.601.792 1.484 1.187 2.64 1.187.907 0 1.633-.18 2.188-.547q.826-.563 1.125-1.406l1.844.53q-1.126 3-5.157 3c-1.875 0-3.308-.554-4.297-1.671q-1.469-1.687-1.468-4.984-.001-3.14 1.469-4.813 1.483-1.687 4.203-1.687 5.591 0 5.593 6.75v.28Zm6.875-1.625q-.187-1.997-1.03-2.922-.845-.92-2.423-.922-1.535 0-2.437 1.031-.893 1.02-.953 2.813Zm16.235 1.11q-.001 6.642-4.672 6.64-1.441 0-2.39-.516-.956-.527-1.548-1.687h-.03q0 .361-.048 1.11c-.03.491-.054.776-.062.858h-2.047q.077-.638.078-2.609v-14.781h2.11v4.953q0 .767-.047 1.797h.047q.573-1.218 1.546-1.75.968-.53 2.391-.531 2.405.001 3.531 1.625 1.138 1.61 1.14 4.89m-2.219.077q0-2.654-.703-3.797-.704-1.156-2.281-1.156-1.784 0-2.594 1.219-.813 1.22-.812 3.86 0 2.502.796 3.687.798 1.188 2.578 1.187 1.595 0 2.297-1.172c.477-.789.72-2.066.72-3.828m53.434 6.329v-11.015q0-1.828.093-3.516-.562 2.098-1.03 3.281l-4.266 11.25h-1.563l-4.328-11.25-.656-2-.39-1.28.046 1.296.047 2.219v11.015h-2v-16.515h2.937l4.407 11.453q.233.689.437 1.484.216.785.297 1.14.092-.467.39-1.42.295-.951.407-1.204l4.312-11.453h2.875v16.515Zm8.843.235q-1.922.001-2.89-1-.954-1.013-.953-2.781-.002-1.969 1.297-3.016 1.293-1.06 4.187-1.125l2.844-.047v-.687q0-1.547-.656-2.22c-.438-.444-1.125-.671-2.063-.671q-1.425.002-2.062.484c-.43.325-.688.836-.782 1.532l-2.203-.204q.546-3.42 5.094-3.421c1.594 0 2.789.37 3.594 1.109q1.201 1.094 1.203 3.156v5.469q-.001.939.25 1.422.246.469.937.469.312 0 .688-.094v1.312a6.7 6.7 0 0 1-1.625.203c-.781 0-1.352-.203-1.703-.609q-.534-.623-.61-1.937h-.062q-.814 1.452-1.89 2.062-1.067.593-2.595.594m.47-1.578q1.17.001 2.062-.532a3.8 3.8 0 0 0 1.422-1.453q.528-.919.53-1.89v-1.047l-2.312.047q-1.488.033-2.25.312-.766.282-1.187.875c-.274.387-.406.899-.406 1.531q-.002 1.033.546 1.594.563.563 1.594.563m10.343 1.343v-9.734q0-1.324-.078-2.953h2a95 95 0 0 1 .094 2.594h.046q.5-1.621 1.157-2.22.655-.608 1.843-.608.422.001.86.125v1.937q-.421-.124-1.125-.125c-.875 0-1.543.383-2 1.14q-.69 1.125-.688 3.235v6.61Zm55.54 0-1.875-4.828h-7.531l-1.89 4.828h-2.329l6.734-16.515h2.547l6.64 16.515Zm-5.64-14.828-.11.328c-.2.649-.484 1.48-.86 2.5l-2.109 5.422h6.172l-2.125-5.453a24 24 0 0 1-.656-1.828Zm20.312 8.422c0 4.43-1.559 6.64-4.672 6.64q-2.925 0-3.937-2.202h-.047q.046.094.047 2v4.953h-2.11v-15.078q0-1.95-.078-2.594h2.047q-.001.048.016.344.029.28.062.89.03.597.031.813h.047c.375-.781.867-1.352 1.485-1.719q.937-.546 2.437-.547c1.563 0 2.727.528 3.5 1.578q1.172 1.565 1.172 4.922m-2.219.047q-.002-2.638-.719-3.781c-.468-.758-1.226-1.14-2.265-1.14q-1.254.002-1.969.53-.703.533-1.078 1.657-.362 1.112-.36 2.906 0 2.503.797 3.687.797 1.173 2.579 1.172 1.575.002 2.296-1.156c.477-.77.72-2.062.72-3.875m5.547 6.36v-9.735q0-1.324-.078-2.953h2a95 95 0 0 1 .094 2.594h.047q.498-1.621 1.156-2.22.654-.608 1.844-.608.42.001.859.125v1.937q-.421-.124-1.125-.125c-.875 0-1.543.383-2 1.14q-.69 1.125-.688 3.235v6.61Zm55.882-.001v-11.015q0-1.828.094-3.516-.563 2.098-1.032 3.281l-4.265 11.25h-1.563l-4.328-11.25-.656-2-.39-1.28.046 1.296.047 2.219v11.015h-2v-16.515h2.937l4.407 11.453q.233.689.437 1.484.216.785.297 1.14.094-.467.39-1.42.295-.951.407-1.204l4.312-11.453h2.875v16.515Zm8.844.235q-1.924.001-2.891-1-.954-1.013-.953-2.781-.002-1.969 1.297-3.016 1.294-1.06 4.187-1.125l2.844-.047v-.687q0-1.547-.656-2.22c-.438-.444-1.125-.671-2.063-.671q-1.424.002-2.062.484-.643.488-.782 1.532l-2.203-.204q.547-3.42 5.094-3.421 2.39 0 3.594 1.109 1.201 1.094 1.203 3.156v5.469q-.001.939.25 1.422.246.469.937.469.312 0 .688-.094v1.312a6.7 6.7 0 0 1-1.625.203c-.781 0-1.352-.203-1.703-.609q-.534-.623-.61-1.937h-.062q-.814 1.452-1.89 2.062-1.067.593-2.594.594m.468-1.578q1.173.001 2.063-.532a3.8 3.8 0 0 0 1.422-1.453c.351-.613.531-1.242.531-1.89v-1.047l-2.313.047q-1.488.033-2.25.312-.766.282-1.187.875-.408.582-.406 1.531-.002 1.033.547 1.594.562.563 1.593.563m10.907 6.328a7.3 7.3 0 0 1-1.454-.125v-1.594q.452.077.985.078c1.312 0 2.351-.965 3.125-2.89l.203-.516-5.031-12.625h2.25l2.672 7.016q.059.157.14.39.076.235.516 1.531.449 1.302.484 1.454l.828-2.313 2.782-8.078h2.218l-4.875 12.687c-.523 1.352-1.011 2.36-1.468 3.016q-.675.997-1.5 1.484c-.555.32-1.18.485-1.875.485m46.664-4.75q-4.206.002-4.985-4.344l2.188-.36q.215 1.362.953 2.126.733.766 1.86.765 1.218 0 1.921-.843.703-.844.703-2.454v-9.812h-3.187v-1.828h5.406v11.594q-.001 2.409-1.297 3.78-1.301 1.377-3.562 1.376m10.328-12.922v8.047c0 .836.078 1.484.234 1.953q.247.69.781 1 .546.298 1.594.297 1.512 0 2.39-1.047.892-1.044.891-2.89v-7.36h2.11v9.984q0 2.205.062 2.703h-1.984a2 2 0 0 1-.031-.312q-.001-.265-.032-.594a37 37 0 0 1-.03-1.265h-.032q-.738 1.314-1.688 1.859-.956.546-2.375.547-2.08 0-3.046-1.031-.972-1.046-.97-3.438v-8.453Zm19.984 12.687v-8.046q-.002-1.247-.25-1.938-.251-.685-.797-.984-.532-.312-1.562-.313c-1.024 0-1.824.352-2.406 1.047q-.877 1.033-.875 2.89v7.344h-2.11v-9.968q0-2.215-.078-2.72h2q-.001.065.016.33c.007.167.02.366.03.593l.048 1.25h.031c.477-.875 1.035-1.492 1.672-1.86q.967-.545 2.375-.546 2.09.002 3.062 1.046.969 1.032.97 3.422v8.453Zm49.23.235q-4.205.002-4.984-4.344l2.188-.36q.215 1.362.953 2.126.734.766 1.86.765 1.218 0 1.921-.843.703-.844.703-2.454v-9.812h-3.187v-1.828h5.406v11.594q-.001 2.409-1.297 3.78-1.301 1.377-3.562 1.376m10.329-12.922v8.047c0 .836.078 1.484.234 1.953q.247.69.781 1 .546.298 1.594.297 1.512 0 2.39-1.047.892-1.044.891-2.89v-7.36h2.11v9.984q0 2.205.062 2.703h-1.984a2 2 0 0 1-.031-.312q-.001-.265-.032-.594a37 37 0 0 1-.03-1.265h-.032q-.738 1.314-1.688 1.859-.956.546-2.375.547-2.08 0-3.047-1.031-.97-1.046-.968-3.438v-8.453Zm11.937 12.687v-17.39h2.11v17.39Zm55.585 0-1.875-4.828h-7.531l-1.89 4.828h-2.329l6.735-16.515h2.546l6.641 16.515Zm-5.64-14.828-.11.328q-.297.972-.86 2.5l-2.109 5.422h6.172l-2.125-5.453a24 24 0 0 1-.656-1.828Zm11.656 2.14v8.048c0 .836.078 1.484.234 1.953q.247.69.781 1 .546.298 1.594.297 1.512 0 2.39-1.047.892-1.044.891-2.89v-7.36h2.11v9.984q0 2.205.062 2.703h-1.984a2 2 0 0 1-.031-.312q-.001-.265-.032-.594a37 37 0 0 1-.03-1.265h-.032q-.738 1.314-1.688 1.859-.956.546-2.375.547-2.08 0-3.046-1.031-.972-1.046-.97-3.438v-8.453Zm16.734 17.673c-1.387 0-2.492-.274-3.312-.813q-1.22-.813-1.578-2.312l2.125-.313q.216.875.937 1.344c.477.32 1.11.484 1.89.484q3.155 0 3.157-3.687v-2.047h-.031q-.599 1.221-1.64 1.844-1.05.61-2.438.61-2.333 0-3.422-1.548-1.095-1.543-1.094-4.86 0-3.374 1.172-4.968 1.17-1.594 3.578-1.594 1.342 0 2.328.61.996.611 1.547 1.75h.016q0-.342.046-1.203.048-.874.094-.97h2q-.063.645-.062 2.626v9.703c0 3.563-1.774 5.344-5.313 5.344m3.219-11.328c0-1.032-.14-1.914-.422-2.657q-.423-1.123-1.203-1.718a2.77 2.77 0 0 0-1.734-.594q-1.611 0-2.36 1.172-.736 1.172-.734 3.797c0 1.742.226 2.992.687 3.75.47.75 1.258 1.125 2.375 1.125a2.85 2.85 0 0 0 1.766-.578q.78-.592 1.203-1.688.422-1.09.422-2.61m50.805 1.782c0 1.523-.602 2.703-1.797 3.547q-1.782 1.252-5.016 1.25-6.048.002-7-4.203l2.172-.422q.375 1.487 1.594 2.187 1.217.69 3.312.688c1.446 0 2.563-.242 3.344-.735.781-.5 1.172-1.226 1.172-2.187q0-.81-.375-1.313-.363-.515-1.031-.843c-.438-.22-.97-.399-1.594-.547a406 406 0 0 1-2.047-.485q-1.956-.42-2.969-.859-1.019-.434-1.61-.969a3.6 3.6 0 0 1-.89-1.25q-.314-.714-.312-1.64-.002-2.122 1.625-3.266 1.622-1.155 4.656-1.156 2.81.001 4.297.875 1.481.86 2.078 2.922l-2.203.39q-.363-1.31-1.375-1.906-1.019-.592-2.828-.594-1.987 0-3.032.657-1.03.655-1.03 1.968c0 .5.132.918.405 1.25q.406.504 1.157.844.762.345 3.047.86.75.173 1.5.359.761.176 1.453.422.7.253 1.297.593.608.345 1.047.844.45.487.703 1.156.248.659.25 1.563m4.328-1.328q-.002 2.174.906 3.36.905 1.188 2.64 1.187c.907 0 1.633-.18 2.188-.547q.826-.563 1.125-1.406l1.844.53q-1.125 3-5.156 3c-1.875 0-3.309-.554-4.297-1.671q-1.47-1.687-1.469-4.984-.001-3.14 1.469-4.813 1.483-1.687 4.203-1.687c3.726 0 5.594 2.25 5.594 6.75v.28Zm6.875-1.625q-.187-1.997-1.032-2.922-.844-.92-2.421-.922-1.535 0-2.438 1.031-.893 1.02-.953 2.813Zm16.234 1.11q0 6.642-4.672 6.64-2.923 0-3.937-2.203h-.047q.047.094.047 2v4.953h-2.11v-15.078q0-1.95-.078-2.594h2.047q-.001.048.016.344.029.28.062.89.031.597.032.813h.046q.561-1.17 1.485-1.719.937-.546 2.437-.547 2.342.001 3.5 1.578 1.173 1.565 1.172 4.922m-2.219.046q-.002-2.638-.718-3.781-.706-1.139-2.266-1.14-1.254.002-1.969.53-.702.533-1.078 1.657-.361 1.112-.36 2.906 0 2.503.798 3.687.796 1.173 2.578 1.172 1.575.002 2.297-1.156.716-1.155.718-3.875m56.93-1.968q0 2.58-.984 4.532-.986 1.94-2.844 2.984-1.845 1.048-4.375 1.047-2.533 0-4.39-1.031c-1.231-.688-2.169-1.68-2.813-2.985-.649-1.3-.969-2.816-.969-4.547q0-3.965 2.156-6.203 2.169-2.233 6.047-2.234 2.514.001 4.36 1.015a6.67 6.67 0 0 1 2.828 2.907q.984 1.909.984 4.515m-2.281 0q0-3.092-1.547-4.843c-1.024-1.176-2.469-1.766-4.344-1.766q-2.846 0-4.39 1.734-1.547 1.736-1.547 4.875 0 3.094 1.562 4.922 1.577 1.828 4.344 1.828 2.857.002 4.39-1.765 1.531-1.763 1.532-4.985m5.984 1.922q0 2.532.797 3.75.796 1.22 2.406 1.219 1.125 0 1.875-.61.762-.608.938-1.874l2.14.14c-.168 1.219-.687 2.196-1.562 2.922q-1.312 1.095-3.328 1.094c-1.774 0-3.125-.555-4.063-1.672q-1.406-1.688-1.406-4.922 0-3.187 1.406-4.875 1.407-1.687 4.032-1.687 1.95.001 3.234 1.015 1.278 1.001 1.61 2.781l-2.173.157q-.158-1.044-.828-1.672-.673-.623-1.89-.625-1.688 0-2.438 1.125-.75 1.111-.75 3.734m15.281 6.313q-1.05.28-2.14.28-2.531.001-2.531-2.874v-8.453h-1.47v-1.547h1.548l.625-2.828h1.406v2.828h2.344v1.547h-2.344v8q0 .907.297 1.281c.195.25.547.375 1.047.375q.42.002 1.218-.172Zm47.731.093-8.844-14.062.063 1.14.062 1.954v10.968h-2v-16.515h2.61l8.921 14.156q-.14-2.296-.14-3.328v-10.828h2.015v16.515Zm17.656-6.359q-.002 3.328-1.469 4.969-1.471 1.627-4.25 1.625-2.783 0-4.203-1.688-1.406-1.7-1.406-4.906 0-6.562 5.672-6.562 2.905.002 4.281 1.609 1.373 1.595 1.375 4.953m-2.219 0q0-2.624-.78-3.812c-.524-.79-1.391-1.188-2.61-1.188q-1.862 0-2.688 1.219-.83 1.204-.828 3.781 0 2.518.813 3.781.827 1.252 2.562 1.25 1.905 0 2.719-1.218.81-1.218.812-3.813m11.063 6.36h-2.5l-4.61-12.688h2.25l2.797 8.25c.102.312.375 1.242.813 2.781l.406-1.375.453-1.375 2.89-8.281h2.235Zm52.539-8.422q-.002 2.548-1 4.468c-.668 1.274-1.61 2.25-2.828 2.938-1.219.68-2.625 1.015-4.219 1.015H936.2v-16.515h5.469q4.183 0 6.469 2.11 2.28 2.095 2.281 5.984m-2.25 0q0-3.077-1.688-4.688c-1.117-1.07-2.734-1.61-4.859-1.61h-3.187v12.923h3.687q1.81 0 3.188-.797 1.371-.798 2.109-2.297.75-1.5.75-3.531m7.297 2.53q-.002 2.176.906 3.36.904 1.189 2.64 1.188 1.359.002 2.188-.547.827-.563 1.125-1.406l1.844.53q-1.125 3-5.156 3c-1.875 0-3.309-.554-4.297-1.671q-1.47-1.687-1.469-4.984-.001-3.14 1.469-4.813 1.483-1.687 4.203-1.687 5.592 0 5.594 6.75v.28Zm6.875-1.624q-.188-1.997-1.031-2.922-.845-.92-2.422-.922-1.535 0-2.438 1.031-.893 1.02-.953 2.813Zm7.11 1.11q0 2.53.796 3.75.796 1.218 2.406 1.218 1.125 0 1.875-.61.762-.608.938-1.874l2.14.14c-.168 1.219-.687 2.196-1.562 2.922q-1.312 1.095-3.328 1.094c-1.774 0-3.125-.555-4.063-1.672q-1.406-1.688-1.406-4.922 0-3.187 1.406-4.875 1.407-1.687 4.032-1.687 1.95.001 3.234 1.015 1.279 1.001 1.61 2.781l-2.173.157q-.158-1.044-.828-1.672-.673-.623-1.89-.625-1.688 0-2.438 1.125-.75 1.111-.75 3.734m-35.22-15.321" style="stroke:none;fill-rule:nonzero;fill:#000;fill-opacity:1"/><path d="M33.76 32h9.74m1 0H497M33.76 58.5h9.74m1 0H497M33.76 85h9.74m1 0H497M33.76 111.5h9.74m1 0H497m-463.24 26h9.74m1 0H497M33.76 164h9.74m1 0H497M33.76 190.5h9.74m1 0H497M33.76 217h9.74m1 0H497M33.76 243.5h9.74m1 0H497M33.76 270h9.74m1 0H497M44 31.5v239" style="fill:none;stroke-width:1;stroke-linecap:butt;stroke-linejoin:miter;stroke:#000;stroke-opacity:.0980392;stroke-miterlimit:10" transform="scale(2)"/><path d="M12.723 72.32v-1.484q.608-1.372 1.468-2.422a17 17 0 0 1 1.797-1.89 32 32 0 0 1 1.89-1.579 22 22 0 0 0 1.688-1.453q.748-.733 1.204-1.531.468-.795.468-1.813 0-1.359-.797-2.109c-.53-.5-1.273-.75-2.218-.75q-1.347.001-2.22.734-.878.739-1.03 2.063l-2.157-.203c.157-1.32.72-2.375 1.688-3.156q1.452-1.172 3.719-1.172 2.496.002 3.843 1.187c.895.781 1.344 1.899 1.344 3.344q0 .956-.453 1.906-.44.957-1.312 1.906-.861.939-3.297 2.938-1.36 1.094-2.157 1.984c-.53.594-.914 1.164-1.14 1.703h8.61v1.797Zm23.125-3.734v3.734h-2v-3.734h-7.782v-1.64l7.563-11.141h2.219v11.11h2.312v1.67Zm-2-1.672V58.18c-.18.343-.328.625-.453.843a8 8 0 0 1-.329.563l-3.78 5.594q-.33.486-1.266 1.734Zm18.078-2.86q0 4.143-1.453 6.329-1.454 2.173-4.313 2.172-2.846 0-4.281-2.172-1.424-2.168-1.422-6.328-.002-4.248 1.39-6.375 1.39-2.123 4.391-2.125 2.92 0 4.297 2.156 1.39 2.144 1.39 6.344m-2.14 0c0-2.382-.278-4.109-.829-5.171-.555-1.07-1.46-1.61-2.719-1.61q-1.954.001-2.797 1.579-.843 1.582-.843 5.203-.001 3.515.859 5.156.857 1.627 2.734 1.625 1.858.002 2.72-1.656.873-1.67.874-5.125m16.14 0q0 4.143-1.453 6.329-1.454 2.173-4.313 2.172-2.846 0-4.281-2.172-1.423-2.168-1.422-6.328-.002-4.248 1.39-6.375 1.39-2.123 4.391-2.125 2.92 0 4.297 2.156 1.39 2.144 1.39 6.344m-2.14 0c0-2.382-.278-4.109-.829-5.171-.555-1.07-1.46-1.61-2.719-1.61q-1.954.001-2.797 1.579-.843 1.582-.843 5.203-.001 3.515.859 5.156.857 1.627 2.734 1.625 1.858.002 2.72-1.656.873-1.67.874-5.125m-51.059 61.114v-1.484q.608-1.373 1.468-2.422a17 17 0 0 1 1.797-1.891 32 32 0 0 1 1.89-1.578 22 22 0 0 0 1.688-1.453q.748-.734 1.204-1.531c.312-.532.468-1.133.468-1.813q0-1.36-.797-2.11c-.53-.5-1.273-.75-2.218-.75q-1.347.001-2.22.735-.878.738-1.03 2.063l-2.157-.204c.157-1.32.72-2.375 1.688-3.156q1.452-1.172 3.719-1.172c1.664 0 2.945.399 3.843 1.188q1.343 1.173 1.344 3.344 0 .955-.453 1.906-.44.955-1.312 1.906-.861.938-3.297 2.938-1.36 1.094-2.157 1.984c-.53.594-.914 1.164-1.14 1.703h8.61v1.797Zm14 0v-1.484q.608-1.373 1.468-2.422a17 17 0 0 1 1.797-1.891 32 32 0 0 1 1.89-1.578 22 22 0 0 0 1.688-1.453q.748-.734 1.204-1.531c.312-.532.468-1.133.468-1.813q0-1.36-.797-2.11c-.53-.5-1.273-.75-2.218-.75q-1.347.001-2.22.735-.878.738-1.03 2.063l-2.157-.204c.157-1.32.72-2.375 1.688-3.156q1.452-1.172 3.719-1.172c1.664 0 2.945.399 3.843 1.188q1.343 1.173 1.344 3.344 0 .955-.453 1.906-.44.955-1.312 1.906-.861.938-3.297 2.938-1.36 1.094-2.157 1.984c-.53.594-.914 1.164-1.14 1.703h8.61v1.797Zm25.203-8.266q0 4.143-1.453 6.328-1.454 2.173-4.313 2.172-2.846.001-4.281-2.172-1.424-2.167-1.422-6.328-.002-4.248 1.39-6.375 1.39-2.123 4.391-2.125 2.92 0 4.297 2.156 1.39 2.144 1.39 6.344m-2.14 0c0-2.383-.278-4.11-.829-5.172-.555-1.07-1.46-1.609-2.719-1.609q-1.954 0-2.797 1.578-.843 1.583-.843 5.203-.001 3.516.859 5.156.857 1.627 2.734 1.626 1.858.001 2.72-1.657.873-1.668.874-5.125m16.14 0q0 4.143-1.453 6.328-1.454 2.173-4.313 2.172-2.846.001-4.281-2.172-1.423-2.167-1.422-6.328-.002-4.248 1.39-6.375 1.39-2.123 4.391-2.125 2.92 0 4.297 2.156 1.39 2.144 1.39 6.344m-2.14 0c0-2.383-.278-4.11-.829-5.172q-.831-1.607-2.719-1.609-1.954 0-2.797 1.578-.843 1.583-.843 5.203-.001 3.516.859 5.156.857 1.627 2.734 1.626 1.858.001 2.72-1.657.873-1.668.874-5.125m-51.059 61.121v-1.484q.608-1.372 1.468-2.422a17 17 0 0 1 1.797-1.89 32 32 0 0 1 1.89-1.579 22 22 0 0 0 1.688-1.453q.748-.733 1.204-1.531.468-.795.468-1.813 0-1.359-.797-2.109c-.53-.5-1.273-.75-2.218-.75q-1.347.001-2.22.734-.878.739-1.03 2.063l-2.157-.203c.157-1.32.72-2.375 1.688-3.156q1.452-1.173 3.719-1.172 2.496.002 3.843 1.187c.895.781 1.344 1.899 1.344 3.344q0 .956-.453 1.906-.44.957-1.312 1.906-.861.939-3.297 2.938-1.36 1.094-2.157 1.984c-.53.594-.914 1.164-1.14 1.703h8.61v1.797Zm25.203-8.265q0 4.141-1.453 6.328-1.454 2.173-4.313 2.172-2.846 0-4.281-2.172-1.424-2.168-1.422-6.328-.002-4.248 1.39-6.375c.926-1.414 2.391-2.125 4.391-2.125q2.92 0 4.297 2.156 1.39 2.144 1.39 6.344m-2.14 0c0-2.383-.278-4.11-.829-5.172-.555-1.07-1.46-1.61-2.719-1.61q-1.954.001-2.797 1.579-.843 1.581-.843 5.203-.001 3.515.859 5.156c.57 1.086 1.484 1.625 2.734 1.625q1.858.001 2.72-1.656.873-1.67.874-5.125m16.14 0q0 4.141-1.453 6.328-1.454 2.173-4.313 2.172-2.846 0-4.281-2.172-1.424-2.168-1.422-6.328-.002-4.248 1.39-6.375c.926-1.414 2.391-2.125 4.391-2.125q2.92 0 4.297 2.156 1.39 2.144 1.39 6.344m-2.14 0c0-2.383-.278-4.11-.829-5.172-.555-1.07-1.46-1.61-2.719-1.61q-1.954.001-2.797 1.579-.843 1.581-.843 5.203-.001 3.515.859 5.156c.57 1.086 1.484 1.625 2.734 1.625q1.858.001 2.72-1.656.873-1.67.874-5.125m16.14 0q0 4.141-1.453 6.328-1.454 2.173-4.313 2.172-2.846 0-4.281-2.172-1.423-2.168-1.422-6.328-.002-4.248 1.39-6.375c.926-1.414 2.391-2.125 4.391-2.125q2.92 0 4.297 2.156 1.39 2.144 1.39 6.344m-2.14 0c0-2.383-.278-4.11-.829-5.172-.555-1.07-1.46-1.61-2.719-1.61q-1.954.001-2.797 1.579-.843 1.581-.843 5.203-.001 3.515.859 5.156c.57 1.086 1.484 1.625 2.734 1.625q1.858.001 2.72-1.656.873-1.67.874-5.125m-50.432 61.117v-1.797h4.203v-12.703l-3.719 2.656v-1.984l3.906-2.688h1.938v14.719h4.015v1.797Zm24.484-4.61q0 2.285-1.453 3.563-1.454 1.282-4.172 1.281c-1.773 0-3.156-.414-4.156-1.25q-1.486-1.265-1.485-3.562-.002-1.623.922-2.719.922-1.108 2.375-1.344v-.047q-1.36-.31-2.14-1.359-.767-1.06-.766-2.484c0-1.258.469-2.282 1.406-3.063q1.406-1.172 3.797-1.172 2.437.001 3.844 1.157 1.406 1.14 1.406 3.109-.001 1.407-.781 2.469c-.524.699-1.234 1.14-2.14 1.328v.047q1.574.253 2.452 1.343.891 1.08.891 2.704m-2.203-.203q-.001-1.529-.922-2.312-.907-.78-2.547-.781-1.612 0-2.515.843-.908.845-.907 2.297-.001 3.422 3.485 3.422c1.144 0 2-.273 2.562-.828q.844-.825.844-2.64m-.406-7.578c0-1.863-1.024-2.797-3.063-2.797q-1.501 0-2.281.704-.767.703-.766 2.093 0 1.424.797 2.172.795.736 2.266.735 1.481.002 2.265-.688.781-.684.782-2.219m16.703 4.125q0 4.143-1.453 6.328-1.454 2.174-4.313 2.172-2.846.001-4.281-2.172-1.424-2.167-1.422-6.328-.002-4.248 1.39-6.375c.926-1.414 2.391-2.125 4.391-2.125q2.92 0 4.297 2.157 1.39 2.143 1.39 6.343m-2.14 0c0-2.383-.278-4.11-.829-5.172q-.831-1.607-2.719-1.609-1.954 0-2.797 1.578-.843 1.583-.843 5.203-.001 3.516.859 5.157.857 1.626 2.734 1.625 1.858.001 2.72-1.657.873-1.668.874-5.125m16.14 0q0 4.143-1.453 6.328-1.454 2.174-4.313 2.172-2.846.001-4.281-2.172-1.423-2.167-1.422-6.328-.002-4.248 1.39-6.375c.926-1.414 2.391-2.125 4.391-2.125q2.92 0 4.297 2.157 1.39 2.143 1.39 6.343m-2.14 0c0-2.383-.278-4.11-.829-5.172q-.831-1.607-2.719-1.609-1.954 0-2.797 1.578-.843 1.583-.843 5.203-.001 3.516.859 5.157.857 1.626 2.734 1.625 1.858.001 2.72-1.657.873-1.668.874-5.125m-50.434 61.119v-1.796h4.203v-12.704l-3.719 2.657v-1.985l3.906-2.687h1.938v14.719h4.015v1.796Zm24.468-5.406q-.002 2.613-1.421 4.125-1.423 1.517-3.907 1.516-2.8 0-4.281-2.078-1.47-2.075-1.469-6.032-.002-4.296 1.532-6.593 1.545-2.298 4.375-2.297 3.733 0 4.718 3.375l-2.015.36q-.627-2.017-2.72-2.017-1.815 0-2.812 1.688c-.656 1.117-.984 2.734-.984 4.86a3.84 3.84 0 0 1 1.625-1.61q1.043-.562 2.39-.562 2.279 0 3.626 1.437 1.342 1.426 1.343 3.828m-2.14.094q0-1.793-.89-2.766-.88-.967-2.438-.969c-.993 0-1.79.29-2.391.86q-.907.862-.906 2.375c0 1.273.312 2.312.937 3.125q.95 1.218 2.422 1.219c1.02 0 1.817-.336 2.39-1.016q.875-1.03.876-2.828m16.25-2.953q0 4.141-1.453 6.328-1.454 2.173-4.313 2.172-2.846 0-4.281-2.172-1.424-2.168-1.422-6.328-.002-4.248 1.39-6.375c.926-1.414 2.391-2.125 4.391-2.125q2.92 0 4.297 2.156 1.39 2.144 1.39 6.344m-2.14 0c0-2.383-.278-4.11-.829-5.172-.555-1.07-1.46-1.61-2.719-1.61q-1.954.001-2.797 1.579-.843 1.582-.843 5.203-.001 3.515.859 5.156c.57 1.086 1.484 1.625 2.734 1.625q1.858.001 2.72-1.656.873-1.67.874-5.125m16.14 0q0 4.141-1.453 6.328-1.454 2.173-4.313 2.172-2.846 0-4.281-2.172-1.423-2.168-1.422-6.328-.002-4.248 1.39-6.375c.926-1.414 2.391-2.125 4.391-2.125q2.92 0 4.297 2.156 1.39 2.144 1.39 6.344m-2.14 0c0-2.383-.278-4.11-.829-5.172-.555-1.07-1.46-1.61-2.719-1.61q-1.954.001-2.797 1.579-.843 1.582-.843 5.203-.001 3.515.859 5.156c.57 1.086 1.484 1.625 2.734 1.625q1.858.001 2.72-1.656.873-1.67.874-5.125m-50.434 61.117v-1.797h4.203v-12.703l-3.719 2.656v-1.984l3.906-2.688h1.938v14.72h4.015v1.796Zm22.5-3.734v3.734h-2v-3.734h-7.782v-1.641l7.563-11.14h2.219v11.109h2.312v1.672Zm-2-1.672v-8.735c-.18.344-.328.625-.453.844a8 8 0 0 1-.329.563l-3.78 5.593q-.33.487-1.266 1.735Zm18.078-2.86q0 4.143-1.453 6.328-1.454 2.174-4.313 2.172-2.846.001-4.281-2.172-1.424-2.167-1.422-6.328-.002-4.248 1.39-6.375c.926-1.414 2.391-2.125 4.391-2.125q2.92 0 4.297 2.157 1.39 2.144 1.39 6.343m-2.14 0c0-2.382-.278-4.11-.829-5.172-.555-1.07-1.46-1.609-2.719-1.609q-1.954 0-2.797 1.578-.843 1.583-.843 5.203-.001 3.516.859 5.157c.57 1.086 1.484 1.625 2.734 1.625q1.858.001 2.72-1.657.873-1.668.874-5.125m16.14 0q0 4.143-1.453 6.328-1.454 2.174-4.313 2.172-2.846.001-4.281-2.172-1.423-2.167-1.422-6.328-.002-4.248 1.39-6.375c.926-1.414 2.391-2.125 4.391-2.125q2.92 0 4.297 2.157 1.39 2.144 1.39 6.343m-2.14 0c0-2.382-.278-4.11-.829-5.172-.555-1.07-1.46-1.609-2.719-1.609q-1.954 0-2.797 1.578-.843 1.583-.843 5.203-.001 3.516.859 5.157c.57 1.086 1.484 1.625 2.734 1.625q1.858.001 2.72-1.657.873-1.668.874-5.125m-50.434 61.121v-1.796h4.203V374.94l-3.719 2.657v-1.985l3.906-2.687h1.938v14.719h4.015v1.796Zm13.375 0v-1.484q.608-1.372 1.468-2.422a17 17 0 0 1 1.797-1.89 32 32 0 0 1 1.89-1.579 22 22 0 0 0 1.688-1.453q.748-.733 1.204-1.531.468-.795.468-1.812 0-1.36-.797-2.11c-.53-.5-1.273-.75-2.218-.75q-1.347 0-2.22.735-.878.738-1.03 2.062l-2.157-.203c.157-1.32.72-2.375 1.688-3.156q1.452-1.172 3.719-1.172 2.496.002 3.843 1.187 1.343 1.175 1.344 3.344 0 .956-.453 1.906-.44.956-1.312 1.907-.861.938-3.297 2.937-1.36 1.094-2.157 1.984c-.53.594-.914 1.164-1.14 1.704h8.61v1.796Zm25.203-8.265q0 4.142-1.453 6.328-1.454 2.174-4.313 2.172-2.846 0-4.281-2.172-1.424-2.168-1.422-6.328-.002-4.248 1.39-6.375c.926-1.414 2.391-2.125 4.391-2.125q2.92 0 4.297 2.156 1.39 2.144 1.39 6.344m-2.14 0c0-2.383-.278-4.11-.829-5.172-.555-1.07-1.46-1.61-2.719-1.61q-1.954.001-2.797 1.579-.843 1.582-.843 5.203-.001 3.516.859 5.156c.57 1.086 1.484 1.625 2.734 1.625q1.858.002 2.72-1.656.873-1.668.874-5.125m16.14 0q0 4.142-1.453 6.328-1.454 2.174-4.313 2.172-2.846 0-4.281-2.172-1.423-2.168-1.422-6.328-.002-4.248 1.39-6.375c.926-1.414 2.391-2.125 4.391-2.125q2.92 0 4.297 2.156 1.39 2.144 1.39 6.344m-2.14 0c0-2.383-.278-4.11-.829-5.172-.555-1.07-1.46-1.61-2.719-1.61q-1.954.001-2.797 1.579-.843 1.582-.843 5.203-.001 3.516.859 5.156c.57 1.086 1.484 1.625 2.734 1.625q1.858.002 2.72-1.656.873-1.668.874-5.125m-50.434 61.117v-1.797h4.203v-12.703l-3.719 2.656v-1.984l3.906-2.688h1.938v14.72h4.015v1.796Zm24.578-8.266q0 4.143-1.453 6.328-1.454 2.173-4.313 2.172-2.846.001-4.281-2.172-1.424-2.167-1.422-6.328-.002-4.248 1.39-6.375 1.39-2.123 4.391-2.125 2.92 0 4.297 2.157 1.39 2.144 1.39 6.343m-2.14 0c0-2.382-.278-4.109-.829-5.172q-.831-1.607-2.719-1.609-1.954 0-2.797 1.578-.843 1.583-.843 5.203-.001 3.516.859 5.157c.57 1.086 1.484 1.625 2.734 1.625q1.858.001 2.72-1.657.873-1.668.874-5.125m16.14 0q0 4.143-1.453 6.328-1.454 2.173-4.313 2.172-2.846.001-4.281-2.172-1.424-2.167-1.422-6.328-.002-4.248 1.39-6.375c.926-1.414 2.391-2.125 4.391-2.125q2.92 0 4.297 2.157 1.39 2.144 1.39 6.343m-2.14 0c0-2.382-.278-4.109-.829-5.172q-.832-1.607-2.719-1.609-1.954 0-2.797 1.578-.843 1.583-.843 5.203-.001 3.516.859 5.157c.57 1.086 1.484 1.625 2.734 1.625q1.858.001 2.72-1.657.873-1.668.874-5.125m16.14 0q0 4.143-1.453 6.328-1.454 2.173-4.313 2.172-2.846.001-4.281-2.172-1.423-2.167-1.422-6.328-.002-4.248 1.39-6.375c.926-1.414 2.391-2.125 4.391-2.125q2.92 0 4.297 2.157 1.39 2.144 1.39 6.343m-2.14 0c0-2.382-.278-4.109-.829-5.172-.555-1.07-1.46-1.609-2.719-1.609q-1.954 0-2.797 1.578-.843 1.583-.843 5.203-.001 3.516.859 5.157c.57 1.086 1.484 1.625 2.734 1.625q1.858.001 2.72-1.657.873-1.668.874-5.125M37.832 490.54q0 2.284-1.453 3.562-1.454 1.281-4.172 1.28c-1.773 0-3.156-.413-4.156-1.25q-1.486-1.264-1.485-3.562-.002-1.623.922-2.718.922-1.11 2.375-1.344v-.047q-1.36-.31-2.14-1.36-.767-1.06-.766-2.484 0-1.889 1.406-3.062t3.797-1.172q2.437.001 3.844 1.156 1.406 1.142 1.406 3.11-.001 1.406-.781 2.468c-.524.7-1.234 1.14-2.14 1.328v.047q1.574.253 2.452 1.344.891 1.08.891 2.703m-2.203-.204q-.001-1.53-.922-2.313-.907-.78-2.547-.78-1.612 0-2.515.843-.908.843-.907 2.297-.001 3.422 3.485 3.422 1.718.002 2.562-.828.844-.825.844-2.641m-.406-7.578c0-1.863-1.024-2.797-3.063-2.797q-1.501 0-2.281.703-.767.704-.766 2.094 0 1.423.797 2.172c.531.492 1.285.734 2.266.734.988 0 1.742-.226 2.265-.687q.781-.685.782-2.22m16.703 4.125q0 4.142-1.453 6.328-1.454 2.174-4.313 2.172-2.846 0-4.281-2.172-1.424-2.168-1.422-6.328-.002-4.248 1.39-6.375 1.39-2.123 4.391-2.125 2.92 0 4.297 2.156 1.39 2.144 1.39 6.344m-2.14 0c0-2.383-.278-4.11-.829-5.172-.555-1.07-1.46-1.61-2.719-1.61q-1.954.001-2.797 1.579-.843 1.582-.843 5.203-.001 3.516.859 5.156c.57 1.086 1.484 1.625 2.734 1.625q1.858.001 2.72-1.656.873-1.669.874-5.125m16.14 0q0 4.142-1.453 6.328-1.454 2.174-4.313 2.172-2.846 0-4.281-2.172-1.423-2.168-1.422-6.328-.002-4.248 1.39-6.375c.926-1.414 2.391-2.125 4.391-2.125q2.92 0 4.297 2.156 1.39 2.144 1.39 6.344m-2.14 0c0-2.383-.278-4.11-.829-5.172-.555-1.07-1.46-1.61-2.719-1.61q-1.954.001-2.797 1.579-.843 1.582-.843 5.203-.001 3.516.859 5.156c.57 1.086 1.484 1.625 2.734 1.625q1.858.001 2.72-1.656.873-1.669.874-5.125m-25.966 55.713q-.002 2.613-1.421 4.125-1.423 1.516-3.907 1.515-2.8.001-4.281-2.078-1.47-2.075-1.469-6.031-.002-4.295 1.532-6.594 1.545-2.297 4.375-2.297 3.733 0 4.718 3.375l-2.015.36q-.627-2.016-2.72-2.016-1.815 0-2.812 1.688-.984 1.674-.984 4.859a3.84 3.84 0 0 1 1.625-1.61q1.043-.562 2.39-.562 2.279 0 3.626 1.438 1.342 1.424 1.343 3.828m-2.14.093q0-1.793-.89-2.765-.88-.968-2.438-.969c-.993 0-1.79.29-2.391.86q-.907.862-.906 2.375 0 1.908.937 3.125.95 1.218 2.422 1.218 1.53.002 2.39-1.015.875-1.031.876-2.828m16.25-2.953q0 4.143-1.453 6.328-1.454 2.174-4.313 2.172-2.846.002-4.281-2.172-1.424-2.167-1.422-6.328-.002-4.248 1.39-6.375 1.39-2.123 4.391-2.125 2.92 0 4.297 2.157 1.39 2.144 1.39 6.343m-2.14 0c0-2.382-.278-4.109-.829-5.172q-.831-1.607-2.719-1.609-1.954 0-2.797 1.578-.843 1.583-.843 5.203-.001 3.516.859 5.157c.57 1.086 1.484 1.625 2.734 1.625q1.858.001 2.72-1.657.873-1.668.874-5.125m16.14 0q0 4.143-1.453 6.328-1.454 2.174-4.313 2.172-2.846.002-4.281-2.172-1.423-2.167-1.422-6.328-.002-4.248 1.39-6.375c.926-1.414 2.391-2.125 4.391-2.125q2.92 0 4.297 2.157 1.39 2.144 1.39 6.343m-2.14 0c0-2.382-.278-4.109-.829-5.172q-.831-1.607-2.719-1.609-1.954 0-2.797 1.578-.843 1.583-.843 5.203-.001 3.516.859 5.157c.57 1.086 1.484 1.625 2.734 1.625q1.858.001 2.72-1.657.873-1.668.874-5.125m-38.266-13.46" style="stroke:none;fill-rule:nonzero;fill:#000;fill-opacity:1"/><g clip-path="url(#scrobbles-month__a)"><path d="M126.8 291.27h27.196v406.968h-27.195Zm0 0" style="stroke:none;fill-rule:nonzero;fill:#222;fill-opacity:1"/></g><g clip-path="url(#scrobbles-month__b)"><path d="M202.34 395.918h27.195v302.32H202.34Zm0 0" style="stroke:none;fill-rule:nonzero;fill:#222;fill-opacity:1"/></g><g clip-path="url(#scrobbles-month__c)"><path d="M277.879 109.191h27.195v589.051H277.88Zm0 0" style="stroke:none;fill-rule:nonzero;fill:#222;fill-opacity:1"/></g><g clip-path="url(#scrobbles-month__d)"><path d="M353.422 313.996h27.195v384.242h-27.195Zm0 0" style="stroke:none;fill-rule:nonzero;fill:#222;fill-opacity:1"/></g><g clip-path="url(#scrobbles-month__e)"><path d="M428.96 319.016h27.196v379.222h-27.195Zm0 0" style="stroke:none;fill-rule:nonzero;fill:#222;fill-opacity:1"/></g><g clip-path="url(#scrobbles-month__f)"><path d="M504.5 186.355h27.195v511.883H504.5Zm0 0" style="stroke:none;fill-rule:nonzero;fill:#222;fill-opacity:1"/></g><g clip-path="url(#scrobbles-month__g)"><path d="M580.04 491.848h27.194v206.39H580.04Zm0 0" style="stroke:none;fill-rule:nonzero;fill:#222;fill-opacity:1"/></g><g clip-path="url(#scrobbles-month__h)"><path d="M655.582 339.102h27.195v359.136h-27.195Zm0 0" style="stroke:none;fill-rule:nonzero;fill:#222;fill-opacity:1"/></g><g clip-path="url(#scrobbles-month__i)"><path d="M731.121 390.105h27.195v308.137h-27.195Zm0 0" style="stroke:none;fill-rule:nonzero;fill:#222;fill-opacity:1"/></g><g clip-path="url(#scrobbles-month__j)"><path d="M806.66 306.332h27.195v391.906H806.66Zm0 0" style="stroke:none;fill-rule:nonzero;fill:#222;fill-opacity:1"/></g><g clip-path="url(#scrobbles-month__k)"><path d="M882.2 77.477h27.195v620.761h-27.196Zm0 0" style="stroke:none;fill-rule:nonzero;fill:#222;fill-opacity:1"/></g><g clip-path="url(#scrobbles-month__l)"><path d="M957.742 297.613h27.196v400.63h-27.196Zm0 0" style="stroke:none;fill-rule:nonzero;fill:#222;fill-opacity:1"/></g><g clip-path="url(#scrobbles-month__m)"><path d="M96.586 200.89h27.195v497.352H96.586Zm0 0" style="stroke:none;fill-rule:nonzero;fill:#111;fill-opacity:1"/></g><g clip-path="url(#scrobbles-month__n)"><path d="M172.125 412.566h27.195v285.672h-27.195Zm0 0" style="stroke:none;fill-rule:nonzero;fill:#111;fill-opacity:1"/></g><g clip-path="url(#scrobbles-month__o)"><path d="M247.664 316.375h27.195v381.867h-27.195Zm0 0" style="stroke:none;fill-rule:nonzero;fill:#111;fill-opacity:1"/></g><g clip-path="url(#scrobbles-month__p)"><path d="M323.203 398.297h27.195v299.941h-27.195Zm0 0" style="stroke:none;fill-rule:nonzero;fill:#111;fill-opacity:1"/></g><g clip-path="url(#scrobbles-month__q)"><path d="M398.746 345.707h27.195v352.531h-27.195Zm0 0" style="stroke:none;fill-rule:nonzero;fill:#111;fill-opacity:1"/></g><g clip-path="url(#scrobbles-month__r)"><path d="M474.285 331.172h27.195v367.066h-27.195Zm0 0" style="stroke:none;fill-rule:nonzero;fill:#111;fill-opacity:1"/></g><g clip-path="url(#scrobbles-month__s)"><path d="M549.824 238.414h27.196v459.824h-27.196Zm0 0" style="stroke:none;fill-rule:nonzero;fill:#111;fill-opacity:1"/></g><g clip-path="url(#scrobbles-month__t)"><path d="M625.363 376.098h27.196v322.14h-27.196Zm0 0" style="stroke:none;fill-rule:nonzero;fill:#111;fill-opacity:1"/></g><g clip-path="url(#scrobbles-month__u)"><path d="M700.906 284.133h27.196v414.105h-27.196Zm0 0" style="stroke:none;fill-rule:nonzero;fill:#111;fill-opacity:1"/></g><g clip-path="url(#scrobbles-month__v)"><path d="M776.445 226.79h27.196v471.452h-27.196Zm0 0" style="stroke:none;fill-rule:nonzero;fill:#111;fill-opacity:1"/></g><g clip-path="url(#scrobbles-month__w)"><path d="M851.984 310.563h27.196v387.68h-27.196Zm0 0" style="stroke:none;fill-rule:nonzero;fill:#111;fill-opacity:1"/></g><g clip-path="url(#scrobbles-month__x)"><path d="M927.523 315.582h27.196v382.656h-27.196Zm0 0" style="stroke:none;fill-rule:nonzero;fill:#111;fill-opacity:1"/></g></svg>