<svg xmlns="http://www.w3.org/2000/svg" width="1000pt" height="800" viewBox="0 0 1000 600"><defs><clipPath id="scrobbles-weekday__a"><path d="M154 468h48v71.68h-48Zm0 0"/></clipPath><clipPath id="scrobbles-weekday__b"><path d="M284 245h47v294.68h-47Zm0 0"/></clipPath><clipPath id="scrobbles-weekday__c"><path d="M413 214h48v325.68h-48Zm0 0"/></clipPath><clipPath id="scrobbles-weekday__d"><path d="M543 112h47v427.68h-47Zm0 0"/></clipPath><clipPath id="scrobbles-weekday__e"><path d="M672 191h48v348.68h-48Zm0 0"/></clipPath><clipPath id="scrobbles-weekday__f"><path d="M802 257h47v282.68h-47Zm0 0"/></clipPath><clipPath id="scrobbles-weekday__g"><path d="M931 480h48v59.68h-48Zm0 0"/></clipPath><clipPath id="scrobbles-weekday__h"><path d="M103 495h47v44.68h-47Zm0 0"/></clipPath><clipPath id="scrobbles-weekday__i"><path d="M232 191h48v348.68h-48Zm0 0"/></clipPath><clipPath id="scrobbles-weekday__j"><path d="M362 252h47v287.68h-47Zm0 0"/></clipPath><clipPath id="scrobbles-weekday__k"><path d="M491 218h48v321.68h-48Zm0 0"/></clipPath><clipPath id="scrobbles-weekday__l"><path d="M621 236h47v303.68h-47Zm0 0"/></clipPath><clipPath id="scrobbles-weekday__m"><path d="M750 250h48v289.68h-48Zm0 0"/></clipPath><clipPath id="scrobbles-weekday__n"><path d="M880 469h47v70.68h-47Zm0 0"/></clipPath></defs><path d="M342 20h80v24h-80Zm0 0" style="stroke:none;fill-rule:nonzero;fill:#111;fill-opacity:1"/><path d="M435.203 40.32v-1.484q.608-1.372 1.469-2.422a17 17 0 0 1 1.797-1.89 32 32 0 0 1 1.89-1.579 22 22 0 0 0 1.688-1.453c.5-.488.898-1 1.203-1.531q.47-.795.469-1.813 0-1.359-.797-2.109c-.531-.5-1.274-.75-2.219-.75q-1.346.001-2.219.734-.88.739-1.03 2.063l-2.157-.203c.156-1.32.719-2.375 1.687-3.156.97-.782 2.207-1.172 3.72-1.172q2.495.002 3.843 1.187c.894.781 1.344 1.899 1.344 3.344q-.001.956-.454 1.906-.438.957-1.312 1.906-.86.939-3.297 2.938-1.36 1.094-2.156 1.984c-.531.594-.914 1.164-1.14 1.703h8.609v1.797Zm25.203-8.265q0 4.141-1.453 6.328-1.453 2.173-4.312 2.172-2.848 0-4.282-2.172-1.422-2.169-1.421-6.328c0-2.832.46-4.957 1.39-6.375q1.39-2.123 4.39-2.125 2.92 0 4.298 2.156 1.389 2.144 1.39 6.344m-2.14 0c0-2.383-.278-4.11-.829-5.172-.554-1.07-1.46-1.61-2.718-1.61q-1.956.001-2.797 1.579-.844 1.581-.844 5.203-.001 3.515.86 5.156.857 1.627 2.734 1.625 1.857.002 2.719-1.656.874-1.67.875-5.125m4.937 8.265v-1.484q.608-1.372 1.469-2.422a17 17 0 0 1 1.797-1.89 32 32 0 0 1 1.89-1.579 22 22 0 0 0 1.688-1.453c.5-.488.898-1 1.203-1.531q.47-.795.469-1.813 0-1.359-.797-2.109c-.531-.5-1.274-.75-2.219-.75q-1.346.001-2.219.734-.88.739-1.03 2.063l-2.157-.203c.156-1.32.719-2.375 1.687-3.156.97-.782 2.207-1.172 3.72-1.172q2.495.002 3.843 1.187c.894.781 1.344 1.899 1.344 3.344q-.001.956-.454 1.906-.438.957-1.312 1.906-.86.939-3.297 2.938-1.36 1.094-2.156 1.984c-.531.594-.914 1.164-1.14 1.703h8.609v1.797Zm23.125-3.734v3.734h-2v-3.734h-7.781v-1.64l7.562-11.141h2.22v11.11h2.312v1.67Zm-2-1.672V26.18c-.18.343-.328.625-.453.843a8 8 0 0 1-.328.563l-3.781 5.594q-.33.486-1.266 1.734ZM434 18.594" style="stroke:none;fill-rule:nonzero;fill:#000;fill-opacity:1"/><path d="M510 20h80v24h-80Zm0 0" style="stroke:none;fill-rule:nonzero;fill:#222;fill-opacity:1"/><path d="M603.203 40.32v-1.484q.608-1.372 1.469-2.422a17 17 0 0 1 1.797-1.89 32 32 0 0 1 1.89-1.579 22 22 0 0 0 1.688-1.453c.5-.488.898-1 1.203-1.531q.47-.795.469-1.813 0-1.359-.797-2.109c-.531-.5-1.274-.75-2.219-.75q-1.346.001-2.219.734-.88.739-1.03 2.063l-2.157-.203c.156-1.32.719-2.375 1.687-3.156.97-.782 2.207-1.172 3.72-1.172q2.495.002 3.843 1.187c.894.781 1.344 1.899 1.344 3.344q-.002.956-.453 1.906-.44.957-1.313 1.906-.86.939-3.297 2.938-1.36 1.094-2.156 1.984c-.531.594-.914 1.164-1.14 1.703h8.609v1.797Zm25.203-8.265q0 4.141-1.453 6.328-1.453 2.173-4.312 2.172-2.848 0-4.282-2.172-1.423-2.169-1.422-6.328-.002-4.248 1.391-6.375 1.39-2.123 4.39-2.125 2.92 0 4.298 2.156 1.389 2.144 1.39 6.344m-2.14 0c0-2.383-.278-4.11-.828-5.172-.555-1.07-1.461-1.61-2.72-1.61q-1.955.001-2.796 1.579-.844 1.581-.844 5.203-.001 3.515.86 5.156.857 1.627 2.734 1.625 1.857.002 2.719-1.656.874-1.67.875-5.125m4.937 8.265v-1.484q.608-1.372 1.469-2.422a17 17 0 0 1 1.797-1.89 32 32 0 0 1 1.89-1.579 22 22 0 0 0 1.688-1.453c.5-.488.898-1 1.203-1.531q.47-.795.469-1.813 0-1.359-.797-2.109c-.531-.5-1.274-.75-2.219-.75q-1.346.001-2.219.734-.88.739-1.03 2.063l-2.157-.203c.156-1.32.719-2.375 1.687-3.156.97-.782 2.207-1.172 3.72-1.172q2.495.002 3.843 1.187c.894.781 1.344 1.899 1.344 3.344q-.002.956-.453 1.906-.44.957-1.313 1.906-.86.939-3.297 2.938-1.36 1.094-2.156 1.984c-.531.594-.914 1.164-1.14 1.703h8.609v1.797Zm25.094-4.562q0 2.283-1.453 3.547-1.455 1.252-4.157 1.25-2.5 0-4-1.125-1.486-1.139-1.765-3.36l2.172-.187q.42 2.923 3.593 2.922 1.593.002 2.5-.782.922-.78.922-2.328-.001-1.36-1.047-2.11-1.032-.75-2.984-.75h-1.203v-1.827h1.156q1.734 0 2.688-.75.951-.762.953-2.11-.001-1.311-.781-2.078-.784-.78-2.313-.78-1.394.001-2.265.718-.861.72-1 2.015l-2.11-.156q.232-2.028 1.672-3.172 1.452-1.139 3.719-1.14 2.483 0 3.86 1.156 1.389 1.158 1.39 3.219 0 1.581-.89 2.578-.892.985-2.579 1.344v.046c1.238.125 2.203.54 2.89 1.235q1.032 1.048 1.032 2.625M602 18.594" style="stroke:none;fill-rule:nonzero;fill:#000;fill-opacity:1"/><path d="M44 270.5v9.34M44 32v237.5" style="fill:none;stroke-width:1;stroke-linecap:butt;stroke-linejoin:miter;stroke:#000;stroke-opacity:.247059;stroke-miterlimit:10" transform="scale(2)"/><path d="M108.5 270.5v9.34m0-247.84v237.5m65 1v9.34m0-247.84v237.5m64.5 1v9.34M238 32v237.5m65 1v9.34M303 32v237.5m64.5 1v9.34m0-247.84v237.5m65 1v9.34m0-247.84v237.5m64.5 1v9.34M497 32v237.5m-453.5.5h454" style="fill:none;stroke-width:1;stroke-linecap:butt;stroke-linejoin:miter;stroke:#000;stroke-opacity:.0980392;stroke-miterlimit:10" transform="scale(2)"/><path d="M145.176 577.836c0 1.523-.602 2.703-1.797 3.547q-1.782 1.252-5.016 1.25-6.048.002-7-4.203l2.172-.422q.375 1.487 1.594 2.187 1.216.69 3.312.688c1.446 0 2.563-.242 3.344-.735.781-.5 1.172-1.226 1.172-2.187q0-.81-.375-1.313-.363-.515-1.031-.843c-.438-.22-.969-.399-1.594-.547a406 406 0 0 1-2.047-.485q-1.956-.42-2.969-.859-1.018-.434-1.609-.969a3.6 3.6 0 0 1-.89-1.25c-.212-.476-.313-1.023-.313-1.64 0-1.414.539-2.504 1.625-3.266q1.622-1.155 4.656-1.156 2.81.001 4.297.875 1.482.86 2.078 2.922l-2.203.39q-.363-1.31-1.375-1.906-1.019-.592-2.828-.594-1.987 0-3.031.657-1.032.655-1.032 1.968-.002.751.407 1.25.406.504 1.156.844.762.345 3.047.86.75.173 1.5.359.762.176 1.453.422c.469.168.898.367 1.297.593q.608.345 1.047.844.45.487.703 1.156c.164.438.25.961.25 1.563m4.781-8.125v8.047c0 .836.078 1.484.234 1.953q.247.69.782 1 .544.298 1.593.297 1.512 0 2.391-1.047.89-1.044.89-2.89v-7.36h2.11v9.984q0 2.205.063 2.703h-1.985a2 2 0 0 1-.031-.312q-.001-.265-.031-.594a37 37 0 0 1-.032-1.265h-.03q-.74 1.314-1.688 1.859-.957.546-2.375.547-2.08 0-3.047-1.031c-.649-.696-.969-1.844-.969-3.438v-8.453Zm19.984 12.687v-8.046c0-.832-.086-1.477-.25-1.938q-.252-.685-.796-.984-.533-.312-1.563-.313c-1.023 0-1.824.352-2.406 1.047-.586.688-.875 1.652-.875 2.89v7.344h-2.11v-9.968q0-2.215-.078-2.72h2q-.001.065.016.33l.031.593.047 1.25h.031c.477-.875 1.035-1.492 1.672-1.86q.968-.545 2.375-.546 2.091.002 3.063 1.046.967 1.032.968 3.422v8.453Zm103.84 0v-11.015q0-1.828.094-3.516-.563 2.098-1.031 3.281l-4.266 11.25h-1.562l-4.329-11.25-.656-2-.39-1.28.046 1.296.047 2.219v11.015h-2v-16.515h2.938l4.406 11.453q.233.689.438 1.484.216.785.296 1.14.093-.467.391-1.42.294-.951.406-1.204l4.313-11.453h2.875v16.515Zm16.328-6.359c0 2.219-.492 3.875-1.468 4.969q-1.472 1.627-4.25 1.625-2.784 0-4.204-1.688-1.406-1.7-1.406-4.906 0-6.562 5.672-6.562 2.905.002 4.281 1.609c.914 1.062 1.375 2.715 1.375 4.953m-2.218 0q-.001-2.624-.782-3.812c-.523-.79-1.39-1.188-2.609-1.188q-1.863 0-2.687 1.219-.83 1.204-.829 3.781 0 2.518.813 3.781.827 1.252 2.562 1.25 1.904 0 2.72-1.218c.538-.813.812-2.082.812-3.813m13.546 6.36v-8.047q-.001-1.247-.25-1.938-.251-.685-.796-.984-.533-.312-1.563-.313c-1.023 0-1.824.352-2.406 1.047-.586.688-.875 1.652-.875 2.89v7.344h-2.11v-9.968q0-2.215-.078-2.72h2q-.001.065.016.33l.031.593.047 1.25h.031c.477-.875 1.036-1.492 1.672-1.86q.968-.545 2.375-.546 2.091.002 3.063 1.046.967 1.032.969 3.422v8.453ZM399.7 567.71v14.688h-2.22v-14.687h-5.671v-1.828h13.562v1.828Zm9.25 2v8.048c0 .836.077 1.484.234 1.953q.247.69.78 1 .545.298 1.595.297 1.51 0 2.39-1.047.89-1.044.89-2.89v-7.36h2.11v9.984q0 2.205.063 2.703h-1.985a2 2 0 0 1-.03-.312q-.002-.265-.032-.594a37 37 0 0 1-.031-1.265h-.032q-.738 1.314-1.687 1.859-.957.546-2.375.547-2.08 0-3.047-1.031-.97-1.046-.969-3.438v-8.453Zm13.546 6.798q-.002 2.174.906 3.36c.602.792 1.485 1.187 2.641 1.187q1.358.002 2.187-.547.826-.563 1.125-1.406l1.844.53q-1.125 3-5.156 3c-1.875 0-3.309-.554-4.297-1.671q-1.47-1.687-1.469-4.984 0-3.14 1.47-4.813 1.482-1.687 4.202-1.687 5.592 0 5.594 6.75v.28Zm6.875-1.625q-.188-1.997-1.031-2.922-.845-.92-2.422-.922-1.535 0-2.438 1.031c-.593.68-.914 1.617-.953 2.813Zm105.094 7.515h-2.672l-2.86-10.484q-.282-.983-.812-3.531-.315 1.36-.531 2.281-.206.908-3.188 11.734h-2.672l-4.859-16.515h2.328l2.969 10.484q.529 1.97.969 4.063.279-1.296.64-2.813.373-1.529 3.266-11.734h2.14l2.876 10.281q.655 2.52 1.03 4.266l.11-.407q.311-1.359.5-2.203c.133-.562 1.235-4.539 3.297-11.937h2.344Zm7.531-5.89q-.002 2.174.906 3.36c.602.792 1.485 1.187 2.641 1.187q1.357.002 2.187-.547.827-.563 1.125-1.406l1.844.53q-1.125 3-5.156 3c-1.875 0-3.309-.554-4.297-1.671q-1.47-1.687-1.469-4.984 0-3.14 1.47-4.813 1.482-1.687 4.202-1.687 5.592 0 5.594 6.75v.28Zm6.875-1.625q-.188-1.997-1.031-2.922-.845-.92-2.422-.922-1.535 0-2.438 1.031c-.593.68-.914 1.617-.953 2.813Zm13.516 5.469c-.399.812-.918 1.398-1.563 1.75q-.954.528-2.39.53-2.408.002-3.532-1.609-1.125-1.623-1.125-4.906-.001-6.64 4.657-6.64c.957 0 1.754.18 2.39.53q.966.535 1.563 1.673h.015l-.015-1.407v-5.265h2.11v14.781q-.001 1.97.062 2.61h-2.016a11 11 0 0 1-.078-.86 23 23 0 0 1-.031-1.187Zm-6.407-4.313q0 2.673.704 3.828.702 1.141 2.296 1.14 1.78.001 2.594-1.234.811-1.249.813-3.875c0-1.675-.274-2.906-.813-3.687q-.814-1.172-2.578-1.172c-1.062 0-1.836.399-2.312 1.188-.47.78-.704 2.054-.704 3.812m102.715-8.329v14.688h-2.218v-14.687h-5.672v-1.828h13.562v1.828Zm9.282 4.173q.669-1.231 1.625-1.813.967-.592 2.421-.593 2.063 0 3.047 1.03c.657.688.985 1.837.985 3.438v8.453h-2.125v-8.046q-.002-1.325-.25-1.97-.251-.654-.813-.952-.562-.312-1.547-.313-1.5 0-2.39 1.031-.89 1.032-.89 2.766v7.484h-2.11v-17.39h2.11v4.515q0 .721-.048 1.485a29 29 0 0 0-.047.875Zm13.968-2.172v8.047c0 .836.078 1.484.235 1.953q.247.69.78 1 .545.298 1.595.297 1.511 0 2.39-1.047.89-1.044.89-2.89v-7.36h2.11v9.984q0 2.205.063 2.703h-1.985a2 2 0 0 1-.03-.312q-.002-.265-.032-.594a37 37 0 0 1-.031-1.265h-.032q-.738 1.314-1.687 1.859-.956.546-2.375.547-2.08 0-3.047-1.031-.97-1.046-.969-3.438v-8.453Zm108.012-2.001v6.142h9.219v1.859h-9.219v6.687h-2.234v-16.515h11.734v1.828Zm11.469 14.688v-9.734q-.001-1.324-.078-2.953h2a95 95 0 0 1 .093 2.594h.047q.499-1.621 1.157-2.22.654-.608 1.843-.608.422.001.86.125v1.937q-.423-.124-1.125-.125c-.875 0-1.543.383-2 1.14q-.69 1.125-.688 3.235v6.61Zm7.937 0v-12.687h2.11v12.687Zm0-15.375v-2.015h2.11v2.015Zm116.793 10.813q-.001 2.283-1.797 3.547-1.78 1.252-5.015 1.25-6.05.002-7-4.203l2.172-.422q.374 1.487 1.593 2.187c.813.461 1.914.688 3.313.688 1.445 0 2.562-.242 3.344-.735.78-.5 1.172-1.226 1.172-2.187q0-.81-.375-1.313-.364-.515-1.032-.843c-.437-.22-.968-.399-1.593-.547-.618-.145-1.297-.305-2.047-.485q-1.956-.42-2.97-.859-1.018-.434-1.609-.969a3.6 3.6 0 0 1-.89-1.25q-.315-.714-.313-1.64-.001-2.122 1.625-3.266 1.622-1.155 4.657-1.156c1.875 0 3.304.293 4.297.875q1.481.86 2.078 2.922l-2.203.39q-.364-1.31-1.375-1.906-1.02-.592-2.829-.594-1.987 0-3.03.657-1.032.655-1.032 1.968-.002.751.406 1.25.405.504 1.156.844.762.345 3.047.86.75.173 1.5.359.762.176 1.453.422c.47.168.899.367 1.297.593q.609.345 1.047.844.45.487.703 1.156.248.659.25 1.563m5.953 4.797q-1.922.001-2.89-1-.954-1.013-.953-2.781-.002-1.969 1.297-3.016 1.293-1.06 4.187-1.125l2.844-.047v-.687q0-1.547-.657-2.22c-.437-.444-1.125-.671-2.062-.671-.95 0-1.637.164-2.062.484q-.643.488-.782 1.532l-2.203-.204q.546-3.42 5.094-3.421c1.594 0 2.789.37 3.594 1.109q1.201 1.094 1.203 3.156v5.469q-.001.939.25 1.422.246.469.937.469.312 0 .688-.094v1.312a6.7 6.7 0 0 1-1.625.203q-1.175 0-1.703-.609-.534-.623-.61-1.937h-.062q-.814 1.452-1.89 2.062-1.067.593-2.595.594m.47-1.578q1.17.001 2.062-.532a3.8 3.8 0 0 0 1.422-1.453q.528-.919.53-1.89v-1.047l-2.312.047q-1.488.033-2.25.312-.766.282-1.187.875c-.274.387-.407.899-.407 1.531q-.002 1.033.547 1.594.563.563 1.594.563m15.171 1.25q-1.05.28-2.14.28-2.532.001-2.532-2.874v-8.453h-1.469v-1.547h1.547l.625-2.828h1.407v2.828h2.343v1.547h-2.343v8q-.001.907.296 1.281.296.375 1.047.375.423.002 1.219-.172Zm-36.5-21.633" style="stroke:none;fill-rule:nonzero;fill:#000;fill-opacity:1"/><path d="M33.76 32h9.74m1 0H497M33.76 71.5h9.74m1 0H497m-463.24 40h9.74m1 0H497M33.76 151h9.74m1 0H497M33.76 190.5h9.74m1 0H497M33.76 230h9.74m1 0H497M33.76 270h9.74m1 0H497M44 31.5v239" style="fill:none;stroke-width:1;stroke-linecap:butt;stroke-linejoin:miter;stroke:#000;stroke-opacity:.0980392;stroke-miterlimit:10" transform="scale(2)"/><path d="M21.848 68.586v3.734h-2v-3.734h-7.782v-1.64l7.563-11.141h2.219v11.11h2.312v1.67Zm-2-1.672V58.18c-.18.343-.328.625-.453.843a8 8 0 0 1-.329.563l-3.78 5.594q-.33.486-1.266 1.734Zm18.078-2.86q0 4.143-1.453 6.329-1.454 2.173-4.313 2.172-2.846 0-4.281-2.172-1.424-2.168-1.422-6.328-.002-4.248 1.39-6.375 1.39-2.123 4.391-2.125 2.92 0 4.297 2.156 1.39 2.144 1.39 6.344m-2.14 0c0-2.382-.278-4.109-.829-5.171-.555-1.07-1.46-1.61-2.719-1.61q-1.954.001-2.797 1.579-.843 1.582-.843 5.203-.001 3.515.859 5.156.857 1.627 2.734 1.625 1.858.002 2.72-1.656.873-1.67.874-5.125m16.14 0q0 4.143-1.453 6.329-1.454 2.173-4.313 2.172-2.846 0-4.281-2.172-1.424-2.168-1.422-6.328-.002-4.248 1.39-6.375 1.39-2.123 4.391-2.125 2.92 0 4.297 2.156 1.39 2.144 1.39 6.344m-2.14 0c0-2.382-.278-4.109-.829-5.171-.555-1.07-1.46-1.61-2.719-1.61q-1.954.001-2.797 1.579-.843 1.582-.843 5.203-.001 3.515.859 5.156.857 1.627 2.734 1.625 1.858.002 2.72-1.656.873-1.67.874-5.125m16.14 0q0 4.143-1.453 6.329-1.454 2.173-4.313 2.172-2.846 0-4.281-2.172-1.423-2.168-1.422-6.328-.002-4.248 1.39-6.375 1.39-2.123 4.391-2.125 2.92 0 4.297 2.156 1.39 2.144 1.39 6.344m-2.14 0c0-2.382-.278-4.109-.829-5.171-.555-1.07-1.46-1.61-2.719-1.61q-1.954.001-2.797 1.579-.843 1.582-.843 5.203-.001 3.515.859 5.156.857 1.627 2.734 1.625 1.858.002 2.72-1.656.873-1.67.874-5.125m-39.964 82.98c0 1.523-.484 2.702-1.453 3.546-.968.836-2.355 1.25-4.156 1.25q-2.501 0-4-1.125c-.992-.758-1.578-1.879-1.766-3.36l2.172-.187c.282 1.95 1.477 2.922 3.594 2.922q1.593.002 2.5-.781.92-.78.922-2.328c0-.907-.352-1.61-1.047-2.11q-1.032-.75-2.984-.75h-1.203v-1.828h1.156q1.733 0 2.687-.75.951-.761.953-2.11 0-1.31-.78-2.077-.785-.781-2.313-.782c-.93 0-1.684.243-2.266.72q-.86.72-1 2.015l-2.11-.157q.234-2.028 1.673-3.171 1.452-1.139 3.718-1.141 2.484.001 3.86 1.156c.925.774 1.39 1.844 1.39 3.219q0 1.582-.89 2.578-.89.986-2.578 1.344v.047q1.858.19 2.89 1.234 1.031 1.05 1.031 2.625m14.047-.813q-.002 2.611-1.562 4.109-1.548 1.5-4.297 1.5-2.316.001-3.734-1-1.407-1.013-1.782-2.922l2.125-.25q.67 2.454 3.438 2.453 1.7 0 2.656-1.031.968-1.031.969-2.813 0-1.559-.969-2.515-.97-.968-2.61-.969-.861.001-1.593.266c-.492.18-.984.484-1.484.922h-2.063l.563-8.891h9.375v1.797H29.44l-.328 5.234c.914-.695 2.055-1.047 3.422-1.047q2.436 0 3.875 1.438 1.453 1.422 1.453 3.719m14.063-2.891q0 4.143-1.453 6.328-1.454 2.173-4.313 2.172-2.846 0-4.281-2.172-1.424-2.168-1.422-6.328-.002-4.248 1.39-6.375c.926-1.414 2.391-2.125 4.391-2.125q2.92 0 4.297 2.156 1.39 2.144 1.39 6.344m-2.14 0c0-2.383-.278-4.11-.829-5.172-.555-1.07-1.46-1.61-2.719-1.61q-1.954.001-2.797 1.579-.843 1.582-.843 5.203-.001 3.516.859 5.156c.57 1.086 1.484 1.625 2.734 1.625q1.858.001 2.72-1.656.873-1.668.874-5.125m16.14 0q0 4.143-1.453 6.328-1.454 2.173-4.313 2.172-2.846 0-4.281-2.172-1.423-2.168-1.422-6.328-.002-4.248 1.39-6.375c.926-1.414 2.391-2.125 4.391-2.125q2.92 0 4.297 2.156 1.39 2.144 1.39 6.344m-2.14 0c0-2.383-.278-4.11-.829-5.172-.555-1.07-1.46-1.61-2.719-1.61q-1.954.001-2.797 1.579-.843 1.582-.843 5.203-.001 3.516.859 5.156c.57 1.086 1.484 1.625 2.734 1.625q1.858.001 2.72-1.656.873-1.668.874-5.125m-39.965 82.981q0 2.284-1.453 3.547c-.968.836-2.355 1.25-4.156 1.25q-2.501 0-4-1.125c-.992-.758-1.578-1.879-1.766-3.36l2.172-.187c.282 1.95 1.477 2.922 3.594 2.922q1.593.002 2.5-.781.92-.78.922-2.328c0-.906-.352-1.61-1.047-2.11q-1.032-.75-2.984-.75h-1.203v-1.828h1.156q1.733 0 2.687-.75.951-.76.953-2.109 0-1.311-.78-2.078-.785-.78-2.313-.781-1.394.002-2.266.718-.86.72-1 2.016l-2.11-.156q.234-2.028 1.673-3.172 1.452-1.139 3.718-1.14 2.484 0 3.86 1.156 1.389 1.157 1.39 3.218 0 1.582-.89 2.578-.89.986-2.578 1.344v.047c1.238.125 2.203.54 2.89 1.234q1.031 1.05 1.031 2.625m14.11-3.703q0 4.143-1.453 6.328-1.454 2.174-4.313 2.172-2.846.001-4.281-2.172-1.424-2.167-1.422-6.328-.002-4.248 1.39-6.375c.926-1.414 2.391-2.125 4.391-2.125q2.92 0 4.297 2.157 1.39 2.143 1.39 6.343m-2.14 0c0-2.383-.278-4.11-.829-5.172-.555-1.07-1.46-1.609-2.719-1.609q-1.954 0-2.797 1.578-.843 1.583-.843 5.203-.001 3.516.859 5.157.857 1.626 2.734 1.625 1.858.001 2.72-1.657.873-1.668.874-5.125m16.14 0q0 4.143-1.453 6.328-1.454 2.174-4.313 2.172-2.846.001-4.281-2.172-1.424-2.167-1.422-6.328-.002-4.248 1.39-6.375c.926-1.414 2.391-2.125 4.391-2.125q2.92 0 4.297 2.157 1.39 2.143 1.39 6.343m-2.14 0c0-2.383-.278-4.11-.829-5.172-.555-1.07-1.46-1.609-2.719-1.609q-1.954 0-2.797 1.578-.843 1.583-.843 5.203-.001 3.516.859 5.157.857 1.626 2.734 1.625 1.858.001 2.72-1.657.873-1.668.874-5.125m16.14 0q0 4.143-1.453 6.328-1.454 2.174-4.313 2.172-2.846.001-4.281-2.172-1.423-2.167-1.422-6.328-.002-4.248 1.39-6.375c.926-1.414 2.391-2.125 4.391-2.125q2.92 0 4.297 2.157 1.39 2.143 1.39 6.343m-2.14 0c0-2.383-.278-4.11-.829-5.172-.555-1.07-1.46-1.609-2.719-1.609q-1.954 0-2.797 1.578-.843 1.583-.843 5.203-.001 3.516.859 5.157.857 1.626 2.734 1.625 1.858.001 2.72-1.657.873-1.668.874-5.125M12.723 310.16v-1.484q.608-1.372 1.468-2.422a17 17 0 0 1 1.797-1.89 32 32 0 0 1 1.89-1.579 22 22 0 0 0 1.688-1.453q.748-.733 1.204-1.531.468-.795.468-1.813 0-1.36-.797-2.11c-.53-.5-1.273-.75-2.218-.75q-1.347.002-2.22.735-.878.738-1.03 2.063l-2.157-.203c.157-1.32.72-2.375 1.688-3.157q1.452-1.17 3.719-1.171 2.496.002 3.843 1.187 1.343 1.173 1.344 3.344 0 .956-.453 1.906-.44.956-1.312 1.906-.861.939-3.297 2.938-1.36 1.094-2.157 1.984c-.53.594-.914 1.164-1.14 1.703h8.61v1.797Zm25.14-5.375q-.002 2.611-1.562 4.11-1.548 1.5-4.297 1.5-2.316.001-3.734-1-1.407-1.013-1.782-2.922l2.125-.25q.67 2.454 3.438 2.453 1.7 0 2.656-1.031.968-1.031.969-2.813 0-1.56-.969-2.516-.97-.967-2.61-.968-.861.001-1.593.265c-.492.18-.984.485-1.484.922h-2.063l.563-8.89h9.375v1.796H29.44l-.328 5.235q1.371-1.046 3.422-1.047 2.436 0 3.875 1.437 1.453 1.423 1.453 3.72m14.063-2.89q0 4.141-1.453 6.328-1.454 2.173-4.313 2.172-2.846 0-4.281-2.172-1.424-2.169-1.422-6.328-.002-4.248 1.39-6.375 1.39-2.124 4.391-2.125 2.92 0 4.297 2.156 1.39 2.144 1.39 6.344m-2.14 0c0-2.383-.278-4.11-.829-5.172-.555-1.07-1.46-1.61-2.719-1.61q-1.954.002-2.797 1.578-.843 1.583-.843 5.204-.001 3.515.859 5.156c.57 1.086 1.484 1.625 2.734 1.625q1.858 0 2.72-1.656.873-1.67.874-5.125m16.14 0q0 4.141-1.453 6.328-1.454 2.173-4.313 2.172-2.846 0-4.281-2.172-1.423-2.169-1.422-6.328-.002-4.248 1.39-6.375 1.39-2.124 4.391-2.125 2.92 0 4.297 2.156 1.39 2.144 1.39 6.344m-2.14 0c0-2.383-.278-4.11-.829-5.172-.555-1.07-1.46-1.61-2.719-1.61q-1.954.002-2.797 1.578-.843 1.583-.843 5.204-.001 3.515.859 5.156c.57 1.086 1.484 1.625 2.734 1.625q1.858 0 2.72-1.656.873-1.67.874-5.125m-51.058 87.545v-1.484q.608-1.372 1.468-2.422a17 17 0 0 1 1.797-1.89 32 32 0 0 1 1.89-1.579 22 22 0 0 0 1.688-1.453q.748-.733 1.204-1.531.468-.795.468-1.812 0-1.36-.797-2.11c-.53-.5-1.273-.75-2.218-.75q-1.347 0-2.22.735-.878.738-1.03 2.062l-2.157-.203c.157-1.32.72-2.375 1.688-3.156q1.452-1.172 3.719-1.172 2.496.002 3.843 1.187 1.343 1.175 1.344 3.344 0 .956-.453 1.906-.44.956-1.312 1.907-.861.938-3.297 2.937-1.36 1.094-2.157 1.984c-.53.594-.914 1.164-1.14 1.704h8.61v1.796Zm25.203-8.265q0 4.142-1.453 6.328-1.454 2.174-4.313 2.172-2.846 0-4.281-2.172-1.424-2.168-1.422-6.328-.002-4.248 1.39-6.375c.926-1.414 2.391-2.125 4.391-2.125q2.92 0 4.297 2.156 1.39 2.144 1.39 6.344m-2.14 0c0-2.383-.278-4.11-.829-5.172-.555-1.07-1.46-1.61-2.719-1.61q-1.954.001-2.797 1.579-.843 1.582-.843 5.203-.001 3.516.859 5.156c.57 1.086 1.484 1.625 2.734 1.625q1.858.002 2.72-1.656.873-1.668.874-5.125m16.14 0q0 4.142-1.453 6.328-1.454 2.174-4.313 2.172-2.846 0-4.281-2.172-1.424-2.168-1.422-6.328-.002-4.248 1.39-6.375c.926-1.414 2.391-2.125 4.391-2.125q2.92 0 4.297 2.156 1.39 2.144 1.39 6.344m-2.14 0c0-2.383-.278-4.11-.829-5.172-.555-1.07-1.46-1.61-2.719-1.61q-1.954.001-2.797 1.579-.843 1.582-.843 5.203-.001 3.516.859 5.156c.57 1.086 1.484 1.625 2.734 1.625q1.858.002 2.72-1.656.873-1.668.874-5.125m16.14 0q0 4.142-1.453 6.328-1.454 2.174-4.313 2.172-2.846 0-4.281-2.172-1.423-2.168-1.422-6.328-.002-4.248 1.39-6.375c.926-1.414 2.391-2.125 4.391-2.125q2.92 0 4.297 2.156 1.39 2.144 1.39 6.344m-2.14 0c0-2.383-.278-4.11-.829-5.172-.555-1.07-1.46-1.61-2.719-1.61q-1.954.001-2.797 1.579-.843 1.582-.843 5.203-.001 3.516.859 5.156c.57 1.086 1.484 1.625 2.734 1.625q1.858.002 2.72-1.656.873-1.668.874-5.125m-50.432 87.543v-1.797h4.203v-12.703l-3.719 2.656v-1.984l3.906-2.688h1.938v14.719h4.015v1.797Zm24.515-5.375q-.002 2.611-1.562 4.11-1.548 1.5-4.297 1.5-2.316 0-3.734-1-1.407-1.014-1.782-2.923l2.125-.25q.67 2.454 3.438 2.453 1.7 0 2.656-1.03.968-1.032.969-2.813 0-1.561-.969-2.516-.97-.968-2.61-.969-.861.001-1.593.266c-.492.18-.984.484-1.484.922h-2.063l.563-8.89h9.375V454H29.44l-.328 5.234q1.371-1.044 3.422-1.046 2.436 0 3.875 1.437 1.453 1.424 1.453 3.719m14.063-2.89q0 4.14-1.453 6.327-1.454 2.173-4.313 2.172-2.846 0-4.281-2.172-1.424-2.167-1.422-6.328-.002-4.248 1.39-6.375c.926-1.414 2.391-2.125 4.391-2.125q2.92 0 4.297 2.156 1.39 2.144 1.39 6.344m-2.14 0q-.001-3.577-.829-5.173c-.555-1.07-1.46-1.61-2.719-1.61q-1.954.001-2.797 1.579-.843 1.583-.843 5.203-.001 3.516.859 5.156c.57 1.086 1.484 1.625 2.734 1.625q1.858.001 2.72-1.656.873-1.668.874-5.125m16.14 0q0 4.14-1.453 6.327-1.454 2.173-4.313 2.172-2.846 0-4.281-2.172-1.423-2.167-1.422-6.328-.002-4.248 1.39-6.375c.926-1.414 2.391-2.125 4.391-2.125q2.92 0 4.297 2.156 1.39 2.144 1.39 6.344m-2.14 0q-.001-3.577-.829-5.173c-.555-1.07-1.46-1.61-2.719-1.61q-1.954.001-2.797 1.579-.843 1.583-.843 5.203-.001 3.516.859 5.156c.57 1.086 1.484 1.625 2.734 1.625q1.858.001 2.72-1.656.873-1.668.874-5.125M13.348 548v-1.797h4.203V533.5l-3.719 2.656v-1.984l3.906-2.688h1.938v14.72h4.015V548Zm24.578-8.266q0 4.143-1.453 6.328-1.454 2.174-4.313 2.172-2.846.002-4.281-2.172-1.424-2.167-1.422-6.328-.002-4.248 1.39-6.375 1.39-2.123 4.391-2.125 2.92 0 4.297 2.157 1.39 2.144 1.39 6.343m-2.14 0c0-2.382-.278-4.109-.829-5.172q-.831-1.607-2.719-1.609-1.954 0-2.797 1.578-.843 1.583-.843 5.203-.001 3.516.859 5.157c.57 1.086 1.484 1.625 2.734 1.625q1.858.001 2.72-1.657.873-1.668.874-5.125m16.14 0q0 4.143-1.453 6.328-1.454 2.174-4.313 2.172-2.846.002-4.281-2.172-1.424-2.167-1.422-6.328-.002-4.248 1.39-6.375c.926-1.414 2.391-2.125 4.391-2.125q2.92 0 4.297 2.157 1.39 2.144 1.39 6.343m-2.14 0c0-2.382-.278-4.109-.829-5.172-.555-1.07-1.46-1.609-2.719-1.609q-1.954 0-2.797 1.578-.843 1.583-.843 5.203-.001 3.516.859 5.157c.57 1.086 1.484 1.625 2.734 1.625q1.858.001 2.72-1.657.873-1.668.874-5.125m16.14 0q0 4.143-1.453 6.328-1.454 2.174-4.313 2.172-2.846.002-4.281-2.172-1.423-2.167-1.422-6.328-.002-4.248 1.39-6.375c.926-1.414 2.391-2.125 4.391-2.125q2.92 0 4.297 2.157 1.39 2.144 1.39 6.343m-2.14 0c0-2.382-.278-4.109-.829-5.172q-.831-1.607-2.719-1.609-1.954 0-2.797 1.578-.843 1.583-.843 5.203-.001 3.516.859 5.157c.57 1.086 1.484 1.625 2.734 1.625q1.858.001 2.72-1.657.873-1.668.874-5.125m-52.266-13.46" style="stroke:none;fill-rule:nonzero;fill:#000;fill-opacity:1"/><g clip-path="url(#scrobbles-weekday__a)"><path d="M154.86 468.168h46.617v230.07h-46.618Zm0 0" style="stroke:none;fill-rule:nonzero;fill:#222;fill-opacity:1"/></g><g clip-path="url(#scrobbles-weekday__b)"><path d="M284.355 245.71h46.618v452.532h-46.618Zm0 0" style="stroke:none;fill-rule:nonzero;fill:#222;fill-opacity:1"/></g><g clip-path="url(#scrobbles-weekday__c)"><path d="M413.852 214.79h46.617v483.448h-46.617Zm0 0" style="stroke:none;fill-rule:nonzero;fill:#222;fill-opacity:1"/></g><g clip-path="url(#scrobbles-weekday__d)"><path d="M543.352 112.836h46.617v585.402h-46.617Zm0 0" style="stroke:none;fill-rule:nonzero;fill:#222;fill-opacity:1"/></g><g clip-path="url(#scrobbles-weekday__e)"><path d="M672.848 191.8h46.617v506.442h-46.617Zm0 0" style="stroke:none;fill-rule:nonzero;fill:#222;fill-opacity:1"/></g><g clip-path="url(#scrobbles-weekday__f)"><path d="M802.344 257.441h46.617v440.797h-46.617Zm0 0" style="stroke:none;fill-rule:nonzero;fill:#222;fill-opacity:1"/></g><g clip-path="url(#scrobbles-weekday__g)"><path d="M931.84 480.54h46.617v217.702H931.84Zm0 0" style="stroke:none;fill-rule:nonzero;fill:#222;fill-opacity:1"/></g><g clip-path="url(#scrobbles-weekday__h)"><path d="M103.059 495.918h46.617v202.324h-46.617Zm0 0" style="stroke:none;fill-rule:nonzero;fill:#111;fill-opacity:1"/></g><g clip-path="url(#scrobbles-weekday__i)"><path d="M232.559 191.008h46.617v507.234h-46.617Zm0 0" style="stroke:none;fill-rule:nonzero;fill:#111;fill-opacity:1"/></g><g clip-path="url(#scrobbles-weekday__j)"><path d="M362.055 252.371h46.617v445.871h-46.617Zm0 0" style="stroke:none;fill-rule:nonzero;fill:#111;fill-opacity:1"/></g><g clip-path="url(#scrobbles-weekday__k)"><path d="M491.55 218.277h46.618v479.961h-46.617Zm0 0" style="stroke:none;fill-rule:nonzero;fill:#111;fill-opacity:1"/></g><g clip-path="url(#scrobbles-weekday__l)"><path d="M621.047 236.672h46.617v461.566h-46.617Zm0 0" style="stroke:none;fill-rule:nonzero;fill:#111;fill-opacity:1"/></g><g clip-path="url(#scrobbles-weekday__m)"><path d="M750.547 250.309h46.617v447.933h-46.617Zm0 0" style="stroke:none;fill-rule:nonzero;fill:#111;fill-opacity:1"/></g><g clip-path="url(#scrobbles-weekday__n)"><path d="M880.043 469.754h46.617v228.484h-46.617Zm0 0" style="stroke:none;fill-rule:nonzero;fill:#111;fill-opacity:1"/></g></svg>