<svg xmlns="http://www.w3.org/2000/svg" xmlns:xlink="http://www.w3.org/1999/xlink" width="480" height="288" viewBox="0 0 360 216"><defs><style>*{stroke-linejoin:round;stroke-linecap:butt}</style></defs><g id="figure_1"><path id="patch_1" d="M0 216h360V0H0z" style="fill:none"/><g id="axes_1"><path id="patch_2" d="M46.37 184.84H360V0H46.37z" style="fill:none"/><path id="patch_3" d="M50.85 184.84h17.922V32.309H50.85z" clip-path="url(#pd17f31393a)" style="fill:#baaee1"/><path id="patch_4" d="M95.655 184.84h17.921V50.761H95.655z" clip-path="url(#pd17f31393a)" style="fill:#baaee1"/><path id="patch_5" d="M140.459 184.84h17.922V40.51h-17.922z" clip-path="url(#pd17f31393a)" style="fill:#baaee1"/><path id="patch_6" d="M185.263 184.84h17.922V46.04h-17.922z" clip-path="url(#pd17f31393a)" style="fill:#baaee1"/><path id="patch_7" d="M230.068 184.84h17.921V50.141h-17.921z" clip-path="url(#pd17f31393a)" style="fill:#baaee1"/><path id="patch_8" d="M274.872 184.84h17.922v-68.708h-17.922z" clip-path="url(#pd17f31393a)" style="fill:#baaee1"/><path id="patch_9" d="M319.676 184.84h17.922V124h-17.922z" clip-path="url(#pd17f31393a)" style="fill:#baaee1"/><path id="patch_10" d="M68.772 184.84h17.922V48.759H68.772z" clip-path="url(#pd17f31393a)" style="fill:#8e7cc7"/><path id="patch_11" d="M113.576 184.84h17.922V39.46h-17.922z" clip-path="url(#pd17f31393a)" style="fill:#8e7cc7"/><path id="patch_12" d="M158.38 184.84h17.922V8.802h-17.921z" clip-path="url(#pd17f31393a)" style="fill:#8e7cc7"/><path id="patch_13" d="M203.185 184.84h17.922V32.547h-17.922z" clip-path="url(#pd17f31393a)" style="fill:#8e7cc7"/><path id="patch_14" d="M247.99 184.84h17.921V52.287h-17.922z" clip-path="url(#pd17f31393a)" style="fill:#8e7cc7"/><path id="patch_15" d="M292.794 184.84h17.921v-65.466h-17.921z" clip-path="url(#pd17f31393a)" style="fill:#8e7cc7"/><path id="patch_16" d="M337.598 184.84h17.922v-69.185h-17.922z" clip-path="url(#pd17f31393a)" style="fill:#8e7cc7"/><g id="matplotlib.axis_1"><g id="xtick_1"><g id="line2d_1"><defs><path id="meff10bb90c" d="M0 0v3.5" style="stroke:#fff;stroke-width:.8"/></defs><use xlink:href="#meff10bb90c" x="68.772" y="184.84" style="fill:#fff;stroke:#fff;stroke-width:.8"/></g><g id="text_1" style="fill:#fff" transform="matrix(.1 0 0 -.1 58.23 199.438)"><defs><path id="DejaVuSans-4d" d="M628 4666h941l1190-3175 1197 3175h941V0h-616v4097L3078 897h-634L1241 4097V0H628z" transform="scale(.01563)"/><path id="DejaVuSans-6f" d="M1959 3097q-462 0-731-361t-269-989 267-989q268-361 733-361 460 0 728 362 269 363 269 988 0 622-269 986-268 364-728 364m0 487q750 0 1178-488 429-487 429-1349 0-859-429-1349Q2709-91 1959-91q-753 0-1180 489-426 490-426 1349 0 862 426 1349 427 488 1180 488" transform="scale(.01563)"/><path id="DejaVuSans-6e" d="M3513 2113V0h-575v2094q0 497-194 743-194 247-581 247-466 0-735-297-269-296-269-809V0H581v3500h578v-544q207 316 486 472 280 156 646 156 603 0 912-373 310-373 310-1098" transform="scale(.01563)"/></defs><use xlink:href="#DejaVuSans-4d"/><use xlink:href="#DejaVuSans-6f" x="86.279"/><use xlink:href="#DejaVuSans-6e" x="147.461"/></g></g><g id="xtick_2"><use xlink:href="#meff10bb90c" id="line2d_2" x="113.576" y="184.84" style="fill:#fff;stroke:#fff;stroke-width:.8"/><g id="text_2" style="fill:#fff" transform="matrix(.1 0 0 -.1 105.033 199.438)"><defs><path id="DejaVuSans-54" d="M-19 4666h3947v-532H2272V0h-634v4134H-19z" transform="scale(.01563)"/><path id="DejaVuSans-75" d="M544 1381v2119h575V1403q0-497 193-746 194-248 582-248 465 0 735 297 271 297 271 810v1984h575V0h-575v538q-209-319-486-474-276-155-642-155-603 0-916 375-312 375-312 1097m1447 2203" transform="scale(.01563)"/><path id="DejaVuSans-65" d="M3597 1894v-281H953q38-594 358-905t892-311q331 0 642 81t618 244V178Q3153 47 2828-22t-659-69q-838 0-1327 487-489 488-489 1320 0 859 464 1363 464 505 1252 505 706 0 1117-455 411-454 411-1235m-575 169q-6 471-264 752-258 282-683 282-481 0-770-272t-333-766z" transform="scale(.01563)"/></defs><use xlink:href="#DejaVuSans-54"/><use xlink:href="#DejaVuSans-75" x="45.959"/><use xlink:href="#DejaVuSans-65" x="109.338"/></g></g><g id="xtick_3"><use xlink:href="#meff10bb90c" id="line2d_3" x="158.381" y="184.84" style="fill:#fff;stroke:#fff;stroke-width:.8"/><g id="text_3" style="fill:#fff" transform="matrix(.1 0 0 -.1 147.48 199.438)"><defs><path id="DejaVuSans-57" d="M213 4666h637l981-3944 978 3944h710l981-3944 978 3944h641L4947 0h-794l-984 4050L2175 0h-794z" transform="scale(.01563)"/><path id="DejaVuSans-64" d="M2906 2969v1894h575V0h-575v525q-181-312-458-464-276-152-664-152-634 0-1033 506-398 507-398 1332t398 1331q399 506 1033 506 388 0 664-152 277-151 458-463M947 1747q0-634 261-995t717-361 718 361q263 361 263 995t-263 995q-262 361-718 361t-717-361-261-995" transform="scale(.01563)"/></defs><use xlink:href="#DejaVuSans-57"/><use xlink:href="#DejaVuSans-65" x="93.002"/><use xlink:href="#DejaVuSans-64" x="154.525"/></g></g><g id="xtick_4"><use xlink:href="#meff10bb90c" id="line2d_4" x="203.185" y="184.84" style="fill:#fff;stroke:#fff;stroke-width:.8"/><g id="text_4" style="fill:#fff" transform="matrix(.1 0 0 -.1 193.794 199.438)"><defs><path id="DejaVuSans-68" d="M3513 2113V0h-575v2094q0 497-194 743-194 247-581 247-466 0-735-297-269-296-269-809V0H581v4863h578V2956q207 316 486 472 280 156 646 156 603 0 912-373 310-373 310-1098" transform="scale(.01563)"/></defs><use xlink:href="#DejaVuSans-54"/><use xlink:href="#DejaVuSans-68" x="61.084"/><use xlink:href="#DejaVuSans-75" x="124.463"/></g></g><g id="xtick_5"><use xlink:href="#meff10bb90c" id="line2d_5" x="247.989" y="184.84" style="fill:#fff;stroke:#fff;stroke-width:.8"/><g id="text_5" style="fill:#fff" transform="matrix(.1 0 0 -.1 242.031 199.438)"><defs><path id="DejaVuSans-46" d="M628 4666h2681v-532H1259V2759h1850v-531H1259V0H628z" transform="scale(.01563)"/><path id="DejaVuSans-72" d="M2631 2963q-97 56-211 82-114 27-251 27-488 0-749-317t-261-911V0H581v3500h578v-544q182 319 472 473 291 155 707 155 59 0 131-8 72-7 159-23z" transform="scale(.01563)"/><path id="DejaVuSans-69" d="M603 3500h575V0H603zm0 1363h575v-729H603z" transform="scale(.01563)"/></defs><use xlink:href="#DejaVuSans-46"/><use xlink:href="#DejaVuSans-72" x="50.27"/><use xlink:href="#DejaVuSans-69" x="91.383"/></g></g><g id="xtick_6"><use xlink:href="#meff10bb90c" id="line2d_6" x="292.794" y="184.84" style="fill:#fff;stroke:#fff;stroke-width:.8"/><g id="text_6" style="fill:#fff" transform="matrix(.1 0 0 -.1 284.595 199.438)"><defs><path id="DejaVuSans-53" d="M3425 4513v-616q-359 172-678 256-319 85-616 85-515 0-795-200t-280-569q0-310 186-468 186-157 705-254l381-78q706-135 1042-474t336-907q0-679-455-1029Q2797-91 1919-91q-331 0-705 75-373 75-773 222v650q384-215 753-325 369-109 725-109 540 0 834 212 294 213 294 607 0 343-211 537t-692 291l-385 75q-706 140-1022 440-315 300-315 835 0 619 436 975t1201 356q329 0 669-60 341-59 697-177" transform="scale(.01563)"/><path id="DejaVuSans-61" d="M2194 1759q-697 0-966-159t-269-544q0-306 202-486 202-179 548-179 479 0 768 339t289 901v128zm1147 238V0h-575v531q-197-318-491-470T1556-91q-537 0-855 302-317 302-317 808 0 590 395 890 396 300 1180 300h807v57q0 397-261 614t-733 217q-300 0-585-72-284-72-546-216v532q315 122 612 182 297 61 578 61 760 0 1135-394 375-393 375-1193" transform="scale(.01563)"/><path id="DejaVuSans-74" d="M1172 4494v-994h1184v-447H1172V1153q0-428 117-550t477-122h590V0h-590q-666 0-919 248-253 249-253 905v1900H172v447h422v994z" transform="scale(.01563)"/></defs><use xlink:href="#DejaVuSans-53"/><use xlink:href="#DejaVuSans-61" x="63.477"/><use xlink:href="#DejaVuSans-74" x="124.756"/></g></g><g id="xtick_7"><use xlink:href="#meff10bb90c" id="line2d_7" x="337.598" y="184.84" style="fill:#fff;stroke:#fff;stroke-width:.8"/><g id="text_7" style="fill:#fff" transform="matrix(.1 0 0 -.1 328.086 199.438)"><use xlink:href="#DejaVuSans-53"/><use xlink:href="#DejaVuSans-75" x="63.477"/><use xlink:href="#DejaVuSans-6e" x="126.855"/></g></g><g id="text_8" style="fill:#fff" transform="matrix(.1 0 0 -.1 180.289 213.117)"><defs><path id="DejaVuSans-6b" d="M581 4863h578V1991l1716 1509h734L1753 1863 3688 0h-750L1159 1709V0H581z" transform="scale(.01563)"/><path id="DejaVuSans-79" d="M2059-325q-243-625-475-815-231-191-618-191H506v481h338q237 0 368 113 132 112 291 531l103 262L191 3500h609L1894 763l1094 2737h609z" transform="scale(.01563)"/></defs><use xlink:href="#DejaVuSans-57"/><use xlink:href="#DejaVuSans-65" x="93.002"/><use xlink:href="#DejaVuSans-65" x="154.525"/><use xlink:href="#DejaVuSans-6b" x="216.049"/><use xlink:href="#DejaVuSans-64" x="273.959"/><use xlink:href="#DejaVuSans-61" x="337.436"/><use xlink:href="#DejaVuSans-79" x="398.715"/></g></g><g id="matplotlib.axis_2"><g id="ytick_1"><g id="line2d_8"><defs><path id="m29d59f99f1" d="M0 0h-3.5" style="stroke:#fff;stroke-width:.8"/></defs><use xlink:href="#m29d59f99f1" x="46.37" y="184.84" style="fill:#fff;stroke:#fff;stroke-width:.8"/></g><g id="text_9" style="fill:#fff" transform="matrix(.1 0 0 -.1 33.008 188.64)"><defs><path id="DejaVuSans-30" d="M2034 4250q-487 0-733-480-245-479-245-1442 0-959 245-1439 246-480 733-480 491 0 736 480 246 480 246 1439 0 963-246 1442-245 480-736 480m0 500q785 0 1199-621 414-620 414-1801 0-1178-414-1799Q2819-91 2034-91q-784 0-1198 620-414 621-414 1799 0 1181 414 1801 414 621 1198 621" transform="scale(.01563)"/></defs><use xlink:href="#DejaVuSans-30"/></g></g><g id="ytick_2"><use xlink:href="#m29d59f99f1" id="line2d_9" x="46.37" y="161" style="fill:#fff;stroke:#fff;stroke-width:.8"/><g id="text_10" style="fill:#fff" transform="matrix(.1 0 0 -.1 20.282 164.799)"><defs><path id="DejaVuSans-35" d="M691 4666h2478v-532H1269V2991q137 47 274 70 138 23 276 23 781 0 1237-428 457-428 457-1159 0-753-469-1171Q2575-91 1722-91q-294 0-599 50Q819 9 494 109v635q281-153 581-228t634-75q541 0 856 284 316 284 316 772 0 487-316 771-315 285-856 285-253 0-505-56-251-56-513-175z" transform="scale(.01563)"/></defs><use xlink:href="#DejaVuSans-35"/><use xlink:href="#DejaVuSans-30" x="63.623"/><use xlink:href="#DejaVuSans-30" x="127.246"/></g></g><g id="ytick_3"><use xlink:href="#m29d59f99f1" id="line2d_10" x="46.37" y="137.159" style="fill:#fff;stroke:#fff;stroke-width:.8"/><g id="text_11" style="fill:#fff" transform="matrix(.1 0 0 -.1 13.92 140.958)"><defs><path id="DejaVuSans-31" d="M794 531h1031v3560L703 3866v575l1116 225h631V531h1031V0H794z" transform="scale(.01563)"/></defs><use xlink:href="#DejaVuSans-31"/><use xlink:href="#DejaVuSans-30" x="63.623"/><use xlink:href="#DejaVuSans-30" x="127.246"/><use xlink:href="#DejaVuSans-30" x="190.869"/></g></g><g id="ytick_4"><use xlink:href="#m29d59f99f1" id="line2d_11" x="46.37" y="113.319" style="fill:#fff;stroke:#fff;stroke-width:.8"/><g id="text_12" style="fill:#fff" transform="matrix(.1 0 0 -.1 13.92 117.118)"><use xlink:href="#DejaVuSans-31"/><use xlink:href="#DejaVuSans-35" x="63.623"/><use xlink:href="#DejaVuSans-30" x="127.246"/><use xlink:href="#DejaVuSans-30" x="190.869"/></g></g><g id="ytick_5"><use xlink:href="#m29d59f99f1" id="line2d_12" x="46.37" y="89.478" style="fill:#fff;stroke:#fff;stroke-width:.8"/><g id="text_13" style="fill:#fff" transform="matrix(.1 0 0 -.1 13.92 93.277)"><defs><path id="DejaVuSans-32" d="M1228 531h2203V0H469v531q359 372 979 998 621 627 780 809 303 340 423 576 121 236 121 464 0 372-261 606-261 235-680 235-297 0-627-103-329-103-704-313v638q381 153 712 231 332 78 607 78 725 0 1156-363 431-362 431-968 0-288-108-546-107-257-392-607-78-91-497-524-418-433-1181-1211" transform="scale(.01563)"/></defs><use xlink:href="#DejaVuSans-32"/><use xlink:href="#DejaVuSans-30" x="63.623"/><use xlink:href="#DejaVuSans-30" x="127.246"/><use xlink:href="#DejaVuSans-30" x="190.869"/></g></g><g id="ytick_6"><use xlink:href="#m29d59f99f1" id="line2d_13" x="46.37" y="65.638" style="fill:#fff;stroke:#fff;stroke-width:.8"/><g id="text_14" style="fill:#fff" transform="matrix(.1 0 0 -.1 13.92 69.437)"><use xlink:href="#DejaVuSans-32"/><use xlink:href="#DejaVuSans-35" x="63.623"/><use xlink:href="#DejaVuSans-30" x="127.246"/><use xlink:href="#DejaVuSans-30" x="190.869"/></g></g><g id="ytick_7"><use xlink:href="#m29d59f99f1" id="line2d_14" x="46.37" y="41.797" style="fill:#fff;stroke:#fff;stroke-width:.8"/><g id="text_15" style="fill:#fff" transform="matrix(.1 0 0 -.1 13.92 45.596)"><defs><path id="DejaVuSans-33" d="M2597 2516q453-97 707-404 255-306 255-756 0-690-475-1069Q2609-91 1734-91q-293 0-604 58T488 141v609q262-153 574-231 313-78 654-78 593 0 904 234t311 681q0 413-289 645-289 233-804 233h-544v519h569q465 0 712 186t247 536q0 359-255 551-254 193-729 193-260 0-557-57-297-56-653-174v562q360 100 674 150t592 50q719 0 1137-327 419-326 419-882 0-388-222-655t-631-370" transform="scale(.01563)"/></defs><use xlink:href="#DejaVuSans-33"/><use xlink:href="#DejaVuSans-30" x="63.623"/><use xlink:href="#DejaVuSans-30" x="127.246"/><use xlink:href="#DejaVuSans-30" x="190.869"/></g></g><g id="ytick_8"><use xlink:href="#m29d59f99f1" id="line2d_15" x="46.37" y="17.957" style="fill:#fff;stroke:#fff;stroke-width:.8"/><g id="text_16" style="fill:#fff" transform="matrix(.1 0 0 -.1 13.92 21.756)"><use xlink:href="#DejaVuSans-33"/><use xlink:href="#DejaVuSans-35" x="63.623"/><use xlink:href="#DejaVuSans-30" x="127.246"/><use xlink:href="#DejaVuSans-30" x="190.869"/></g></g><g id="text_17" style="fill:#fff" transform="matrix(0 -.1 -.1 0 7.84 116.765)"><defs><path id="DejaVuSans-63" d="M3122 3366v-538q-244 135-489 202t-495 67q-560 0-870-355-309-354-309-995t309-996q310-354 870-354 250 0 495 67t489 202V134Q2881 22 2623-34q-257-57-548-57-791 0-1257 497-465 497-465 1341 0 856 470 1346 471 491 1290 491 265 0 518-55 253-54 491-163" transform="scale(.01563)"/><path id="DejaVuSans-62" d="M3116 1747q0 634-261 995t-717 361q-457 0-718-361t-261-995 261-995 718-361q456 0 717 361t261 995M1159 2969q182 312 458 463 277 152 661 152 638 0 1036-506 399-506 399-1331T3314 415Q2916-91 2278-91q-384 0-661 152-276 152-458 464V0H581v4863h578z" transform="scale(.01563)"/><path id="DejaVuSans-6c" d="M603 4863h575V0H603z" transform="scale(.01563)"/><path id="DejaVuSans-73" d="M2834 3397v-544q-243 125-506 187-262 63-544 63-428 0-642-131t-214-394q0-200 153-314t616-217l197-44q612-131 870-370t258-667q0-488-386-773Q2250-91 1575-91q-281 0-586 55T347 128v594q319-166 628-249 309-82 613-82 406 0 624 139 219 139 219 392 0 234-158 359-157 125-692 241l-200 47q-534 112-772 345-237 233-237 639 0 494 350 762 350 269 994 269 318 0 599-47 282-46 519-140" transform="scale(.01563)"/></defs><use xlink:href="#DejaVuSans-53"/><use xlink:href="#DejaVuSans-63" x="63.477"/><use xlink:href="#DejaVuSans-72" x="118.457"/><use xlink:href="#DejaVuSans-6f" x="157.32"/><use xlink:href="#DejaVuSans-62" x="218.502"/><use xlink:href="#DejaVuSans-62" x="281.979"/><use xlink:href="#DejaVuSans-6c" x="345.455"/><use xlink:href="#DejaVuSans-65" x="373.238"/><use xlink:href="#DejaVuSans-73" x="434.762"/></g></g><path id="patch_17" d="M46.37 184.84V0" style="fill:none;stroke:#fff;stroke-width:.8;stroke-linejoin:miter;stroke-linecap:square"/><path id="patch_18" d="M360 184.84V0" style="fill:none;stroke:#fff;stroke-width:.8;stroke-linejoin:miter;stroke-linecap:square"/><path id="patch_19" d="M46.37 184.84H360" style="fill:none;stroke:#fff;stroke-width:.8;stroke-linejoin:miter;stroke-linecap:square"/><path id="patch_20" d="M46.37 0H360" style="fill:none;stroke:#fff;stroke-width:.8;stroke-linejoin:miter;stroke-linecap:square"/><g id="legend_1"><path id="patch_21" d="M295.55 37.356H353q2 0 2-2V7q0-2-2-2h-57.45q-2 0-2 2v28.356q0 2 2 2z" style="opacity:.8;stroke:#ccc;stroke-linejoin:miter"/><path id="patch_22" d="M297.55 16.598h20v-7h-20z" style="fill:#baaee1"/><g id="text_18" style="fill:#fff" transform="matrix(.1 0 0 -.1 325.55 16.598)"><defs><path id="DejaVuSans-34" d="M2419 4116 825 1625h1594zm-166 550h794V1625h666v-525h-666V0h-628v1100H313v609z" transform="scale(.01563)"/></defs><use xlink:href="#DejaVuSans-32"/><use xlink:href="#DejaVuSans-30" x="63.623"/><use xlink:href="#DejaVuSans-32" x="127.246"/><use xlink:href="#DejaVuSans-34" x="190.869"/></g><path id="patch_23" d="M297.55 31.277h20v-7h-20z" style="fill:#8e7cc7"/><g id="text_19" style="fill:#fff" transform="matrix(.1 0 0 -.1 325.55 31.277)"><use xlink:href="#DejaVuSans-32"/><use xlink:href="#DejaVuSans-30" x="63.623"/><use xlink:href="#DejaVuSans-32" x="127.246"/><use xlink:href="#DejaVuSans-33" x="190.869"/></g></g></g></g><defs><clipPath id="pd17f31393a"><path d="M46.37 0H360v184.84H46.37z"/></clipPath></defs></svg>