<svg xmlns="http://www.w3.org/2000/svg" width="1706.667" height="853.333" viewBox="0 0 1280 640" preserveAspectRatio="xMidYMid meet" xmlns:v="https://vecta.io/nano"><path fill="#660000" d="M81.3 167.7l-10.3.4v15.4V199H35.5 0v16.5V232h36.9 36.9l.6 4.2c3.9 27.3 3.9 141.4 0 165.9l-.7 3.9H36.9 0v16.5V439h35.5H71v15.9 15.9l4.1.7c2.3.4 12.6.7 22.9.7s20.6-.3 22.9-.7l4.1-.7v-15.9V439h33.5H192v15.9 15.9l4.1.7c2.3.4 12.6.7 22.9.7s20.6-.3 22.9-.7l4.1-.7v-15.9V439h33.5H313v15.9 15.9l3.7.7c4.8.9 43.2.9 47.2 0l3.1-.7v-15.9V439h34 34v15.9 15.9l3.1.7c3.9.9 42.3.9 46.9 0l3.5-.6v-15.7-15.7l33.8-.3 33.7-.2v15.9 15.9l3.8.7c4.8.9 41.6.9 46.5 0l3.7-.7v-15.9V439h33.5H677v15.9 15.9l4.1.7c5.4.9 40.4.9 45.8 0l4.1-.7v-15.9V439h33.5H798v15.9 15.9l4.1.7c5.4.9 40.4.9 45.8 0l4.1-.7v-15.9V439h33.5H919v15.9 15.9l3.7.7c4.9.9 41.7.9 46.6 0l3.7-.7v-15.9V439l33.8.2 33.7.3.3 15.7.3 15.7 3 .6c3.9.9 42.3.9 46.9 0l3.5-.6v-15.7-15.7l33.8-.3 33.7-.2v15.9 15.9l3.1.7c4 .9 42.4.9 47.2 0l3.7-.7v-15.9V439h32 32v-16.5V406h-33.4c-30.8 0-33.4-.1-34.1-1.7-.3-1-1.3-14.8-2.2-30.8-2.2-42.5-.8-129.9 2.3-139.8.5-1.6 3-1.7 34-1.7h33.4v-16.5V199h-32-32v-15.4-15.3l-13.5-.6c-7.4-.3-19.6-.3-27 0l-13.5.6v15.3V199h-34-34v-15.3-15.4l-13.2-.6c-7.3-.3-19.3-.3-26.5 0l-13.3.6v15.4V199h-34-34v-15.4-15.3l-13.5-.6c-7.4-.3-19.6-.3-27 0l-13.5.6v15.3V199h-33.5H852v-15.4-15.3l-13.5-.6c-7.4-.3-19.6-.3-27 0l-13.5.6v15.3V199h-33.5H731v-15.4-15.3l-13.5-.6c-7.4-.3-19.6-.3-27 0l-13.5.6v15.3V199h-33.5H610v-15.4-15.3l-13.5-.6c-7.4-.3-19.6-.3-27 0l-13.5.6v15.4V199l-33.7-.2-33.8-.3v-15.1-15.1l-13.2-.6c-7.3-.3-19.4-.3-26.8 0l-13.5.6v15.3V199h-34-34v-15.4-15.3l-13.5-.6c-7.4-.3-19.6-.3-27 0l-13.5.6v15.3V199h-33.5H246v-15.4-15.3l-13.5-.6c-7.4-.3-19.6-.3-27 0l-13.5.6v15.3V199h-33.5H125v-15.5V168h-6.3c-3.5 0-11.1-.2-16.8-.4s-15-.1-20.6.1zm114.1 66.6c.3 1.2 1.1 9.7 1.8 18.7 2.4 30.9 1.1 140.2-1.8 150.7l-.6 2.3h-36.3-36.2l-.7-3.2c-3.9-19.7-3.9-145.4 0-167.6l.6-3.2h36.3 36.3l.6 2.3zm121.8 4.2c2 18.2 3 56.9 2.5 94-.6 37.1-2.1 70.7-3.3 72.7-.3.4-16.9.8-36.8.8h-36.3l-.7-4.8c-3.8-27.7-3.8-136.5.1-164.7l.6-4.5 36.6.2 36.6.3.7 6zm120.3-5.3c3.9 10.3 4.5 126.4.9 166l-.7 6.8H401h-36.8l-.6-6.8c-3.5-38.1-3.5-126.3 0-161l.6-6.2h36.4c28.3 0 36.6.3 36.9 1.2zm121.9 4.2c3.7 31.6 3.7 128.7 0 162.8l-.7 5.8H522h-36.7l-.6-7.3c-3.7-42.4-3.1-154.4.8-165.5.3-.9 8.6-1.2 36.8-1.2h36.4l.7 5.4zm121-1.2c3.9 27.8 3.8 141.4-.1 166l-.6 3.8h-36.2c-33.6 0-36.3-.1-37-1.8-.3-.9-1.3-15.2-2.2-31.7-2.1-43.1-.7-129.2 2.3-138.8.5-1.6 3.1-1.7 36.9-1.7h36.3l.6 4.2zm121-1c1.9 9.7 3 37.9 3 79.3 0 41.7-1.4 83.4-3 89.2l-.6 2.3h-36.3-36.3l-.6-2.4c-2.8-11.1-4.1-122.5-1.8-150.6l1.8-17.8.6-3.2h36.3 36.3l.6 3.2zm121-1.5c.3 1 1.1 8.5 1.8 16.8 2.5 29.6 1.1 146.3-1.8 154-.5 1.3-5.1 1.5-36.9 1.5h-36.2l-.7-4c-3.8-23.9-3.8-137.9 0-165.3l.7-4.7h36.3c33.7 0 36.3.1 36.8 1.7zm121.1-.5c3.9 11.1 4.5 122.7.8 165.5l-.6 7.3H1007h-36.8l-.6-6.3c-3.6-35.9-3.6-128.1 0-162l.7-5.7h36.4c28.2 0 36.5.3 36.8 1.2zm121.9 5.4c3.6 35 3.6 128.7 0 161.6l-.7 5.8H1128h-36.7l-.6-6.8c-3.7-40.4-3.1-155 .8-166 .3-.9 8.6-1.2 36.8-1.2h36.4l.7 6.6z"/></svg>