<svg xmlns="http://www.w3.org/2000/svg" viewBox="0 0 500 300"><path fill="none" stroke="#111113" stroke-miterlimit="10" d="M27.5 34.4V271m0 1v7.6m39-245.2V271m0 1v7.6m40-245.2V271m0 1v7.6m39-245.2V271m0 1v7.6m39-245.2V271m0 1v7.6m40-245.2V271m0 1v7.6m39-245.2V271m0 1v7.6m40-245.2V271m0 1v7.6m39-245.2V271m0 1v7.6m39-245.2V271m0 1v7.6m40-245.2V271m0 1v7.6m39-245.2V271m0 1v7.6m40-245.2V271m0 1v7.6M28 271.5h472m-480.66 0H27m1-24h472m-480.66 0H27m1-23h472m-480.66 0H27m1-24h472m-480.66 0H27m1-24h472m-480.66 0H27m1-24h472m-480.66 0H27m1-23h472m-480.66 0H27m1-24h472m-480.66 0H27m1-24h472m-480.66 0H27m1-23h472m-480.66 0H27m1-24h472m-480.66 0H27"/><path fill="#111112" d="m180.316 21.874 2.304-8.568h-1.848l-1.404 5.904h-.024l-1.464-5.904h-1.764l-1.488 5.832h-.024l-1.356-5.832h-1.884l2.268 8.568h1.908l1.428-5.832h.024l1.452 5.832zm2.472-4.296q.036-.6.3-.996t.672-.636.918-.342 1.026-.102q.468 0 .948.066t.876.258.648.534.252.906v3.228q0 .42.048.804t.168.576h-1.728q-.048-.144-.078-.294t-.042-.306q-.408.42-.96.588t-1.128.168q-.444 0-.828-.108t-.672-.336-.45-.576-.162-.828q0-.528.186-.87t.48-.546.672-.306.762-.162.756-.096.66-.108.456-.21.156-.402q0-.276-.09-.438t-.24-.252-.348-.12-.426-.03q-.504 0-.792.216t-.336.72zm3.936 1.26q-.108.096-.27.15t-.348.09-.39.06-.408.06q-.192.036-.378.096t-.324.162-.222.258-.084.396q0 .228.084.384t.228.246.336.126.396.036q.504 0 .78-.168t.408-.402.162-.474.03-.384zm5.184-3.168v-1.86h-1.704v1.86h-1.032v1.14h1.032v3.66q0 .468.156.756t.426.444.624.21.75.054q.252 0 .516-.012t.48-.048v-1.32q-.12.024-.252.036t-.276.012q-.432 0-.576-.144t-.144-.576V16.81h1.248v-1.14zm6.288 2.184h1.668q-.036-.6-.288-1.038t-.654-.732-.912-.438-1.062-.144q-.756 0-1.344.252t-.996.702-.618 1.068-.21 1.338q0 .696.228 1.278t.636 1.002.99.654 1.278.234q1.236 0 2.028-.648t.96-1.884h-1.644q-.084.576-.414.918t-.942.342q-.396 0-.672-.18t-.438-.462-.234-.63-.072-.684q0-.348.072-.702t.246-.648.45-.48.684-.186q1.092 0 1.26 1.068m2.664-4.548v8.568h1.704v-3.252q0-.948.312-1.362t1.008-.414q.612 0 .852.378t.24 1.146v3.504h1.704v-3.816q0-.576-.102-1.05t-.354-.804-.69-.516-1.122-.186q-.48 0-.984.246t-.828.786h-.036v-3.228zm11.292 4.8h-2.772q.012-.18.078-.408t.228-.432.432-.342.678-.138q.624 0 .93.336t.426.984m-2.772 1.08h4.476q.048-.72-.12-1.38t-.546-1.176-.966-.822-1.38-.306q-.708 0-1.29.252t-1.002.69-.648 1.038-.228 1.296q0 .72.222 1.32t.63 1.032.996.666 1.32.234q1.056 0 1.8-.48t1.104-1.596h-1.5q-.084.288-.456.546t-.888.258q-.72 0-1.104-.372t-.42-1.2m9.888-.432q0 .384-.072.744t-.24.642-.45.45-.702.168q-.396 0-.678-.174t-.468-.456-.27-.642-.084-.72q0-.384.078-.738t.252-.63.462-.444.708-.168.696.168.45.438.246.624.072.738m.024 2.328v.792h1.62v-8.568h-1.704v3.12h-.024q-.288-.456-.786-.69t-1.05-.234q-.684 0-1.2.27t-.858.714-.516 1.026-.174 1.206q0 .648.174 1.248t.516 1.062.87.732 1.224.27q.612 0 1.098-.222t.786-.726zm6.42-7.776v8.568h1.764v-6.012h.024l2.1 6.012h1.452l2.1-6.072h.024v6.072h1.764v-8.568h-2.652l-1.896 5.892h-.024l-2.004-5.892zm12.216 5.472q0-.372.072-.732t.246-.636.462-.45.72-.174.726.174.468.45.246.636.072.732-.072.726-.246.636-.468.45-.726.168-.72-.168-.462-.45-.246-.636-.072-.726m-1.704 0q0 .744.228 1.344t.648 1.026 1.008.654 1.32.228 1.326-.228 1.014-.654.648-1.026.228-1.344-.228-1.35-.648-1.032-1.014-.66-1.326-.234-1.32.234-1.008.66-.648 1.032-.228 1.35m10.956 3.096 2.1-6.204h-1.692l-1.308 4.236h-.024l-1.308-4.236h-1.788l2.124 6.204zm4.56-7.164v-1.404h-1.704v1.404zm-1.704.96v6.204h1.704V15.67zm7.224 2.436h-2.772q.012-.18.078-.408t.228-.432.432-.342.678-.138q.624 0 .93.336t.426.984m-2.772 1.08h4.476q.048-.72-.12-1.38t-.546-1.176-.966-.822-1.38-.306q-.708 0-1.29.252t-1.002.69-.648 1.038-.228 1.296q0 .72.222 1.32t.63 1.032.996.666 1.32.234q1.056 0 1.8-.48t1.104-1.596h-1.5q-.084.288-.456.546t-.888.258q-.72 0-1.104-.372t-.42-1.2m6.804.672h-1.62q.024.624.282 1.038t.66.666.918.36 1.056.108q.528 0 1.038-.102t.906-.354.642-.666.246-1.026q0-.432-.168-.726t-.444-.492-.63-.318-.726-.204q-.36-.084-.708-.156t-.618-.162-.438-.234-.168-.372q0-.192.096-.306t.234-.174.306-.078.312-.018q.456 0 .792.174t.372.666h1.62q-.048-.576-.294-.954t-.618-.606-.846-.324-.978-.096-.984.09-.864.312-.618.606-.234.984q0 .408.168.69t.444.468.63.3.726.198q.912.192 1.422.384t.51.576q0 .228-.108.378t-.27.24-.36.132-.378.042q-.252 0-.486-.06t-.414-.186-.294-.324-.114-.474m10.524-2.52V14.77h1.464q.324 0 .624.048t.528.186.366.39.138.66-.138.66-.366.39-.528.186-.624.048zm-1.884-4.032v8.568h1.884v-3.072h1.98q.804 0 1.368-.234t.918-.618.516-.882.162-1.014q0-.528-.162-1.02t-.516-.876-.918-.618-1.368-.234zm12 4.8h-2.772q.012-.18.078-.408t.228-.432.432-.342.678-.138q.624 0 .93.336t.426.984m-2.772 1.08h4.476q.048-.72-.12-1.38t-.546-1.176-.966-.822-1.38-.306q-.708 0-1.29.252t-1.002.69-.648 1.038-.228 1.296q0 .72.222 1.32t.63 1.032.996.666 1.32.234q1.056 0 1.8-.48t1.104-1.596h-1.5q-.084.288-.456.546t-.888.258q-.72 0-1.104-.372t-.42-1.2m5.484-3.516v6.204h1.704v-2.796q0-.42.084-.78t.282-.63.522-.426.792-.156q.156 0 .324.018t.288.042v-1.584q-.204-.06-.372-.06-.324 0-.624.096t-.564.27-.468.42-.324.534h-.024V15.67zm8.184-2.364v8.568h1.764v-6.012h.024l2.1 6.012h1.452l2.1-6.072h.024v6.072h1.764v-8.568h-2.652l-1.896 5.892h-.024l-2.004-5.892zm12.216 5.472q0-.372.072-.732t.246-.636.462-.45.72-.174.726.174.468.45.246.636.072.732-.072.726-.246.636-.468.45-.726.168-.72-.168-.462-.45-.246-.636-.072-.726m-1.704 0q0 .744.228 1.344t.648 1.026 1.008.654 1.32.228 1.326-.228 1.014-.654.648-1.026.228-1.344-.228-1.35-.648-1.032-1.014-.66-1.326-.234-1.32.234-1.008.66-.648 1.032-.228 1.35m7.524-3.108v6.204h1.704v-3.252q0-.948.312-1.362t1.008-.414q.612 0 .852.378t.24 1.146v3.504h1.704v-3.816q0-.576-.102-1.05t-.354-.804-.69-.516-1.122-.186q-.54 0-1.056.246t-.84.786h-.036v-.864zm9.276 0v-1.86h-1.704v1.86h-1.032v1.14h1.032v3.66q0 .468.156.756t.426.444.624.21.75.054q.252 0 .516-.012t.48-.048v-1.32q-.12.024-.252.036t-.276.012q-.432 0-.576-.144t-.144-.576V16.81h1.248v-1.14zm2.064-2.364v8.568h1.704v-3.252q0-.948.312-1.362t1.008-.414q.612 0 .852.378t.24 1.146v3.504h1.704v-3.816q0-.576-.102-1.05t-.354-.804-.69-.516-1.122-.186q-.48 0-.984.246t-.828.786h-.036v-3.228z"/><path fill="none" stroke="#000" stroke-miterlimit="10" stroke-opacity=".102" d="M27 271.5h474"/><clipPath id="movies-month__a"><path d="M0 271.6h500V300H0z"/></clipPath><g clip-path="url(#movies-month__a)"><path fill="#111112" d="M42.654 292.506v-6.432h-1.14v6.264q0 .708-.294 1.128t-1.074.42q-.42 0-.69-.126t-.42-.354-.21-.54-.06-.684v-.36h-1.14v.528q0 1.224.648 1.854t1.848.63q.72 0 1.206-.198t.78-.528.42-.75.126-.852m7.2 2.112q-.264.156-.732.156-.396 0-.63-.222t-.234-.726q-.42.504-.978.726t-1.206.222q-.42 0-.798-.096t-.654-.3-.438-.534-.162-.798q0-.528.18-.864t.474-.546.672-.318.774-.18q.42-.084.798-.126t.666-.12.456-.228.168-.438q0-.336-.126-.54t-.324-.312-.444-.144-.486-.036q-.648 0-1.08.246t-.468.93h-1.02q.024-.576.24-.972t.576-.642.822-.354.99-.108q.42 0 .834.06t.75.246.54.522.204.876v3.192q0 .36.042.528t.282.168q.132 0 .312-.06zm-1.656-3.18q-.192.144-.504.21t-.654.108-.69.096-.624.174-.45.342-.174.606q0 .252.102.426t.264.282.378.156.456.048q.504 0 .864-.138t.588-.348.336-.456.108-.462zm2.604-3v6.204h1.02v-3.504q0-.42.114-.774t.342-.618.57-.408.81-.144q.588 0 .924.336t.336.912v4.2h1.02v-4.08q0-.504-.102-.918t-.354-.714-.66-.468-1.02-.168q-1.38 0-2.016 1.128h-.024v-.984z"/></g><clipPath id="movies-month__b"><path d="M0 271.6h500V300H0z"/></clipPath><g clip-path="url(#movies-month__b)"><path fill="#111112" d="M77.136 286.074v8.568h1.14v-3.924h3.936v-.96h-3.936v-2.724h4.488v-.96zm11.028 4.872H84.6q.024-.36.156-.678t.36-.558.546-.378.714-.138q.384 0 .702.138t.552.372.372.558.162.684m.984 1.728H88.14q-.132.612-.546.912t-1.062.3q-.504 0-.876-.168t-.612-.45-.348-.648-.096-.774h4.644q.024-.564-.102-1.188t-.456-1.152-.876-.87-1.374-.342q-.636 0-1.17.24t-.924.672-.606 1.02-.216 1.296q.024.708.21 1.308t.558 1.032.918.672 1.29.24q1.056 0 1.752-.528t.9-1.572m1.188-6.6v8.568h1.02v-.828h.024q.168.276.414.462t.522.294.558.156.51.048q.708 0 1.242-.252t.888-.69.528-1.026.174-1.248-.18-1.248-.534-1.038-.888-.714-1.254-.264q-.648 0-1.188.234t-.792.75h-.024v-3.204zm4.8 5.412q0 .456-.096.888t-.312.768-.57.54-.882.204-.9-.198-.606-.522-.342-.75-.108-.882q0-.432.102-.852t.33-.75.588-.534.876-.204q.492 0 .858.192t.6.516.348.738.114.846"/></g><clipPath id="movies-month__c"><path d="M0 271.6h500V300H0z"/></clipPath><g clip-path="url(#movies-month__c)"><path fill="#111112" d="M116.326 286.074v8.568h1.08v-7.128h.024l2.676 7.128h.972l2.676-7.128h.024v7.128h1.08v-8.568h-1.56l-2.712 7.2-2.7-7.2zm15.756 8.544q-.264.156-.732.156-.396 0-.63-.222t-.234-.726q-.42.504-.978.726t-1.206.222q-.42 0-.798-.096t-.654-.3-.438-.534-.162-.798q0-.528.18-.864t.474-.546.672-.318.774-.18q.42-.084.798-.126t.666-.12.456-.228.168-.438q0-.336-.126-.54t-.324-.312-.444-.144-.486-.036q-.648 0-1.08.246t-.468.93h-1.02q.024-.576.24-.972t.576-.642.822-.354.99-.108q.42 0 .834.06t.75.246.54.522.204.876v3.192q0 .36.042.528t.282.168q.132 0 .312-.06zm-1.656-3.18q-.192.144-.504.21t-.654.108-.69.096-.624.174-.45.342-.174.606q0 .252.102.426t.264.282.378.156.456.048q.504 0 .864-.138t.588-.348.336-.456.108-.462zm2.568-3v6.204h1.02v-2.76q0-.6.12-1.062t.384-.786.696-.492 1.044-.168v-1.08q-.828-.024-1.368.336t-.912 1.116h-.024v-1.308z"/></g><clipPath id="movies-month__d"><path d="M0 271.6h500V300H0z"/></clipPath><g clip-path="url(#movies-month__d)"><path fill="#111112" d="m158.166 291.102 1.452-3.996h.024l1.428 3.996zm.852-5.028-3.336 8.568h1.164l.96-2.58h3.624l.936 2.58h1.26l-3.348-8.568zm5.316 2.364v8.568h1.02v-3.192h.024q.168.276.414.462t.522.294.558.156.51.048q.708 0 1.242-.252t.888-.69.528-1.026.174-1.248-.18-1.248-.534-1.038-.888-.714-1.254-.264q-.648 0-1.188.234t-.792.75h-.024v-.84zm4.8 3.048q0 .456-.096.888t-.312.768-.57.54-.882.204-.9-.198-.606-.522-.342-.75-.108-.882q0-.432.102-.852t.33-.75.588-.534.876-.204q.492 0 .858.192t.6.516.348.738.114.846m2.244-3.048v6.204h1.02v-2.76q0-.6.12-1.062t.384-.786.696-.492 1.044-.168v-1.08q-.828-.024-1.368.336t-.912 1.116h-.024v-1.308z"/></g><clipPath id="movies-month__e"><path d="M0 271.6h500V300H0z"/></clipPath><g clip-path="url(#movies-month__e)"><path fill="#111112" d="M194.098 286.074v8.568h1.08v-7.128h.024l2.676 7.128h.972l2.676-7.128h.024v7.128h1.08v-8.568h-1.56l-2.712 7.2-2.7-7.2zm15.756 8.544q-.264.156-.732.156-.396 0-.63-.222t-.234-.726q-.42.504-.978.726t-1.206.222q-.42 0-.798-.096t-.654-.3-.438-.534-.162-.798q0-.528.18-.864t.474-.546.672-.318.774-.18q.42-.084.798-.126t.666-.12.456-.228.168-.438q0-.336-.126-.54t-.324-.312-.444-.144-.486-.036q-.648 0-1.08.246t-.468.93h-1.02q.024-.576.24-.972t.576-.642.822-.354.99-.108q.42 0 .834.06t.75.246.54.522.204.876v3.192q0 .36.042.528t.282.168q.132 0 .312-.06zm-1.656-3.18q-.192.144-.504.21t-.654.108-.69.096-.624.174-.45.342-.174.606q0 .252.102.426t.264.282.378.156.456.048q.504 0 .864-.138t.588-.348.336-.456.108-.462zm5.04 4.032q-.18.456-.354.768t-.384.51-.468.288-.594.09q-.18 0-.36-.024t-.348-.084v-.936q.132.06.306.102t.294.042q.312 0 .522-.15t.318-.426l.42-1.044-2.46-6.168h1.152l1.812 5.076h.024l1.74-5.076h1.08z"/></g><clipPath id="movies-month__f"><path d="M0 271.6h500V300H0z"/></clipPath><g clip-path="url(#movies-month__f)"><path fill="#111112" d="M239.483 292.506v-6.432h-1.14v6.264q0 .708-.294 1.128t-1.074.42q-.42 0-.69-.126t-.42-.354-.21-.54-.06-.684v-.36h-1.14v.528q0 1.224.648 1.854t1.848.63q.72 0 1.206-.198t.78-.528.42-.75.126-.852m6.84 2.136v-6.204h-1.02v3.504q0 .42-.114.774t-.342.618-.57.408-.81.144q-.588 0-.924-.336t-.336-.912v-4.2h-1.02v4.08q0 .504.102.918t.354.714.66.462 1.02.162q.684 0 1.188-.27t.828-.846h.024v.984zm1.536-6.204v6.204h1.02v-3.504q0-.42.114-.774t.342-.618.57-.408.81-.144q.588 0 .924.336t.336.912v4.2h1.02v-4.08q0-.504-.102-.918t-.354-.714-.66-.468-1.02-.168q-1.38 0-2.016 1.128h-.024v-.984z"/></g><clipPath id="movies-month__g"><path d="M0 271.6h500V300H0z"/></clipPath><g clip-path="url(#movies-month__g)"><path fill="#111112" d="M280.875 292.506v-6.432h-1.14v6.264q0 .708-.294 1.128t-1.074.42q-.42 0-.69-.126t-.42-.354-.21-.54-.06-.684v-.36h-1.14v.528q0 1.224.648 1.854t1.848.63q.72 0 1.206-.198t.78-.528.42-.75.126-.852m6.84 2.136v-6.204h-1.02v3.504q0 .42-.114.774t-.342.618-.57.408-.81.144q-.588 0-.924-.336t-.336-.912v-4.2h-1.02v4.08q0 .504.102.918t.354.714.66.462 1.02.162q.684 0 1.188-.27t.828-.846h.024v.984zm1.596-8.568v8.568h1.02v-8.568z"/></g><clipPath id="movies-month__h"><path d="M0 271.6h500V300H0z"/></clipPath><g clip-path="url(#movies-month__h)"><path fill="#111112" d="m314.497 291.102 1.452-3.996h.024l1.428 3.996zm.852-5.028-3.336 8.568h1.164l.96-2.58h3.624l.936 2.58h1.26l-3.348-8.568zm10.416 8.568v-6.204h-1.02v3.504q0 .42-.114.774t-.342.618-.57.408-.81.144q-.588 0-.924-.336t-.336-.912v-4.2h-1.02v4.08q0 .504.102.918t.354.714.66.462 1.02.162q.684 0 1.188-.27t.828-.846h.024v.984zm6.888-.528v-5.676h-.96v.888h-.012q-.276-.516-.768-.774t-1.08-.258q-.804 0-1.356.306t-.888.78-.48 1.056-.144 1.134q0 .636.174 1.206t.522.996.864.678 1.212.252q.6 0 1.134-.27t.798-.846h.024v.408q0 .516-.102.948t-.33.738-.576.48-.852.174q-.252 0-.528-.054t-.51-.174-.396-.312-.174-.468h-1.02q.024.504.264.852t.606.564.816.312.882.096q1.488 0 2.184-.756t.696-2.28m-2.856-.3q-.504 0-.84-.21t-.54-.552-.288-.762-.084-.84q0-.444.102-.852t.324-.72.57-.498.84-.186q.48 0 .816.192t.546.51.306.714.096.804q0 .432-.102.864t-.318.774-.57.552-.858.21"/></g><clipPath id="movies-month__i"><path d="M0 271.6h500V300H0z"/></clipPath><g clip-path="url(#movies-month__i)"><path fill="#111112" d="M357.365 288.582h1.08q-.024-.708-.27-1.218t-.672-.846-.99-.492-1.224-.156q-.588 0-1.146.15t-.996.456-.702.78-.264 1.122q0 .588.234.978t.624.636.882.396 1.002.264l1.002.222q.492.108.882.282t.624.45.234.72q0 .468-.192.768t-.504.474-.702.246-.774.072q-.48 0-.936-.12t-.798-.372-.552-.642-.21-.93h-1.08q0 .78.282 1.35t.768.936 1.128.546 1.362.18q.588 0 1.182-.138t1.074-.444.786-.792.306-1.17q0-.636-.234-1.056t-.624-.696-.882-.438-1.002-.282-1.002-.222-.882-.258-.624-.402-.234-.642q0-.42.162-.702t.432-.45.618-.24.708-.072q.888 0 1.458.414t.666 1.338m6.96 2.364h-3.564q.024-.36.156-.678t.36-.558.546-.378.714-.138q.384 0 .702.138t.552.372.372.558.162.684m.984 1.728h-1.008q-.132.612-.546.912t-1.062.3q-.504 0-.876-.168t-.612-.45-.348-.648-.096-.774h4.644q.024-.564-.102-1.188t-.456-1.152-.876-.87-1.374-.342q-.636 0-1.17.24t-.924.672-.606 1.02-.216 1.296q.024.708.21 1.308t.558 1.032.918.672 1.29.24q1.056 0 1.752-.528t.9-1.572m1.188-4.236v8.568h1.02v-3.192h.024q.168.276.414.462t.522.294.558.156.51.048q.708 0 1.242-.252t.888-.69.528-1.026.174-1.248-.18-1.248-.534-1.038-.888-.714-1.254-.264q-.648 0-1.188.234t-.792.75h-.024v-.84zm4.8 3.048q0 .456-.096.888t-.312.768-.57.54-.882.204-.9-.198-.606-.522-.342-.75-.108-.882q0-.432.102-.852t.33-.75.588-.534.876-.204q.492 0 .858.192t.6.516.348.738.114.846"/></g><clipPath id="movies-month__j"><path d="M0 271.6h500V300H0z"/></clipPath><g clip-path="url(#movies-month__j)"><path fill="#111112" d="M393.453 290.358q0-.648.168-1.278t.528-1.134.924-.81 1.344-.306 1.344.306.924.81.528 1.134.168 1.278-.168 1.278-.528 1.134-.924.81-1.344.306-1.344-.306-.924-.81-.528-1.134-.168-1.278m-1.14 0q0 .876.258 1.686t.774 1.434 1.284.99 1.788.366 1.788-.366 1.284-.99.774-1.434.258-1.686-.258-1.686-.774-1.434-1.284-.996-1.788-.372-1.788.372-1.284.996-.774 1.434-.258 1.686m13.644.072h1.056q-.06-.552-.288-.954t-.582-.666-.816-.39-.99-.126q-.732 0-1.284.258t-.918.708-.546 1.056-.18 1.302.186 1.278.552 1.002.912.648 1.254.228q1.188 0 1.878-.624t.858-1.776h-1.044q-.096.72-.522 1.116t-1.182.396q-.48 0-.828-.192t-.564-.51-.318-.726-.102-.84q0-.468.096-.906t.318-.774.594-.54.924-.204q.648 0 1.032.324t.504.912m3.648-1.992v-1.86h-1.02v1.86h-1.056v.9h1.056v3.948q0 .432.084.696t.258.408.456.198.678.054h.78v-.9h-.468q-.24 0-.39-.018t-.234-.078-.114-.168-.03-.288v-3.852h1.236v-.9z"/></g><clipPath id="movies-month__k"><path d="M0 271.6h500V300H0z"/></clipPath><g clip-path="url(#movies-month__k)"><path fill="#111112" d="M431.065 286.074v8.568h1.08v-6.876h.024l4.476 6.876h1.248v-8.568h-1.08v6.948h-.024l-4.512-6.948zm9.252 5.472q0-.564.15-1.002t.414-.738.618-.456.75-.156.75.156.618.456.414.738.15 1.002-.15 1.002-.414.732-.618.45-.75.156-.75-.156-.618-.45-.414-.732-.15-1.002m-1.08 0q0 .684.192 1.272t.576 1.026.948.684 1.296.246q.744 0 1.302-.246t.942-.684.576-1.026.192-1.272-.192-1.278-.576-1.032-.942-.69-1.302-.252q-.732 0-1.296.252t-.948.69-.576 1.032-.192 1.278m10.02 3.096 2.268-6.204h-1.068l-1.692 5.172h-.024l-1.74-5.172h-1.14l2.304 6.204z"/></g><clipPath id="movies-month__l"><path d="M0 271.6h500V300H0z"/></clipPath><g clip-path="url(#movies-month__l)"><path fill="#111112" d="M471.714 293.682v-6.648h1.92q.792 0 1.332.222t.882.648.492 1.032.15 1.374q0 .792-.162 1.35t-.414.93-.57.588-.642.33-.612.144-.48.03zm-1.14-7.608v8.568h2.94q1.068 0 1.848-.3t1.284-.87.744-1.404.24-1.914q0-2.064-1.068-3.072t-3.048-1.008zm12.588 4.872h-3.564q.024-.36.156-.678t.36-.558.546-.378.714-.138q.384 0 .702.138t.552.372.372.558.162.684m.984 1.728h-1.008q-.132.612-.546.912t-1.062.3q-.504 0-.876-.168t-.612-.45-.348-.648-.096-.774h4.644q.024-.564-.102-1.188t-.456-1.152-.876-.87-1.374-.342q-.636 0-1.17.24t-.924.672-.606 1.02-.216 1.296q.024.708.21 1.308t.558 1.032.918.672 1.29.24q1.056 0 1.752-.528t.9-1.572m5.364-2.244h1.056q-.06-.552-.288-.954t-.582-.666-.816-.39-.99-.126q-.732 0-1.284.258t-.918.708-.546 1.056-.18 1.302.186 1.278.552 1.002.912.648 1.254.228q1.188 0 1.878-.624t.858-1.776h-1.044q-.096.72-.522 1.116t-1.182.396q-.48 0-.828-.192t-.564-.51-.318-.726-.102-.84q0-.468.096-.906t.318-.774.594-.54.924-.204q.648 0 1.032.324t.504.912"/></g><path fill="none" stroke="#000" stroke-miterlimit="10" stroke-opacity=".102" d="M27.5 34v238"/><clipPath id="movies-month__m"><path d="M0 0h27.34v300H0z"/></clipPath><g clip-path="url(#movies-month__m)"><path fill="#111112" d="M11.252 272.254q0-.312.006-.69t.06-.756.156-.738.3-.63.498-.438.732-.168.732.168.498.438.3.63.156.738.06.756.006.69q0 .48-.03 1.074t-.192 1.116-.522.882-1.008.36-1.008-.36-.522-.882-.192-1.116-.03-1.074m-1.08.012q0 .468.024.972t.12.984.276.906.492.75.786.51 1.134.186q.672 0 1.14-.186t.78-.51.492-.75.276-.906.12-.984.024-.972-.024-.972-.12-.984-.276-.912-.492-.756-.786-.516-1.134-.192-1.134.192-.786.516-.492.756-.276.912-.12.984-.024.972"/></g><clipPath id="movies-month__n"><path d="M0 0h27.34v300H0z"/></clipPath><g clip-path="url(#movies-month__n)"><path fill="#111112" d="M13.94 252.722v-8.508h-.78q-.084.48-.312.792t-.558.492-.738.246-.84.066v.816h2.208v6.096z"/></g><clipPath id="movies-month__o"><path d="M0 0h27.34v300H0z"/></clipPath><g clip-path="url(#movies-month__o)"><path fill="#111112" d="M10.196 223.506h1.02q-.012-.384.078-.762t.294-.678.522-.486.762-.186q.336 0 .636.108t.522.312.354.486.132.63q0 .444-.138.78t-.408.624-.678.57-.948.618q-.444.264-.852.564t-.732.696-.534.93-.27 1.29h5.556v-.9h-4.368q.072-.396.306-.702t.564-.57.726-.498.792-.474q.396-.252.768-.528t.66-.618.462-.774.174-.996q0-.6-.21-1.056t-.57-.762-.846-.468-1.038-.162q-.672 0-1.2.228t-.882.63-.522.954-.132 1.2"/></g><clipPath id="movies-month__p"><path d="M0 0h27.34v300H0z"/></clipPath><g clip-path="url(#movies-month__p)"><path fill="#111112" d="M12.284 200.422v.864q.288-.036.612-.036.384 0 .714.102t.57.312.384.516.144.702q0 .384-.15.69t-.402.516-.588.324-.708.114q-.876 0-1.332-.522t-.48-1.35h-1.02q-.012.66.186 1.176t.57.87.9.534 1.176.18q.6 0 1.134-.162t.93-.486.63-.81.234-1.122q0-.768-.378-1.332t-1.158-.732v-.024q.504-.228.84-.672t.336-1.02q0-.588-.198-1.02t-.546-.708-.822-.414-1.026-.138q-.636 0-1.122.204t-.81.564-.498.864-.198 1.116h1.02q0-.372.096-.708t.294-.588.504-.402.714-.15q.648 0 1.08.342t.432 1.026q0 .336-.132.6t-.354.438-.516.264-.618.09h-.336q-.048 0-.108-.012"/></g><clipPath id="movies-month__q"><path d="M0 0h27.34v300H0z"/></clipPath><g clip-path="url(#movies-month__q)"><path fill="#111112" d="M13.736 178.67H10.88l2.832-4.164h.024zm.96 0v-5.616h-.816l-3.876 5.532v.984h3.732v1.992h.96v-1.992h1.152v-.9z"/></g><clipPath id="movies-month__r"><path d="M0 0h27.34v300H0z"/></clipPath><g clip-path="url(#movies-month__r)"><path fill="#111112" d="M15.308 150.378v-.9h-4.2l-.792 4.416.876.048q.3-.36.69-.582t.894-.222q.432 0 .786.144t.606.402.39.612.138.774q0 .504-.144.882t-.39.63-.576.378-.69.126q-.384 0-.702-.114t-.552-.324-.372-.492-.162-.606h-1.02q.012.576.228 1.032t.588.762.858.468 1.038.162q.744 0 1.302-.234t.93-.63.558-.906.186-1.05q0-.732-.216-1.278t-.588-.912-.876-.546-1.068-.18q-.432 0-.87.15t-.714.462l-.024-.024.456-2.448z"/></g><clipPath id="movies-month__s"><path d="M0 0h27.34v300H0z"/></clipPath><g clip-path="url(#movies-month__s)"><path fill="#111112" d="M14.636 127.786h1.02q-.096-1.056-.72-1.614t-1.68-.558q-.912 0-1.512.384t-.96 1.02-.51 1.458-.15 1.698q0 .672.102 1.392t.414 1.32.888.984 1.524.384q.804 0 1.35-.27t.876-.684.474-.918.144-.972q0-.588-.18-1.092t-.51-.876-.816-.582-1.098-.21q-.696 0-1.23.264t-.894.852l-.024-.024q.012-.492.096-1.056t.306-1.05.618-.804 1.044-.318q.612 0 .984.348t.444.924M13.1 129.55q.432 0 .756.156t.54.414.318.612.102.75q0 .372-.114.714t-.33.606-.534.414-.738.15-.75-.15-.552-.402-.342-.6-.12-.744.114-.75.342-.612.552-.408.756-.15"/></g><clipPath id="movies-month__t"><path d="M0 0h27.34v300H0z"/></clipPath><g clip-path="url(#movies-month__t)"><path fill="#111112" d="M15.776 102.914v-.876h-5.508v.96h4.464q-.672.708-1.254 1.548t-1.026 1.782-.726 1.968-.354 2.106h1.14q.06-.996.336-2.052t.714-2.052 1.002-1.872 1.212-1.512"/></g><clipPath id="movies-month__u"><path d="M0 0h27.34v300H0z"/></clipPath><g clip-path="url(#movies-month__u)"><path fill="#111112" d="M11.528 80.382q0-.324.12-.564t.318-.408.474-.252.576-.084q.624 0 1.026.33t.402.978-.396 1.008-1.008.36q-.312 0-.588-.084t-.48-.252-.324-.426-.12-.606m-1.08-.036q0 .576.324 1.062t.864.702q-.72.252-1.104.81t-.384 1.314q0 .648.222 1.134t.612.81.918.48 1.14.156q.588 0 1.104-.168t.894-.498.6-.81.222-1.104q0-.792-.372-1.338t-1.14-.786q.54-.24.858-.714t.318-1.05q0-.408-.144-.798t-.45-.696-.798-.492-1.188-.186q-.492 0-.942.144t-.798.42-.552.678-.204.93m.78 3.936q0-.372.138-.672t.384-.516.576-.33.702-.114q.36 0 .678.126t.558.342.378.51.138.642q0 .36-.126.66t-.36.522-.552.348-.702.126q-.792 0-1.302-.438t-.51-1.206"/></g><clipPath id="movies-month__v"><path d="M0 0h27.34v300H0z"/></clipPath><g clip-path="url(#movies-month__v)"><path fill="#111112" d="M11.276 60.91h-1.02q.096 1.104.804 1.644t1.776.54q1.548 0 2.25-1.182t.702-3.39q0-1.212-.234-1.998t-.63-1.242T14 54.64t-1.128-.186q-.612 0-1.128.204t-.888.57-.576.876-.204 1.122q0 .624.174 1.152t.516.9.846.582 1.152.21q.624 0 1.152-.318t.816-.858l.024.024q-.048 1.668-.516 2.478t-1.404.81q-.612 0-1.056-.336t-.504-.96m3.3-3.612q0 .372-.12.714t-.348.6-.552.408-.72.15q-.372 0-.678-.15t-.528-.402-.348-.576-.126-.672q0-.396.09-.756t.288-.642.516-.45.774-.168q.432 0 .756.156t.546.426.336.618.114.744"/></g><clipPath id="movies-month__w"><path d="M0 0h27.34v300H0z"/></clipPath><g clip-path="url(#movies-month__w)"><path fill="#111112" d="M7.268 39.242v-8.508h-.78q-.084.48-.312.792t-.558.492-.738.246-.84.066v.816h2.208v6.096zm3.984-4.188q0-.312.006-.69t.06-.756.156-.738.3-.63.498-.438.732-.168.732.168.498.438.3.63.156.738.06.756.006.69q0 .48-.03 1.074t-.192 1.116-.522.882-1.008.36-1.008-.36-.522-.882-.192-1.116-.03-1.074m-1.08.012q0 .468.024.972t.12.984.276.906.492.75.786.51 1.134.186q.672 0 1.14-.186t.78-.51.492-.75.276-.906.12-.984.024-.972-.024-.972-.12-.984-.276-.912-.492-.756-.786-.516-1.134-.192-1.134.192-.786.516-.492.756-.276.912-.12.984-.024.972"/></g><clipPath id="movies-month__x"><path d="M27.34 34.4H500v237.2H27.34z"/></clipPath><g clip-path="url(#movies-month__x)"><path fill="#000001" d="M32.854 34.4h28.36v236.7h-28.36z"/></g><clipPath id="movies-month__y"><path d="M27.34 34.4H500v237.2H27.34z"/></clipPath><g clip-path="url(#movies-month__y)"><path fill="#000001" d="M72.243 200.44h28.36v70.66h-28.36z"/></g><clipPath id="movies-month__z"><path d="M27.34 34.4H500v237.2H27.34z"/></clipPath><g clip-path="url(#movies-month__z)"><path fill="#000001" d="M111.631 200.44h28.36v70.66h-28.36z"/></g><clipPath id="movies-month__A"><path d="M27.34 34.4H500v237.2H27.34z"/></clipPath><g clip-path="url(#movies-month__A)"><path fill="#000001" d="M151.02 224.16h28.359v46.94h-28.36z"/></g><clipPath id="movies-month__B"><path d="M27.34 34.4H500v237.2H27.34z"/></clipPath><g clip-path="url(#movies-month__B)"><path fill="#000001" d="M190.408 153h28.36v118.1h-28.36z"/></g><clipPath id="movies-month__C"><path d="M27.34 34.4H500v237.2H27.34z"/></clipPath><g clip-path="url(#movies-month__C)"><path fill="#000001" d="M229.796 247.88h28.36v23.22h-28.36z"/></g><clipPath id="movies-month__D"><path d="M27.34 34.4H500v237.2H27.34z"/></clipPath><g clip-path="url(#movies-month__D)"><path fill="#000001" d="M269.184 200.44h28.36v70.66h-28.36z"/></g><clipPath id="movies-month__E"><path d="M27.34 34.4H500v237.2H27.34z"/></clipPath><g clip-path="url(#movies-month__E)"><path fill="#000001" d="M308.573 224.16h28.36v46.94h-28.36z"/></g><clipPath id="movies-month__F"><path d="M27.34 34.4H500v237.2H27.34z"/></clipPath><g clip-path="url(#movies-month__F)"><path fill="#000001" d="M347.961 247.88h28.36v23.22h-28.36z"/></g><clipPath id="movies-month__G"><path d="M27.34 34.4H500v237.2H27.34z"/></clipPath><g clip-path="url(#movies-month__G)"><path fill="#000001" d="M387.35 153h28.359v118.1h-28.36z"/></g><clipPath id="movies-month__H"><path d="M27.34 34.4H500v237.2H27.34z"/></clipPath><g clip-path="url(#movies-month__H)"><path fill="#000001" d="M426.738 247.88h28.36v23.22h-28.36z"/></g><clipPath id="movies-month__I"><path d="M27.34 34.4H500v237.2H27.34z"/></clipPath><g clip-path="url(#movies-month__I)"><path fill="#000001" d="M466.126 58.12h28.36V271.1h-28.36z"/></g></svg>